G04*
G04 #@! TF.GenerationSoftware,Altium Limited,Altium Designer,23.10.1 (27)*
G04*
G04 Layer_Color=16711935*
%FSLAX25Y25*%
%MOIN*%
G70*
G04*
G04 #@! TF.SameCoordinates,35A5512B-BB22-45A0-ACD4-C44AAE3452D1*
G04*
G04*
G04 #@! TF.FilePolarity,Negative*
G04*
G01*
G75*
%ADD47C,0.05900*%
%ADD48R,0.05900X0.05900*%
%ADD49R,0.10800X0.08800*%
%ADD50O,0.10800X0.08800*%
%ADD51R,0.07099X0.07099*%
%ADD52C,0.07099*%
%ADD53R,0.16800X0.10800*%
%ADD54R,0.10800X0.16800*%
%ADD55C,0.06706*%
%ADD56C,0.08300*%
%ADD57C,0.09068*%
%ADD58R,0.09068X0.09068*%
%ADD59R,0.08800X0.08800*%
%ADD60C,0.08800*%
%ADD61C,0.03800*%
%ADD62C,0.05800*%
%ADD63C,0.02800*%
D47*
X193500Y121000D02*
D03*
X183500D02*
D03*
X173500D02*
D03*
X163500D02*
D03*
X153500D02*
D03*
X143500D02*
D03*
X133500D02*
D03*
X123500D02*
D03*
X113500D02*
D03*
X103500D02*
D03*
Y151000D02*
D03*
X113500D02*
D03*
X123500D02*
D03*
X133500D02*
D03*
X143500D02*
D03*
X153500D02*
D03*
X163500D02*
D03*
X173500D02*
D03*
X183500D02*
D03*
D48*
X193500D02*
D03*
D49*
X153500Y87000D02*
D03*
X188000D02*
D03*
X221500D02*
D03*
D50*
X153500Y77000D02*
D03*
Y67000D02*
D03*
X188000Y77000D02*
D03*
Y67000D02*
D03*
X221500Y77000D02*
D03*
Y67000D02*
D03*
D51*
X15000Y95500D02*
D03*
Y53000D02*
D03*
Y11000D02*
D03*
X63100Y229100D02*
D03*
X21500Y176500D02*
D03*
X40500Y22500D02*
D03*
D52*
X15000Y105500D02*
D03*
Y73000D02*
D03*
Y63000D02*
D03*
Y31000D02*
D03*
Y21000D02*
D03*
X63100Y219100D02*
D03*
X21500Y126500D02*
D03*
Y136500D02*
D03*
Y146500D02*
D03*
Y156500D02*
D03*
Y166500D02*
D03*
X40500Y42500D02*
D03*
Y32500D02*
D03*
Y52500D02*
D03*
Y62500D02*
D03*
Y72500D02*
D03*
D53*
X27228Y211000D02*
D03*
D54*
X12228Y231000D02*
D03*
X37228D02*
D03*
D55*
X233000Y132500D02*
D03*
Y142500D02*
D03*
D56*
X215500Y146500D02*
D03*
Y126500D02*
D03*
D57*
X159500Y212000D02*
D03*
D58*
Y232000D02*
D03*
D59*
X145500Y187000D02*
D03*
D60*
X175500D02*
D03*
D61*
X95500Y146500D02*
D03*
X107000Y166500D02*
D03*
X127000Y94500D02*
D03*
X58500Y122000D02*
D03*
Y106500D02*
D03*
X54000Y82500D02*
D03*
X97000Y116500D02*
D03*
X106000Y67500D02*
D03*
X107000Y94500D02*
D03*
X96000Y39000D02*
D03*
X241000Y175500D02*
D03*
X261500Y153000D02*
D03*
X83000Y153500D02*
D03*
X69000Y142500D02*
D03*
X102500Y208000D02*
D03*
X82000Y199000D02*
D03*
X77000Y166500D02*
D03*
X60000Y176000D02*
D03*
X41500Y155500D02*
D03*
X99000Y182500D02*
D03*
D62*
X168500Y74500D02*
D03*
X266000Y203000D02*
D03*
X280000Y120500D02*
D03*
D63*
X72500Y102000D02*
D03*
X68500Y85000D02*
D03*
X78000Y88500D02*
D03*
X61500Y117500D02*
D03*
X81122Y83120D02*
D03*
X86500Y114000D02*
D03*
X106500Y131500D02*
D03*
Y127000D02*
D03*
Y135500D02*
D03*
X82500Y142500D02*
D03*
M02*
