G04*
G04 #@! TF.GenerationSoftware,Altium Limited,Altium Designer,23.10.1 (27)*
G04*
G04 Layer_Color=8421504*
%FSLAX25Y25*%
%MOIN*%
G70*
G04*
G04 #@! TF.SameCoordinates,35A5512B-BB22-45A0-ACD4-C44AAE3452D1*
G04*
G04*
G04 #@! TF.FilePolarity,Positive*
G04*
G01*
G75*
%ADD22R,0.06693X0.06693*%
%ADD23R,0.04724X0.05512*%
%ADD24R,0.05512X0.04724*%
%ADD25R,0.06693X0.06693*%
%ADD26R,0.04572X0.01066*%
%ADD27R,0.11811X0.10000*%
%ADD28R,0.02756X0.10000*%
%ADD29R,0.31995X0.26720*%
%ADD30R,0.03413X0.07704*%
%ADD31R,0.03937X0.02362*%
%ADD32O,0.02362X0.07480*%
%ADD33R,0.05500X0.05000*%
%ADD34R,0.39370X0.23622*%
G36*
X90246Y245374D02*
X85140D01*
Y238654D01*
X90246D01*
Y245374D01*
D02*
G37*
G36*
X126860D02*
X122148D01*
Y238654D01*
X126860D01*
Y245374D01*
D02*
G37*
D22*
X58496Y133000D02*
D03*
X45504D02*
D03*
Y142500D02*
D03*
X58496D02*
D03*
D23*
X54777Y42761D02*
D03*
X62257D02*
D03*
X54777Y62261D02*
D03*
X62257D02*
D03*
X54777Y22761D02*
D03*
X62257D02*
D03*
X92223Y175239D02*
D03*
X84742D02*
D03*
X107723D02*
D03*
X100242D02*
D03*
D24*
X153761Y112223D02*
D03*
Y104743D02*
D03*
X143261Y112223D02*
D03*
Y104743D02*
D03*
X133261Y112223D02*
D03*
Y104743D02*
D03*
X208739Y64277D02*
D03*
Y71758D02*
D03*
X140739Y63277D02*
D03*
Y70758D02*
D03*
Y78777D02*
D03*
Y86257D02*
D03*
X175239Y78777D02*
D03*
Y86257D02*
D03*
Y63277D02*
D03*
Y70758D02*
D03*
X123739Y78777D02*
D03*
Y86257D02*
D03*
X114739Y78777D02*
D03*
Y86257D02*
D03*
X105739Y78777D02*
D03*
Y86257D02*
D03*
X132239Y78777D02*
D03*
Y86257D02*
D03*
X208739Y79277D02*
D03*
Y86757D02*
D03*
X96261Y86223D02*
D03*
Y78742D02*
D03*
X86761Y86223D02*
D03*
Y78742D02*
D03*
X77739Y93777D02*
D03*
Y101258D02*
D03*
X259987Y130142D02*
D03*
Y137623D02*
D03*
X242239Y130167D02*
D03*
Y137647D02*
D03*
X286739Y162777D02*
D03*
Y170257D02*
D03*
X250987Y130142D02*
D03*
Y137623D02*
D03*
D25*
X96500Y94614D02*
D03*
Y107606D02*
D03*
X86642D02*
D03*
Y94614D02*
D03*
X277500Y181496D02*
D03*
Y168504D02*
D03*
X255500Y203004D02*
D03*
Y215996D02*
D03*
X243500D02*
D03*
Y203004D02*
D03*
X268500Y168504D02*
D03*
Y181496D02*
D03*
X270000Y131004D02*
D03*
Y143996D02*
D03*
X280000D02*
D03*
Y131004D02*
D03*
D26*
X66575Y125075D02*
D03*
Y122516D02*
D03*
Y119957D02*
D03*
Y117398D02*
D03*
Y114839D02*
D03*
Y112279D02*
D03*
Y109721D02*
D03*
Y107161D02*
D03*
Y104602D02*
D03*
Y102043D02*
D03*
Y99484D02*
D03*
Y96925D02*
D03*
X38425D02*
D03*
Y99484D02*
D03*
Y102043D02*
D03*
Y104602D02*
D03*
Y107161D02*
D03*
Y109721D02*
D03*
Y112279D02*
D03*
Y114839D02*
D03*
Y117398D02*
D03*
Y119957D02*
D03*
Y122516D02*
D03*
Y125075D02*
D03*
D27*
X250000Y162000D02*
D03*
D28*
X240945Y186000D02*
D03*
X259055D02*
D03*
X250000D02*
D03*
D29*
X106000Y232014D02*
D03*
D30*
X119386Y189986D02*
D03*
X112693D02*
D03*
X106020D02*
D03*
X99307D02*
D03*
X92614D02*
D03*
D31*
X93913Y158760D02*
D03*
Y162500D02*
D03*
Y166240D02*
D03*
X83087D02*
D03*
Y158760D02*
D03*
D32*
X65000Y192701D02*
D03*
X60000D02*
D03*
X55000D02*
D03*
X50000D02*
D03*
X65000Y155299D02*
D03*
X60000D02*
D03*
X55000D02*
D03*
X50000D02*
D03*
D33*
X287000Y177500D02*
D03*
Y186500D02*
D03*
D34*
X212000Y233500D02*
D03*
X211606Y191768D02*
D03*
M02*
