G04*
G04 #@! TF.GenerationSoftware,Altium Limited,Altium Designer,23.10.1 (27)*
G04*
G04 Layer_Color=255*
%FSLAX25Y25*%
%MOIN*%
G70*
G04*
G04 #@! TF.SameCoordinates,35A5512B-BB22-45A0-ACD4-C44AAE3452D1*
G04*
G04*
G04 #@! TF.FilePolarity,Positive*
G04*
G01*
G75*
%ADD47C,0.05900*%
%ADD48R,0.05900X0.05900*%
%ADD70R,0.10000X0.08000*%
%ADD71O,0.10000X0.08000*%
%ADD72R,0.06299X0.06299*%
%ADD73C,0.06299*%
%ADD74R,0.16000X0.10000*%
%ADD75R,0.10000X0.16000*%
%ADD76C,0.05906*%
%ADD77C,0.07500*%
%ADD78C,0.08268*%
%ADD79R,0.08268X0.08268*%
%ADD80R,0.08000X0.08000*%
%ADD81C,0.08000*%
D47*
X193500Y121000D02*
D03*
X183500D02*
D03*
X173500D02*
D03*
X163500D02*
D03*
X153500D02*
D03*
X143500D02*
D03*
X133500D02*
D03*
X123500D02*
D03*
X113500D02*
D03*
X103500D02*
D03*
Y151000D02*
D03*
X113500D02*
D03*
X123500D02*
D03*
X133500D02*
D03*
X143500D02*
D03*
X153500D02*
D03*
X163500D02*
D03*
X173500D02*
D03*
X183500D02*
D03*
D48*
X193500D02*
D03*
D70*
X153500Y87000D02*
D03*
X188000D02*
D03*
X221500D02*
D03*
D71*
X153500Y77000D02*
D03*
Y67000D02*
D03*
X188000Y77000D02*
D03*
Y67000D02*
D03*
X221500Y77000D02*
D03*
Y67000D02*
D03*
D72*
X15000Y95500D02*
D03*
Y53000D02*
D03*
Y11000D02*
D03*
X63100Y229100D02*
D03*
X21500Y176500D02*
D03*
X40500Y22500D02*
D03*
D73*
X15000Y105500D02*
D03*
Y73000D02*
D03*
Y63000D02*
D03*
Y31000D02*
D03*
Y21000D02*
D03*
X63100Y219100D02*
D03*
X21500Y126500D02*
D03*
Y136500D02*
D03*
Y146500D02*
D03*
Y156500D02*
D03*
Y166500D02*
D03*
X40500Y42500D02*
D03*
Y32500D02*
D03*
Y52500D02*
D03*
Y62500D02*
D03*
Y72500D02*
D03*
D74*
X27228Y211000D02*
D03*
D75*
X12228Y231000D02*
D03*
X37228D02*
D03*
D76*
X233000Y132500D02*
D03*
Y142500D02*
D03*
D77*
X215500Y146500D02*
D03*
Y126500D02*
D03*
D78*
X159500Y212000D02*
D03*
D79*
Y232000D02*
D03*
D80*
X145500Y187000D02*
D03*
D81*
X175500D02*
D03*
M02*
