G04*
G04 #@! TF.GenerationSoftware,Altium Limited,Altium Designer,23.10.1 (27)*
G04*
G04 Layer_Color=32768*
%FSLAX25Y25*%
%MOIN*%
G70*
G04*
G04 #@! TF.SameCoordinates,35A5512B-BB22-45A0-ACD4-C44AAE3452D1*
G04*
G04*
G04 #@! TF.FilePolarity,Positive*
G04*
G01*
G75*
%ADD14C,0.00600*%
%ADD17C,0.00394*%
%ADD88C,0.00197*%
G36*
X40476Y95392D02*
X35139D01*
Y126608D01*
X40476D01*
Y128339D01*
X64524D01*
Y126608D01*
X69861D01*
Y95392D01*
X64524D01*
Y93661D01*
X40476D01*
Y95392D01*
D02*
G37*
G36*
X99500Y121000D02*
Y117050D01*
X197500D01*
Y121000D01*
X202500D01*
Y151000D01*
X197500D01*
Y154950D01*
X99500D01*
Y151000D01*
X94500D01*
Y121000D01*
X99500D01*
D02*
G37*
D14*
X94500D02*
Y151000D01*
Y121000D02*
X99500D01*
X197500D02*
X202500D01*
Y151000D01*
X197500D02*
X202500D01*
X94500D02*
X99500D01*
Y154950D01*
Y117050D02*
Y121000D01*
Y117050D02*
X197500D01*
Y121000D01*
Y151000D02*
Y154950D01*
X99500D02*
X197500D01*
X35139Y95392D02*
X40476D01*
Y93661D02*
Y95392D01*
Y93661D02*
X64524D01*
Y95392D01*
X69861D01*
Y126608D01*
X64524D02*
X69861D01*
X64524D02*
Y128339D01*
X40476D02*
X64524D01*
X40476Y126608D02*
Y128339D01*
X35139Y126608D02*
X40476D01*
X35139Y95392D02*
Y126608D01*
D17*
X-19012Y120516D02*
Y182484D01*
X25280Y120516D02*
Y182484D01*
X-19012D02*
X25280D01*
X-19012Y120516D02*
X25280D01*
X86532Y162500D02*
X90469D01*
X88500Y160531D02*
Y164469D01*
X57500Y172031D02*
Y175969D01*
X55532Y174000D02*
X59469D01*
D88*
X96768Y155413D02*
Y169587D01*
X80232Y155413D02*
Y169587D01*
Y155413D02*
X96768D01*
X80232Y169587D02*
X96768D01*
X35846Y197327D02*
X79154D01*
X35846Y150673D02*
X79154D01*
Y197327D01*
X35846Y150673D02*
Y197327D01*
M02*
