G04*
G04 #@! TF.GenerationSoftware,Altium Limited,Altium Designer,23.10.1 (27)*
G04*
G04 Layer_Color=8388736*
%FSLAX25Y25*%
%MOIN*%
G70*
G04*
G04 #@! TF.SameCoordinates,35A5512B-BB22-45A0-ACD4-C44AAE3452D1*
G04*
G04*
G04 #@! TF.FilePolarity,Negative*
G04*
G01*
G75*
%ADD26R,0.04572X0.01066*%
%ADD35R,0.07493X0.07493*%
%ADD36R,0.05524X0.06312*%
%ADD37R,0.06312X0.05524*%
%ADD38R,0.07493X0.07493*%
%ADD39R,0.12611X0.10800*%
%ADD40R,0.03556X0.10800*%
%ADD41R,0.33195X0.27920*%
%ADD42R,0.04613X0.08904*%
%ADD43R,0.04737X0.03162*%
%ADD44O,0.03162X0.08280*%
%ADD45R,0.06300X0.05800*%
%ADD46R,0.40170X0.24422*%
%ADD47C,0.05900*%
%ADD48R,0.05900X0.05900*%
%ADD49R,0.10800X0.08800*%
%ADD50O,0.10800X0.08800*%
%ADD51R,0.07099X0.07099*%
%ADD52C,0.07099*%
%ADD53R,0.16800X0.10800*%
%ADD54R,0.10800X0.16800*%
%ADD55C,0.06706*%
%ADD56C,0.08300*%
%ADD57C,0.09068*%
%ADD58R,0.09068X0.09068*%
%ADD59R,0.08800X0.08800*%
%ADD60C,0.08800*%
%ADD61C,0.03800*%
%ADD62C,0.05800*%
%ADD63C,0.02800*%
G36*
X90846Y245974D02*
X84540D01*
Y238054D01*
X90846D01*
Y245974D01*
D02*
G37*
G36*
X127460D02*
X121548D01*
Y238054D01*
X127460D01*
Y245974D01*
D02*
G37*
D26*
X66575Y125075D02*
D03*
Y122516D02*
D03*
Y119957D02*
D03*
Y117398D02*
D03*
Y114839D02*
D03*
Y112279D02*
D03*
Y109721D02*
D03*
Y107161D02*
D03*
Y104602D02*
D03*
Y102043D02*
D03*
Y99484D02*
D03*
Y96925D02*
D03*
X38425D02*
D03*
Y99484D02*
D03*
Y102043D02*
D03*
Y104602D02*
D03*
Y107161D02*
D03*
Y109721D02*
D03*
Y112279D02*
D03*
Y114839D02*
D03*
Y117398D02*
D03*
Y119957D02*
D03*
Y122516D02*
D03*
Y125075D02*
D03*
D35*
X58496Y133000D02*
D03*
X45504D02*
D03*
Y142500D02*
D03*
X58496D02*
D03*
D36*
X54777Y42761D02*
D03*
X62257D02*
D03*
X54777Y62261D02*
D03*
X62257D02*
D03*
X54777Y22761D02*
D03*
X62257D02*
D03*
X92223Y175239D02*
D03*
X84742D02*
D03*
X107723D02*
D03*
X100242D02*
D03*
D37*
X153761Y112223D02*
D03*
Y104743D02*
D03*
X143261Y112223D02*
D03*
Y104743D02*
D03*
X133261Y112223D02*
D03*
Y104743D02*
D03*
X208739Y64277D02*
D03*
Y71758D02*
D03*
X140739Y63277D02*
D03*
Y70758D02*
D03*
Y78777D02*
D03*
Y86257D02*
D03*
X175239Y78777D02*
D03*
Y86257D02*
D03*
Y63277D02*
D03*
Y70758D02*
D03*
X123739Y78777D02*
D03*
Y86257D02*
D03*
X114739Y78777D02*
D03*
Y86257D02*
D03*
X105739Y78777D02*
D03*
Y86257D02*
D03*
X132239Y78777D02*
D03*
Y86257D02*
D03*
X208739Y79277D02*
D03*
Y86757D02*
D03*
X96261Y86223D02*
D03*
Y78742D02*
D03*
X86761Y86223D02*
D03*
Y78742D02*
D03*
X77739Y93777D02*
D03*
Y101258D02*
D03*
X259987Y130142D02*
D03*
Y137623D02*
D03*
X242239Y130167D02*
D03*
Y137647D02*
D03*
X286739Y162777D02*
D03*
Y170257D02*
D03*
X250987Y130142D02*
D03*
Y137623D02*
D03*
D38*
X96500Y94614D02*
D03*
Y107606D02*
D03*
X86642D02*
D03*
Y94614D02*
D03*
X277500Y181496D02*
D03*
Y168504D02*
D03*
X255500Y203004D02*
D03*
Y215996D02*
D03*
X243500D02*
D03*
Y203004D02*
D03*
X268500Y168504D02*
D03*
Y181496D02*
D03*
X270000Y131004D02*
D03*
Y143996D02*
D03*
X280000D02*
D03*
Y131004D02*
D03*
D39*
X250000Y162000D02*
D03*
D40*
X240945Y186000D02*
D03*
X259055D02*
D03*
X250000D02*
D03*
D41*
X106000Y232014D02*
D03*
D42*
X119386Y189986D02*
D03*
X112693D02*
D03*
X106020D02*
D03*
X99307D02*
D03*
X92614D02*
D03*
D43*
X93913Y158760D02*
D03*
Y162500D02*
D03*
Y166240D02*
D03*
X83087D02*
D03*
Y158760D02*
D03*
D44*
X65000Y192701D02*
D03*
X60000D02*
D03*
X55000D02*
D03*
X50000D02*
D03*
X65000Y155299D02*
D03*
X60000D02*
D03*
X55000D02*
D03*
X50000D02*
D03*
D45*
X287000Y177500D02*
D03*
Y186500D02*
D03*
D46*
X212000Y233500D02*
D03*
X211606Y191768D02*
D03*
D47*
X193500Y121000D02*
D03*
X183500D02*
D03*
X173500D02*
D03*
X163500D02*
D03*
X153500D02*
D03*
X143500D02*
D03*
X133500D02*
D03*
X123500D02*
D03*
X113500D02*
D03*
X103500D02*
D03*
Y151000D02*
D03*
X113500D02*
D03*
X123500D02*
D03*
X133500D02*
D03*
X143500D02*
D03*
X153500D02*
D03*
X163500D02*
D03*
X173500D02*
D03*
X183500D02*
D03*
D48*
X193500D02*
D03*
D49*
X153500Y87000D02*
D03*
X188000D02*
D03*
X221500D02*
D03*
D50*
X153500Y77000D02*
D03*
Y67000D02*
D03*
X188000Y77000D02*
D03*
Y67000D02*
D03*
X221500Y77000D02*
D03*
Y67000D02*
D03*
D51*
X15000Y95500D02*
D03*
Y53000D02*
D03*
Y11000D02*
D03*
X63100Y229100D02*
D03*
X21500Y176500D02*
D03*
X40500Y22500D02*
D03*
D52*
X15000Y105500D02*
D03*
Y73000D02*
D03*
Y63000D02*
D03*
Y31000D02*
D03*
Y21000D02*
D03*
X63100Y219100D02*
D03*
X21500Y126500D02*
D03*
Y136500D02*
D03*
Y146500D02*
D03*
Y156500D02*
D03*
Y166500D02*
D03*
X40500Y42500D02*
D03*
Y32500D02*
D03*
Y52500D02*
D03*
Y62500D02*
D03*
Y72500D02*
D03*
D53*
X27228Y211000D02*
D03*
D54*
X12228Y231000D02*
D03*
X37228D02*
D03*
D55*
X233000Y132500D02*
D03*
Y142500D02*
D03*
D56*
X215500Y146500D02*
D03*
Y126500D02*
D03*
D57*
X159500Y212000D02*
D03*
D58*
Y232000D02*
D03*
D59*
X145500Y187000D02*
D03*
D60*
X175500D02*
D03*
D61*
X95500Y146500D02*
D03*
X107000Y166500D02*
D03*
X127000Y94500D02*
D03*
X58500Y122000D02*
D03*
Y106500D02*
D03*
X54000Y82500D02*
D03*
X97000Y116500D02*
D03*
X106000Y67500D02*
D03*
X107000Y94500D02*
D03*
X96000Y39000D02*
D03*
X241000Y175500D02*
D03*
X261500Y153000D02*
D03*
X83000Y153500D02*
D03*
X69000Y142500D02*
D03*
X102500Y208000D02*
D03*
X82000Y199000D02*
D03*
X77000Y166500D02*
D03*
X60000Y176000D02*
D03*
X41500Y155500D02*
D03*
X99000Y182500D02*
D03*
D62*
X168500Y74500D02*
D03*
X266000Y203000D02*
D03*
X280000Y120500D02*
D03*
D63*
X72500Y102000D02*
D03*
X68500Y85000D02*
D03*
X78000Y88500D02*
D03*
X61500Y117500D02*
D03*
X81122Y83120D02*
D03*
X86500Y114000D02*
D03*
X106500Y131500D02*
D03*
Y127000D02*
D03*
Y135500D02*
D03*
X82500Y142500D02*
D03*
M02*
