G04*
G04 #@! TF.GenerationSoftware,Altium Limited,Altium Designer,23.10.1 (27)*
G04*
G04 Layer_Physical_Order=1*
G04 Layer_Color=255*
%FSLAX25Y25*%
%MOIN*%
G70*
G04*
G04 #@! TF.SameCoordinates,35A5512B-BB22-45A0-ACD4-C44AAE3452D1*
G04*
G04*
G04 #@! TF.FilePolarity,Positive*
G04*
G01*
G75*
%ADD10C,0.01000*%
%ADD22R,0.06693X0.06693*%
%ADD23R,0.04724X0.05512*%
%ADD24R,0.05512X0.04724*%
%ADD25R,0.06693X0.06693*%
%ADD26R,0.04572X0.01066*%
%ADD27R,0.11811X0.10000*%
%ADD28R,0.02756X0.10000*%
%ADD31R,0.03937X0.02362*%
%ADD32O,0.02362X0.07480*%
%ADD33R,0.05500X0.05000*%
%ADD34R,0.39370X0.23622*%
%ADD47C,0.05900*%
%ADD48R,0.05900X0.05900*%
%ADD64R,0.32795X0.27520*%
%ADD65R,0.04213X0.08504*%
%ADD66C,0.02000*%
%ADD67C,0.01500*%
%ADD68C,0.04000*%
%ADD69C,0.03000*%
%ADD70R,0.10000X0.08000*%
%ADD71O,0.10000X0.08000*%
%ADD72R,0.06299X0.06299*%
%ADD73C,0.06299*%
%ADD74R,0.16000X0.10000*%
%ADD75R,0.10000X0.16000*%
%ADD76C,0.05906*%
%ADD77C,0.07500*%
%ADD78C,0.08268*%
%ADD79R,0.08268X0.08268*%
%ADD80R,0.08000X0.08000*%
%ADD81C,0.08000*%
%ADD82C,0.03000*%
%ADD83C,0.05000*%
%ADD84C,0.02000*%
G36*
X127260Y238254D02*
X121748D01*
Y245774D01*
X127260D01*
Y238254D01*
D02*
G37*
G36*
X90646D02*
X84740D01*
Y245774D01*
X90646D01*
Y238254D01*
D02*
G37*
G36*
X192339Y229000D02*
X192309Y229285D01*
X192218Y229540D01*
X192068Y229765D01*
X191857Y229960D01*
X191586Y230125D01*
X191255Y230260D01*
X190863Y230365D01*
X190411Y230440D01*
X189899Y230485D01*
X189327Y230500D01*
Y233500D01*
X189899Y233515D01*
X190411Y233560D01*
X190863Y233635D01*
X191255Y233740D01*
X191586Y233875D01*
X191857Y234040D01*
X192068Y234235D01*
X192218Y234460D01*
X192309Y234715D01*
X192339Y235000D01*
Y229000D01*
D02*
G37*
G36*
X163640Y234715D02*
X163730Y234460D01*
X163881Y234235D01*
X164092Y234040D01*
X164363Y233875D01*
X164694Y233740D01*
X165086Y233635D01*
X165538Y233560D01*
X166050Y233515D01*
X166622Y233500D01*
Y230500D01*
X166050Y230485D01*
X165538Y230440D01*
X165086Y230365D01*
X164694Y230260D01*
X164363Y230125D01*
X164092Y229960D01*
X163881Y229765D01*
X163730Y229540D01*
X163640Y229285D01*
X163610Y229000D01*
Y235000D01*
X163640Y234715D01*
D02*
G37*
G36*
X155378Y227878D02*
X155348Y228104D01*
X155258Y228306D01*
X155108Y228485D01*
X154898Y228639D01*
X154628Y228770D01*
X154298Y228877D01*
X153908Y228960D01*
X153458Y229020D01*
X152948Y229056D01*
X152378Y229067D01*
Y232067D01*
X152950Y232082D01*
X153461Y232127D01*
X153913Y232202D01*
X154304Y232307D01*
X154636Y232442D01*
X154907Y232607D01*
X155118Y232802D01*
X155269Y233027D01*
X155359Y233282D01*
X155390Y233567D01*
X155378Y227878D01*
D02*
G37*
G36*
X56722Y232992D02*
X58522Y232878D01*
X58962Y232809D01*
X59322Y232726D01*
X59602Y232626D01*
X59802Y232512D01*
X59922Y232382D01*
X59962Y232238D01*
X59974Y227000D01*
X59934Y227380D01*
X59812Y227720D01*
X59611Y228020D01*
X59330Y228280D01*
X58969Y228500D01*
X58528Y228680D01*
X58007Y228820D01*
X57405Y228920D01*
X56724Y228980D01*
X55962Y229000D01*
Y233000D01*
X56722Y232992D01*
D02*
G37*
G36*
X42244Y234620D02*
X42364Y234280D01*
X42565Y233980D01*
X42846Y233720D01*
X43207Y233500D01*
X43648Y233320D01*
X44170Y233180D01*
X44772Y233080D01*
X45454Y233020D01*
X46216Y233000D01*
Y229000D01*
X45454Y228980D01*
X44772Y228920D01*
X44170Y228820D01*
X43648Y228680D01*
X43207Y228500D01*
X42846Y228280D01*
X42565Y228020D01*
X42364Y227720D01*
X42244Y227380D01*
X42204Y227000D01*
Y235000D01*
X42244Y234620D01*
D02*
G37*
G36*
X66011Y231308D02*
X65898Y230940D01*
Y230516D01*
X66011Y230035D01*
X66238Y229498D01*
X66577Y228904D01*
X67030Y228253D01*
X67595Y227546D01*
X69066Y225962D01*
X66238Y223134D01*
X65417Y223926D01*
X63947Y225170D01*
X63296Y225623D01*
X62702Y225962D01*
X62165Y226189D01*
X61684Y226302D01*
X61260D01*
X60892Y226189D01*
X60581Y225962D01*
X66238Y231619D01*
X66011Y231308D01*
D02*
G37*
G36*
X231692Y225404D02*
X231783Y225149D01*
X231934Y224924D01*
X232145Y224729D01*
X232416Y224564D01*
X232748Y224429D01*
X233139Y224324D01*
X233590Y224249D01*
X234102Y224204D01*
X234673Y224189D01*
Y221189D01*
X231673Y221701D01*
X231661Y225689D01*
X231692Y225404D01*
D02*
G37*
G36*
X252166Y212996D02*
X252136Y213281D01*
X252046Y213536D01*
X251896Y213761D01*
X251686Y213956D01*
X251415Y214121D01*
X251086Y214256D01*
X250696Y214361D01*
X250246Y214436D01*
X249736Y214481D01*
X249499Y214487D01*
X249262Y214481D01*
X248750Y214436D01*
X248298Y214361D01*
X247907Y214256D01*
X247575Y214121D01*
X247304Y213956D01*
X247094Y213761D01*
X246943Y213536D01*
X246853Y213281D01*
X246822Y212996D01*
Y218996D01*
X246853Y218711D01*
X246943Y218456D01*
X247094Y218231D01*
X247304Y218036D01*
X247575Y217871D01*
X247907Y217736D01*
X248298Y217631D01*
X248750Y217556D01*
X249262Y217511D01*
X249499Y217505D01*
X249736Y217511D01*
X250246Y217556D01*
X250696Y217631D01*
X251086Y217736D01*
X251415Y217871D01*
X251686Y218036D01*
X251896Y218231D01*
X252046Y218456D01*
X252136Y218711D01*
X252166Y218996D01*
Y212996D01*
D02*
G37*
G36*
X240781Y220858D02*
X241884Y219924D01*
X242372Y219585D01*
X242817Y219331D01*
X243220Y219161D01*
X243581Y219076D01*
X243899D01*
X244175Y219161D01*
X244408Y219331D01*
X241074Y215996D01*
X244408Y212662D01*
X244175Y212831D01*
X243899Y212916D01*
X243581D01*
X243220Y212831D01*
X242817Y212662D01*
X242372Y212407D01*
X241884Y212068D01*
X241354Y211643D01*
X240165Y210540D01*
X238044Y212662D01*
X238638Y213277D01*
X239572Y214380D01*
X239911Y214868D01*
X240165Y215313D01*
X240335Y215716D01*
X240401Y215996D01*
X240335Y216276D01*
X240165Y216679D01*
X239911Y217124D01*
X239572Y217612D01*
X239147Y218143D01*
X238044Y219331D01*
X240165Y221452D01*
X240781Y220858D01*
D02*
G37*
G36*
X156548Y209106D02*
X156178Y209466D01*
X155450Y210072D01*
X155091Y210318D01*
X154735Y210527D01*
X154383Y210697D01*
X154034Y210830D01*
X153689Y210924D01*
X153347Y210981D01*
X153009Y211000D01*
Y213000D01*
X153347Y213019D01*
X153689Y213076D01*
X154034Y213170D01*
X154383Y213303D01*
X154735Y213473D01*
X155091Y213682D01*
X155450Y213928D01*
X155812Y214212D01*
X156178Y214534D01*
X156548Y214894D01*
Y209106D01*
D02*
G37*
G36*
X264212Y201253D02*
X264060Y201396D01*
X263897Y201523D01*
X263723Y201636D01*
X263539Y201733D01*
X263344Y201816D01*
X263138Y201884D01*
X262921Y201936D01*
X262694Y201974D01*
X262456Y201996D01*
X262207Y202004D01*
X262210Y204004D01*
X262459Y204011D01*
X262697Y204034D01*
X262925Y204071D01*
X263141Y204124D01*
X263348Y204191D01*
X263543Y204274D01*
X263727Y204371D01*
X263901Y204483D01*
X264065Y204610D01*
X264217Y204753D01*
X264212Y201253D01*
D02*
G37*
G36*
X258854Y204814D02*
X258914Y204644D01*
X259014Y204494D01*
X259154Y204364D01*
X259334Y204254D01*
X259554Y204164D01*
X259814Y204094D01*
X260114Y204044D01*
X260454Y204014D01*
X260835Y204004D01*
Y202004D01*
X260454Y201994D01*
X260114Y201964D01*
X259814Y201914D01*
X259554Y201844D01*
X259334Y201754D01*
X259154Y201644D01*
X259014Y201514D01*
X258914Y201364D01*
X258854Y201194D01*
X258835Y201004D01*
Y205004D01*
X258854Y204814D01*
D02*
G37*
G36*
X252178Y201004D02*
X252157Y201194D01*
X252097Y201364D01*
X251996Y201514D01*
X251856Y201644D01*
X251675Y201754D01*
X251453Y201844D01*
X251192Y201914D01*
X250890Y201964D01*
X250548Y201994D01*
X250166Y202004D01*
Y204004D01*
X250548Y204014D01*
X250890Y204044D01*
X251192Y204094D01*
X251453Y204164D01*
X251675Y204254D01*
X251856Y204364D01*
X251996Y204494D01*
X252097Y204644D01*
X252157Y204814D01*
X252178Y205004D01*
Y201004D01*
D02*
G37*
G36*
X246854Y204814D02*
X246914Y204644D01*
X247014Y204494D01*
X247154Y204364D01*
X247335Y204254D01*
X247554Y204164D01*
X247814Y204094D01*
X248114Y204044D01*
X248454Y204014D01*
X248834Y204004D01*
Y202004D01*
X248454Y201994D01*
X248114Y201964D01*
X247814Y201914D01*
X247554Y201844D01*
X247335Y201754D01*
X247154Y201644D01*
X247014Y201514D01*
X246914Y201364D01*
X246854Y201194D01*
X246834Y201004D01*
Y205004D01*
X246854Y204814D01*
D02*
G37*
G36*
X114304Y196656D02*
X114421Y194976D01*
X114475Y194706D01*
X114538Y194496D01*
X114611Y194346D01*
X114694Y194256D01*
X114787Y194226D01*
X110599D01*
X110732Y194256D01*
X110851Y194346D01*
X110956Y194496D01*
X111047Y194706D01*
X111124Y194976D01*
X111187Y195306D01*
X111236Y195696D01*
X111292Y196656D01*
X111299Y197226D01*
X114299D01*
X114304Y196656D01*
D02*
G37*
G36*
X94709Y194226D02*
X90520D01*
X90538Y194266D01*
X90554Y194386D01*
X90568Y194586D01*
X90613Y197466D01*
X90614Y198226D01*
X94614D01*
X94709Y194226D01*
D02*
G37*
G36*
X63833Y193760D02*
X63940Y193762D01*
Y191639D01*
X63898Y191651D01*
X63833Y191658D01*
Y190701D01*
X63813Y190891D01*
X63752Y191061D01*
X63652Y191211D01*
X63511Y191341D01*
X63330Y191451D01*
X63108Y191541D01*
X62847Y191611D01*
X62545Y191661D01*
X62500Y191665D01*
X62455Y191661D01*
X62153Y191611D01*
X61892Y191541D01*
X61670Y191451D01*
X61489Y191341D01*
X61348Y191211D01*
X61248Y191061D01*
X61187Y190891D01*
X61167Y190701D01*
Y191698D01*
X60882Y191701D01*
Y193701D01*
X61167Y193707D01*
Y194701D01*
X61187Y194511D01*
X61248Y194341D01*
X61348Y194191D01*
X61489Y194061D01*
X61670Y193951D01*
X61892Y193861D01*
X62153Y193791D01*
X62455Y193741D01*
X62500Y193737D01*
X62545Y193741D01*
X62847Y193791D01*
X63108Y193861D01*
X63330Y193951D01*
X63511Y194061D01*
X63652Y194191D01*
X63752Y194341D01*
X63813Y194511D01*
X63833Y194701D01*
Y193760D01*
D02*
G37*
G36*
X58833Y190701D02*
X58813Y190891D01*
X58752Y191061D01*
X58652Y191211D01*
X58511Y191341D01*
X58330Y191451D01*
X58109Y191541D01*
X57847Y191611D01*
X57545Y191661D01*
X57500Y191665D01*
X57455Y191661D01*
X57153Y191611D01*
X56892Y191541D01*
X56670Y191451D01*
X56489Y191341D01*
X56348Y191211D01*
X56248Y191061D01*
X56187Y190891D01*
X56167Y190701D01*
Y194701D01*
X56187Y194511D01*
X56248Y194341D01*
X56348Y194191D01*
X56489Y194061D01*
X56670Y193951D01*
X56892Y193861D01*
X57153Y193791D01*
X57455Y193741D01*
X57500Y193737D01*
X57545Y193741D01*
X57847Y193791D01*
X58109Y193861D01*
X58330Y193951D01*
X58511Y194061D01*
X58652Y194191D01*
X58752Y194341D01*
X58813Y194511D01*
X58833Y194701D01*
Y190701D01*
D02*
G37*
G36*
X260059Y192608D02*
X260147Y191488D01*
X260187Y191308D01*
X260234Y191168D01*
X260289Y191068D01*
X260351Y191008D01*
X260421Y190988D01*
X257689D01*
X257759Y191008D01*
X257821Y191068D01*
X257876Y191168D01*
X257923Y191308D01*
X257964Y191488D01*
X257997Y191708D01*
X258040Y192268D01*
X258055Y192988D01*
X260055D01*
X260059Y192608D01*
D02*
G37*
G36*
X66103Y195412D02*
X66196Y195158D01*
X66351Y194933D01*
X66569Y194739D01*
X66849Y194575D01*
X67190Y194440D01*
X67594Y194335D01*
X68060Y194261D01*
X68589Y194216D01*
X69179Y194201D01*
Y191201D01*
X68589Y191186D01*
X68060Y191141D01*
X67594Y191066D01*
X67190Y190962D01*
X66849Y190827D01*
X66569Y190662D01*
X66351Y190468D01*
X66196Y190244D01*
X66103Y189989D01*
X66072Y189705D01*
Y195696D01*
X66103Y195412D01*
D02*
G37*
G36*
X121488Y191796D02*
X121549Y191626D01*
X121649Y191476D01*
X121790Y191346D01*
X121971Y191236D01*
X122193Y191146D01*
X122454Y191076D01*
X122756Y191026D01*
X123098Y190996D01*
X123480Y190986D01*
Y188986D01*
X123098Y188976D01*
X122756Y188946D01*
X122454Y188896D01*
X122193Y188826D01*
X121971Y188736D01*
X121790Y188626D01*
X121649Y188496D01*
X121549Y188346D01*
X121488Y188176D01*
X121468Y187986D01*
Y191986D01*
X121488Y191796D01*
D02*
G37*
G36*
X94022Y188556D02*
X93796Y188259D01*
X93740Y188174D01*
X93695Y188094D01*
X93660Y188021D01*
X93634Y187954D01*
X93619Y187894D01*
X93614Y187841D01*
X91614D01*
X91609Y187894D01*
X91594Y187954D01*
X91569Y188021D01*
X91533Y188094D01*
X91488Y188174D01*
X91433Y188259D01*
X91292Y188451D01*
X91110Y188668D01*
X94118D01*
X94022Y188556D01*
D02*
G37*
G36*
X51113Y189753D02*
X51089Y189637D01*
X51068Y189488D01*
X51035Y189091D01*
X51001Y187903D01*
X51000Y187524D01*
X49000D01*
X48999Y187903D01*
X48887Y189753D01*
X48861Y189837D01*
X51139D01*
X51113Y189753D01*
D02*
G37*
G36*
X238756Y192706D02*
X239584Y192027D01*
X239989Y191752D01*
X240389Y191518D01*
X240784Y191327D01*
X241174Y191179D01*
X241558Y191073D01*
X241937Y191009D01*
X242311Y190988D01*
X239591Y185501D01*
X239685Y185808D01*
X239687Y186165D01*
X239597Y186571D01*
X239416Y187027D01*
X239142Y187532D01*
X238777Y188087D01*
X238319Y188692D01*
X237130Y190051D01*
X236397Y190805D01*
X238335Y193109D01*
X238756Y192706D01*
D02*
G37*
G36*
X282249Y184830D02*
X281852Y184419D01*
X281227Y183683D01*
X280999Y183357D01*
X280828Y183060D01*
X280714Y182791D01*
X280656Y182551D01*
X280655Y182340D01*
X280711Y182157D01*
X280822Y182002D01*
X278006Y184818D01*
X278161Y184707D01*
X278344Y184651D01*
X278555Y184652D01*
X278795Y184710D01*
X279064Y184825D01*
X279361Y184995D01*
X279686Y185223D01*
X280041Y185507D01*
X280835Y186245D01*
X282249Y184830D01*
D02*
G37*
G36*
X284274Y184577D02*
X284256Y184737D01*
X284200Y184880D01*
X284107Y185006D01*
X283978Y185115D01*
X283811Y185207D01*
X283607Y185283D01*
X283366Y185342D01*
X283088Y185384D01*
X282773Y185409D01*
X282422Y185418D01*
Y187418D01*
X282773Y187426D01*
X283088Y187451D01*
X283366Y187493D01*
X283607Y187552D01*
X283811Y187628D01*
X283978Y187720D01*
X284107Y187829D01*
X284200Y187955D01*
X284256Y188098D01*
X284274Y188258D01*
Y184577D01*
D02*
G37*
G36*
X260429Y187810D02*
X260490Y187640D01*
X260590Y187490D01*
X260731Y187360D01*
X260912Y187250D01*
X261133Y187160D01*
X261395Y187090D01*
X261697Y187040D01*
X262039Y187010D01*
X262421Y187000D01*
Y185000D01*
X262039Y184990D01*
X261697Y184960D01*
X261395Y184910D01*
X261133Y184840D01*
X260912Y184750D01*
X260731Y184640D01*
X260590Y184510D01*
X260490Y184360D01*
X260429Y184190D01*
X260409Y184000D01*
Y188000D01*
X260429Y187810D01*
D02*
G37*
G36*
X120089Y185737D02*
X119920Y185677D01*
X119770Y185575D01*
X119640Y185434D01*
X119529Y185253D01*
X119439Y185032D01*
X119369Y184771D01*
X119319Y184469D01*
X119290Y184128D01*
X119280Y183746D01*
X117280D01*
X117291Y185746D01*
X120280Y185758D01*
X120089Y185737D01*
D02*
G37*
G36*
X107830Y185738D02*
X107660Y185678D01*
X107510Y185577D01*
X107380Y185436D01*
X107270Y185255D01*
X107180Y185034D01*
X107110Y184772D01*
X107060Y184471D01*
X107030Y184128D01*
X107020Y183746D01*
X105020D01*
X105010Y184128D01*
X104980Y184471D01*
X104930Y184772D01*
X104860Y185034D01*
X104770Y185255D01*
X104660Y185436D01*
X104530Y185577D01*
X104380Y185678D01*
X104210Y185738D01*
X104020Y185758D01*
X108020D01*
X107830Y185738D01*
D02*
G37*
G36*
X101117D02*
X100947Y185678D01*
X100797Y185577D01*
X100667Y185436D01*
X100557Y185255D01*
X100467Y185034D01*
X100397Y184772D01*
X100347Y184471D01*
X100317Y184128D01*
X100307Y183746D01*
X100278D01*
X100247Y183334D01*
X98191Y183764D01*
X98213Y183786D01*
X98233Y183826D01*
X98251Y183882D01*
X98265Y183954D01*
X98278Y184042D01*
X98291Y184198D01*
X98267Y184471D01*
X98217Y184772D01*
X98147Y185034D01*
X98057Y185255D01*
X97947Y185436D01*
X97817Y185577D01*
X97667Y185678D01*
X97497Y185738D01*
X97307Y185758D01*
X101307D01*
X101117Y185738D01*
D02*
G37*
G36*
X274166Y179496D02*
X274146Y179686D01*
X274086Y179856D01*
X273986Y180006D01*
X273846Y180136D01*
X273665Y180246D01*
X273446Y180336D01*
X273186Y180406D01*
X272997Y180437D01*
X272808Y180406D01*
X272547Y180336D01*
X272325Y180246D01*
X272144Y180136D01*
X272004Y180006D01*
X271903Y179856D01*
X271843Y179686D01*
X271822Y179496D01*
Y183496D01*
X271843Y183306D01*
X271903Y183136D01*
X272004Y182986D01*
X272144Y182856D01*
X272325Y182746D01*
X272547Y182656D01*
X272808Y182586D01*
X272997Y182555D01*
X273186Y182586D01*
X273446Y182656D01*
X273665Y182746D01*
X273846Y182856D01*
X273986Y182986D01*
X274086Y183136D01*
X274146Y183306D01*
X274166Y183496D01*
Y179496D01*
D02*
G37*
G36*
X265527Y185893D02*
X266441Y185118D01*
X266689Y184953D01*
X266908Y184835D01*
X267100Y184764D01*
X267263Y184739D01*
X267398Y184761D01*
X267505Y184830D01*
X265165Y182492D01*
X265235Y182598D01*
X265257Y182733D01*
X265232Y182896D01*
X265161Y183088D01*
X265043Y183308D01*
X264878Y183555D01*
X264667Y183832D01*
X264103Y184469D01*
X263751Y184830D01*
X265165Y186245D01*
X265527Y185893D01*
D02*
G37*
G36*
X242247Y180992D02*
X242189Y180932D01*
X242138Y180832D01*
X242094Y180692D01*
X242057Y180512D01*
X242027Y180292D01*
X241986Y179732D01*
X241972Y179012D01*
X239972D01*
X239968Y179392D01*
X239910Y180292D01*
X239874Y180512D01*
X239831Y180692D01*
X239780Y180832D01*
X239721Y180932D01*
X239654Y180992D01*
X239579Y181012D01*
X242311D01*
X242247Y180992D01*
D02*
G37*
G36*
X149110Y182972D02*
X148772Y182852D01*
X148474Y182652D01*
X148216Y182372D01*
X147997Y182012D01*
X147818Y181572D01*
X147679Y181052D01*
X147580Y180452D01*
X147520Y179772D01*
X147500Y179012D01*
X143500D01*
X143480Y179772D01*
X143421Y180452D01*
X143321Y181052D01*
X143182Y181572D01*
X143003Y182012D01*
X142784Y182372D01*
X142526Y182652D01*
X142228Y182852D01*
X141890Y182972D01*
X141512Y183012D01*
X149488D01*
X149110Y182972D01*
D02*
G37*
G36*
X85752Y179603D02*
X85782Y179263D01*
X85833Y178963D01*
X85903Y178703D01*
X85992Y178483D01*
X86102Y178303D01*
X86233Y178163D01*
X86383Y178063D01*
X86553Y178003D01*
X86743Y177983D01*
X82743D01*
X82933Y178003D01*
X83103Y178063D01*
X83253Y178163D01*
X83382Y178303D01*
X83492Y178483D01*
X83583Y178703D01*
X83653Y178963D01*
X83702Y179263D01*
X83732Y179603D01*
X83742Y179983D01*
X85742D01*
X85752Y179603D01*
D02*
G37*
G36*
X241973Y177371D02*
X242019Y176610D01*
X242030Y176590D01*
X239931Y176552D01*
X239938Y176569D01*
X239946Y176603D01*
X239952Y176654D01*
X239962Y176808D01*
X239972Y177493D01*
X241972Y177542D01*
X241973Y177371D01*
D02*
G37*
G36*
X97904Y173239D02*
X97884Y173429D01*
X97824Y173599D01*
X97723Y173749D01*
X97582Y173879D01*
X97401Y173989D01*
X97180Y174079D01*
X96918Y174149D01*
X96617Y174199D01*
X96275Y174229D01*
X96233Y174231D01*
X96191Y174229D01*
X95849Y174199D01*
X95547Y174149D01*
X95285Y174079D01*
X95064Y173989D01*
X94883Y173879D01*
X94742Y173749D01*
X94642Y173599D01*
X94581Y173429D01*
X94561Y173239D01*
Y177239D01*
X94581Y177049D01*
X94642Y176879D01*
X94742Y176729D01*
X94883Y176599D01*
X95064Y176489D01*
X95285Y176399D01*
X95547Y176329D01*
X95849Y176279D01*
X96191Y176249D01*
X96233Y176248D01*
X96275Y176249D01*
X96617Y176279D01*
X96918Y176329D01*
X97180Y176399D01*
X97401Y176489D01*
X97582Y176599D01*
X97723Y176729D01*
X97824Y176879D01*
X97884Y177049D01*
X97904Y177239D01*
Y173239D01*
D02*
G37*
G36*
X215226Y179941D02*
X214886Y179820D01*
X214586Y179620D01*
X214326Y179339D01*
X214106Y178978D01*
X213926Y178536D01*
X213786Y178015D01*
X213686Y177413D01*
X213626Y176731D01*
X213606Y175969D01*
X209606D01*
X209586Y176731D01*
X209526Y177413D01*
X209426Y178015D01*
X209286Y178536D01*
X209106Y178978D01*
X208886Y179339D01*
X208626Y179620D01*
X208326Y179820D01*
X207986Y179941D01*
X207606Y179981D01*
X215606D01*
X215226Y179941D01*
D02*
G37*
G36*
X58929Y174950D02*
X58911Y174960D01*
X58875Y174968D01*
X58823Y174976D01*
X58668Y174987D01*
X58153Y174999D01*
X57982Y175000D01*
Y177000D01*
X58929Y177050D01*
Y174950D01*
D02*
G37*
G36*
X110081Y177049D02*
X110142Y176879D01*
X110242Y176729D01*
X110383Y176599D01*
X110564Y176489D01*
X110785Y176399D01*
X111047Y176329D01*
X111349Y176279D01*
X111691Y176249D01*
X112073Y176239D01*
Y174239D01*
X111691Y174229D01*
X111349Y174199D01*
X111047Y174149D01*
X110785Y174079D01*
X110564Y173989D01*
X110383Y173879D01*
X110242Y173749D01*
X110142Y173599D01*
X110081Y173429D01*
X110061Y173239D01*
Y177239D01*
X110081Y177049D01*
D02*
G37*
G36*
X288680Y175004D02*
X288510Y174943D01*
X288360Y174843D01*
X288230Y174702D01*
X288120Y174521D01*
X288030Y174300D01*
X287960Y174038D01*
X287922Y173810D01*
X287960Y173582D01*
X288030Y173320D01*
X288120Y173099D01*
X288230Y172918D01*
X288360Y172777D01*
X288510Y172676D01*
X288680Y172616D01*
X288870Y172596D01*
X284870D01*
X285060Y172616D01*
X285230Y172676D01*
X285380Y172777D01*
X285510Y172918D01*
X285620Y173099D01*
X285710Y173320D01*
X285780Y173582D01*
X285818Y173810D01*
X285780Y174038D01*
X285710Y174300D01*
X285620Y174521D01*
X285510Y174702D01*
X285380Y174843D01*
X285230Y174943D01*
X285060Y175004D01*
X284870Y175024D01*
X288870D01*
X288680Y175004D01*
D02*
G37*
G36*
X91287Y172508D02*
X91210Y172563D01*
X91119Y172590D01*
X91014Y172589D01*
X90894Y172559D01*
X90759Y172502D01*
X90611Y172415D01*
X90448Y172301D01*
X90271Y172159D01*
X89873Y171788D01*
X89166Y172495D01*
X89365Y172702D01*
X89678Y173071D01*
X89793Y173234D01*
X89879Y173382D01*
X89936Y173517D01*
X89966Y173636D01*
X89967Y173742D01*
X89940Y173833D01*
X89885Y173910D01*
X91287Y172508D01*
D02*
G37*
G36*
X274178Y170027D02*
X274264Y170019D01*
X274834Y170004D01*
Y167004D01*
X274264Y166989D01*
X274178Y166981D01*
Y165504D01*
X274147Y165789D01*
X274057Y166044D01*
X273906Y166269D01*
X273696Y166464D01*
X273425Y166629D01*
X273093Y166764D01*
X273004Y166788D01*
X272914Y166764D01*
X272585Y166629D01*
X272314Y166464D01*
X272104Y166269D01*
X271954Y166044D01*
X271864Y165789D01*
X271834Y165504D01*
Y166980D01*
X271738Y166989D01*
X271165Y167004D01*
Y170004D01*
X271738Y170019D01*
X271834Y170027D01*
Y171504D01*
X271864Y171219D01*
X271954Y170964D01*
X272104Y170739D01*
X272314Y170544D01*
X272585Y170379D01*
X272914Y170244D01*
X273004Y170220D01*
X273093Y170244D01*
X273425Y170379D01*
X273696Y170544D01*
X273906Y170739D01*
X274057Y170964D01*
X274147Y171219D01*
X274178Y171504D01*
Y170027D01*
D02*
G37*
G36*
X81130Y165071D02*
X81110Y165103D01*
X81050Y165132D01*
X80950Y165157D01*
X80810Y165179D01*
X80630Y165198D01*
X79850Y165233D01*
X79130Y165240D01*
Y166936D01*
X78714Y165240D01*
X77873Y165280D01*
X78237Y167349D01*
X78260Y167328D01*
X78299Y167309D01*
X78355Y167293D01*
X78427Y167279D01*
X78516Y167267D01*
X78742Y167250D01*
X79192Y167240D01*
X79510Y167242D01*
X81050Y167348D01*
X81110Y167377D01*
X81130Y167409D01*
Y165071D01*
D02*
G37*
G36*
X251515Y169418D02*
X251560Y168908D01*
X251635Y168458D01*
X251740Y168068D01*
X251875Y167738D01*
X252040Y167468D01*
X252235Y167258D01*
X252460Y167108D01*
X252715Y167018D01*
X253000Y166988D01*
X247000D01*
X247285Y167018D01*
X247540Y167108D01*
X247765Y167258D01*
X247960Y167468D01*
X248125Y167738D01*
X248260Y168068D01*
X248365Y168458D01*
X248440Y168908D01*
X248485Y169418D01*
X248500Y169988D01*
X251500D01*
X251515Y169418D01*
D02*
G37*
G36*
X278501Y168920D02*
X278893Y168572D01*
X278991Y168670D01*
X279012Y168603D01*
X279063Y168511D01*
X279144Y168393D01*
X279255Y168251D01*
X279853Y167720D01*
X279946Y167669D01*
X280013Y167648D01*
X279901Y167536D01*
X280554Y166865D01*
X279139Y165450D01*
X278846Y165742D01*
X278454Y166089D01*
X278356Y165991D01*
X278335Y166058D01*
X278283Y166151D01*
X278202Y166268D01*
X278092Y166410D01*
X277493Y166941D01*
X277401Y166992D01*
X277333Y167013D01*
X277446Y167126D01*
X276793Y167797D01*
X278207Y169211D01*
X278501Y168920D01*
D02*
G37*
G36*
X269408Y165182D02*
X269176Y165350D01*
X268901Y165434D01*
X268583Y165432D01*
X268223Y165346D01*
X267820Y165175D01*
X267375Y164920D01*
X266886Y164579D01*
X266355Y164154D01*
X265165Y163048D01*
X263044Y165170D01*
X263639Y165786D01*
X264575Y166890D01*
X264916Y167378D01*
X265172Y167824D01*
X265342Y168227D01*
X265428Y168587D01*
X265430Y168905D01*
X265346Y169180D01*
X265178Y169412D01*
X269408Y165182D01*
D02*
G37*
G36*
X284008Y160504D02*
X283985Y160651D01*
X283916Y160783D01*
X283802Y160899D01*
X283642Y160999D01*
X283436Y161084D01*
X283185Y161153D01*
X282888Y161208D01*
X282545Y161246D01*
X282157Y161269D01*
X281723Y161277D01*
Y164277D01*
X282157Y164285D01*
X282888Y164347D01*
X283185Y164401D01*
X283436Y164470D01*
X283642Y164555D01*
X283802Y164656D01*
X283916Y164772D01*
X283985Y164903D01*
X284008Y165050D01*
Y160504D01*
D02*
G37*
G36*
X255912Y164715D02*
X256002Y164460D01*
X256153Y164235D01*
X256363Y164040D01*
X256634Y163875D01*
X256966Y163740D01*
X257357Y163635D01*
X257809Y163560D01*
X258321Y163515D01*
X258893Y163500D01*
Y160500D01*
X258321Y160485D01*
X257809Y160440D01*
X257357Y160365D01*
X256966Y160260D01*
X256634Y160125D01*
X256363Y159960D01*
X256153Y159765D01*
X256002Y159540D01*
X255912Y159285D01*
X255882Y159000D01*
Y165000D01*
X255912Y164715D01*
D02*
G37*
G36*
X91957Y159929D02*
Y158441D01*
X91947Y158536D01*
X91917Y158621D01*
X91867Y158696D01*
X91797Y158761D01*
X91707Y158816D01*
X91597Y158861D01*
X91467Y158896D01*
X91317Y158921D01*
X91147Y158936D01*
X90957Y158941D01*
Y159941D01*
X91957Y159929D01*
D02*
G37*
G36*
X53833Y154299D02*
X53823Y154394D01*
X53792Y154479D01*
X53742Y154554D01*
X53671Y154619D01*
X53580Y154674D01*
X53469Y154719D01*
X53337Y154754D01*
X53185Y154779D01*
X53013Y154794D01*
X52829Y154799D01*
X52493Y154797D01*
X51603Y154738D01*
X51531Y154719D01*
X51420Y154674D01*
X51329Y154619D01*
X51258Y154554D01*
X51208Y154479D01*
X51177Y154394D01*
X51167Y154299D01*
Y154709D01*
X50988Y154698D01*
X50859Y154666D01*
X50766Y154631D01*
X50707Y154592D01*
Y156007D01*
X50766Y155967D01*
X50859Y155932D01*
X50988Y155901D01*
X51152Y155874D01*
X51167Y155872D01*
Y156299D01*
X51177Y156204D01*
X51208Y156119D01*
X51258Y156044D01*
X51329Y155979D01*
X51420Y155924D01*
X51531Y155879D01*
X51663Y155844D01*
X51774Y155826D01*
X52493Y155801D01*
X52829Y155799D01*
X53013Y155804D01*
X53185Y155819D01*
X53337Y155844D01*
X53469Y155879D01*
X53580Y155924D01*
X53671Y155979D01*
X53742Y156044D01*
X53792Y156119D01*
X53823Y156204D01*
X53833Y156299D01*
Y154299D01*
D02*
G37*
G36*
X84948Y157561D02*
X84863Y157471D01*
X84788Y157321D01*
X84723Y157111D01*
X84668Y156841D01*
X84623Y156511D01*
X84563Y155671D01*
X84543Y154591D01*
X81543D01*
X81539Y155161D01*
X81395Y157111D01*
X81341Y157321D01*
X81279Y157471D01*
X81209Y157561D01*
X81130Y157591D01*
X85043D01*
X84948Y157561D01*
D02*
G37*
G36*
X42660Y156461D02*
X42698Y156448D01*
X42753Y156437D01*
X42824Y156427D01*
X43016Y156412D01*
X43600Y156400D01*
X43419Y154400D01*
X42498Y154381D01*
X42639Y156476D01*
X42660Y156461D01*
D02*
G37*
G36*
X63833Y154299D02*
X63823Y154394D01*
X63792Y154479D01*
X63742Y154554D01*
X63671Y154619D01*
X63580Y154674D01*
X63468Y154719D01*
X63337Y154754D01*
X63185Y154779D01*
X63013Y154794D01*
X62821Y154799D01*
Y155799D01*
X63013Y155804D01*
X63185Y155819D01*
X63337Y155844D01*
X63468Y155879D01*
X63580Y155924D01*
X63671Y155979D01*
X63742Y156044D01*
X63792Y156119D01*
X63823Y156204D01*
X63833Y156299D01*
Y154299D01*
D02*
G37*
G36*
X61177Y156204D02*
X61208Y156119D01*
X61258Y156044D01*
X61329Y155979D01*
X61420Y155924D01*
X61532Y155879D01*
X61663Y155844D01*
X61815Y155819D01*
X61987Y155804D01*
X62179Y155799D01*
Y154799D01*
X61987Y154794D01*
X61815Y154779D01*
X61663Y154754D01*
X61532Y154719D01*
X61420Y154674D01*
X61329Y154619D01*
X61258Y154554D01*
X61208Y154479D01*
X61177Y154394D01*
X61167Y154299D01*
Y156299D01*
X61177Y156204D01*
D02*
G37*
G36*
X58833Y154299D02*
X58823Y154394D01*
X58792Y154479D01*
X58742Y154554D01*
X58671Y154619D01*
X58580Y154674D01*
X58469Y154719D01*
X58337Y154754D01*
X58185Y154779D01*
X58013Y154794D01*
X57821Y154799D01*
Y155799D01*
X58013Y155804D01*
X58185Y155819D01*
X58337Y155844D01*
X58469Y155879D01*
X58580Y155924D01*
X58671Y155979D01*
X58742Y156044D01*
X58792Y156119D01*
X58823Y156204D01*
X58833Y156299D01*
Y154299D01*
D02*
G37*
G36*
X56177Y156204D02*
X56208Y156119D01*
X56258Y156044D01*
X56329Y155979D01*
X56420Y155924D01*
X56532Y155879D01*
X56663Y155844D01*
X56815Y155819D01*
X56987Y155804D01*
X57179Y155799D01*
Y154799D01*
X56987Y154794D01*
X56815Y154779D01*
X56663Y154754D01*
X56532Y154719D01*
X56420Y154674D01*
X56329Y154619D01*
X56258Y154554D01*
X56208Y154479D01*
X56177Y154394D01*
X56167Y154299D01*
Y156299D01*
X56177Y156204D01*
D02*
G37*
G36*
X48833Y153400D02*
X48813Y153590D01*
X48752Y153760D01*
X48652Y153910D01*
X48511Y154040D01*
X48330Y154150D01*
X48109Y154240D01*
X47847Y154310D01*
X47545Y154360D01*
X47203Y154390D01*
X46821Y154400D01*
Y156400D01*
X47203Y156410D01*
X47545Y156440D01*
X47847Y156490D01*
X48109Y156560D01*
X48330Y156650D01*
X48511Y156760D01*
X48652Y156890D01*
X48752Y157040D01*
X48813Y157210D01*
X48833Y157400D01*
Y153400D01*
D02*
G37*
G36*
X254113Y156984D02*
X253773Y156863D01*
X253473Y156663D01*
X253213Y156382D01*
X252993Y156021D01*
X252813Y155580D01*
X252673Y155058D01*
X252573Y154456D01*
X252513Y153774D01*
X252493Y153012D01*
X248493D01*
X248473Y153774D01*
X248413Y154456D01*
X248313Y155058D01*
X248173Y155580D01*
X247993Y156021D01*
X247773Y156382D01*
X247513Y156663D01*
X247213Y156863D01*
X246873Y156984D01*
X246493Y157024D01*
X254493D01*
X254113Y156984D01*
D02*
G37*
G36*
X24656Y156138D02*
X24684Y155820D01*
X24733Y155516D01*
X24802Y155225D01*
X24893Y154948D01*
X25003Y154683D01*
X25135Y154432D01*
X25288Y154195D01*
X25461Y153970D01*
X25655Y153759D01*
X24241Y152345D01*
X24030Y152539D01*
X23805Y152712D01*
X23568Y152865D01*
X23317Y152997D01*
X23052Y153108D01*
X22775Y153198D01*
X22484Y153267D01*
X22180Y153316D01*
X21862Y153343D01*
X21531Y153350D01*
X24649Y156468D01*
X24656Y156138D01*
D02*
G37*
G36*
X276665Y140996D02*
X276636Y141281D01*
X276546Y141536D01*
X276396Y141761D01*
X276186Y141956D01*
X275916Y142121D01*
X275586Y142256D01*
X275196Y142361D01*
X274997Y142394D01*
X274798Y142361D01*
X274407Y142256D01*
X274076Y142121D01*
X273804Y141956D01*
X273593Y141761D01*
X273443Y141536D01*
X273353Y141281D01*
X273322Y140996D01*
Y146996D01*
X273353Y146711D01*
X273443Y146456D01*
X273593Y146231D01*
X273804Y146036D01*
X274076Y145871D01*
X274407Y145736D01*
X274798Y145631D01*
X274997Y145598D01*
X275196Y145631D01*
X275586Y145736D01*
X275916Y145871D01*
X276186Y146036D01*
X276396Y146231D01*
X276546Y146456D01*
X276636Y146711D01*
X276665Y146996D01*
Y140996D01*
D02*
G37*
G36*
X164261Y148515D02*
X164283Y148316D01*
X164725D01*
X164635Y148264D01*
X164554Y148194D01*
X164483Y148107D01*
X164421Y148002D01*
X164369Y147879D01*
X164367Y147873D01*
X164420Y147681D01*
X164515Y147421D01*
X164632Y147169D01*
X164770Y146926D01*
X164929Y146692D01*
X165109Y146467D01*
X165311Y146250D01*
X164561Y144879D01*
X164348Y145070D01*
X164136Y145218D01*
X163924Y145324D01*
X163712Y145388D01*
X163500Y145409D01*
X163288Y145388D01*
X163076Y145324D01*
X162864Y145218D01*
X162652Y145070D01*
X162439Y144879D01*
X161689Y146250D01*
X161891Y146467D01*
X162071Y146692D01*
X162230Y146926D01*
X162368Y147169D01*
X162485Y147421D01*
X162580Y147681D01*
X162633Y147873D01*
X162631Y147879D01*
X162579Y148002D01*
X162517Y148107D01*
X162446Y148194D01*
X162365Y148264D01*
X162275Y148316D01*
X162717D01*
X162739Y148515D01*
X162750Y148811D01*
X164250D01*
X164261Y148515D01*
D02*
G37*
G36*
X218541Y148769D02*
X219242Y148169D01*
X219580Y147925D01*
X219908Y147719D01*
X220229Y147550D01*
X220541Y147419D01*
X220844Y147325D01*
X221138Y147269D01*
X221424Y147250D01*
Y145750D01*
X221138Y145731D01*
X220844Y145675D01*
X220541Y145581D01*
X220229Y145450D01*
X219908Y145281D01*
X219580Y145075D01*
X219242Y144831D01*
X218896Y144550D01*
X218178Y143875D01*
Y149125D01*
X218541Y148769D01*
D02*
G37*
G36*
X266904Y149738D02*
X268936Y148022D01*
X269496Y147652D01*
X269997Y147384D01*
X270439Y147216D01*
X270822Y147149D01*
X271147Y147183D01*
X271412Y147318D01*
X269617Y145905D01*
X270007Y145559D01*
X270099Y145508D01*
X270167Y145487D01*
X268509Y143830D01*
X268488Y143897D01*
X268437Y143989D01*
X268356Y144107D01*
X268245Y144250D01*
X267944Y144589D01*
X266678Y143592D01*
X266863Y143807D01*
X266948Y144081D01*
X266931Y144414D01*
X266814Y144806D01*
X266595Y145256D01*
X266276Y145765D01*
X265855Y146334D01*
X265334Y146961D01*
X263987Y148391D01*
X266109Y150513D01*
X266904Y149738D01*
D02*
G37*
G36*
X61839Y144310D02*
X61899Y144140D01*
X62000Y143990D01*
X62140Y143860D01*
X62322Y143750D01*
X62543Y143660D01*
X62804Y143590D01*
X63106Y143540D01*
X63448Y143510D01*
X63831Y143500D01*
Y141500D01*
X63448Y141490D01*
X63106Y141460D01*
X62804Y141410D01*
X62543Y141340D01*
X62322Y141250D01*
X62140Y141140D01*
X62000Y141010D01*
X61899Y140860D01*
X61839Y140690D01*
X61818Y140500D01*
Y141484D01*
X59556Y141439D01*
Y143561D01*
X59598Y143550D01*
X59698Y143539D01*
X60075Y143522D01*
X61818Y143507D01*
Y144500D01*
X61839Y144310D01*
D02*
G37*
G36*
X214078Y143030D02*
X213903Y143089D01*
X213727Y143122D01*
X213550Y143130D01*
X213373Y143112D01*
X213194Y143069D01*
X213015Y143000D01*
X212834Y142906D01*
X212653Y142786D01*
X212471Y142640D01*
X212288Y142470D01*
X211227Y143530D01*
X211408Y143723D01*
X211563Y143914D01*
X211694Y144104D01*
X211800Y144293D01*
X211882Y144481D01*
X211938Y144667D01*
X211969Y144852D01*
X211976Y145036D01*
X211958Y145219D01*
X211915Y145401D01*
X214078Y143030D01*
D02*
G37*
G36*
X230442Y146138D02*
X230644Y145991D01*
X230867Y145861D01*
X231109Y145750D01*
X231370Y145656D01*
X231651Y145580D01*
X231952Y145521D01*
X232272Y145481D01*
X232611Y145458D01*
X232970Y145453D01*
X230047Y142529D01*
X230042Y142889D01*
X230019Y143228D01*
X229979Y143548D01*
X229920Y143849D01*
X229844Y144130D01*
X229750Y144391D01*
X229639Y144633D01*
X229509Y144855D01*
X229362Y145058D01*
X229198Y145242D01*
X230258Y146302D01*
X230442Y146138D01*
D02*
G37*
G36*
X24656Y146138D02*
X24684Y145820D01*
X24733Y145516D01*
X24802Y145225D01*
X24893Y144948D01*
X25003Y144683D01*
X25135Y144432D01*
X25288Y144195D01*
X25461Y143970D01*
X25655Y143759D01*
X24241Y142345D01*
X24030Y142539D01*
X23805Y142712D01*
X23568Y142865D01*
X23317Y142997D01*
X23052Y143107D01*
X22775Y143198D01*
X22484Y143267D01*
X22180Y143316D01*
X21862Y143343D01*
X21531Y143351D01*
X24649Y146468D01*
X24656Y146138D01*
D02*
G37*
G36*
X67929Y141450D02*
X67910Y141460D01*
X67875Y141468D01*
X67823Y141475D01*
X67668Y141488D01*
X67153Y141499D01*
X66982Y141500D01*
Y143500D01*
X67929Y143550D01*
Y141450D01*
D02*
G37*
G36*
X42182Y140500D02*
X42161Y140690D01*
X42101Y140860D01*
X42000Y141010D01*
X41860Y141140D01*
X41679Y141250D01*
X41457Y141340D01*
X41196Y141410D01*
X40894Y141460D01*
X40552Y141490D01*
X40170Y141500D01*
Y143500D01*
X40552Y143510D01*
X40894Y143540D01*
X41196Y143590D01*
X41457Y143660D01*
X41679Y143750D01*
X41860Y143860D01*
X42000Y143990D01*
X42101Y144140D01*
X42161Y144310D01*
X42182Y144500D01*
Y140500D01*
D02*
G37*
G36*
X243752Y142427D02*
X243851Y141467D01*
X243938Y141077D01*
X244050Y140747D01*
X244187Y140477D01*
X244349Y140267D01*
X244535Y140117D01*
X244747Y140027D01*
X244983Y139997D01*
X239495D01*
X239732Y140027D01*
X239943Y140117D01*
X240130Y140267D01*
X240292Y140477D01*
X240428Y140747D01*
X240540Y141077D01*
X240627Y141467D01*
X240690Y141917D01*
X240727Y142427D01*
X240739Y142997D01*
X243739D01*
X243752Y142427D01*
D02*
G37*
G36*
X252506Y143213D02*
X252605Y141933D01*
X252691Y141413D01*
X252803Y140973D01*
X252939Y140613D01*
X253099Y140333D01*
X253285Y140133D01*
X253495Y140013D01*
X253731Y139973D01*
X248243D01*
X248290Y140013D01*
X248333Y140133D01*
X248371Y140333D01*
X248403Y140613D01*
X248453Y141413D01*
X248493Y143973D01*
X252493D01*
X252506Y143213D01*
D02*
G37*
G36*
X257243Y135273D02*
X257213Y135434D01*
X257123Y135579D01*
X256973Y135706D01*
X256763Y135817D01*
X256493Y135910D01*
X256163Y135987D01*
X255773Y136046D01*
X255527Y136070D01*
X255201Y136046D01*
X254811Y135987D01*
X254481Y135910D01*
X254210Y135817D01*
X254000Y135706D01*
X253851Y135579D01*
X253761Y135434D01*
X253731Y135273D01*
Y139973D01*
X253761Y139812D01*
X253851Y139667D01*
X254000Y139539D01*
X254210Y139429D01*
X254481Y139335D01*
X254811Y139259D01*
X255201Y139199D01*
X255446Y139176D01*
X255773Y139199D01*
X256163Y139259D01*
X256493Y139335D01*
X256763Y139429D01*
X256973Y139539D01*
X257123Y139667D01*
X257213Y139812D01*
X257243Y139973D01*
Y135273D01*
D02*
G37*
G36*
X235958Y142111D02*
X235981Y141772D01*
X236021Y141452D01*
X236080Y141151D01*
X236156Y140870D01*
X236250Y140609D01*
X236361Y140367D01*
X236491Y140145D01*
X236638Y139942D01*
X236803Y139758D01*
X235742Y138698D01*
X235558Y138862D01*
X235355Y139009D01*
X235133Y139139D01*
X234891Y139250D01*
X234630Y139344D01*
X234349Y139420D01*
X234048Y139479D01*
X233728Y139519D01*
X233389Y139542D01*
X233030Y139547D01*
X235953Y142471D01*
X235958Y142111D01*
D02*
G37*
G36*
X47314Y139146D02*
X47144Y139085D01*
X46994Y138986D01*
X46864Y138846D01*
X46754Y138666D01*
X46664Y138446D01*
X46594Y138186D01*
X46544Y137885D01*
X46532Y137748D01*
X46544Y137610D01*
X46594Y137308D01*
X46664Y137047D01*
X46754Y136826D01*
X46864Y136644D01*
X46994Y136504D01*
X47144Y136403D01*
X47314Y136343D01*
X47504Y136322D01*
X43504D01*
X43694Y136343D01*
X43864Y136403D01*
X44014Y136504D01*
X44144Y136644D01*
X44254Y136826D01*
X44344Y137047D01*
X44414Y137308D01*
X44464Y137610D01*
X44476Y137748D01*
X44464Y137885D01*
X44414Y138186D01*
X44344Y138446D01*
X44254Y138666D01*
X44144Y138846D01*
X44014Y138986D01*
X43864Y139085D01*
X43694Y139146D01*
X43504Y139166D01*
X47504D01*
X47314Y139146D01*
D02*
G37*
G36*
X60000Y139178D02*
X61496D01*
X61211Y139147D01*
X60956Y139057D01*
X60731Y138907D01*
X60536Y138696D01*
X60371Y138425D01*
X60236Y138093D01*
X60145Y137753D01*
X60236Y137415D01*
X60371Y137084D01*
X60536Y136814D01*
X60731Y136604D01*
X60956Y136454D01*
X61211Y136364D01*
X61496Y136334D01*
X60000D01*
X59996Y136166D01*
X56996D01*
X56992Y136334D01*
X55496D01*
X55781Y136364D01*
X56036Y136454D01*
X56261Y136604D01*
X56456Y136814D01*
X56621Y137084D01*
X56756Y137415D01*
X56847Y137753D01*
X56756Y138093D01*
X56621Y138425D01*
X56456Y138696D01*
X56261Y138907D01*
X56036Y139057D01*
X55781Y139147D01*
X55496Y139178D01*
X56992D01*
X56996Y139334D01*
X59996D01*
X60000Y139178D01*
D02*
G37*
G36*
X245013Y139834D02*
X245103Y139687D01*
X245253Y139558D01*
X245463Y139445D01*
X245733Y139351D01*
X246063Y139273D01*
X246453Y139213D01*
X246601Y139199D01*
X246773Y139210D01*
X247163Y139269D01*
X247493Y139345D01*
X247763Y139437D01*
X247973Y139546D01*
X248123Y139671D01*
X248213Y139814D01*
X248243Y139973D01*
Y135273D01*
X248213Y135436D01*
X248123Y135583D01*
X247973Y135712D01*
X247763Y135825D01*
X247493Y135919D01*
X247163Y135997D01*
X246773Y136057D01*
X246625Y136072D01*
X246453Y136060D01*
X246063Y136001D01*
X245733Y135925D01*
X245463Y135833D01*
X245253Y135724D01*
X245103Y135599D01*
X245013Y135456D01*
X244983Y135297D01*
Y139997D01*
X245013Y139834D01*
D02*
G37*
G36*
X105786Y134800D02*
X105743Y134838D01*
X105693Y134872D01*
X105636Y134902D01*
X105571Y134928D01*
X105500Y134950D01*
X105421Y134968D01*
X105335Y134982D01*
X105242Y134992D01*
X105034Y135000D01*
Y136000D01*
X105142Y136002D01*
X105335Y136018D01*
X105421Y136032D01*
X105500Y136050D01*
X105571Y136072D01*
X105636Y136098D01*
X105693Y136128D01*
X105743Y136162D01*
X105786Y136200D01*
Y134800D01*
D02*
G37*
G36*
X276678Y129004D02*
X276657Y129194D01*
X276597Y129364D01*
X276497Y129514D01*
X276356Y129644D01*
X276174Y129754D01*
X275953Y129844D01*
X275692Y129914D01*
X275390Y129964D01*
X275048Y129994D01*
X275001Y129995D01*
X274954Y129994D01*
X274614Y129964D01*
X274314Y129914D01*
X274054Y129844D01*
X273834Y129754D01*
X273654Y129644D01*
X273514Y129514D01*
X273414Y129364D01*
X273354Y129194D01*
X273335Y129004D01*
Y133004D01*
X273354Y132814D01*
X273414Y132644D01*
X273514Y132494D01*
X273654Y132364D01*
X273834Y132254D01*
X274054Y132164D01*
X274314Y132094D01*
X274614Y132044D01*
X274954Y132014D01*
X275001Y132013D01*
X275048Y132014D01*
X275390Y132044D01*
X275692Y132094D01*
X275953Y132164D01*
X276174Y132254D01*
X276356Y132364D01*
X276497Y132494D01*
X276597Y132644D01*
X276657Y132814D01*
X276678Y133004D01*
Y129004D01*
D02*
G37*
G36*
X257243Y128142D02*
X257223Y128332D01*
X257163Y128503D01*
X257063Y128653D01*
X256923Y128782D01*
X256743Y128893D01*
X256523Y128982D01*
X256263Y129052D01*
X255963Y129103D01*
X255623Y129132D01*
X255486Y129136D01*
X255348Y129132D01*
X255006Y129103D01*
X254704Y129052D01*
X254443Y128982D01*
X254222Y128893D01*
X254040Y128782D01*
X253900Y128653D01*
X253799Y128503D01*
X253739Y128332D01*
X253718Y128142D01*
Y132142D01*
X253739Y131953D01*
X253799Y131782D01*
X253900Y131632D01*
X254040Y131502D01*
X254222Y131393D01*
X254443Y131302D01*
X254704Y131233D01*
X255006Y131183D01*
X255348Y131152D01*
X255486Y131149D01*
X255623Y131152D01*
X255963Y131183D01*
X256263Y131233D01*
X256523Y131302D01*
X256743Y131393D01*
X256923Y131502D01*
X257063Y131632D01*
X257163Y131782D01*
X257223Y131953D01*
X257243Y132142D01*
Y128142D01*
D02*
G37*
G36*
X266678D02*
X266657Y128332D01*
X266597Y128503D01*
X266496Y128653D01*
X266356Y128782D01*
X266175Y128893D01*
X265953Y128982D01*
X265692Y129052D01*
X265390Y129103D01*
X265048Y129132D01*
X264698Y129142D01*
X264348Y129132D01*
X264006Y129103D01*
X263704Y129052D01*
X263443Y128982D01*
X263222Y128893D01*
X263040Y128782D01*
X262900Y128653D01*
X262799Y128503D01*
X262739Y128332D01*
X262719Y128142D01*
Y132142D01*
X262739Y131953D01*
X262799Y131782D01*
X262900Y131632D01*
X263040Y131502D01*
X263222Y131393D01*
X263443Y131302D01*
X263704Y131233D01*
X264006Y131183D01*
X264348Y131152D01*
X264698Y131143D01*
X265048Y131152D01*
X265390Y131183D01*
X265692Y131233D01*
X265953Y131302D01*
X266175Y131393D01*
X266356Y131502D01*
X266496Y131632D01*
X266597Y131782D01*
X266657Y131953D01*
X266678Y132142D01*
Y128142D01*
D02*
G37*
G36*
X105786Y130800D02*
X105743Y130838D01*
X105693Y130872D01*
X105636Y130902D01*
X105571Y130928D01*
X105500Y130950D01*
X105421Y130968D01*
X105335Y130982D01*
X105242Y130992D01*
X105034Y131000D01*
Y132000D01*
X105142Y132002D01*
X105335Y132018D01*
X105421Y132032D01*
X105500Y132050D01*
X105571Y132072D01*
X105636Y132098D01*
X105693Y132128D01*
X105743Y132162D01*
X105786Y132200D01*
Y130800D01*
D02*
G37*
G36*
X239804Y133280D02*
X240357Y132810D01*
X240601Y132640D01*
X240824Y132511D01*
X241026Y132425D01*
X241206Y132381D01*
X241364Y132380D01*
X241501Y132422D01*
X241617Y132505D01*
X239508Y130396D01*
X239591Y130511D01*
X239632Y130649D01*
X239631Y130807D01*
X239587Y130987D01*
X239502Y131188D01*
X239373Y131411D01*
X239202Y131656D01*
X238989Y131921D01*
X238435Y132517D01*
X239495Y133578D01*
X239804Y133280D01*
D02*
G37*
G36*
X46172Y132234D02*
X46137Y132141D01*
X46106Y132012D01*
X46079Y131848D01*
X46037Y131416D01*
X46006Y130507D01*
X46004Y130134D01*
X45004D01*
X45002Y130507D01*
X44902Y132012D01*
X44871Y132141D01*
X44836Y132234D01*
X44796Y132293D01*
X46211D01*
X46172Y132234D01*
D02*
G37*
G36*
X46409Y129656D02*
X46324Y129625D01*
X46249Y129576D01*
X46184Y129506D01*
X46129Y129416D01*
X46084Y129306D01*
X46049Y129175D01*
X46024Y129025D01*
X46009Y128856D01*
X46004Y128666D01*
X45004D01*
X44999Y128856D01*
X44984Y129025D01*
X44959Y129175D01*
X44924Y129306D01*
X44879Y129416D01*
X44824Y129506D01*
X44759Y129576D01*
X44684Y129625D01*
X44599Y129656D01*
X44504Y129666D01*
X46504D01*
X46409Y129656D01*
D02*
G37*
G36*
X232777Y129741D02*
X234620Y130031D01*
X234589Y129997D01*
X234562Y129938D01*
X234538Y129853D01*
X234517Y129742D01*
X234499Y129606D01*
X234474Y129257D01*
X234459Y128541D01*
X232459D01*
X232457Y128740D01*
X232420Y129221D01*
X232399Y129342D01*
X232372Y129443D01*
X232341Y129524D01*
X232272Y129519D01*
X231952Y129479D01*
X231651Y129420D01*
X231370Y129344D01*
X231109Y129250D01*
X230867Y129139D01*
X230644Y129009D01*
X230442Y128862D01*
X230258Y128698D01*
X229198Y129758D01*
X229362Y129942D01*
X229509Y130145D01*
X229639Y130367D01*
X229750Y130609D01*
X229844Y130870D01*
X229920Y131151D01*
X229979Y131452D01*
X230019Y131772D01*
X230042Y132111D01*
X230047Y132471D01*
X232777Y129741D01*
D02*
G37*
G36*
X59546Y131898D02*
X59535Y131798D01*
X59518Y131421D01*
X59503Y129677D01*
X60496D01*
X60306Y129657D01*
X60136Y129597D01*
X59986Y129497D01*
X59856Y129356D01*
X59746Y129174D01*
X59656Y128953D01*
X59586Y128692D01*
X59536Y128390D01*
X59506Y128048D01*
X59496Y127666D01*
X57496D01*
X57486Y128048D01*
X57456Y128390D01*
X57406Y128692D01*
X57336Y128953D01*
X57246Y129174D01*
X57136Y129356D01*
X57006Y129497D01*
X56856Y129597D01*
X56686Y129657D01*
X56496Y129677D01*
X57480D01*
X57435Y131940D01*
X59557D01*
X59546Y131898D01*
D02*
G37*
G36*
X105786Y126300D02*
X105743Y126338D01*
X105693Y126372D01*
X105636Y126402D01*
X105571Y126428D01*
X105500Y126450D01*
X105421Y126468D01*
X105335Y126482D01*
X105242Y126492D01*
X105034Y126500D01*
Y127500D01*
X105142Y127502D01*
X105335Y127518D01*
X105421Y127532D01*
X105500Y127550D01*
X105571Y127572D01*
X105636Y127598D01*
X105693Y127628D01*
X105743Y127662D01*
X105786Y127700D01*
Y126300D01*
D02*
G37*
G36*
X271810Y127661D02*
X271640Y127601D01*
X271490Y127500D01*
X271360Y127360D01*
X271250Y127179D01*
X271160Y126957D01*
X271090Y126696D01*
X271040Y126394D01*
X271010Y126052D01*
X271000Y125670D01*
X269000D01*
X268990Y126052D01*
X268960Y126394D01*
X268910Y126696D01*
X268840Y126957D01*
X268750Y127179D01*
X268640Y127360D01*
X268510Y127500D01*
X268360Y127601D01*
X268190Y127661D01*
X268000Y127682D01*
X272000D01*
X271810Y127661D01*
D02*
G37*
G36*
X64301Y124554D02*
X63301Y124542D01*
Y125542D01*
X64301Y125596D01*
Y124554D01*
D02*
G37*
G36*
X218541Y128769D02*
X219242Y128169D01*
X219580Y127925D01*
X219908Y127719D01*
X220229Y127550D01*
X220541Y127419D01*
X220844Y127325D01*
X221138Y127269D01*
X221424Y127250D01*
Y125750D01*
X221138Y125731D01*
X220844Y125675D01*
X220541Y125581D01*
X220229Y125450D01*
X219908Y125281D01*
X219580Y125075D01*
X219242Y124831D01*
X218896Y124550D01*
X218178Y123875D01*
Y129125D01*
X218541Y128769D01*
D02*
G37*
G36*
X212822Y123875D02*
X212503Y124184D01*
X212185Y124460D01*
X211866Y124704D01*
X211548Y124915D01*
X211229Y125094D01*
X210910Y125240D01*
X210592Y125354D01*
X210273Y125435D01*
X209955Y125484D01*
X209636Y125500D01*
Y127500D01*
X209955Y127516D01*
X210273Y127565D01*
X210592Y127646D01*
X210910Y127760D01*
X211229Y127906D01*
X211548Y128085D01*
X211866Y128296D01*
X212185Y128540D01*
X212503Y128816D01*
X212822Y129125D01*
Y123875D01*
D02*
G37*
G36*
X39330Y124544D02*
X39245Y124514D01*
X39170Y124464D01*
X39105Y124394D01*
X39050Y124304D01*
X39005Y124194D01*
X38970Y124064D01*
X38945Y123914D01*
X38935Y123794D01*
X38945Y123672D01*
X38970Y123521D01*
X39005Y123389D01*
X39050Y123278D01*
X39105Y123187D01*
X39170Y123116D01*
X39245Y123065D01*
X39330Y123035D01*
X39425Y123025D01*
X37425D01*
X37520Y123035D01*
X37605Y123065D01*
X37680Y123116D01*
X37745Y123187D01*
X37800Y123278D01*
X37845Y123389D01*
X37880Y123521D01*
X37905Y123672D01*
X37916Y123794D01*
X37905Y123914D01*
X37880Y124064D01*
X37845Y124194D01*
X37800Y124304D01*
X37745Y124394D01*
X37680Y124464D01*
X37605Y124514D01*
X37520Y124544D01*
X37425Y124554D01*
X39425D01*
X39330Y124544D01*
D02*
G37*
G36*
X59302Y124021D02*
X59496Y124022D01*
X59499Y123971D01*
X60040Y123833D01*
X59941Y123725D01*
X59859Y123616D01*
X59794Y123507D01*
X59746Y123397D01*
X59715Y123286D01*
X59701Y123174D01*
X59704Y123062D01*
X59724Y122949D01*
X59761Y122835D01*
X59816Y122720D01*
X58722Y123072D01*
X57447Y123068D01*
X57456Y123087D01*
X57465Y123122D01*
X57472Y123174D01*
X57484Y123329D01*
X57496Y123843D01*
X57496Y124014D01*
X58806Y124019D01*
X58912Y124120D01*
X59302Y124021D01*
D02*
G37*
G36*
X36151Y121995D02*
X36141Y121999D01*
X36111Y122002D01*
X36061Y122005D01*
X35151Y122016D01*
Y123016D01*
X36151Y123037D01*
Y121995D01*
D02*
G37*
G36*
X68859Y123033D02*
X68889Y123029D01*
X68939Y123026D01*
X69849Y123016D01*
Y122016D01*
X68849Y121995D01*
Y123037D01*
X68859Y123033D01*
D02*
G37*
G36*
X197421Y123507D02*
X197234Y123305D01*
X197067Y123092D01*
X196920Y122870D01*
X196792Y122637D01*
X196685Y122395D01*
X196598Y122142D01*
X196531Y121879D01*
X196484Y121606D01*
X196457Y121323D01*
X196450Y121029D01*
X193529Y123950D01*
X193823Y123957D01*
X194106Y123984D01*
X194379Y124031D01*
X194642Y124098D01*
X194895Y124185D01*
X195137Y124292D01*
X195370Y124419D01*
X195592Y124567D01*
X195805Y124734D01*
X196007Y124921D01*
X197421Y123507D01*
D02*
G37*
G36*
X181195Y124734D02*
X181408Y124567D01*
X181630Y124419D01*
X181863Y124292D01*
X182106Y124185D01*
X182358Y124098D01*
X182621Y124031D01*
X182894Y123984D01*
X183177Y123957D01*
X183470Y123950D01*
X180550Y121029D01*
X180543Y121323D01*
X180516Y121606D01*
X180469Y121879D01*
X180402Y122142D01*
X180315Y122395D01*
X180208Y122637D01*
X180080Y122870D01*
X179933Y123092D01*
X179766Y123305D01*
X179579Y123507D01*
X180993Y124921D01*
X181195Y124734D01*
D02*
G37*
G36*
X40709Y120474D02*
X40739Y120470D01*
X40789Y120467D01*
X41699Y120457D01*
Y119457D01*
X40699Y119436D01*
Y120478D01*
X40709Y120474D01*
D02*
G37*
G36*
X68859Y120474D02*
X68889Y120470D01*
X68939Y120467D01*
X69849Y120457D01*
Y119457D01*
X68849Y119436D01*
Y120478D01*
X68859Y120474D01*
D02*
G37*
G36*
X278215Y118750D02*
X278062Y118893D01*
X277899Y119020D01*
X277725Y119132D01*
X277541Y119230D01*
X277346Y119313D01*
X277140Y119380D01*
X276923Y119432D01*
X276696Y119470D01*
X276458Y119492D01*
X276209Y119500D01*
Y121500D01*
X276458Y121508D01*
X276696Y121530D01*
X276923Y121567D01*
X277140Y121620D01*
X277346Y121687D01*
X277541Y121770D01*
X277725Y121868D01*
X277899Y121980D01*
X278062Y122108D01*
X278215Y122250D01*
Y118750D01*
D02*
G37*
G36*
X39330Y119426D02*
X39245Y119396D01*
X39170Y119346D01*
X39105Y119276D01*
X39050Y119186D01*
X39005Y119076D01*
X38970Y118946D01*
X38945Y118796D01*
X38935Y118676D01*
X38945Y118554D01*
X38970Y118403D01*
X39005Y118271D01*
X39050Y118160D01*
X39105Y118069D01*
X39170Y117998D01*
X39245Y117947D01*
X39330Y117917D01*
X39425Y117907D01*
X37425D01*
X37520Y117917D01*
X37605Y117947D01*
X37680Y117998D01*
X37745Y118069D01*
X37800Y118160D01*
X37845Y118271D01*
X37880Y118403D01*
X37905Y118554D01*
X37916Y118676D01*
X37905Y118796D01*
X37880Y118946D01*
X37845Y119076D01*
X37800Y119186D01*
X37745Y119276D01*
X37680Y119346D01*
X37605Y119396D01*
X37520Y119426D01*
X37425Y119436D01*
X39425D01*
X39330Y119426D01*
D02*
G37*
G36*
X62890Y118183D02*
X62815Y118106D01*
X62690Y117957D01*
X62639Y117887D01*
X62596Y117818D01*
X62561Y117752D01*
X62534Y117688D01*
X62515Y117627D01*
X62503Y117567D01*
X62500Y117510D01*
X61510Y118500D01*
X61567Y118503D01*
X61626Y118515D01*
X61688Y118534D01*
X61752Y118561D01*
X61818Y118596D01*
X61887Y118639D01*
X61957Y118690D01*
X62030Y118749D01*
X62183Y118890D01*
X62890Y118183D01*
D02*
G37*
G36*
X106457Y120677D02*
X106484Y120394D01*
X106531Y120121D01*
X106598Y119858D01*
X106685Y119606D01*
X106792Y119363D01*
X106920Y119130D01*
X107067Y118908D01*
X107234Y118695D01*
X107421Y118493D01*
X106007Y117079D01*
X105805Y117266D01*
X105592Y117433D01*
X105370Y117580D01*
X105137Y117708D01*
X104894Y117815D01*
X104642Y117902D01*
X104379Y117969D01*
X104106Y118016D01*
X103823Y118043D01*
X103530Y118050D01*
X106450Y120970D01*
X106457Y120677D01*
D02*
G37*
G36*
X68859Y117918D02*
X69009Y117917D01*
X69849Y117915D01*
Y116915D01*
X68849Y116877D01*
Y117919D01*
X68859Y117918D01*
D02*
G37*
G36*
X155315Y118636D02*
X155092Y118380D01*
X154894Y118125D01*
X154723Y117872D01*
X154579Y117620D01*
X154460Y117369D01*
X154368Y117119D01*
X154303Y116870D01*
X154263Y116623D01*
X154250Y116377D01*
X152750D01*
X152737Y116623D01*
X152697Y116870D01*
X152632Y117119D01*
X152540Y117369D01*
X152421Y117620D01*
X152277Y117872D01*
X152106Y118125D01*
X151908Y118380D01*
X151685Y118636D01*
X151435Y118893D01*
X155565D01*
X155315Y118636D01*
D02*
G37*
G36*
X145315D02*
X145092Y118380D01*
X144894Y118125D01*
X144723Y117872D01*
X144579Y117620D01*
X144460Y117369D01*
X144368Y117119D01*
X144303Y116870D01*
X144263Y116623D01*
X144250Y116377D01*
X142750D01*
X142737Y116623D01*
X142697Y116870D01*
X142632Y117119D01*
X142540Y117369D01*
X142421Y117620D01*
X142277Y117872D01*
X142106Y118125D01*
X141908Y118380D01*
X141685Y118636D01*
X141435Y118893D01*
X145565D01*
X145315Y118636D01*
D02*
G37*
G36*
X135315D02*
X135092Y118380D01*
X134894Y118125D01*
X134723Y117872D01*
X134579Y117620D01*
X134460Y117369D01*
X134368Y117119D01*
X134303Y116870D01*
X134263Y116623D01*
X134250Y116377D01*
X132750D01*
X132737Y116623D01*
X132697Y116870D01*
X132632Y117119D01*
X132540Y117369D01*
X132421Y117620D01*
X132277Y117872D01*
X132106Y118125D01*
X131908Y118380D01*
X131685Y118636D01*
X131435Y118893D01*
X135565D01*
X135315Y118636D01*
D02*
G37*
G36*
X84499Y118122D02*
X84499Y118122D01*
X84499D01*
X84372Y117981D01*
X84273Y117840D01*
X84202Y117698D01*
X84159Y117557D01*
X84145Y117415D01*
X84159Y117274D01*
X84202Y117132D01*
X84273Y116991D01*
X84372Y116850D01*
X84499Y116708D01*
X84499D01*
X84499Y116708D01*
X83585Y116208D01*
X83440Y116342D01*
X83290Y116463D01*
X83134Y116569D01*
X82972Y116661D01*
X82804Y116738D01*
X82631Y116802D01*
X82451Y116852D01*
X82266Y116887D01*
X82075Y116908D01*
X81878Y116915D01*
Y116915D01*
Y117915D01*
Y117915D01*
X82075Y117922D01*
X82266Y117944D01*
X82451Y117979D01*
X82631Y118028D01*
X82804Y118092D01*
X82972Y118170D01*
X83134Y118262D01*
X83290Y118368D01*
X83440Y118488D01*
X83585Y118622D01*
X84499Y118122D01*
D02*
G37*
G36*
X43014Y116898D02*
X42831Y116891D01*
X42682Y116869D01*
X42567Y116834D01*
X42487Y116785D01*
X42440Y116721D01*
X42428Y116643D01*
X42450Y116551D01*
X42506Y116445D01*
X42596Y116325D01*
X42721Y116191D01*
X41306D01*
X41162Y116325D01*
X41012Y116445D01*
X40856Y116551D01*
X40694Y116643D01*
X40526Y116721D01*
X40352Y116785D01*
X40173Y116834D01*
X39987Y116869D01*
X39796Y116891D01*
X39599Y116898D01*
X40806Y117898D01*
X43014Y116898D01*
D02*
G37*
G36*
X154258Y115786D02*
X154280Y115529D01*
X154317Y115302D01*
X154370Y115105D01*
X154437Y114939D01*
X154520Y114803D01*
X154618Y114697D01*
X154730Y114621D01*
X154858Y114576D01*
X155000Y114561D01*
X152000D01*
X152143Y114576D01*
X152270Y114621D01*
X152383Y114697D01*
X152480Y114803D01*
X152562Y114939D01*
X152630Y115105D01*
X152682Y115302D01*
X152720Y115529D01*
X152743Y115786D01*
X152750Y116073D01*
X154250D01*
X154258Y115786D01*
D02*
G37*
G36*
X144257D02*
X144280Y115529D01*
X144317Y115302D01*
X144370Y115105D01*
X144438Y114939D01*
X144520Y114803D01*
X144617Y114697D01*
X144730Y114621D01*
X144858Y114576D01*
X145000Y114561D01*
X142000D01*
X142142Y114576D01*
X142270Y114621D01*
X142383Y114697D01*
X142480Y114803D01*
X142562Y114939D01*
X142630Y115105D01*
X142683Y115302D01*
X142720Y115529D01*
X142743Y115786D01*
X142750Y116073D01*
X144250D01*
X144257Y115786D01*
D02*
G37*
G36*
X134257D02*
X134280Y115529D01*
X134318Y115302D01*
X134370Y115105D01*
X134438Y114939D01*
X134520Y114803D01*
X134617Y114697D01*
X134730Y114621D01*
X134857Y114576D01*
X135000Y114561D01*
X132000D01*
X132142Y114576D01*
X132270Y114621D01*
X132383Y114697D01*
X132480Y114803D01*
X132562Y114939D01*
X132630Y115105D01*
X132683Y115302D01*
X132720Y115529D01*
X132743Y115786D01*
X132750Y116073D01*
X134250D01*
X134257Y115786D01*
D02*
G37*
G36*
X68859Y115356D02*
X68889Y115352D01*
X68939Y115349D01*
X69849Y115339D01*
Y114339D01*
X68849Y114318D01*
Y115360D01*
X68859Y115356D01*
D02*
G37*
G36*
X85894Y115315D02*
X86043Y115190D01*
X86113Y115139D01*
X86182Y115096D01*
X86248Y115061D01*
X86312Y115034D01*
X86374Y115015D01*
X86433Y115003D01*
X86490Y115000D01*
X85500Y114010D01*
X85497Y114067D01*
X85485Y114127D01*
X85466Y114188D01*
X85439Y114252D01*
X85404Y114318D01*
X85361Y114387D01*
X85310Y114457D01*
X85251Y114530D01*
X85110Y114683D01*
X85817Y115390D01*
X85894Y115315D01*
D02*
G37*
G36*
X39330Y114307D02*
X39245Y114278D01*
X39170Y114227D01*
X39105Y114157D01*
X39050Y114067D01*
X39005Y113958D01*
X38970Y113828D01*
X38945Y113678D01*
X38935Y113558D01*
X38945Y113436D01*
X38970Y113285D01*
X39005Y113153D01*
X39050Y113042D01*
X39105Y112951D01*
X39170Y112880D01*
X39245Y112829D01*
X39330Y112799D01*
X39425Y112789D01*
X37425D01*
X37520Y112799D01*
X37605Y112829D01*
X37680Y112880D01*
X37745Y112951D01*
X37800Y113042D01*
X37845Y113153D01*
X37880Y113285D01*
X37905Y113436D01*
X37916Y113558D01*
X37905Y113678D01*
X37880Y113828D01*
X37845Y113958D01*
X37800Y114067D01*
X37745Y114157D01*
X37680Y114227D01*
X37605Y114278D01*
X37520Y114307D01*
X37425Y114318D01*
X39425D01*
X39330Y114307D01*
D02*
G37*
G36*
X36151Y111758D02*
X36141Y111762D01*
X36111Y111766D01*
X36061Y111769D01*
X35151Y111779D01*
Y112779D01*
X36151Y112801D01*
Y111758D01*
D02*
G37*
G36*
X68859Y112797D02*
X68889Y112793D01*
X68939Y112790D01*
X69849Y112779D01*
Y111779D01*
X68849Y111758D01*
Y112801D01*
X68859Y112797D01*
D02*
G37*
G36*
X98513Y113371D02*
X98553Y112861D01*
X98620Y112411D01*
X98713Y112021D01*
X98834Y111691D01*
X98980Y111421D01*
X99154Y111211D01*
X99354Y111061D01*
X99581Y110971D01*
X99835Y110941D01*
X94000Y110929D01*
X94285Y110959D01*
X94540Y111050D01*
X94765Y111201D01*
X94960Y111412D01*
X95125Y111683D01*
X95260Y112015D01*
X95365Y112406D01*
X95440Y112857D01*
X95485Y113369D01*
X95500Y113941D01*
X98500D01*
X98513Y113371D01*
D02*
G37*
G36*
X93165Y104606D02*
X93136Y104891D01*
X93046Y105146D01*
X92896Y105371D01*
X92686Y105566D01*
X92415Y105731D01*
X92086Y105866D01*
X91696Y105971D01*
X91568Y105992D01*
X91441Y105971D01*
X91049Y105866D01*
X90718Y105731D01*
X90447Y105566D01*
X90236Y105371D01*
X90086Y105146D01*
X89995Y104891D01*
X89965Y104606D01*
Y110606D01*
X89995Y110321D01*
X90086Y110066D01*
X90236Y109841D01*
X90447Y109646D01*
X90718Y109481D01*
X91049Y109346D01*
X91441Y109241D01*
X91568Y109220D01*
X91696Y109241D01*
X92086Y109346D01*
X92415Y109481D01*
X92686Y109646D01*
X92896Y109841D01*
X93046Y110066D01*
X93136Y110321D01*
X93165Y110606D01*
Y104606D01*
D02*
G37*
G36*
X64301Y109199D02*
X64291Y109203D01*
X64261Y109207D01*
X64211Y109210D01*
X63301Y109221D01*
Y110221D01*
X64301Y110241D01*
Y109199D01*
D02*
G37*
G36*
X85583Y106545D02*
X85448Y106652D01*
X85268Y106747D01*
X85045Y106831D01*
X84776Y106904D01*
X84463Y106966D01*
X84105Y107017D01*
X83308Y107080D01*
Y106606D01*
X83298Y106701D01*
X83268Y106786D01*
X83218Y106861D01*
X83148Y106926D01*
X83058Y106981D01*
X82948Y107026D01*
X82818Y107061D01*
X82668Y107086D01*
X82512Y107100D01*
X82228Y107106D01*
Y108106D01*
X82361Y108108D01*
X82498Y108111D01*
X82668Y108126D01*
X82818Y108151D01*
X82948Y108186D01*
X83058Y108231D01*
X83148Y108286D01*
X83218Y108351D01*
X83268Y108426D01*
X83298Y108511D01*
X83308Y108606D01*
Y108155D01*
X84463Y108247D01*
X84776Y108308D01*
X85045Y108381D01*
X85268Y108466D01*
X85448Y108561D01*
X85583Y108668D01*
Y106545D01*
D02*
G37*
G36*
X18889Y108682D02*
X18744Y108513D01*
X18615Y108311D01*
X18502Y108078D01*
X18404Y107811D01*
X18322Y107512D01*
X18256Y107181D01*
X18206Y106817D01*
X18153Y105993D01*
X18149Y105532D01*
X15032Y108650D01*
X15493Y108652D01*
X16318Y108706D01*
X16681Y108756D01*
X17012Y108822D01*
X17311Y108904D01*
X17578Y109002D01*
X17811Y109115D01*
X18013Y109244D01*
X18182Y109389D01*
X18889Y108682D01*
D02*
G37*
G36*
X99853Y110321D02*
X99943Y110066D01*
X100093Y109841D01*
X100304Y109646D01*
X100575Y109481D01*
X100907Y109346D01*
X101298Y109241D01*
X101750Y109166D01*
X102262Y109121D01*
X102834Y109106D01*
Y106106D01*
X102262Y106091D01*
X101750Y106046D01*
X101298Y105971D01*
X100907Y105866D01*
X100575Y105731D01*
X100304Y105566D01*
X100093Y105371D01*
X99943Y105146D01*
X99853Y104891D01*
X99822Y104606D01*
Y110606D01*
X99853Y110321D01*
D02*
G37*
G36*
X59067Y105106D02*
X59053Y105082D01*
X59041Y105048D01*
X59030Y105002D01*
X59021Y104946D01*
X59008Y104800D01*
X59001Y104611D01*
X59000Y104500D01*
X58000D01*
X57999Y104611D01*
X57970Y105002D01*
X57959Y105048D01*
X57947Y105082D01*
X57933Y105106D01*
X57917Y105118D01*
X59083D01*
X59067Y105106D01*
D02*
G37*
G36*
X156508Y106100D02*
X156553Y105973D01*
X156629Y105860D01*
X156734Y105763D01*
X156870Y105680D01*
X157037Y105613D01*
X157233Y105560D01*
X157460Y105523D01*
X157717Y105500D01*
X158004Y105492D01*
Y103992D01*
X157717Y103985D01*
X157460Y103963D01*
X157233Y103925D01*
X157037Y103873D01*
X156870Y103805D01*
X156734Y103723D01*
X156629Y103625D01*
X156553Y103513D01*
X156508Y103385D01*
X156492Y103243D01*
Y106243D01*
X156508Y106100D01*
D02*
G37*
G36*
X73002Y103358D02*
X73018Y103165D01*
X73032Y103079D01*
X73050Y103000D01*
X73072Y102928D01*
X73098Y102864D01*
X73128Y102807D01*
X73162Y102757D01*
X73200Y102714D01*
X71800D01*
X71838Y102757D01*
X71872Y102807D01*
X71902Y102864D01*
X71928Y102928D01*
X71950Y103000D01*
X71968Y103079D01*
X71982Y103165D01*
X71992Y103258D01*
X72000Y103466D01*
X73000D01*
X73002Y103358D01*
D02*
G37*
G36*
X145909Y104398D02*
X145868Y104261D01*
X145869Y104103D01*
X145913Y103923D01*
X145999Y103721D01*
X146127Y103498D01*
X146298Y103254D01*
X146511Y102988D01*
X147065Y102392D01*
X146004Y101332D01*
X145696Y101630D01*
X145143Y102099D01*
X144899Y102270D01*
X144676Y102398D01*
X144474Y102484D01*
X144294Y102528D01*
X144136Y102529D01*
X143999Y102488D01*
X143883Y102404D01*
X145993Y104514D01*
X145909Y104398D01*
D02*
G37*
G36*
X135857Y102389D02*
X135730Y102344D01*
X135617Y102268D01*
X135520Y102162D01*
X135438Y102026D01*
X135370Y101860D01*
X135318Y101663D01*
X135280Y101437D01*
X135257Y101180D01*
X135250Y100892D01*
X133750D01*
X133742Y101180D01*
X133720Y101437D01*
X133683Y101663D01*
X133630Y101860D01*
X133563Y102026D01*
X133480Y102162D01*
X133382Y102268D01*
X133270Y102344D01*
X133142Y102389D01*
X133000Y102404D01*
X136000D01*
X135857Y102389D01*
D02*
G37*
G36*
X68859Y100001D02*
X68889Y99998D01*
X68939Y99995D01*
X69849Y99984D01*
Y98984D01*
X68849Y98963D01*
Y100005D01*
X68859Y100001D01*
D02*
G37*
G36*
X64301Y98963D02*
X64293Y98967D01*
X64270Y98971D01*
X64230Y98974D01*
X63916Y98982D01*
X63516Y98984D01*
Y99984D01*
X64301Y100005D01*
Y98963D01*
D02*
G37*
G36*
X74995Y98907D02*
X74985Y98922D01*
X74955Y98935D01*
X74906Y98946D01*
X74835Y98957D01*
X74635Y98972D01*
X73996Y98984D01*
Y99984D01*
X74187Y99989D01*
X74359Y100004D01*
X74510Y100029D01*
X74641Y100064D01*
X74753Y100109D01*
X74844Y100164D01*
X74915Y100229D01*
X74966Y100304D01*
X74997Y100389D01*
X75007Y100484D01*
X74995Y98907D01*
D02*
G37*
G36*
X18845Y98638D02*
X18645Y98431D01*
X18332Y98062D01*
X18218Y97899D01*
X18132Y97751D01*
X18074Y97616D01*
X18044Y97497D01*
X18043Y97391D01*
X18070Y97300D01*
X18126Y97223D01*
X16723Y98626D01*
X16800Y98570D01*
X16891Y98543D01*
X16997Y98544D01*
X17117Y98574D01*
X17251Y98632D01*
X17399Y98718D01*
X17562Y98832D01*
X17740Y98975D01*
X18138Y99345D01*
X18845Y98638D01*
D02*
G37*
G36*
X67480Y98953D02*
X67395Y98923D01*
X67320Y98873D01*
X67255Y98803D01*
X67200Y98713D01*
X67155Y98603D01*
X67120Y98473D01*
X67095Y98323D01*
X67084Y98203D01*
X67095Y98082D01*
X67120Y97930D01*
X67155Y97799D01*
X67200Y97687D01*
X67255Y97596D01*
X67320Y97525D01*
X67395Y97475D01*
X67480Y97444D01*
X67575Y97434D01*
X65575D01*
X65670Y97444D01*
X65755Y97475D01*
X65830Y97525D01*
X65895Y97596D01*
X65950Y97687D01*
X65995Y97799D01*
X66030Y97930D01*
X66055Y98082D01*
X66065Y98203D01*
X66055Y98323D01*
X66030Y98473D01*
X65995Y98603D01*
X65950Y98713D01*
X65895Y98803D01*
X65830Y98873D01*
X65755Y98923D01*
X65670Y98953D01*
X65575Y98963D01*
X67575D01*
X67480Y98953D01*
D02*
G37*
G36*
X93177Y92614D02*
X93157Y92804D01*
X93097Y92974D01*
X92997Y93124D01*
X92856Y93254D01*
X92674Y93364D01*
X92453Y93454D01*
X92192Y93524D01*
X91890Y93574D01*
X91572Y93602D01*
X91257Y93574D01*
X90957Y93524D01*
X90697Y93454D01*
X90477Y93364D01*
X90297Y93254D01*
X90157Y93124D01*
X90057Y92974D01*
X89997Y92804D01*
X89977Y92614D01*
Y96614D01*
X89997Y96424D01*
X90057Y96254D01*
X90157Y96104D01*
X90297Y95974D01*
X90477Y95864D01*
X90697Y95774D01*
X90957Y95704D01*
X91257Y95654D01*
X91572Y95626D01*
X91890Y95654D01*
X92192Y95704D01*
X92453Y95774D01*
X92674Y95864D01*
X92856Y95974D01*
X92997Y96104D01*
X93097Y96254D01*
X93157Y96424D01*
X93177Y96614D01*
Y92614D01*
D02*
G37*
G36*
X128050Y95571D02*
X125950D01*
X125960Y95590D01*
X125968Y95625D01*
X125976Y95677D01*
X125988Y95832D01*
X125999Y96347D01*
X126000Y96518D01*
X128000D01*
X128050Y95571D01*
D02*
G37*
G36*
X105929Y93450D02*
X105911Y93459D01*
X105875Y93468D01*
X105823Y93476D01*
X105668Y93488D01*
X105153Y93499D01*
X104982Y93500D01*
Y95500D01*
X105929Y95550D01*
Y93450D01*
D02*
G37*
G36*
X99854Y96310D02*
X99914Y96140D01*
X100014Y95990D01*
X100154Y95860D01*
X100335Y95750D01*
X100554Y95660D01*
X100814Y95590D01*
X101114Y95540D01*
X101454Y95510D01*
X101834Y95500D01*
Y93500D01*
X101454Y93490D01*
X101114Y93460D01*
X100814Y93410D01*
X100554Y93340D01*
X100335Y93250D01*
X100154Y93140D01*
X100014Y93010D01*
X99914Y92860D01*
X99854Y92690D01*
X99835Y92500D01*
Y96500D01*
X99854Y96310D01*
D02*
G37*
G36*
X78905Y91429D02*
X78820Y91399D01*
X78745Y91348D01*
X78680Y91277D01*
X78625Y91186D01*
X78580Y91075D01*
X78545Y90943D01*
X78520Y90791D01*
X78505Y90619D01*
X78500Y90427D01*
X77500D01*
X77495Y90619D01*
X77480Y90791D01*
X77455Y90943D01*
X77420Y91075D01*
X77375Y91186D01*
X77320Y91277D01*
X77255Y91348D01*
X77180Y91399D01*
X77095Y91429D01*
X77000Y91439D01*
X79000D01*
X78905Y91429D01*
D02*
G37*
G36*
X78502Y89859D02*
X78518Y89665D01*
X78532Y89579D01*
X78550Y89500D01*
X78572Y89429D01*
X78598Y89364D01*
X78628Y89307D01*
X78662Y89257D01*
X78700Y89214D01*
X77300D01*
X77338Y89257D01*
X77372Y89307D01*
X77402Y89364D01*
X77428Y89429D01*
X77450Y89500D01*
X77468Y89579D01*
X77482Y89665D01*
X77492Y89758D01*
X77500Y89966D01*
X78500D01*
X78502Y89859D01*
D02*
G37*
G36*
X209497Y90320D02*
X209519Y90063D01*
X209557Y89837D01*
X209609Y89640D01*
X209677Y89474D01*
X209759Y89338D01*
X209857Y89232D01*
X209969Y89156D01*
X210097Y89111D01*
X210239Y89096D01*
X207239D01*
X207382Y89111D01*
X207509Y89156D01*
X207622Y89232D01*
X207719Y89338D01*
X207802Y89474D01*
X207869Y89640D01*
X207922Y89837D01*
X207959Y90063D01*
X207982Y90320D01*
X207989Y90608D01*
X209489D01*
X209497Y90320D01*
D02*
G37*
G36*
X116252Y91038D02*
X116351Y90078D01*
X116438Y89688D01*
X116550Y89358D01*
X116687Y89088D01*
X116849Y88878D01*
X117035Y88728D01*
X117247Y88638D01*
X117483Y88608D01*
X111995D01*
X112232Y88638D01*
X112443Y88728D01*
X112630Y88878D01*
X112792Y89088D01*
X112928Y89358D01*
X113040Y89688D01*
X113127Y90078D01*
X113190Y90528D01*
X113227Y91038D01*
X113239Y91608D01*
X116239D01*
X116252Y91038D01*
D02*
G37*
G36*
X141497Y89820D02*
X141519Y89563D01*
X141557Y89337D01*
X141609Y89140D01*
X141677Y88974D01*
X141759Y88838D01*
X141857Y88732D01*
X141969Y88656D01*
X142097Y88611D01*
X142239Y88596D01*
X139239D01*
X139382Y88611D01*
X139509Y88656D01*
X139622Y88732D01*
X139719Y88838D01*
X139802Y88974D01*
X139869Y89140D01*
X139922Y89337D01*
X139959Y89563D01*
X139982Y89820D01*
X139989Y90108D01*
X141489D01*
X141497Y89820D01*
D02*
G37*
G36*
X88571Y91272D02*
X88401Y91211D01*
X88251Y91111D01*
X88121Y90970D01*
X88011Y90789D01*
X87921Y90567D01*
X87851Y90306D01*
X87801Y90004D01*
X87794Y89926D01*
X87801Y89849D01*
X87851Y89547D01*
X87921Y89285D01*
X88011Y89064D01*
X88121Y88883D01*
X88251Y88742D01*
X88401Y88642D01*
X88571Y88581D01*
X88761Y88561D01*
X84761D01*
X84951Y88581D01*
X85121Y88642D01*
X85271Y88742D01*
X85401Y88883D01*
X85511Y89064D01*
X85601Y89285D01*
X85671Y89547D01*
X85721Y89849D01*
X85727Y89926D01*
X85721Y90004D01*
X85671Y90306D01*
X85601Y90567D01*
X85511Y90789D01*
X85401Y90970D01*
X85271Y91111D01*
X85121Y91211D01*
X84951Y91272D01*
X84761Y91292D01*
X88761D01*
X88571Y91272D01*
D02*
G37*
G36*
X129508Y84258D02*
X129487Y84447D01*
X129427Y84618D01*
X129326Y84768D01*
X129185Y84898D01*
X129005Y85008D01*
X128783Y85097D01*
X128522Y85167D01*
X128220Y85217D01*
X127991Y85238D01*
X127763Y85217D01*
X127463Y85167D01*
X127203Y85097D01*
X126983Y85008D01*
X126803Y84898D01*
X126663Y84768D01*
X126563Y84618D01*
X126503Y84447D01*
X126483Y84258D01*
Y88257D01*
X126503Y88068D01*
X126563Y87897D01*
X126663Y87748D01*
X126803Y87617D01*
X126983Y87507D01*
X127203Y87418D01*
X127463Y87348D01*
X127763Y87297D01*
X127991Y87277D01*
X128220Y87297D01*
X128522Y87348D01*
X128783Y87418D01*
X129005Y87507D01*
X129185Y87617D01*
X129326Y87748D01*
X129427Y87897D01*
X129487Y88068D01*
X129508Y88257D01*
Y84258D01*
D02*
G37*
G36*
X121008D02*
X120987Y84447D01*
X120927Y84618D01*
X120826Y84768D01*
X120686Y84898D01*
X120504Y85008D01*
X120283Y85097D01*
X120022Y85167D01*
X119720Y85217D01*
X119378Y85247D01*
X119240Y85251D01*
X119103Y85247D01*
X118763Y85217D01*
X118463Y85167D01*
X118203Y85097D01*
X117983Y85008D01*
X117803Y84898D01*
X117663Y84768D01*
X117563Y84618D01*
X117503Y84447D01*
X117483Y84258D01*
Y85230D01*
X115799Y85196D01*
Y87319D01*
X115841Y87307D01*
X115941Y87297D01*
X116318Y87280D01*
X117483Y87269D01*
Y88257D01*
X117503Y88068D01*
X117563Y87897D01*
X117663Y87748D01*
X117803Y87617D01*
X117983Y87507D01*
X118203Y87418D01*
X118463Y87348D01*
X118763Y87297D01*
X119103Y87268D01*
X119240Y87264D01*
X119378Y87268D01*
X119720Y87297D01*
X120022Y87348D01*
X120283Y87418D01*
X120504Y87507D01*
X120686Y87617D01*
X120826Y87748D01*
X120927Y87897D01*
X120987Y88068D01*
X121008Y88257D01*
Y84258D01*
D02*
G37*
G36*
X112007D02*
X111987Y84447D01*
X111927Y84618D01*
X111826Y84768D01*
X111686Y84898D01*
X111504Y85008D01*
X111283Y85097D01*
X111022Y85167D01*
X110720Y85217D01*
X110378Y85247D01*
X110240Y85251D01*
X110103Y85247D01*
X109763Y85217D01*
X109463Y85167D01*
X109203Y85097D01*
X108983Y85008D01*
X108803Y84898D01*
X108663Y84768D01*
X108563Y84618D01*
X108503Y84447D01*
X108483Y84258D01*
Y88257D01*
X108503Y88068D01*
X108563Y87897D01*
X108663Y87748D01*
X108803Y87617D01*
X108983Y87507D01*
X109203Y87418D01*
X109463Y87348D01*
X109763Y87297D01*
X110103Y87268D01*
X110240Y87264D01*
X110378Y87268D01*
X110720Y87297D01*
X111022Y87348D01*
X111283Y87418D01*
X111504Y87507D01*
X111686Y87617D01*
X111826Y87748D01*
X111927Y87897D01*
X111987Y88068D01*
X112007Y88257D01*
Y84258D01*
D02*
G37*
G36*
X172804Y89370D02*
X173357Y88901D01*
X173601Y88730D01*
X173824Y88602D01*
X174026Y88516D01*
X174206Y88472D01*
X174364Y88471D01*
X174501Y88512D01*
X174617Y88596D01*
X172508Y86486D01*
X172591Y86602D01*
X172632Y86739D01*
X172631Y86897D01*
X172588Y87077D01*
X172502Y87279D01*
X172373Y87502D01*
X172202Y87746D01*
X171989Y88012D01*
X171435Y88608D01*
X172495Y89668D01*
X172804Y89370D01*
D02*
G37*
G36*
X84017Y86724D02*
X84267Y86725D01*
X85772Y86825D01*
X85901Y86856D01*
X85995Y86891D01*
X86054Y86930D01*
Y85515D01*
X85995Y85555D01*
X85901Y85590D01*
X85772Y85621D01*
X85609Y85648D01*
X85177Y85690D01*
X84267Y85721D01*
X84017Y85722D01*
Y85223D01*
X84007Y85318D01*
X83977Y85403D01*
X83927Y85478D01*
X83857Y85543D01*
X83767Y85598D01*
X83657Y85643D01*
X83527Y85678D01*
X83377Y85703D01*
X83207Y85718D01*
X83017Y85723D01*
Y86723D01*
X83207Y86728D01*
X83377Y86743D01*
X83527Y86768D01*
X83657Y86803D01*
X83767Y86848D01*
X83857Y86903D01*
X83927Y86968D01*
X83977Y87043D01*
X84007Y87128D01*
X84017Y87223D01*
Y86724D01*
D02*
G37*
G36*
X148524Y85500D02*
X148509Y85642D01*
X148463Y85770D01*
X148388Y85883D01*
X148282Y85980D01*
X148146Y86063D01*
X147980Y86130D01*
X147783Y86182D01*
X147556Y86220D01*
X147299Y86243D01*
X147012Y86250D01*
Y87750D01*
X147299Y87757D01*
X147556Y87780D01*
X147783Y87818D01*
X147980Y87870D01*
X148146Y87937D01*
X148282Y88020D01*
X148388Y88117D01*
X148463Y88230D01*
X148509Y88358D01*
X148524Y88500D01*
Y85500D01*
D02*
G37*
G36*
X143498Y88358D02*
X143543Y88230D01*
X143618Y88117D01*
X143723Y88020D01*
X143858Y87937D01*
X144023Y87870D01*
X144218Y87818D01*
X144443Y87780D01*
X144698Y87757D01*
X144983Y87750D01*
Y86250D01*
X144698Y86243D01*
X144443Y86220D01*
X144218Y86182D01*
X144023Y86130D01*
X143858Y86063D01*
X143723Y85980D01*
X143618Y85883D01*
X143543Y85770D01*
X143498Y85642D01*
X143483Y85500D01*
Y88500D01*
X143498Y88358D01*
D02*
G37*
G36*
X216524Y84758D02*
X216504Y84948D01*
X216443Y85118D01*
X216343Y85268D01*
X216202Y85397D01*
X216021Y85508D01*
X215800Y85597D01*
X215538Y85668D01*
X215236Y85717D01*
X214894Y85747D01*
X214512Y85757D01*
Y87757D01*
X214894Y87767D01*
X215236Y87797D01*
X215538Y87848D01*
X215800Y87918D01*
X216021Y88007D01*
X216202Y88117D01*
X216343Y88248D01*
X216443Y88398D01*
X216504Y88568D01*
X216524Y88757D01*
Y84758D01*
D02*
G37*
G36*
X211503Y88568D02*
X211563Y88398D01*
X211663Y88248D01*
X211803Y88117D01*
X211983Y88007D01*
X212203Y87918D01*
X212463Y87848D01*
X212763Y87797D01*
X213103Y87767D01*
X213483Y87757D01*
Y85757D01*
X213103Y85747D01*
X212763Y85717D01*
X212463Y85668D01*
X212203Y85597D01*
X211983Y85508D01*
X211803Y85397D01*
X211663Y85268D01*
X211563Y85118D01*
X211503Y84948D01*
X211483Y84758D01*
Y88757D01*
X211503Y88568D01*
D02*
G37*
G36*
X183024Y84258D02*
X183004Y84447D01*
X182943Y84618D01*
X182843Y84768D01*
X182702Y84898D01*
X182521Y85008D01*
X182300Y85097D01*
X182038Y85167D01*
X181736Y85217D01*
X181394Y85247D01*
X181012Y85258D01*
Y87257D01*
X181394Y87268D01*
X181736Y87297D01*
X182038Y87348D01*
X182300Y87418D01*
X182521Y87507D01*
X182702Y87617D01*
X182843Y87748D01*
X182943Y87897D01*
X183004Y88068D01*
X183024Y88257D01*
Y84258D01*
D02*
G37*
G36*
X178003Y88068D02*
X178063Y87897D01*
X178163Y87748D01*
X178303Y87617D01*
X178483Y87507D01*
X178703Y87418D01*
X178963Y87348D01*
X179263Y87297D01*
X179603Y87268D01*
X179983Y87257D01*
Y85258D01*
X179603Y85247D01*
X179263Y85217D01*
X178963Y85167D01*
X178703Y85097D01*
X178483Y85008D01*
X178303Y84898D01*
X178163Y84768D01*
X178063Y84618D01*
X178003Y84447D01*
X177983Y84258D01*
Y88257D01*
X178003Y88068D01*
D02*
G37*
G36*
X93517Y84223D02*
X93497Y84413D01*
X93437Y84583D01*
X93337Y84733D01*
X93197Y84863D01*
X93017Y84973D01*
X92797Y85063D01*
X92537Y85133D01*
X92237Y85183D01*
X91897Y85213D01*
X91517Y85223D01*
Y87223D01*
X91897Y87233D01*
X92237Y87263D01*
X92537Y87313D01*
X92797Y87383D01*
X93017Y87473D01*
X93197Y87583D01*
X93337Y87713D01*
X93437Y87863D01*
X93497Y88033D01*
X93517Y88223D01*
Y84223D01*
D02*
G37*
G36*
X89513Y88033D02*
X89573Y87863D01*
X89674Y87713D01*
X89814Y87583D01*
X89995Y87473D01*
X90217Y87383D01*
X90478Y87313D01*
X90780Y87263D01*
X91122Y87233D01*
X91505Y87223D01*
Y85223D01*
X91122Y85213D01*
X90780Y85183D01*
X90478Y85133D01*
X90217Y85063D01*
X89995Y84973D01*
X89814Y84863D01*
X89674Y84733D01*
X89573Y84583D01*
X89513Y84413D01*
X89492Y84223D01*
Y88223D01*
X89513Y88033D01*
D02*
G37*
G36*
X69503Y84933D02*
X69515Y84873D01*
X69534Y84812D01*
X69561Y84748D01*
X69596Y84682D01*
X69639Y84613D01*
X69690Y84543D01*
X69749Y84470D01*
X69890Y84317D01*
X69183Y83610D01*
X69106Y83684D01*
X68957Y83810D01*
X68887Y83861D01*
X68818Y83904D01*
X68752Y83939D01*
X68688Y83966D01*
X68626Y83985D01*
X68567Y83997D01*
X68510Y84000D01*
X69500Y84990D01*
X69503Y84933D01*
D02*
G37*
G36*
X81784Y82363D02*
X81751Y82313D01*
X81721Y82256D01*
X81695Y82192D01*
X81673Y82120D01*
X81655Y82041D01*
X81640Y81955D01*
X81630Y81862D01*
X81622Y81654D01*
X80623D01*
X80620Y81762D01*
X80604Y81955D01*
X80590Y82041D01*
X80572Y82120D01*
X80550Y82192D01*
X80524Y82256D01*
X80494Y82313D01*
X80461Y82363D01*
X80423Y82406D01*
X81823D01*
X81784Y82363D01*
D02*
G37*
G36*
X84017Y77742D02*
X84007Y77838D01*
X83977Y77922D01*
X83927Y77997D01*
X83857Y78062D01*
X83767Y78118D01*
X83657Y78162D01*
X83527Y78197D01*
X83377Y78223D01*
X83207Y78237D01*
X83017Y78242D01*
Y79242D01*
X83207Y79247D01*
X83377Y79263D01*
X83527Y79287D01*
X83657Y79322D01*
X83767Y79368D01*
X83857Y79422D01*
X83927Y79488D01*
X83977Y79562D01*
X84007Y79647D01*
X84017Y79742D01*
Y77742D01*
D02*
G37*
G36*
X211503Y79949D02*
X211563Y79779D01*
X211663Y79629D01*
X211803Y79499D01*
X211983Y79389D01*
X212203Y79299D01*
X212463Y79229D01*
X212763Y79179D01*
X213103Y79149D01*
X213483Y79139D01*
Y77139D01*
X213103Y77136D01*
X211663Y77035D01*
X211563Y77003D01*
X211503Y76967D01*
X211483Y76927D01*
Y80139D01*
X211503Y79949D01*
D02*
G37*
G36*
X178003Y79699D02*
X178063Y79529D01*
X178163Y79379D01*
X178303Y79249D01*
X178483Y79139D01*
X178703Y79049D01*
X178963Y78979D01*
X179263Y78929D01*
X179603Y78899D01*
X179983Y78889D01*
Y76889D01*
X179603Y76884D01*
X178703Y76815D01*
X178483Y76773D01*
X178303Y76722D01*
X178163Y76662D01*
X178063Y76593D01*
X178003Y76515D01*
X177983Y76427D01*
Y79889D01*
X178003Y79699D01*
D02*
G37*
G36*
X94931Y76392D02*
X94853Y76449D01*
X94761Y76477D01*
X94655D01*
X94535Y76449D01*
X94401Y76392D01*
X94252Y76307D01*
X94090Y76194D01*
X93913Y76053D01*
X93517Y75685D01*
X92810Y76392D01*
X93008Y76597D01*
X93319Y76965D01*
X93432Y77128D01*
X93517Y77276D01*
X93573Y77411D01*
X93602Y77531D01*
Y77637D01*
X93573Y77729D01*
X93517Y77807D01*
X94931Y76392D01*
D02*
G37*
G36*
X143498Y78357D02*
X143543Y78230D01*
X143618Y78118D01*
X143723Y78020D01*
X143858Y77938D01*
X144023Y77870D01*
X144218Y77817D01*
X144443Y77780D01*
X144698Y77758D01*
X144983Y77750D01*
Y76250D01*
X144698Y76252D01*
X143723Y76314D01*
X143618Y76337D01*
X143543Y76363D01*
X143498Y76393D01*
X143483Y76427D01*
Y78500D01*
X143498Y78357D01*
D02*
G37*
G36*
X216605Y76142D02*
X216649Y76331D01*
X216637Y76501D01*
X216568Y76650D01*
X216442Y76780D01*
X216261Y76889D01*
X216022Y76979D01*
X215728Y77049D01*
X215377Y77099D01*
X214970Y77129D01*
X214506Y77139D01*
X215121Y79139D01*
X215612Y79149D01*
X216462Y79228D01*
X216821Y79297D01*
X217136Y79386D01*
X217406Y79495D01*
X217632Y79624D01*
X217814Y79773D01*
X217952Y79941D01*
X218046Y80129D01*
X216605Y76142D01*
D02*
G37*
G36*
X183181Y75892D02*
X183207Y76081D01*
X183179Y76251D01*
X183097Y76400D01*
X182960Y76530D01*
X182769Y76639D01*
X182524Y76729D01*
X182226Y76799D01*
X181872Y76849D01*
X181465Y76879D01*
X181004Y76889D01*
X181488Y78889D01*
X181963Y78899D01*
X182781Y78978D01*
X183123Y79047D01*
X183421Y79136D01*
X183674Y79245D01*
X183883Y79374D01*
X184047Y79523D01*
X184166Y79691D01*
X184241Y79879D01*
X183181Y75892D01*
D02*
G37*
G36*
X16352Y77067D02*
X16408Y76370D01*
X16442Y76187D01*
X16483Y76028D01*
X16532Y75893D01*
X16588Y75783D01*
X16652Y75697D01*
X16723Y75636D01*
X13898Y75951D01*
X13984Y75995D01*
X14061Y76060D01*
X14128Y76147D01*
X14186Y76255D01*
X14236Y76384D01*
X14276Y76534D01*
X14308Y76706D01*
X14330Y76899D01*
X14344Y77113D01*
X14348Y77348D01*
X16348D01*
X16352Y77067D01*
D02*
G37*
G36*
X148799Y75503D02*
X148782Y75645D01*
X148730Y75772D01*
X148643Y75884D01*
X148522Y75981D01*
X148366Y76063D01*
X148175Y76131D01*
X147950Y76183D01*
X147690Y76220D01*
X147396Y76243D01*
X147067Y76250D01*
Y77750D01*
X147396Y77758D01*
X147690Y77780D01*
X147950Y77817D01*
X148175Y77869D01*
X148366Y77937D01*
X148522Y78019D01*
X148643Y78116D01*
X148730Y78228D01*
X148782Y78355D01*
X148799Y78496D01*
Y75503D01*
D02*
G37*
G36*
X115644Y76429D02*
X115559Y76398D01*
X115484Y76348D01*
X115419Y76277D01*
X115364Y76186D01*
X115319Y76075D01*
X115284Y75943D01*
X115259Y75791D01*
X115244Y75619D01*
X115239Y75427D01*
X114239D01*
X114234Y75619D01*
X114219Y75791D01*
X114194Y75943D01*
X114159Y76075D01*
X114114Y76186D01*
X114059Y76277D01*
X113994Y76348D01*
X113919Y76398D01*
X113834Y76429D01*
X113739Y76439D01*
X115739D01*
X115644Y76429D01*
D02*
G37*
G36*
X142097Y76424D02*
X141969Y76379D01*
X141857Y76303D01*
X141759Y76197D01*
X141677Y76061D01*
X141609Y75895D01*
X141557Y75698D01*
X141519Y75471D01*
X141497Y75214D01*
X141489Y74927D01*
X139989D01*
X139982Y75214D01*
X139959Y75471D01*
X139922Y75698D01*
X139869Y75895D01*
X139802Y76061D01*
X139719Y76197D01*
X139622Y76303D01*
X139509Y76379D01*
X139382Y76424D01*
X139239Y76439D01*
X142239D01*
X142097Y76424D01*
D02*
G37*
G36*
X134049Y76419D02*
X133879Y76358D01*
X133729Y76258D01*
X133599Y76117D01*
X133489Y75936D01*
X133399Y75715D01*
X133329Y75453D01*
X133279Y75151D01*
X133249Y74809D01*
X133239Y74427D01*
X131239D01*
X131229Y74809D01*
X131199Y75151D01*
X131149Y75453D01*
X131079Y75715D01*
X130989Y75936D01*
X130879Y76117D01*
X130749Y76258D01*
X130599Y76358D01*
X130429Y76419D01*
X130239Y76439D01*
X134239D01*
X134049Y76419D01*
D02*
G37*
G36*
X125549D02*
X125379Y76358D01*
X125229Y76258D01*
X125099Y76117D01*
X124989Y75936D01*
X124899Y75715D01*
X124829Y75453D01*
X124779Y75151D01*
X124749Y74809D01*
X124739Y74427D01*
X122739D01*
X122729Y74809D01*
X122699Y75151D01*
X122649Y75453D01*
X122579Y75715D01*
X122489Y75936D01*
X122379Y76117D01*
X122249Y76258D01*
X122099Y76358D01*
X121929Y76419D01*
X121739Y76439D01*
X125739D01*
X125549Y76419D01*
D02*
G37*
G36*
X107680D02*
X107510Y76358D01*
X107360Y76258D01*
X107230Y76117D01*
X107120Y75936D01*
X107030Y75715D01*
X106960Y75453D01*
X106910Y75151D01*
X106880Y74809D01*
X106870Y74427D01*
X104870D01*
X104860Y74809D01*
X104830Y75151D01*
X104780Y75453D01*
X104710Y75715D01*
X104620Y75936D01*
X104510Y76117D01*
X104380Y76258D01*
X104230Y76358D01*
X104060Y76419D01*
X103870Y76439D01*
X107870D01*
X107680Y76419D01*
D02*
G37*
G36*
X210549Y76919D02*
X210379Y76859D01*
X210229Y76758D01*
X210099Y76617D01*
X209989Y76436D01*
X209899Y76215D01*
X209829Y75953D01*
X209779Y75651D01*
X209768Y75517D01*
X209779Y75383D01*
X209829Y75082D01*
X209899Y74820D01*
X209989Y74599D01*
X210099Y74418D01*
X210229Y74277D01*
X210379Y74176D01*
X210549Y74116D01*
X210739Y74096D01*
X206739D01*
X206929Y74116D01*
X207099Y74176D01*
X207249Y74277D01*
X207379Y74418D01*
X207489Y74599D01*
X207579Y74820D01*
X207649Y75082D01*
X207699Y75383D01*
X207711Y75517D01*
X207699Y75651D01*
X207649Y75953D01*
X207579Y76215D01*
X207489Y76436D01*
X207379Y76617D01*
X207249Y76758D01*
X207099Y76859D01*
X206929Y76919D01*
X206739Y76939D01*
X210739D01*
X210549Y76919D01*
D02*
G37*
G36*
X177049Y76419D02*
X176879Y76358D01*
X176729Y76258D01*
X176599Y76117D01*
X176489Y75936D01*
X176399Y75715D01*
X176329Y75453D01*
X176279Y75151D01*
X176249Y74809D01*
X176248Y74767D01*
X176249Y74725D01*
X176279Y74383D01*
X176329Y74082D01*
X176399Y73820D01*
X176489Y73599D01*
X176599Y73418D01*
X176729Y73277D01*
X176879Y73176D01*
X177049Y73116D01*
X177239Y73096D01*
X173239D01*
X173429Y73116D01*
X173599Y73176D01*
X173749Y73277D01*
X173879Y73418D01*
X173989Y73599D01*
X174079Y73820D01*
X174149Y74082D01*
X174199Y74383D01*
X174229Y74725D01*
X174231Y74767D01*
X174229Y74809D01*
X174199Y75151D01*
X174149Y75453D01*
X174079Y75715D01*
X173989Y75936D01*
X173879Y76117D01*
X173749Y76258D01*
X173599Y76358D01*
X173429Y76419D01*
X173239Y76439D01*
X177239D01*
X177049Y76419D01*
D02*
G37*
G36*
X141497Y74320D02*
X141519Y74063D01*
X141557Y73837D01*
X141609Y73640D01*
X141677Y73474D01*
X141759Y73338D01*
X141857Y73232D01*
X141969Y73156D01*
X142097Y73111D01*
X142239Y73096D01*
X139239D01*
X139382Y73111D01*
X139509Y73156D01*
X139622Y73232D01*
X139719Y73338D01*
X139802Y73474D01*
X139869Y73640D01*
X139922Y73837D01*
X139959Y74063D01*
X139982Y74320D01*
X139989Y74608D01*
X141489D01*
X141497Y74320D01*
D02*
G37*
G36*
X170107Y72562D02*
X169980Y72399D01*
X169868Y72225D01*
X169770Y72041D01*
X169687Y71846D01*
X169620Y71640D01*
X169568Y71423D01*
X169530Y71196D01*
X169508Y70957D01*
X169500Y70709D01*
X167500D01*
X167492Y70957D01*
X167470Y71196D01*
X167432Y71423D01*
X167380Y71640D01*
X167313Y71846D01*
X167230Y72041D01*
X167132Y72225D01*
X167020Y72399D01*
X166893Y72562D01*
X166750Y72715D01*
X170250D01*
X170107Y72562D01*
D02*
G37*
G36*
X40468Y69350D02*
X40269Y69340D01*
X40065Y69305D01*
X39856Y69246D01*
X39643Y69162D01*
X39424Y69054D01*
X39202Y68921D01*
X38975Y68764D01*
X38743Y68582D01*
X38507Y68376D01*
X38266Y68145D01*
X36145Y70266D01*
X36376Y70507D01*
X36764Y70975D01*
X36921Y71202D01*
X37054Y71425D01*
X37162Y71643D01*
X37246Y71856D01*
X37306Y72065D01*
X37340Y72269D01*
X37350Y72469D01*
X40468Y69350D01*
D02*
G37*
G36*
X106870Y69451D02*
X106911Y68774D01*
X106923Y68719D01*
X106937Y68680D01*
X106953Y68658D01*
X104929Y68482D01*
Y66450D01*
X104911Y66460D01*
X104875Y66468D01*
X104823Y66475D01*
X104668Y66487D01*
X104153Y66500D01*
X103982Y66500D01*
Y68500D01*
X104864Y68547D01*
X104870Y69386D01*
X106870Y69622D01*
X106870Y69451D01*
D02*
G37*
G36*
X63766Y67435D02*
X63834Y66474D01*
X63894Y66084D01*
X63970Y65754D01*
X64064Y65484D01*
X64174Y65275D01*
X64302Y65124D01*
X64446Y65035D01*
X64608Y65004D01*
X59907D01*
X60069Y65035D01*
X60213Y65124D01*
X60341Y65275D01*
X60451Y65484D01*
X60545Y65754D01*
X60622Y66084D01*
X60681Y66474D01*
X60724Y66925D01*
X60757Y68005D01*
X63757D01*
X63766Y67435D01*
D02*
G37*
G36*
X52439Y61000D02*
X52424Y61142D01*
X52378Y61270D01*
X52303Y61383D01*
X52197Y61480D01*
X52061Y61563D01*
X51895Y61630D01*
X51698Y61682D01*
X51471Y61720D01*
X51214Y61743D01*
X50927Y61750D01*
Y63250D01*
X51214Y63257D01*
X51471Y63280D01*
X51698Y63318D01*
X51895Y63370D01*
X52061Y63437D01*
X52197Y63520D01*
X52303Y63617D01*
X52378Y63730D01*
X52424Y63858D01*
X52439Y64000D01*
Y61000D01*
D02*
G37*
G36*
X43033Y64428D02*
X43591Y63963D01*
X43866Y63774D01*
X44137Y63614D01*
X44405Y63483D01*
X44671Y63381D01*
X44933Y63308D01*
X45193Y63265D01*
X45449Y63250D01*
Y61750D01*
X45193Y61735D01*
X44933Y61692D01*
X44671Y61619D01*
X44405Y61517D01*
X44137Y61386D01*
X43866Y61226D01*
X43591Y61037D01*
X43314Y60819D01*
X43033Y60572D01*
X42749Y60295D01*
Y64705D01*
X43033Y64428D01*
D02*
G37*
G36*
X210549Y61919D02*
X210379Y61858D01*
X210229Y61758D01*
X210099Y61617D01*
X209989Y61436D01*
X209899Y61215D01*
X209829Y60953D01*
X209779Y60651D01*
X209749Y60309D01*
X209739Y59927D01*
X207739D01*
X207729Y60309D01*
X207699Y60651D01*
X207649Y60953D01*
X207579Y61215D01*
X207489Y61436D01*
X207379Y61617D01*
X207249Y61758D01*
X207099Y61858D01*
X206929Y61919D01*
X206739Y61939D01*
X210739D01*
X210549Y61919D01*
D02*
G37*
G36*
X177049Y60919D02*
X176879Y60859D01*
X176729Y60758D01*
X176599Y60617D01*
X176489Y60436D01*
X176399Y60215D01*
X176329Y59953D01*
X176279Y59651D01*
X176249Y59309D01*
X176239Y58927D01*
X174239D01*
X174229Y59309D01*
X174199Y59651D01*
X174149Y59953D01*
X174079Y60215D01*
X173989Y60436D01*
X173879Y60617D01*
X173749Y60758D01*
X173599Y60859D01*
X173429Y60919D01*
X173239Y60939D01*
X177239D01*
X177049Y60919D01*
D02*
G37*
G36*
X142310D02*
X142140Y60859D01*
X141990Y60758D01*
X141860Y60617D01*
X141750Y60436D01*
X141660Y60215D01*
X141590Y59953D01*
X141540Y59651D01*
X141510Y59309D01*
X141500Y58927D01*
X139500D01*
X139490Y59309D01*
X139460Y59651D01*
X139410Y59953D01*
X139340Y60215D01*
X139250Y60436D01*
X139140Y60617D01*
X139010Y60758D01*
X138860Y60859D01*
X138690Y60919D01*
X138500Y60939D01*
X142500D01*
X142310Y60919D01*
D02*
G37*
G36*
X64446Y59487D02*
X64302Y59397D01*
X64174Y59247D01*
X64064Y59037D01*
X63970Y58767D01*
X63894Y58437D01*
X63834Y58047D01*
X63792Y57597D01*
X63757Y56517D01*
X60757D01*
X60749Y57087D01*
X60681Y58047D01*
X60622Y58437D01*
X60545Y58767D01*
X60451Y59037D01*
X60341Y59247D01*
X60213Y59397D01*
X60069Y59487D01*
X59907Y59517D01*
X64608D01*
X64446Y59487D01*
D02*
G37*
G36*
X18845Y56138D02*
X18645Y55932D01*
X18332Y55562D01*
X18218Y55399D01*
X18132Y55251D01*
X18074Y55116D01*
X18044Y54997D01*
X18043Y54891D01*
X18070Y54800D01*
X18126Y54723D01*
X16723Y56126D01*
X16800Y56070D01*
X16891Y56043D01*
X16997Y56044D01*
X17117Y56074D01*
X17251Y56132D01*
X17399Y56218D01*
X17562Y56332D01*
X17740Y56475D01*
X18138Y56845D01*
X18845Y56138D01*
D02*
G37*
G36*
X38507Y56624D02*
X38975Y56236D01*
X39202Y56079D01*
X39424Y55946D01*
X39643Y55838D01*
X39856Y55754D01*
X40065Y55695D01*
X40269Y55660D01*
X40468Y55650D01*
X37350Y52531D01*
X37340Y52731D01*
X37306Y52935D01*
X37246Y53144D01*
X37162Y53357D01*
X37054Y53575D01*
X36921Y53798D01*
X36764Y54025D01*
X36582Y54257D01*
X36376Y54493D01*
X36145Y54734D01*
X38266Y56855D01*
X38507Y56624D01*
D02*
G37*
G36*
X176253Y57259D02*
X176296Y56877D01*
X176367Y56506D01*
X176466Y56147D01*
X176593Y55800D01*
X176749Y55465D01*
X176932Y55141D01*
X177145Y54829D01*
X177385Y54528D01*
X177654Y54239D01*
X176654Y52411D01*
X176371Y52666D01*
X176088Y52864D01*
X175805Y53005D01*
X175522Y53090D01*
X175239Y53118D01*
X174957Y53090D01*
X174674Y53005D01*
X174391Y52864D01*
X174108Y52666D01*
X173825Y52411D01*
X172825Y54239D01*
X173094Y54528D01*
X173334Y54829D01*
X173546Y55141D01*
X173730Y55465D01*
X173886Y55800D01*
X174013Y56147D01*
X174112Y56506D01*
X174183Y56877D01*
X174225Y57259D01*
X174239Y57654D01*
X176239D01*
X176253Y57259D01*
D02*
G37*
G36*
X40468Y49351D02*
X40269Y49340D01*
X40065Y49305D01*
X39856Y49246D01*
X39643Y49162D01*
X39424Y49054D01*
X39202Y48921D01*
X38975Y48764D01*
X38743Y48582D01*
X38507Y48376D01*
X38266Y48145D01*
X36145Y50266D01*
X36376Y50507D01*
X36764Y50975D01*
X36921Y51202D01*
X37054Y51424D01*
X37162Y51643D01*
X37246Y51856D01*
X37306Y52065D01*
X37340Y52269D01*
X37350Y52469D01*
X40468Y49351D01*
D02*
G37*
G36*
X63766Y47934D02*
X63834Y46975D01*
X63894Y46584D01*
X63970Y46255D01*
X64064Y45985D01*
X64174Y45774D01*
X64302Y45625D01*
X64446Y45535D01*
X64608Y45505D01*
X59907D01*
X60069Y45535D01*
X60213Y45625D01*
X60341Y45774D01*
X60451Y45985D01*
X60545Y46255D01*
X60622Y46584D01*
X60681Y46975D01*
X60724Y47425D01*
X60757Y48504D01*
X63757D01*
X63766Y47934D01*
D02*
G37*
G36*
X52439Y41000D02*
X52424Y41142D01*
X52378Y41270D01*
X52303Y41383D01*
X52197Y41480D01*
X52061Y41563D01*
X51895Y41630D01*
X51698Y41682D01*
X51471Y41720D01*
X51214Y41743D01*
X50927Y41750D01*
Y43250D01*
X51214Y43257D01*
X51471Y43280D01*
X51698Y43317D01*
X51895Y43370D01*
X52061Y43437D01*
X52197Y43520D01*
X52303Y43617D01*
X52378Y43730D01*
X52424Y43857D01*
X52439Y44000D01*
Y41000D01*
D02*
G37*
G36*
X43033Y44428D02*
X43591Y43963D01*
X43866Y43774D01*
X44137Y43614D01*
X44405Y43483D01*
X44671Y43381D01*
X44933Y43308D01*
X45193Y43265D01*
X45449Y43250D01*
Y41750D01*
X45193Y41735D01*
X44933Y41692D01*
X44671Y41619D01*
X44405Y41517D01*
X44137Y41386D01*
X43866Y41226D01*
X43591Y41037D01*
X43314Y40819D01*
X43033Y40572D01*
X42749Y40295D01*
Y44705D01*
X43033Y44428D01*
D02*
G37*
G36*
X95985Y37500D02*
X95965Y37494D01*
X95934Y37475D01*
X95892Y37443D01*
X95774Y37342D01*
X95402Y36987D01*
X95280Y36866D01*
X93866Y38280D01*
X94500Y38985D01*
X95985Y37500D01*
D02*
G37*
G36*
X64541Y39977D02*
X64482Y39857D01*
X64429Y39657D01*
X64384Y39377D01*
X64345Y39017D01*
X64271Y37457D01*
X64258Y36017D01*
X60258D01*
X60254Y36777D01*
X60086Y39657D01*
X60033Y39857D01*
X59974Y39977D01*
X59907Y40017D01*
X64608D01*
X64541Y39977D01*
D02*
G37*
G36*
X38507Y36624D02*
X38975Y36236D01*
X39202Y36079D01*
X39424Y35946D01*
X39643Y35838D01*
X39856Y35754D01*
X40065Y35695D01*
X40269Y35660D01*
X40468Y35649D01*
X37350Y32531D01*
X37340Y32731D01*
X37306Y32935D01*
X37246Y33144D01*
X37162Y33358D01*
X37054Y33575D01*
X36921Y33798D01*
X36764Y34025D01*
X36582Y34257D01*
X36376Y34493D01*
X36145Y34734D01*
X38266Y36855D01*
X38507Y36624D01*
D02*
G37*
G36*
X42806Y34666D02*
X42896Y34631D01*
X43020Y34600D01*
X43177Y34574D01*
X43592Y34533D01*
X44141Y34508D01*
X44823Y34500D01*
Y30500D01*
X44465Y30498D01*
X43020Y30400D01*
X42896Y30369D01*
X42806Y30334D01*
X42749Y30295D01*
Y34705D01*
X42806Y34666D01*
D02*
G37*
G36*
X18157Y30638D02*
X18184Y30320D01*
X18233Y30016D01*
X18302Y29725D01*
X18393Y29448D01*
X18503Y29183D01*
X18635Y28932D01*
X18788Y28695D01*
X18961Y28470D01*
X19155Y28259D01*
X17741Y26845D01*
X17530Y27039D01*
X17305Y27212D01*
X17068Y27365D01*
X16817Y27497D01*
X16552Y27608D01*
X16275Y27698D01*
X15984Y27767D01*
X15680Y27816D01*
X15362Y27843D01*
X15032Y27850D01*
X18149Y30968D01*
X18157Y30638D01*
D02*
G37*
G36*
X64261Y28745D02*
X64429Y25864D01*
X64482Y25664D01*
X64541Y25545D01*
X64608Y25504D01*
X59907D01*
X59974Y25545D01*
X60033Y25664D01*
X60086Y25864D01*
X60131Y26144D01*
X60170Y26504D01*
X60243Y28065D01*
X60258Y29504D01*
X64258D01*
X64261Y28745D01*
D02*
G37*
G36*
X53132Y21966D02*
X53109Y21974D01*
X53061Y21982D01*
X52988Y21989D01*
X52456Y22007D01*
X51801Y22011D01*
Y23511D01*
X53132Y23555D01*
Y21966D01*
D02*
G37*
G36*
X43646Y24310D02*
X43706Y24140D01*
X43807Y23990D01*
X43947Y23860D01*
X44129Y23750D01*
X44350Y23660D01*
X44611Y23590D01*
X44913Y23540D01*
X45255Y23510D01*
X45638Y23500D01*
Y21500D01*
X45255Y21490D01*
X44913Y21460D01*
X44611Y21410D01*
X44350Y21340D01*
X44129Y21250D01*
X43947Y21140D01*
X43807Y21010D01*
X43706Y20860D01*
X43646Y20690D01*
X43626Y20500D01*
Y24500D01*
X43646Y24310D01*
D02*
G37*
G36*
X57131Y21526D02*
X57165Y21472D01*
X57229Y21389D01*
X57450Y21138D01*
X58542Y20017D01*
X57127Y18602D01*
X55592Y20017D01*
X57127Y21553D01*
X57131Y21526D01*
D02*
G37*
G36*
X18024Y10535D02*
X17968Y10351D01*
Y10139D01*
X18024Y9899D01*
X18138Y9630D01*
X18307Y9333D01*
X18534Y9008D01*
X18816Y8654D01*
X19552Y7862D01*
X18138Y6448D01*
X17728Y6844D01*
X16992Y7466D01*
X16667Y7693D01*
X16370Y7862D01*
X16101Y7976D01*
X15861Y8032D01*
X15649D01*
X15465Y7976D01*
X15309Y7862D01*
X18138Y10691D01*
X18024Y10535D01*
D02*
G37*
D10*
X75803Y122516D02*
X88787Y135500D01*
X106500D01*
X72500Y102000D02*
Y110500D01*
X70720Y112279D02*
X72500Y110500D01*
X56355Y109721D02*
X66575D01*
X86642Y86341D02*
X86761Y86223D01*
X48678Y117398D02*
X56355Y109721D01*
X21500Y70500D02*
X36500Y85500D01*
X57000D02*
X79500Y63000D01*
X36500Y85500D02*
X57000D01*
X79500Y63000D02*
X109500D01*
X38425Y117398D02*
X40806D01*
X68500Y85000D02*
X78620Y74880D01*
X72204Y86000D02*
X80623D01*
X40806Y117398D02*
X72204Y86000D01*
X40806Y117398D02*
X48678D01*
X78620Y74880D02*
X92005D01*
X58500Y104500D02*
X63516Y99484D01*
X66575D01*
X58500Y104500D02*
Y106500D01*
X109500Y63000D02*
X114739Y68239D01*
Y78777D01*
X77739Y93777D02*
X78000Y93516D01*
Y88500D02*
Y93516D01*
X61500Y117500D02*
X64000Y120000D01*
X81122Y79878D02*
X82257Y78742D01*
X81122Y79878D02*
Y83120D01*
X82257Y78742D02*
X86761D01*
X83085Y117415D02*
X86500Y114000D01*
X83085Y117415D02*
Y117415D01*
X87834Y131500D02*
X106500D01*
X92669Y127000D02*
X106500D01*
X80623Y86000D02*
X80846Y86223D01*
X86761D01*
X87445Y161555D02*
X89559Y159441D01*
X87445Y161555D02*
Y170068D01*
X92223Y174846D01*
X89559Y159441D02*
X93232D01*
X92223Y174846D02*
Y175239D01*
X93232Y159441D02*
X93913Y158760D01*
X76291Y119957D02*
X87834Y131500D01*
X72446Y114839D02*
X79678Y107606D01*
X66575Y114839D02*
X72446D01*
X79678Y107606D02*
X86642D01*
X58500Y123000D02*
X60542Y125042D01*
X66542D01*
X66575Y125075D01*
X58496Y133000D02*
X58500Y132996D01*
X66542Y119990D02*
X66575Y119957D01*
X64010Y119990D02*
X66542D01*
X64000Y120000D02*
X64010Y119990D01*
X92005Y74880D02*
X95867Y78742D01*
X96261D01*
X66575Y122516D02*
X75803D01*
X83085Y117415D02*
X92669Y127000D01*
X66592Y117415D02*
X83085D01*
X66575Y119957D02*
X76291D01*
X75966Y99484D02*
X77739Y101258D01*
X66575Y99484D02*
X75966D01*
X83043Y158716D02*
X83087Y158760D01*
X82500Y158173D02*
X83043Y158716D01*
X66575Y112279D02*
X70720D01*
X50000Y155299D02*
X55000D01*
X60000D01*
X65000D01*
X66575Y96925D02*
Y99484D01*
X45504Y122504D02*
Y133000D01*
X42957Y119957D02*
X45504Y122504D01*
X38425Y119957D02*
X42957D01*
X38425Y117398D02*
Y119957D01*
Y112279D02*
Y114839D01*
X15000Y95500D02*
X31780Y112279D01*
X38425D01*
Y122516D02*
Y125075D01*
X15000Y105500D02*
X32016Y122516D01*
X38425D01*
X21500Y59500D02*
Y70500D01*
X15000Y53000D02*
X21500Y59500D01*
D22*
X58496Y133000D02*
D03*
X45504D02*
D03*
Y142500D02*
D03*
X58496D02*
D03*
D23*
X54777Y42761D02*
D03*
X62257D02*
D03*
X54777Y62261D02*
D03*
X62257D02*
D03*
X54777Y22761D02*
D03*
X62257D02*
D03*
X92223Y175239D02*
D03*
X84742D02*
D03*
X107723D02*
D03*
X100242D02*
D03*
D24*
X153761Y112223D02*
D03*
Y104743D02*
D03*
X143261Y112223D02*
D03*
Y104743D02*
D03*
X133261Y112223D02*
D03*
Y104743D02*
D03*
X208739Y64277D02*
D03*
Y71758D02*
D03*
X140739Y63277D02*
D03*
Y70758D02*
D03*
Y78777D02*
D03*
Y86257D02*
D03*
X175239Y78777D02*
D03*
Y86257D02*
D03*
Y63277D02*
D03*
Y70758D02*
D03*
X123739Y78777D02*
D03*
Y86257D02*
D03*
X114739Y78777D02*
D03*
Y86257D02*
D03*
X105739Y78777D02*
D03*
Y86257D02*
D03*
X132239Y78777D02*
D03*
Y86257D02*
D03*
X208739Y79277D02*
D03*
Y86757D02*
D03*
X96261Y86223D02*
D03*
Y78742D02*
D03*
X86761Y86223D02*
D03*
Y78742D02*
D03*
X77739Y93777D02*
D03*
Y101258D02*
D03*
X259987Y130142D02*
D03*
Y137623D02*
D03*
X242239Y130167D02*
D03*
Y137647D02*
D03*
X286739Y162777D02*
D03*
Y170257D02*
D03*
X250987Y130142D02*
D03*
Y137623D02*
D03*
D25*
X96500Y94614D02*
D03*
Y107606D02*
D03*
X86642D02*
D03*
Y94614D02*
D03*
X277500Y181496D02*
D03*
Y168504D02*
D03*
X255500Y203004D02*
D03*
Y215996D02*
D03*
X243500D02*
D03*
Y203004D02*
D03*
X268500Y168504D02*
D03*
Y181496D02*
D03*
X270000Y131004D02*
D03*
Y143996D02*
D03*
X280000D02*
D03*
Y131004D02*
D03*
D26*
X66575Y125075D02*
D03*
Y122516D02*
D03*
Y119957D02*
D03*
Y117398D02*
D03*
Y114839D02*
D03*
Y112279D02*
D03*
Y109721D02*
D03*
Y107161D02*
D03*
Y104602D02*
D03*
Y102043D02*
D03*
Y99484D02*
D03*
Y96925D02*
D03*
X38425D02*
D03*
Y99484D02*
D03*
Y102043D02*
D03*
Y104602D02*
D03*
Y107161D02*
D03*
Y109721D02*
D03*
Y112279D02*
D03*
Y114839D02*
D03*
Y117398D02*
D03*
Y119957D02*
D03*
Y122516D02*
D03*
Y125075D02*
D03*
D27*
X250000Y162000D02*
D03*
D28*
X240945Y186000D02*
D03*
X259055D02*
D03*
X250000D02*
D03*
D31*
X93913Y158760D02*
D03*
Y162500D02*
D03*
Y166240D02*
D03*
X83087D02*
D03*
Y158760D02*
D03*
D32*
X65000Y192701D02*
D03*
X60000D02*
D03*
X55000D02*
D03*
X50000D02*
D03*
X65000Y155299D02*
D03*
X60000D02*
D03*
X55000D02*
D03*
X50000D02*
D03*
D33*
X287000Y177500D02*
D03*
Y186500D02*
D03*
D34*
X212000Y233500D02*
D03*
X211606Y191768D02*
D03*
D47*
X193500Y121000D02*
D03*
X183500D02*
D03*
X173500D02*
D03*
X163500D02*
D03*
X153500D02*
D03*
X143500D02*
D03*
X133500D02*
D03*
X123500D02*
D03*
X113500D02*
D03*
X103500D02*
D03*
Y151000D02*
D03*
X113500D02*
D03*
X123500D02*
D03*
X133500D02*
D03*
X143500D02*
D03*
X153500D02*
D03*
X163500D02*
D03*
X173500D02*
D03*
X183500D02*
D03*
D48*
X193500D02*
D03*
D64*
X106000Y232014D02*
D03*
D65*
X119386Y189986D02*
D03*
X112693D02*
D03*
X106020D02*
D03*
X99307D02*
D03*
X92614D02*
D03*
D66*
X57895Y19176D02*
Y19249D01*
X59943Y17129D02*
X74129D01*
X57895Y19176D02*
X59943Y17129D01*
X54777Y22367D02*
X57895Y19249D01*
X53739Y22761D02*
X54777D01*
X40500Y22500D02*
X51801D01*
X106729Y166500D02*
X107000D01*
X106426Y166197D02*
X106729Y166500D01*
X69500Y149000D02*
X79788Y138712D01*
X165788D02*
X183500Y121000D01*
X79788Y138712D02*
X165788D01*
X168500Y69550D02*
Y74500D01*
X171898Y66153D02*
X171970D01*
X168500Y69550D02*
X171898Y66153D01*
X174846Y63277D02*
X175239D01*
X171970Y66153D02*
X174846Y63277D01*
X127000Y94500D02*
Y97500D01*
X103500Y121000D02*
X127000Y97500D01*
X255500Y203004D02*
X259055Y199449D01*
Y186000D02*
X263996D01*
X259055D02*
Y199449D01*
X255500Y203004D02*
X265996D01*
X266000Y203000D01*
X272500Y120500D02*
X280000D01*
X270000Y123000D02*
X272500Y120500D01*
X270000Y123000D02*
Y131004D01*
X150000Y212000D02*
X159500D01*
X119386Y189986D02*
X127986D01*
X150000Y212000D01*
X81500Y67500D02*
X106000D01*
X27000Y89000D02*
X60000D01*
X81500Y67500D01*
X37500Y8500D02*
X86000D01*
X123739Y46239D02*
Y78777D01*
X86000Y8500D02*
X123739Y46239D01*
X15000Y31000D02*
X37500Y8500D01*
X91000Y4000D02*
X132239Y45239D01*
X15000Y11000D02*
X22000Y4000D01*
X91000D01*
X74129Y17129D02*
X96000Y39000D01*
X15348Y77348D02*
X27000Y89000D01*
X58496Y122004D02*
X58500Y122000D01*
X58496Y122004D02*
Y133000D01*
X96500Y107606D02*
X97000Y108106D01*
X96614Y94500D02*
X107000D01*
X238000Y124000D02*
X246000D01*
X249231Y127231D01*
Y128780D02*
X250593Y130142D01*
X249231Y127231D02*
Y128780D01*
X250593Y130142D02*
X259987D01*
X270000Y131004D02*
X280000D01*
X147000Y48500D02*
X168500D01*
X140500Y55000D02*
Y63038D01*
Y55000D02*
X147000Y48500D01*
X181479Y49000D02*
X205000D01*
X175239Y55239D02*
X181479Y49000D01*
X168500Y48500D02*
X175239Y55239D01*
Y63277D01*
X132239Y45239D02*
Y78777D01*
X105870Y67630D02*
X106000Y67500D01*
X105870Y67630D02*
Y78647D01*
X105739Y78777D02*
X105870Y78647D01*
X240972Y175028D02*
X241000Y175000D01*
X91494Y162681D02*
X92945D01*
X93126Y162500D01*
X89945Y164231D02*
X91494Y162681D01*
X89945Y164231D02*
Y168250D01*
X91769Y170074D01*
X93126Y162500D02*
X93913D01*
X103023Y170074D02*
X104847Y171898D01*
X91769Y170074D02*
X103023D01*
X107723Y174846D02*
Y175239D01*
X104847Y171970D02*
X107723Y174846D01*
X104847Y171898D02*
Y171970D01*
X267653Y146343D02*
X270000Y143996D01*
X267653Y146343D02*
Y146846D01*
X83000Y153500D02*
X83043Y153543D01*
X58496Y142500D02*
X69000D01*
X15000Y73000D02*
X15348Y73348D01*
Y77348D01*
X286750Y186500D02*
X287000D01*
X282422Y186418D02*
X286918D01*
X240972Y176528D02*
Y185972D01*
X29000Y149000D02*
X69500D01*
X21500Y156500D02*
X29000Y149000D01*
X92223Y175239D02*
X100242D01*
X107723D02*
X115239D01*
X118280Y178279D02*
Y188880D01*
X115239Y175239D02*
X118280Y178279D01*
X193500Y121000D02*
X199000Y126500D01*
X215500D01*
X96500Y94614D02*
X96614Y94500D01*
X114739Y86257D02*
X123739D01*
X105739D02*
X114346D01*
X123739D02*
X132239D01*
X86642Y94614D02*
X96500D01*
X86642D02*
X86761Y94496D01*
Y86223D02*
Y94496D01*
Y86223D02*
X96261D01*
X140500Y63038D02*
X140739Y63277D01*
X205000Y49000D02*
X208739Y52739D01*
Y64277D01*
X77530Y166240D02*
X83087D01*
X77271Y166500D02*
X77530Y166240D01*
X77000Y166500D02*
X77271D01*
X56000Y176000D02*
X60000D01*
X50000Y182000D02*
X56000Y176000D01*
X50000Y182000D02*
Y192701D01*
X49900Y155400D02*
X50000Y155299D01*
X41500Y155500D02*
X41600Y155400D01*
X49900D01*
X25500Y142500D02*
X45504D01*
X21500Y146500D02*
X25500Y142500D01*
X45504Y133000D02*
Y142500D01*
X55000Y192701D02*
X60000D01*
X65000D01*
X242239Y137647D02*
X242252Y137635D01*
X250843D02*
X250974D01*
X250987Y137623D01*
X259987Y130142D02*
X269139D01*
X270000Y131004D01*
X233459Y128541D02*
X238000Y124000D01*
X233459Y128541D02*
Y132041D01*
X233000Y132500D02*
X233459Y132041D01*
X277500Y181496D02*
X282422Y186418D01*
X277500Y168504D02*
X279847Y166157D01*
X286870Y170388D02*
Y177370D01*
X287000Y177500D01*
X286739Y170257D02*
X286870Y170388D01*
X268500Y181496D02*
X277500D01*
X263996Y186000D02*
X268500Y181496D01*
X240912Y186033D02*
X240945Y186000D01*
X243500Y203004D02*
X255500D01*
X99307Y182807D02*
Y189986D01*
X99000Y182500D02*
X99307Y182807D01*
X118280Y188880D02*
X119386Y189986D01*
X106361Y176602D02*
Y177826D01*
Y176602D02*
X107723Y175239D01*
X106020Y178167D02*
X106361Y177826D01*
X106020Y178167D02*
Y189986D01*
X90482Y186734D02*
X91508D01*
X92614Y187841D01*
Y189986D01*
X84742Y180995D02*
X90482Y186734D01*
X84742Y175239D02*
Y180995D01*
X208739Y71758D02*
Y79277D01*
X209878Y78139D01*
X220361D01*
X221500Y77000D01*
X208739Y86757D02*
X221257D01*
X221500Y87000D01*
X175239Y70758D02*
Y78777D01*
X187111Y77889D02*
X188000Y77000D01*
X175239Y78777D02*
X176128Y77889D01*
X187111D01*
X187258Y86257D02*
X188000Y87000D01*
X175239Y86257D02*
X187258D01*
D67*
X53739Y22761D02*
X54777D01*
X51801D02*
X53739D01*
X82500Y142500D02*
X159000D01*
X163500Y147000D01*
X167500Y143000D01*
X211757D01*
X215257Y146500D02*
X229000D01*
X211757Y143000D02*
X215257Y146500D01*
X163500Y147000D02*
Y151000D01*
X152897Y95500D02*
X165603D01*
X233000Y142500D02*
X237703Y137797D01*
X229000Y146500D02*
X233000Y142500D01*
X237703Y134310D02*
Y137797D01*
Y134310D02*
X241846Y130167D01*
X227000Y126500D02*
X233000Y132500D01*
X153761Y104743D02*
X202257D01*
X208739Y86757D02*
Y98261D01*
X202257Y104743D02*
X208739Y98261D01*
X143654Y104743D02*
X152897Y95500D01*
X165603D02*
X174846Y86257D01*
X143261Y104743D02*
X143654D01*
X174846Y86257D02*
X175239D01*
X134500Y98000D02*
X140739Y91761D01*
X134500Y98000D02*
Y103503D01*
X140739Y87000D02*
Y91761D01*
Y86257D02*
X141482Y87000D01*
X133261Y104743D02*
X134500Y103503D01*
X140739Y70758D02*
Y78777D01*
X141133D02*
X142910Y77000D01*
X153500D01*
X140739Y78777D02*
X141133D01*
X141482Y87000D02*
X153500D01*
X54517Y42500D02*
X54777Y42761D01*
X40500Y42500D02*
X54517D01*
X54538Y62500D02*
X54777Y62261D01*
X40500Y62500D02*
X54538D01*
X215500Y126500D02*
X227000D01*
X241846Y130167D02*
X242239D01*
X153500Y112484D02*
Y121000D01*
Y112484D02*
X153761Y112223D01*
X143261D02*
X143500Y112462D01*
Y121000D01*
X133500Y112462D02*
Y121000D01*
X133261Y112223D02*
X133500Y112462D01*
D68*
X145500Y175500D02*
X160000Y161000D01*
X199000D02*
X211606Y173606D01*
X160000Y161000D02*
X199000D01*
X211606Y173606D02*
Y191768D01*
X62257Y23154D02*
Y42761D01*
Y22761D02*
Y23154D01*
X55569Y32500D02*
X61895Y26173D01*
X40500Y32500D02*
X55569D01*
X61895Y23516D02*
X62257Y23154D01*
X61895Y23516D02*
Y26173D01*
X145500Y175500D02*
Y187000D01*
X250855Y137623D02*
X250987D01*
X250493Y137985D02*
Y161507D01*
X250843Y137635D02*
X250855Y137623D01*
X250493Y137985D02*
X250843Y137635D01*
X250000Y162000D02*
X250493Y161507D01*
X63100Y229100D02*
X92614Y199586D01*
Y189986D02*
Y199586D01*
X37228Y231000D02*
X61200D01*
X63100Y229100D01*
D69*
X98382Y154882D02*
Y157882D01*
X95500Y152000D02*
X98382Y154882D01*
X95500Y146500D02*
Y152000D01*
X98382Y157882D02*
X107000Y166500D01*
X93957Y166197D02*
X106426D01*
X62257Y62261D02*
Y74243D01*
X54000Y82500D02*
X62257Y74243D01*
X34000Y66000D02*
X40500Y72500D01*
X34000Y59000D02*
X40500Y52500D01*
X34000Y59000D02*
Y66000D01*
Y46000D02*
X40500Y52500D01*
X34000Y39000D02*
Y46000D01*
Y39000D02*
X40500Y32500D01*
X236000Y193323D02*
Y208496D01*
Y193323D02*
X240323Y189000D01*
X236000Y208496D02*
X243500Y215996D01*
X97000Y108106D02*
Y116500D01*
X261500Y153000D02*
X267653Y146846D01*
X83043Y153543D02*
Y158716D01*
X102500Y208000D02*
X108000D01*
X112596Y197299D02*
Y203403D01*
X108000Y208000D02*
X112596Y203403D01*
X75701Y192701D02*
X82000Y199000D01*
X65000Y192701D02*
X75701D01*
X250000Y162000D02*
Y186000D01*
X86642Y107606D02*
X96500D01*
X114739Y86257D02*
Y101761D01*
X96500Y107606D02*
X108894D01*
X114739Y101761D01*
X58496Y133000D02*
Y142500D01*
X65000Y167500D02*
Y192701D01*
X73740Y158760D02*
X83087D01*
X65000Y167500D02*
X73740Y158760D01*
X193500Y151000D02*
X197000Y154500D01*
X234500D02*
X242239Y146761D01*
X197000Y154500D02*
X234500D01*
X242239Y137647D02*
Y146761D01*
X242252Y137635D02*
X250843D01*
X250987Y137623D02*
X259987D01*
X270000Y143996D02*
X280000D01*
X279847Y164654D02*
Y166157D01*
X281723Y162777D02*
X286739D01*
X279847Y164654D02*
X281723Y162777D01*
X261996Y162000D02*
X268500Y168504D01*
X250000Y162000D02*
X261996D01*
X268500Y168504D02*
X277500D01*
X236807Y222689D02*
X243500Y215996D01*
X255500D01*
X212000Y233500D02*
X222811Y222689D01*
X236807D01*
X210500Y232000D02*
X212000Y233500D01*
X159500Y232000D02*
X210500D01*
X112799Y190093D02*
Y197299D01*
X146067Y230567D02*
X158067D01*
X112799Y197299D02*
X146067Y230567D01*
X112693Y189986D02*
X112799Y190093D01*
X158067Y230567D02*
X159500Y232000D01*
X62257Y42761D02*
Y62261D01*
D70*
X153500Y87000D02*
D03*
X188000D02*
D03*
X221500D02*
D03*
D71*
X153500Y77000D02*
D03*
Y67000D02*
D03*
X188000Y77000D02*
D03*
Y67000D02*
D03*
X221500Y77000D02*
D03*
Y67000D02*
D03*
D72*
X15000Y95500D02*
D03*
Y53000D02*
D03*
Y11000D02*
D03*
X63100Y229100D02*
D03*
X21500Y176500D02*
D03*
X40500Y22500D02*
D03*
D73*
X15000Y105500D02*
D03*
Y73000D02*
D03*
Y63000D02*
D03*
Y31000D02*
D03*
Y21000D02*
D03*
X63100Y219100D02*
D03*
X21500Y126500D02*
D03*
Y136500D02*
D03*
Y146500D02*
D03*
Y156500D02*
D03*
Y166500D02*
D03*
X40500Y42500D02*
D03*
Y32500D02*
D03*
Y52500D02*
D03*
Y62500D02*
D03*
Y72500D02*
D03*
D74*
X27228Y211000D02*
D03*
D75*
X12228Y231000D02*
D03*
X37228D02*
D03*
D76*
X233000Y132500D02*
D03*
Y142500D02*
D03*
D77*
X215500Y146500D02*
D03*
Y126500D02*
D03*
D78*
X159500Y212000D02*
D03*
D79*
Y232000D02*
D03*
D80*
X145500Y187000D02*
D03*
D81*
X175500D02*
D03*
D82*
X95500Y146500D02*
D03*
X107000Y166500D02*
D03*
X127000Y94500D02*
D03*
X58500Y122000D02*
D03*
Y106500D02*
D03*
X54000Y82500D02*
D03*
X97000Y116500D02*
D03*
X106000Y67500D02*
D03*
X107000Y94500D02*
D03*
X96000Y39000D02*
D03*
X241000Y175500D02*
D03*
X261500Y153000D02*
D03*
X83000Y153500D02*
D03*
X69000Y142500D02*
D03*
X102500Y208000D02*
D03*
X82000Y199000D02*
D03*
X77000Y166500D02*
D03*
X60000Y176000D02*
D03*
X41500Y155500D02*
D03*
X99000Y182500D02*
D03*
D83*
X168500Y74500D02*
D03*
X266000Y203000D02*
D03*
X280000Y120500D02*
D03*
D84*
X72500Y102000D02*
D03*
X68500Y85000D02*
D03*
X78000Y88500D02*
D03*
X61500Y117500D02*
D03*
X81122Y83120D02*
D03*
X86500Y114000D02*
D03*
X106500Y131500D02*
D03*
Y127000D02*
D03*
Y135500D02*
D03*
X82500Y142500D02*
D03*
M02*
