G04*
G04 #@! TF.GenerationSoftware,Altium Limited,Altium Designer,23.10.1 (27)*
G04*
G04 Layer_Physical_Order=2*
G04 Layer_Color=16711680*
%FSLAX25Y25*%
%MOIN*%
G70*
G04*
G04 #@! TF.SameCoordinates,35A5512B-BB22-45A0-ACD4-C44AAE3452D1*
G04*
G04*
G04 #@! TF.FilePolarity,Positive*
G04*
G01*
G75*
%ADD10C,0.01000*%
%ADD47C,0.05900*%
%ADD48R,0.05900X0.05900*%
%ADD66C,0.02000*%
%ADD67C,0.01500*%
%ADD68C,0.04000*%
%ADD69C,0.03000*%
%ADD70R,0.10000X0.08000*%
%ADD71O,0.10000X0.08000*%
%ADD72R,0.06299X0.06299*%
%ADD73C,0.06299*%
%ADD74R,0.16000X0.10000*%
%ADD75R,0.10000X0.16000*%
%ADD76C,0.05906*%
%ADD77C,0.07500*%
%ADD78C,0.08268*%
%ADD79R,0.08268X0.08268*%
%ADD80R,0.08000X0.08000*%
%ADD81C,0.08000*%
%ADD82C,0.03000*%
%ADD83C,0.05000*%
%ADD84C,0.02000*%
%ADD85C,0.00500*%
G36*
X16000Y35876D02*
X16012Y35590D01*
X16048Y35309D01*
X16108Y35032D01*
X16193Y34762D01*
X16301Y34497D01*
X16434Y34236D01*
X16590Y33982D01*
X16771Y33732D01*
X16976Y33488D01*
X17205Y33249D01*
X12795D01*
X13024Y33488D01*
X13229Y33732D01*
X13410Y33982D01*
X13566Y34236D01*
X13699Y34497D01*
X13807Y34762D01*
X13892Y35032D01*
X13952Y35309D01*
X13988Y35590D01*
X14000Y35876D01*
X16000D01*
D02*
G37*
G36*
X43241Y38345D02*
X43030Y38539D01*
X42805Y38712D01*
X42568Y38865D01*
X42317Y38997D01*
X42052Y39107D01*
X41775Y39198D01*
X41484Y39267D01*
X41180Y39316D01*
X40862Y39344D01*
X40532Y39351D01*
X43650Y42469D01*
X43657Y42138D01*
X43684Y41820D01*
X43733Y41516D01*
X43802Y41225D01*
X43892Y40948D01*
X44003Y40683D01*
X44135Y40432D01*
X44288Y40195D01*
X44461Y39970D01*
X44655Y39759D01*
X43241Y38345D01*
D02*
G37*
G36*
X36345Y59759D02*
X36539Y59970D01*
X36712Y60195D01*
X36865Y60432D01*
X36997Y60683D01*
X37108Y60948D01*
X37198Y61225D01*
X37267Y61516D01*
X37316Y61820D01*
X37343Y62138D01*
X37350Y62468D01*
X40468Y59351D01*
X40138Y59343D01*
X39820Y59316D01*
X39516Y59267D01*
X39225Y59198D01*
X38948Y59108D01*
X38683Y58997D01*
X38432Y58865D01*
X38195Y58712D01*
X37970Y58539D01*
X37759Y58345D01*
X36345Y59759D01*
D02*
G37*
G36*
X55000Y84518D02*
X55050Y83571D01*
X52950D01*
X52960Y83590D01*
X52968Y83625D01*
X52975Y83677D01*
X52987Y83832D01*
X53000Y84347D01*
X53000Y84518D01*
X55000D01*
D02*
G37*
G36*
X69000Y86466D02*
X69002Y86358D01*
X69018Y86165D01*
X69032Y86079D01*
X69050Y86000D01*
X69072Y85928D01*
X69098Y85864D01*
X69128Y85807D01*
X69162Y85757D01*
X69200Y85714D01*
X67800D01*
X67838Y85757D01*
X67872Y85807D01*
X67902Y85864D01*
X67928Y85928D01*
X67950Y86000D01*
X67968Y86079D01*
X67982Y86165D01*
X67992Y86258D01*
X68000Y86466D01*
X69000D01*
D02*
G37*
G36*
X77317Y89890D02*
X77394Y89815D01*
X77543Y89690D01*
X77613Y89639D01*
X77682Y89596D01*
X77748Y89561D01*
X77812Y89534D01*
X77873Y89515D01*
X77933Y89503D01*
X77990Y89500D01*
X77000Y88510D01*
X76997Y88567D01*
X76985Y88626D01*
X76966Y88688D01*
X76939Y88752D01*
X76904Y88818D01*
X76861Y88887D01*
X76810Y88957D01*
X76751Y89030D01*
X76610Y89183D01*
X77317Y89890D01*
D02*
G37*
G36*
X72000Y100534D02*
X71998Y100642D01*
X71982Y100835D01*
X71968Y100921D01*
X71950Y101000D01*
X71928Y101072D01*
X71902Y101136D01*
X71872Y101193D01*
X71838Y101243D01*
X71800Y101286D01*
X73200D01*
X73162Y101243D01*
X73128Y101193D01*
X73098Y101136D01*
X73072Y101072D01*
X73050Y101000D01*
X73032Y100921D01*
X73018Y100835D01*
X73008Y100742D01*
X73000Y100534D01*
X72000D01*
D02*
G37*
G36*
X56366Y105780D02*
X57000Y106485D01*
X58485Y105000D01*
X58465Y104994D01*
X58434Y104975D01*
X58392Y104943D01*
X58274Y104842D01*
X57902Y104487D01*
X57780Y104366D01*
X56366Y105780D01*
D02*
G37*
G36*
X59500Y108518D02*
X59550Y107571D01*
X57450D01*
X57459Y107589D01*
X57468Y107625D01*
X57476Y107677D01*
X57487Y107832D01*
X57499Y108347D01*
X57500Y108518D01*
X59500D01*
D02*
G37*
G36*
X26449Y125750D02*
X26193Y125735D01*
X25933Y125692D01*
X25671Y125619D01*
X25405Y125517D01*
X25137Y125386D01*
X24866Y125226D01*
X24591Y125037D01*
X24314Y124819D01*
X24033Y124572D01*
X23749Y124295D01*
Y128705D01*
X24033Y128428D01*
X24591Y127963D01*
X24866Y127774D01*
X25137Y127614D01*
X25405Y127483D01*
X25671Y127381D01*
X25933Y127308D01*
X26193Y127265D01*
X26449Y127250D01*
Y125750D01*
D02*
G37*
G36*
X25655Y139241D02*
X25461Y139030D01*
X25288Y138805D01*
X25135Y138568D01*
X25003Y138317D01*
X24893Y138052D01*
X24802Y137775D01*
X24733Y137484D01*
X24684Y137180D01*
X24656Y136862D01*
X24649Y136531D01*
X21531Y139649D01*
X21862Y139656D01*
X22180Y139684D01*
X22484Y139733D01*
X22775Y139802D01*
X23052Y139892D01*
X23317Y140003D01*
X23568Y140135D01*
X23805Y140288D01*
X24030Y140461D01*
X24241Y140655D01*
X25655Y139241D01*
D02*
G37*
G36*
X57500Y119982D02*
X57450Y120929D01*
X59550D01*
X59540Y120911D01*
X59532Y120875D01*
X59525Y120823D01*
X59513Y120668D01*
X59500Y120153D01*
X59500Y119982D01*
X57500D01*
D02*
G37*
G36*
X61000Y116034D02*
X60998Y116142D01*
X60982Y116335D01*
X60968Y116421D01*
X60950Y116500D01*
X60928Y116571D01*
X60902Y116636D01*
X60872Y116693D01*
X60838Y116743D01*
X60800Y116786D01*
X62200D01*
X62162Y116743D01*
X62128Y116693D01*
X62098Y116636D01*
X62072Y116571D01*
X62050Y116500D01*
X62032Y116421D01*
X62018Y116335D01*
X62008Y116242D01*
X62000Y116034D01*
X61000D01*
D02*
G37*
G36*
X71018Y141500D02*
X70071Y141450D01*
Y143550D01*
X70090Y143541D01*
X70125Y143532D01*
X70177Y143525D01*
X70332Y143512D01*
X70847Y143500D01*
X71018Y143500D01*
Y141500D01*
D02*
G37*
G36*
X24241Y162345D02*
X24030Y162539D01*
X23805Y162712D01*
X23568Y162865D01*
X23317Y162997D01*
X23052Y163108D01*
X22775Y163198D01*
X22484Y163267D01*
X22180Y163316D01*
X21862Y163344D01*
X21531Y163350D01*
X24649Y166469D01*
X24656Y166138D01*
X24684Y165820D01*
X24733Y165516D01*
X24802Y165225D01*
X24893Y164948D01*
X25003Y164683D01*
X25135Y164432D01*
X25288Y164195D01*
X25461Y163970D01*
X25655Y163759D01*
X24241Y162345D01*
D02*
G37*
G36*
X38721Y155135D02*
X40148Y156150D01*
X40780Y154184D01*
X40751Y154190D01*
X40712Y154182D01*
X40663Y154160D01*
X40604Y154124D01*
X40534Y154074D01*
X40363Y153933D01*
X40152Y153736D01*
X40031Y153616D01*
X38721Y155135D01*
D02*
G37*
G36*
X62018Y175000D02*
X61071Y174950D01*
Y177050D01*
X61089Y177041D01*
X61125Y177032D01*
X61177Y177024D01*
X61332Y177013D01*
X61847Y177000D01*
X62018Y177000D01*
Y175000D01*
D02*
G37*
G36*
X74982Y167500D02*
X75929Y167550D01*
Y165450D01*
X75911Y165460D01*
X75875Y165468D01*
X75823Y165475D01*
X75668Y165488D01*
X75153Y165499D01*
X74982Y165500D01*
Y167500D01*
D02*
G37*
G36*
X98134Y39720D02*
X97500Y39015D01*
X96015Y40500D01*
X96035Y40506D01*
X96066Y40525D01*
X96108Y40557D01*
X96226Y40658D01*
X96599Y41014D01*
X96720Y41134D01*
X98134Y39720D01*
D02*
G37*
G36*
X108018Y66500D02*
X107071Y66450D01*
Y68550D01*
X107089Y68541D01*
X107125Y68532D01*
X107177Y68524D01*
X107332Y68512D01*
X107847Y68501D01*
X108018Y68500D01*
Y66500D01*
D02*
G37*
G36*
X81431Y84671D02*
X81434Y84564D01*
X81453Y84373D01*
X81470Y84289D01*
X81492Y84214D01*
X81518Y84146D01*
X81550Y84086D01*
X81586Y84035D01*
X81627Y83991D01*
X81673Y83955D01*
X80299Y83687D01*
X80324Y83729D01*
X80347Y83779D01*
X80366Y83836D01*
X80383Y83900D01*
X80398Y83972D01*
X80419Y84138D01*
X80426Y84232D01*
X80431Y84443D01*
X81431Y84671D01*
D02*
G37*
G36*
X86000Y112534D02*
X85998Y112642D01*
X85982Y112835D01*
X85968Y112921D01*
X85950Y113000D01*
X85928Y113072D01*
X85902Y113136D01*
X85872Y113193D01*
X85838Y113243D01*
X85800Y113286D01*
X87200D01*
X87162Y113243D01*
X87128Y113193D01*
X87098Y113136D01*
X87072Y113072D01*
X87050Y113000D01*
X87032Y112921D01*
X87018Y112835D01*
X87008Y112742D01*
X87000Y112534D01*
X86000D01*
D02*
G37*
G36*
X107966Y126500D02*
X107858Y126498D01*
X107665Y126482D01*
X107579Y126468D01*
X107500Y126450D01*
X107429Y126428D01*
X107364Y126402D01*
X107307Y126372D01*
X107257Y126338D01*
X107214Y126300D01*
Y127700D01*
X107257Y127662D01*
X107307Y127628D01*
X107364Y127598D01*
X107429Y127572D01*
X107500Y127550D01*
X107579Y127532D01*
X107665Y127518D01*
X107758Y127508D01*
X107966Y127500D01*
Y126500D01*
D02*
G37*
G36*
X147646Y63561D02*
X147965Y63893D01*
X148456Y64497D01*
X148630Y64769D01*
X148755Y65021D01*
X148832Y65252D01*
X148860Y65463D01*
X148840Y65654D01*
X148772Y65825D01*
X148656Y65976D01*
X151476Y63156D01*
X151325Y63272D01*
X151154Y63340D01*
X150963Y63360D01*
X150752Y63332D01*
X150521Y63255D01*
X150269Y63130D01*
X149997Y62956D01*
X149705Y62735D01*
X149393Y62465D01*
X149061Y62146D01*
X147646Y63561D01*
D02*
G37*
G36*
X126000Y92482D02*
X125950Y93429D01*
X128050D01*
X128041Y93410D01*
X128032Y93375D01*
X128024Y93323D01*
X128013Y93168D01*
X128000Y92653D01*
X128000Y92482D01*
X126000D01*
D02*
G37*
G36*
X170993Y124921D02*
X171195Y124734D01*
X171408Y124567D01*
X171630Y124419D01*
X171863Y124292D01*
X172106Y124185D01*
X172358Y124098D01*
X172621Y124031D01*
X172894Y123984D01*
X173177Y123957D01*
X173470Y123950D01*
X170550Y121029D01*
X170543Y121323D01*
X170516Y121606D01*
X170469Y121879D01*
X170402Y122142D01*
X170315Y122395D01*
X170208Y122637D01*
X170080Y122870D01*
X169933Y123092D01*
X169766Y123305D01*
X169579Y123507D01*
X170993Y124921D01*
D02*
G37*
G36*
X187000Y60993D02*
X186990Y61402D01*
X186960Y61768D01*
X186910Y62092D01*
X186841Y62372D01*
X186751Y62609D01*
X186641Y62803D01*
X186512Y62954D01*
X186362Y63061D01*
X186193Y63126D01*
X186003Y63147D01*
X189997D01*
X189807Y63126D01*
X189638Y63061D01*
X189488Y62954D01*
X189359Y62803D01*
X189249Y62609D01*
X189159Y62372D01*
X189090Y62092D01*
X189040Y61768D01*
X189010Y61402D01*
X189000Y60993D01*
X187000D01*
D02*
G37*
G36*
X220500D02*
X220490Y61402D01*
X220460Y61768D01*
X220410Y62092D01*
X220341Y62372D01*
X220251Y62609D01*
X220141Y62803D01*
X220012Y62954D01*
X219862Y63061D01*
X219693Y63126D01*
X219503Y63147D01*
X223497D01*
X223307Y63126D01*
X223138Y63061D01*
X222988Y62954D01*
X222859Y62803D01*
X222749Y62609D01*
X222659Y62372D01*
X222590Y62092D01*
X222540Y61768D01*
X222510Y61402D01*
X222500Y60993D01*
X220500D01*
D02*
G37*
G36*
X107966Y131000D02*
X107858Y130998D01*
X107665Y130982D01*
X107579Y130968D01*
X107500Y130950D01*
X107429Y130928D01*
X107364Y130902D01*
X107307Y130872D01*
X107257Y130838D01*
X107214Y130800D01*
Y132200D01*
X107257Y132162D01*
X107307Y132128D01*
X107364Y132098D01*
X107429Y132072D01*
X107500Y132050D01*
X107579Y132032D01*
X107665Y132018D01*
X107758Y132008D01*
X107966Y132000D01*
Y131000D01*
D02*
G37*
G36*
X107890Y136183D02*
X107816Y136106D01*
X107690Y135957D01*
X107639Y135887D01*
X107596Y135818D01*
X107561Y135752D01*
X107534Y135688D01*
X107515Y135626D01*
X107503Y135567D01*
X107500Y135510D01*
X106510Y136500D01*
X106567Y136503D01*
X106626Y136515D01*
X106688Y136534D01*
X106752Y136561D01*
X106818Y136596D01*
X106887Y136639D01*
X106957Y136690D01*
X107030Y136749D01*
X107183Y136890D01*
X107890Y136183D01*
D02*
G37*
G36*
X113000Y146323D02*
X112984Y146535D01*
X112937Y146757D01*
X112859Y146989D01*
X112750Y147231D01*
X112609Y147484D01*
X112437Y147746D01*
X112233Y148018D01*
X111732Y148591D01*
X111435Y148893D01*
X115565D01*
X115268Y148591D01*
X114767Y148018D01*
X114563Y147746D01*
X114391Y147484D01*
X114250Y147231D01*
X114141Y146989D01*
X114063Y146757D01*
X114016Y146535D01*
X114000Y146323D01*
X113000D01*
D02*
G37*
G36*
X98955Y152000D02*
X99230Y152011D01*
X99498Y152043D01*
X99760Y152096D01*
X100014Y152170D01*
X100262Y152266D01*
X100502Y152383D01*
X100735Y152522D01*
X100962Y152682D01*
X101181Y152863D01*
X101393Y153065D01*
Y148935D01*
X101181Y149137D01*
X100962Y149318D01*
X100735Y149478D01*
X100502Y149617D01*
X100262Y149734D01*
X100014Y149830D01*
X99760Y149904D01*
X99498Y149957D01*
X99230Y149989D01*
X98955Y150000D01*
Y152000D01*
D02*
G37*
G36*
X99720Y180366D02*
X99015Y181000D01*
X100500Y182485D01*
X100506Y182465D01*
X100525Y182434D01*
X100557Y182392D01*
X100658Y182274D01*
X101014Y181902D01*
X101134Y181780D01*
X99720Y180366D01*
D02*
G37*
G36*
X146352Y182994D02*
X146209Y182938D01*
X146083Y182846D01*
X145974Y182718D01*
X145882Y182552D01*
X145806Y182350D01*
X145747Y182110D01*
X145705Y181834D01*
X145680Y181521D01*
X145672Y181172D01*
X143672D01*
X143663Y181521D01*
X143638Y181834D01*
X143596Y182110D01*
X143537Y182350D01*
X143462Y182552D01*
X143369Y182718D01*
X143260Y182846D01*
X143134Y182938D01*
X142991Y182994D01*
X142831Y183012D01*
X146512D01*
X146352Y182994D01*
D02*
G37*
G36*
X191178Y155464D02*
X192283Y154528D01*
X192771Y154188D01*
X193217Y153932D01*
X193620Y153761D01*
X193980Y153675D01*
X194297Y153674D01*
X194572Y153758D01*
X194805Y153926D01*
X190574Y149695D01*
X190743Y149928D01*
X190826Y150203D01*
X190825Y150520D01*
X190739Y150880D01*
X190568Y151283D01*
X190312Y151729D01*
X189972Y152217D01*
X189546Y152748D01*
X188441Y153938D01*
X190562Y156059D01*
X191178Y155464D01*
D02*
G37*
G36*
X143471Y148050D02*
X143047Y148047D01*
X142287Y147995D01*
X141951Y147947D01*
X141644Y147883D01*
X141366Y147805D01*
X141117Y147711D01*
X140898Y147602D01*
X140707Y147478D01*
X140546Y147339D01*
X139839Y148046D01*
X139978Y148207D01*
X140102Y148398D01*
X140211Y148617D01*
X140305Y148866D01*
X140383Y149144D01*
X140447Y149451D01*
X140495Y149787D01*
X140547Y150547D01*
X140550Y150970D01*
X143471Y148050D01*
D02*
G37*
G36*
X133470D02*
X133047Y148047D01*
X132287Y147995D01*
X131951Y147947D01*
X131644Y147883D01*
X131366Y147805D01*
X131117Y147711D01*
X130898Y147602D01*
X130707Y147478D01*
X130546Y147339D01*
X129839Y148046D01*
X129978Y148207D01*
X130102Y148398D01*
X130211Y148617D01*
X130305Y148866D01*
X130383Y149144D01*
X130447Y149451D01*
X130495Y149787D01*
X130547Y150547D01*
X130550Y150970D01*
X133470Y148050D01*
D02*
G37*
D10*
X72500Y94000D02*
X78000Y88500D01*
X72500Y94000D02*
Y102000D01*
X61500Y106500D02*
X68500Y99500D01*
X61500Y106500D02*
Y117500D01*
X68500Y85000D02*
Y99500D01*
X86500Y91965D02*
Y114000D01*
X80656Y86120D02*
X86500Y91965D01*
X80931Y83311D02*
X81122Y83120D01*
X80931Y83311D02*
Y84845D01*
X80656Y85120D02*
Y86120D01*
Y85120D02*
X80931Y84845D01*
X106500Y131500D02*
X114000D01*
X106500Y135500D02*
X113500Y142500D01*
X106500Y127000D02*
X119500D01*
X113500Y142500D02*
Y151000D01*
X119500Y127000D02*
X143500Y151000D01*
X114000Y131500D02*
X133500Y151000D01*
D47*
X193500Y121000D02*
D03*
X183500D02*
D03*
X173500D02*
D03*
X163500D02*
D03*
X153500D02*
D03*
X143500D02*
D03*
X133500D02*
D03*
X123500D02*
D03*
X113500D02*
D03*
X103500D02*
D03*
Y151000D02*
D03*
X113500D02*
D03*
X123500D02*
D03*
X133500D02*
D03*
X143500D02*
D03*
X153500D02*
D03*
X163500D02*
D03*
X173500D02*
D03*
X183500D02*
D03*
D48*
X193500D02*
D03*
D66*
X93000D02*
X103500D01*
X89500Y147500D02*
X93000Y151000D01*
X89500Y87255D02*
Y147500D01*
X97000Y116500D02*
Y116672D01*
X80745Y78500D02*
X89500Y87255D01*
X114000Y67500D02*
X127000Y80500D01*
Y94500D01*
X54000Y102000D02*
X58500Y106500D01*
X54000Y82500D02*
Y102000D01*
X39217Y78500D02*
X80745D01*
X27095Y66377D02*
X39217Y78500D01*
X27095Y55967D02*
Y66377D01*
X15000Y43872D02*
X27095Y55967D01*
X15000Y31000D02*
Y43872D01*
X34500Y56500D02*
X40500Y62500D01*
X34500Y18500D02*
Y56500D01*
X58500Y106500D02*
Y122000D01*
X106000Y67500D02*
X114000D01*
X134500Y171000D02*
X144672Y181172D01*
X99000Y182500D02*
X110500Y171000D01*
X134500D01*
X106000Y49000D02*
X134500D01*
X96000Y39000D02*
X106000Y49000D01*
X134500D02*
X152500Y67000D01*
X40500Y42500D02*
X51500Y31500D01*
X175000D01*
X188000Y44500D01*
X28636Y159364D02*
X142137D01*
X148550Y145950D02*
Y152950D01*
X142137Y159364D02*
X148550Y152950D01*
X21500Y166500D02*
X28636Y159364D01*
X83000Y152000D02*
Y153500D01*
X73500Y142500D02*
X83000Y152000D01*
X69000Y142500D02*
X73500D01*
X63500Y176000D02*
X73000Y166500D01*
X60000Y176000D02*
X63500D01*
X73000Y166500D02*
X77000D01*
X21500Y136500D02*
X40309Y155309D01*
X41309D01*
X41500Y155500D01*
X144672Y181172D02*
Y186172D01*
X145500Y187000D01*
X152500Y67000D02*
X153500D01*
X34500Y18500D02*
X41500Y11500D01*
X196500D01*
X221500Y36500D02*
Y67000D01*
X196500Y11500D02*
X221500Y36500D01*
X188000Y44500D02*
Y67000D01*
X148550Y145950D02*
X173500Y121000D01*
D67*
X266000Y203000D02*
Y206500D01*
Y203000D02*
X269500D01*
X262500D02*
X266000D01*
Y199500D02*
Y203000D01*
X175500Y187000D02*
X180500D01*
X159500Y212000D02*
X164634D01*
X175500Y187000D02*
Y192000D01*
X170500Y187000D02*
X175500D01*
Y182000D02*
Y187000D01*
X233000Y132500D02*
Y136453D01*
Y132500D02*
X236953D01*
X233000Y128547D02*
Y132500D01*
X229047D02*
X233000D01*
X215500Y126500D02*
Y131250D01*
X210750Y126500D02*
X215500D01*
X220250D01*
X159500Y212000D02*
Y217134D01*
Y206866D02*
Y212000D01*
X154366D02*
X159500D01*
X280000Y120500D02*
X283500D01*
X280000D02*
Y124000D01*
X276500Y120500D02*
X280000D01*
Y117000D02*
Y120500D01*
X215500Y121750D02*
Y126500D01*
X193500Y121000D02*
X197450D01*
X193500D02*
Y124950D01*
X189550Y121000D02*
X193500D01*
Y117050D02*
Y121000D01*
X168500Y74500D02*
Y78000D01*
Y71000D02*
Y74500D01*
X172000D01*
X165000D02*
X168500D01*
X107000Y94500D02*
X109500D01*
X107000Y92000D02*
Y94500D01*
X104500D02*
X107000D01*
Y97000D01*
X63100Y219100D02*
X67250D01*
X63100D02*
Y223250D01*
X58950Y219100D02*
X63100D01*
Y214950D02*
Y219100D01*
X27228Y211000D02*
Y217000D01*
Y205000D02*
Y211000D01*
X36228D01*
X4929Y231000D02*
X12228D01*
X19527D01*
X12228D02*
Y240000D01*
X18228Y211000D02*
X27228D01*
X12228Y222000D02*
Y231000D01*
X17350Y146500D02*
X21500D01*
X25650D01*
X21500D02*
Y150650D01*
Y142350D02*
Y146500D01*
X10850Y63000D02*
X15000D01*
Y67150D01*
Y63000D02*
X19150D01*
X15000Y58850D02*
Y63000D01*
Y21000D02*
X19150D01*
X15000D02*
Y25150D01*
X10850Y21000D02*
X15000D01*
Y16850D02*
Y21000D01*
X66500Y126500D02*
X82500Y142500D01*
X21500Y126500D02*
X66500D01*
D68*
X15000Y63000D02*
Y63622D01*
X14458Y63000D02*
X15000D01*
D69*
X95500Y118172D02*
X97000Y116672D01*
X95500Y118172D02*
Y146500D01*
X107000Y166500D02*
X178000D01*
X251904Y162596D02*
X261500Y153000D01*
X250404Y162596D02*
X251904D01*
X241000Y172000D02*
Y176500D01*
Y172000D02*
X250404Y162596D01*
X178000Y166500D02*
X193500Y151000D01*
X91000Y208000D02*
X102500D01*
X82000Y199000D02*
X91000Y208000D01*
D70*
X153500Y87000D02*
D03*
X188000D02*
D03*
X221500D02*
D03*
D71*
X153500Y77000D02*
D03*
Y67000D02*
D03*
X188000Y77000D02*
D03*
Y67000D02*
D03*
X221500Y77000D02*
D03*
Y67000D02*
D03*
D72*
X15000Y95500D02*
D03*
Y53000D02*
D03*
Y11000D02*
D03*
X63100Y229100D02*
D03*
X21500Y176500D02*
D03*
X40500Y22500D02*
D03*
D73*
X15000Y105500D02*
D03*
Y73000D02*
D03*
Y63000D02*
D03*
Y31000D02*
D03*
Y21000D02*
D03*
X63100Y219100D02*
D03*
X21500Y126500D02*
D03*
Y136500D02*
D03*
Y146500D02*
D03*
Y156500D02*
D03*
Y166500D02*
D03*
X40500Y42500D02*
D03*
Y32500D02*
D03*
Y52500D02*
D03*
Y62500D02*
D03*
Y72500D02*
D03*
D74*
X27228Y211000D02*
D03*
D75*
X12228Y231000D02*
D03*
X37228D02*
D03*
D76*
X233000Y132500D02*
D03*
Y142500D02*
D03*
D77*
X215500Y146500D02*
D03*
Y126500D02*
D03*
D78*
X159500Y212000D02*
D03*
D79*
Y232000D02*
D03*
D80*
X145500Y187000D02*
D03*
D81*
X175500D02*
D03*
D82*
X95500Y146500D02*
D03*
X107000Y166500D02*
D03*
X127000Y94500D02*
D03*
X58500Y122000D02*
D03*
Y106500D02*
D03*
X54000Y82500D02*
D03*
X97000Y116500D02*
D03*
X106000Y67500D02*
D03*
X107000Y94500D02*
D03*
X96000Y39000D02*
D03*
X241000Y175500D02*
D03*
X261500Y153000D02*
D03*
X83000Y153500D02*
D03*
X69000Y142500D02*
D03*
X102500Y208000D02*
D03*
X82000Y199000D02*
D03*
X77000Y166500D02*
D03*
X60000Y176000D02*
D03*
X41500Y155500D02*
D03*
X99000Y182500D02*
D03*
D83*
X168500Y74500D02*
D03*
X266000Y203000D02*
D03*
X280000Y120500D02*
D03*
D84*
X72500Y102000D02*
D03*
X68500Y85000D02*
D03*
X78000Y88500D02*
D03*
X61500Y117500D02*
D03*
X81122Y83120D02*
D03*
X86500Y114000D02*
D03*
X106500Y131500D02*
D03*
Y127000D02*
D03*
Y135500D02*
D03*
X82500Y142500D02*
D03*
D85*
X269750Y203000D02*
G03*
X269750Y203000I-3750J0D01*
G01*
X238250Y172000D02*
G03*
X239059Y170052I2750J0D01*
G01*
X243750Y176500D02*
G03*
X238250Y176500I-2750J0D01*
G01*
Y172000D02*
G03*
X239055Y170055I2750J0D01*
G01*
X253853Y164536D02*
G03*
X251904Y165346I-1948J-1941D01*
G01*
X253849Y164540D02*
G03*
X251904Y165346I-1945J-1945D01*
G01*
X164884Y212000D02*
G03*
X164884Y212000I-5384J0D01*
G01*
X180750Y187000D02*
G03*
X180750Y187000I-5250J0D01*
G01*
X179948Y168441D02*
G03*
X178000Y169250I-1948J-1941D01*
G01*
X179945Y168445D02*
G03*
X178000Y169250I-1945J-1945D01*
G01*
X264250Y153000D02*
G03*
X263444Y154945I-2750J0D01*
G01*
X264250Y153000D02*
G03*
X263441Y154948I-2750J0D01*
G01*
X259552Y151059D02*
G03*
X264250Y153000I1948J1941D01*
G01*
X259556Y151056D02*
G03*
X264250Y153000I1945J1945D01*
G01*
X248460Y160651D02*
G03*
X250404Y159846I1945J1945D01*
G01*
X248456Y160655D02*
G03*
X250404Y159846I1948J1941D01*
G01*
X237203Y142500D02*
G03*
X237203Y142500I-4203J0D01*
G01*
Y132500D02*
G03*
X237203Y132500I-4203J0D01*
G01*
X220500Y146500D02*
G03*
X220500Y146500I-5000J0D01*
G01*
X187700Y151000D02*
G03*
X187700Y151000I-4200J0D01*
G01*
X177700D02*
G03*
X177700Y151000I-4200J0D01*
G01*
X167700D02*
G03*
X167700Y151000I-4200J0D01*
G01*
X146263Y179581D02*
G03*
X146915Y181006I-1591J1591D01*
G01*
X146264Y179581D02*
G03*
X146915Y181006I-1592J1590D01*
G01*
X150547Y153987D02*
G03*
X150141Y154541I-1997J-1036D01*
G01*
X157700Y151000D02*
G03*
X150547Y153987I-4200J0D01*
G01*
D02*
G03*
X150142Y154540I-1997J-1036D01*
G01*
X143727Y160956D02*
G03*
X142137Y161614I-1590J-1592D01*
G01*
X143728Y160955D02*
G03*
X142137Y161614I-1591J-1591D01*
G01*
X143134Y155184D02*
G03*
X139301Y151104I366J-4184D01*
G01*
X105250Y208000D02*
G03*
X102500Y210750I-2750J0D01*
G01*
X107000Y169250D02*
G03*
X107000Y163750I0J-2750D01*
G01*
Y169250D02*
G03*
X107000Y163750I0J-2750D01*
G01*
X137700Y151000D02*
G03*
X129301Y151104I-4200J0D01*
G01*
X127700Y151000D02*
G03*
X127700Y151000I-4200J0D01*
G01*
X117700D02*
G03*
X110458Y148105I-4200J0D01*
G01*
X150800Y147783D02*
G03*
X157700Y151000I2700J3217D01*
G01*
X143604Y146801D02*
G03*
X146300Y147870I-104J4199D01*
G01*
Y145950D02*
G03*
X146958Y144360I2250J0D01*
G01*
X146300Y145950D02*
G03*
X146959Y144359I2250J0D01*
G01*
X133604Y146801D02*
G03*
X137700Y151000I-104J4199D01*
G01*
X116542Y148105D02*
G03*
X117700Y151000I-3042J2895D01*
G01*
X114737Y141263D02*
G03*
X115250Y142500I-1237J1237D01*
G01*
X114737Y141263D02*
G03*
X115250Y142500I-1237J1237D01*
G01*
X107531Y133500D02*
G03*
X108732Y135216I-1031J2000D01*
G01*
X106216Y137732D02*
G03*
X105469Y133500I284J-2232D01*
G01*
X107878Y133279D02*
G03*
X107531Y133500I-1378J-1779D01*
G01*
X114000Y129750D02*
G03*
X115237Y130263I0J1750D01*
G01*
X119500Y125250D02*
G03*
X120737Y125763I0J1750D01*
G01*
X119500Y125250D02*
G03*
X120737Y125763I0J1750D01*
G01*
X114000Y129750D02*
G03*
X115237Y130263I0J1750D01*
G01*
X105469Y133500D02*
G03*
X106500Y129250I1031J-2000D01*
G01*
D02*
G03*
X107877Y129721I0J2250D01*
G01*
X107878Y128779D02*
G03*
X106500Y129250I-1378J-1779D01*
G01*
D02*
G03*
X107877Y125221I0J-2250D01*
G01*
X283750Y120500D02*
G03*
X283750Y120500I-3750J0D01*
G01*
X227750Y77000D02*
G03*
X224736Y81750I-5250J0D01*
G01*
X224101Y72000D02*
G03*
X227750Y77000I-1601J5000D01*
G01*
X218264Y81750D02*
G03*
X218899Y72000I2236J-4750D01*
G01*
X220500Y126500D02*
G03*
X220500Y126500I-5000J0D01*
G01*
X197700Y121000D02*
G03*
X197700Y121000I-4200J0D01*
G01*
X187700D02*
G03*
X187700Y121000I-4200J0D01*
G01*
X194250Y77000D02*
G03*
X191236Y81750I-5250J0D01*
G01*
X184764D02*
G03*
X185399Y72000I2236J-4750D01*
G01*
X190601D02*
G03*
X194250Y77000I-1601J5000D01*
G01*
X227750Y67000D02*
G03*
X224101Y72000I-5250J0D01*
G01*
X218899D02*
G03*
X219137Y61930I1601J-5000D01*
G01*
X223863D02*
G03*
X227750Y67000I-1363J5070D01*
G01*
X223092Y34910D02*
G03*
X223750Y36500I-1592J1590D01*
G01*
X223091Y34909D02*
G03*
X223750Y36500I-1591J1591D01*
G01*
X196500Y9250D02*
G03*
X198091Y9909I0J2250D01*
G01*
X196500Y9250D02*
G03*
X198090Y9908I0J2250D01*
G01*
X194250Y67000D02*
G03*
X190601Y72000I-5250J0D01*
G01*
X190363Y61930D02*
G03*
X194250Y67000I-1363J5070D01*
G01*
X185399Y72000D02*
G03*
X185637Y61930I1601J-5000D01*
G01*
X189591Y42909D02*
G03*
X190250Y44500I-1591J1591D01*
G01*
X189592Y42910D02*
G03*
X190250Y44500I-1592J1590D01*
G01*
X177700Y121000D02*
G03*
X173615Y125198I-4200J0D01*
G01*
X169302Y120885D02*
G03*
X177700Y121000I4198J115D01*
G01*
X167700D02*
G03*
X167700Y121000I-4200J0D01*
G01*
X157700D02*
G03*
X157700Y121000I-4200J0D01*
G01*
X147700D02*
G03*
X147700Y121000I-4200J0D01*
G01*
X172250Y74500D02*
G03*
X172250Y74500I-3750J0D01*
G01*
X159750Y77000D02*
G03*
X156736Y81750I-5250J0D01*
G01*
X159750Y67000D02*
G03*
X156101Y72000I-5250J0D01*
G01*
X150264Y81750D02*
G03*
X150899Y72000I2236J-4750D01*
G01*
X156101D02*
G03*
X159750Y77000I-1601J5000D01*
G01*
X150899Y72000D02*
G03*
X147425Y65657I1601J-5000D01*
G01*
X137700Y121000D02*
G03*
X137700Y121000I-4200J0D01*
G01*
X127700D02*
G03*
X127700Y121000I-4200J0D01*
G01*
X129283Y92966D02*
G03*
X129750Y94500I-2283J1534D01*
G01*
D02*
G03*
X124697Y92998I-2750J0D01*
G01*
X117700Y121000D02*
G03*
X117700Y121000I-4200J0D01*
G01*
X109750Y94500D02*
G03*
X109750Y94500I-2750J0D01*
G01*
X128592Y78910D02*
G03*
X129250Y80500I-1592J1590D01*
G01*
X128591Y78909D02*
G03*
X129250Y80500I-1591J1591D01*
G01*
X107534Y69783D02*
G03*
X107502Y65197I-1534J-2283D01*
G01*
X154500Y61750D02*
G03*
X159750Y67000I0J5250D01*
G01*
X151157Y61925D02*
G03*
X152500Y61750I1343J5075D01*
G01*
X175000Y29250D02*
G03*
X176591Y29909I0J2250D01*
G01*
X175000Y29250D02*
G03*
X176590Y29908I0J2250D01*
G01*
X134500Y46750D02*
G03*
X136091Y47409I0J2250D01*
G01*
X134500Y46750D02*
G03*
X136090Y47408I0J2250D01*
G01*
X114000Y65250D02*
G03*
X115591Y65909I0J2250D01*
G01*
X114000Y65250D02*
G03*
X115590Y65908I0J2250D01*
G01*
X106000Y51250D02*
G03*
X104410Y50592I0J-2250D01*
G01*
X106000Y51250D02*
G03*
X104409Y50591I0J-2250D01*
G01*
X105250Y208000D02*
G03*
X102500Y210750I-2750J0D01*
G01*
Y205250D02*
G03*
X105250Y208000I0J2750D01*
G01*
X102500Y205250D02*
G03*
X105250Y208000I0J2750D01*
G01*
X101699Y183030D02*
G03*
X98433Y179809I-2699J-530D01*
G01*
X91000Y210750D02*
G03*
X89056Y209945I0J-2750D01*
G01*
X91000Y210750D02*
G03*
X89052Y209941I0J-2750D01*
G01*
X80059Y200948D02*
G03*
X83948Y197059I1941J-1948D01*
G01*
X80055Y200944D02*
G03*
X83944Y197055I1945J-1945D01*
G01*
X79750Y166500D02*
G03*
X75498Y168804I-2750J0D01*
G01*
X75466Y164217D02*
G03*
X79750Y166500I1534J2283D01*
G01*
X67500Y219100D02*
G03*
X67500Y219100I-4400J0D01*
G01*
X71409Y164909D02*
G03*
X73000Y164250I1591J1591D01*
G01*
X71410Y164908D02*
G03*
X73000Y164250I1590J1592D01*
G01*
X107700Y151000D02*
G03*
X100613Y154050I-4200J0D01*
G01*
Y147950D02*
G03*
X107700Y151000I2887J3050D01*
G01*
X98250Y146500D02*
G03*
X97081Y148750I-2750J0D01*
G01*
X98250Y146500D02*
G03*
X97081Y148750I-2750J0D01*
G01*
X93221Y148039D02*
G03*
X92750Y146500I2279J-1539D01*
G01*
X93221Y148039D02*
G03*
X92750Y146500I2279J-1539D01*
G01*
X93000Y153250D02*
G03*
X91410Y152592I0J-2250D01*
G01*
X93000Y153250D02*
G03*
X91409Y152591I0J-2250D01*
G01*
X87909Y149091D02*
G03*
X87250Y147500I1591J-1591D01*
G01*
X87908Y149090D02*
G03*
X87250Y147500I1592J-1590D01*
G01*
X107700Y121000D02*
G03*
X107700Y121000I-4200J0D01*
G01*
X99750Y116672D02*
G03*
X98944Y118616I-2750J0D01*
G01*
X94570Y115213D02*
G03*
X99750Y116500I2430J1288D01*
G01*
X92750Y118172D02*
G03*
X93555Y116227I2750J0D01*
G01*
X92750Y118172D02*
G03*
X93559Y116223I2750J0D01*
G01*
X85249Y151917D02*
G03*
X85750Y153500I-2248J1583D01*
G01*
X84592Y150410D02*
G03*
X85249Y151917I-1592J1590D01*
G01*
X84591Y150409D02*
G03*
X85249Y151917I-1591J1591D01*
G01*
X85750Y153500D02*
G03*
X80406Y152588I-2750J0D01*
G01*
X83185Y140357D02*
G03*
X84750Y142500I-685J2143D01*
G01*
D02*
G03*
X80357Y143185I-2250J0D01*
G01*
X73500Y140250D02*
G03*
X75090Y140908I0J2250D01*
G01*
X73500Y140250D02*
G03*
X75091Y140909I0J2250D01*
G01*
X87250Y116121D02*
G03*
X84721Y112623I-750J-2121D01*
G01*
X70534Y144783D02*
G03*
X70502Y140197I-1534J-2283D01*
G01*
X66500Y124500D02*
G03*
X67917Y125089I0J2000D01*
G01*
X66500Y124500D02*
G03*
X67914Y125086I0J2000D01*
G01*
X65090Y177592D02*
G03*
X63500Y178250I-1590J-1592D01*
G01*
X65091Y177591D02*
G03*
X63500Y178250I-1591J-1591D01*
G01*
X61534Y178283D02*
G03*
X61502Y173696I-1534J-2283D01*
G01*
X38966Y157114D02*
G03*
X38719Y156901I1343J-1805D01*
G01*
X38966Y157114D02*
G03*
X38718Y156900I1343J-1805D01*
G01*
X44250Y155500D02*
G03*
X43727Y157114I-2750J0D01*
G01*
X41012Y152794D02*
G03*
X44250Y155500I488J2706D01*
G01*
X27046Y157772D02*
G03*
X28636Y157114I1590J1592D01*
G01*
X27045Y157773D02*
G03*
X28636Y157114I1591J1591D01*
G01*
X57354Y124500D02*
G03*
X56196Y120498I1146J-2500D01*
G01*
X60783Y120466D02*
G03*
X61250Y122000I-2283J1534D01*
G01*
X63750Y117500D02*
G03*
X60750Y119621I-2250J0D01*
G01*
X63279Y116122D02*
G03*
X63750Y117500I-1779J1378D01*
G01*
X61250Y122000D02*
G03*
X59646Y124500I-2750J0D01*
G01*
X25898Y166611D02*
G03*
X21389Y162102I-4398J-111D01*
G01*
X25900Y156500D02*
G03*
X25900Y156500I-4400J0D01*
G01*
Y146500D02*
G03*
X25900Y146500I-4400J0D01*
G01*
X21389Y140898D02*
G03*
X25898Y136389I111J-4398D01*
G01*
X24536Y129684D02*
G03*
X24536Y123316I-3036J-3184D01*
G01*
X74279Y100622D02*
G03*
X74750Y102000I-1779J1378D01*
G01*
X80250Y88500D02*
G03*
X78284Y90732I-2250J0D01*
G01*
X70750Y94000D02*
G03*
X71263Y92763I1750J0D01*
G01*
X70750Y94000D02*
G03*
X71263Y92763I1750J0D01*
G01*
X91091Y85664D02*
G03*
X91750Y87255I-1591J1591D01*
G01*
X91092Y85665D02*
G03*
X91750Y87255I-1592J1590D01*
G01*
X80225Y88164D02*
G03*
X80250Y88500I-2225J336D01*
G01*
X78938Y86455D02*
G03*
X78906Y86120I1718J-335D01*
G01*
X78938Y86455D02*
G03*
X78906Y86120I1718J-335D01*
G01*
X75768Y88216D02*
G03*
X78938Y86455I2232J284D01*
G01*
X82681Y84845D02*
G03*
X82541Y85531I-1750J0D01*
G01*
X82681Y84845D02*
G03*
X82541Y85531I-1750J0D01*
G01*
X83153Y84090D02*
G03*
X82700Y84725I-2030J-970D01*
G01*
X78906Y85120D02*
G03*
X79147Y84234I1750J0D01*
G01*
X78906Y85120D02*
G03*
X79147Y84234I1750J0D01*
G01*
X79140Y84185D02*
G03*
X80153Y81090I1982J-1065D01*
G01*
X74750Y102000D02*
G03*
X70721Y100623I-2250J0D01*
G01*
X70250Y99500D02*
G03*
X69737Y100737I-1750J0D01*
G01*
X70250Y99500D02*
G03*
X69737Y100737I-1750J0D01*
G01*
X56217Y108034D02*
G03*
X55809Y107067I2283J-1534D01*
G01*
X59030Y103802D02*
G03*
X60689Y104836I-530J2699D01*
G01*
X52409Y103591D02*
G03*
X51750Y102000I1591J-1591D01*
G01*
X52408Y103590D02*
G03*
X51750Y102000I1592J-1590D01*
G01*
X70750Y85000D02*
G03*
X70279Y86377I-2250J0D01*
G01*
X66721Y86378D02*
G03*
X70750Y85000I1779J-1378D01*
G01*
X56750Y82500D02*
G03*
X56304Y84002I-2750J0D01*
G01*
X51717Y84034D02*
G03*
X51879Y80750I2283J-1534D01*
G01*
X95470Y41699D02*
G03*
X98691Y38433I530J-2699D01*
G01*
X80745Y76250D02*
G03*
X82335Y76908I0J2250D01*
G01*
X80745Y76250D02*
G03*
X82336Y76909I0J2250D01*
G01*
X56121Y80750D02*
G03*
X56750Y82500I-2121J1750D01*
G01*
X44900Y72500D02*
G03*
X42801Y76250I-4400J0D01*
G01*
X39217Y80750D02*
G03*
X37626Y80091I0J-2250D01*
G01*
X36110Y72211D02*
G03*
X44900Y72500I4390J289D01*
G01*
X39217Y80750D02*
G03*
X37627Y80092I0J-2250D01*
G01*
X44900Y62500D02*
G03*
X36102Y62611I-4400J0D01*
G01*
X25504Y67968D02*
G03*
X24845Y66377I1591J-1591D01*
G01*
X25503Y67967D02*
G03*
X24845Y66377I1592J-1590D01*
G01*
X40611Y58102D02*
G03*
X44900Y62500I-111J4398D01*
G01*
X32909Y58091D02*
G03*
X32250Y56500I1591J-1591D01*
G01*
X44900Y52500D02*
G03*
X36750Y54801I-4400J0D01*
G01*
X32908Y58090D02*
G03*
X32250Y56500I1592J-1590D01*
G01*
X28687Y54377D02*
G03*
X29345Y55967I-1592J1590D01*
G01*
X28686Y54376D02*
G03*
X29345Y55967I-1591J1591D01*
G01*
X19400Y105500D02*
G03*
X19400Y105500I-4400J0D01*
G01*
Y73000D02*
G03*
X19400Y73000I-4400J0D01*
G01*
Y63000D02*
G03*
X19400Y63000I-4400J0D01*
G01*
X36750Y50199D02*
G03*
X44900Y52500I3750J2301D01*
G01*
X44898Y42611D02*
G03*
X36750Y44801I-4398J-111D01*
G01*
X44900Y32500D02*
G03*
X36750Y34801I-4400J0D01*
G01*
X49909Y29909D02*
G03*
X51500Y29250I1591J1591D01*
G01*
X49910Y29908D02*
G03*
X51500Y29250I1590J1592D01*
G01*
X36750Y30199D02*
G03*
X44900Y32500I3750J2301D01*
G01*
X36750Y40199D02*
G03*
X40389Y38102I3750J2301D01*
G01*
X39910Y9908D02*
G03*
X41500Y9250I1590J1592D01*
G01*
X39909Y9909D02*
G03*
X41500Y9250I1591J1591D01*
G01*
X32250Y18500D02*
G03*
X32909Y16909I2250J0D01*
G01*
X32250Y18500D02*
G03*
X32908Y16910I2250J0D01*
G01*
X19400Y31000D02*
G03*
X18188Y34032I-4400J0D01*
G01*
X11812D02*
G03*
X19400Y31000I3188J-3032D01*
G01*
X13409Y45463D02*
G03*
X12750Y43872I1591J-1591D01*
G01*
X13408Y45462D02*
G03*
X12750Y43872I1592J-1590D01*
G01*
X19400Y21000D02*
G03*
X19400Y21000I-4400J0D01*
G01*
X269000Y205250D02*
Y247249D01*
X268795Y205500D02*
X289826D01*
X267500Y206437D02*
Y247252D01*
X269717Y202500D02*
X289844D01*
X269172Y201000D02*
X289853D01*
X269614Y204000D02*
X289835D01*
X267346Y199500D02*
X289862D01*
X244389Y172500D02*
X290026D01*
X245889Y171000D02*
X290035D01*
X243750Y174000D02*
X290017D01*
X248889Y168000D02*
X290053D01*
X250389Y166500D02*
X290062D01*
X247389Y169500D02*
X290044D01*
X180654Y186000D02*
X289944D01*
X242887Y178500D02*
X289989D01*
X180726Y187500D02*
X289935D01*
X243750Y175500D02*
X290007D01*
X243704Y177000D02*
X289999D01*
X245000Y171889D02*
Y247295D01*
X263000Y205250D02*
Y247260D01*
X243500Y177646D02*
Y247298D01*
X248000Y168889D02*
Y247289D01*
X249500Y167389D02*
Y247286D01*
X246500Y170389D02*
Y247292D01*
X240500Y179204D02*
Y247303D01*
X242000Y179062D02*
Y247300D01*
X180500Y188601D02*
Y247418D01*
X239000Y178387D02*
Y247306D01*
X182000Y166389D02*
Y247415D01*
X266000Y206750D02*
Y247254D01*
X264500Y206437D02*
Y247257D01*
X243750Y175500D02*
Y176500D01*
Y173139D02*
Y175500D01*
X238250Y172000D02*
Y175500D01*
Y176500D01*
X181889Y166500D02*
X242611D01*
X258500Y159889D02*
Y247269D01*
X260000Y158389D02*
Y247266D01*
X257000Y161389D02*
Y247272D01*
X278000Y123672D02*
Y247231D01*
X279500Y124216D02*
Y247229D01*
X261500Y156889D02*
Y247263D01*
X252500Y165280D02*
Y247280D01*
X254000Y164389D02*
Y247277D01*
X251000Y165889D02*
Y247283D01*
X255500Y162889D02*
Y247274D01*
X236000Y145443D02*
Y247312D01*
X263000Y155389D02*
Y200750D01*
X253239Y165000D02*
X290071D01*
X281000Y124114D02*
Y247226D01*
X282500Y123295D02*
Y247223D01*
X253853Y164536D02*
X263441Y154948D01*
X243750Y173139D02*
X251543Y165346D01*
X251904D01*
X183389Y165000D02*
X244111D01*
X239059Y170052D02*
X248456Y160655D01*
X192500Y156015D02*
Y247395D01*
X194000Y155200D02*
Y247392D01*
X191000Y157389D02*
Y247398D01*
X197000Y155200D02*
Y247386D01*
X210500Y146500D02*
Y247361D01*
X195500Y155200D02*
Y247389D01*
X185000Y163389D02*
Y247409D01*
X186500Y161889D02*
Y247407D01*
X183500Y164889D02*
Y247412D01*
X189500Y158889D02*
Y247401D01*
X188000Y160389D02*
Y247404D01*
X231500Y146426D02*
Y247320D01*
X233000Y146703D02*
Y247318D01*
X219500Y149500D02*
Y247343D01*
X234500Y146426D02*
Y247315D01*
X230000Y145443D02*
Y247323D01*
X215000Y151475D02*
Y247352D01*
X216500Y151399D02*
Y247349D01*
X213500Y151083D02*
Y247355D01*
X218000Y150830D02*
Y247346D01*
X212000Y150071D02*
Y247358D01*
X164884Y231000D02*
X289671D01*
X164884Y229500D02*
X289680D01*
X164884Y232500D02*
X289662D01*
X179000Y190913D02*
Y247421D01*
X164884Y228000D02*
X289689D01*
X177500Y191854D02*
Y247424D01*
X164884Y235500D02*
X289644D01*
X164884Y234000D02*
X289653D01*
X164884Y237000D02*
X289635D01*
X164268Y214500D02*
X289771D01*
X163104Y216000D02*
X289762D01*
X177101Y192000D02*
X289908D01*
X179413Y190500D02*
X289917D01*
X164861Y211500D02*
X289789D01*
X180354Y189000D02*
X289926D01*
X180117Y184500D02*
X289953D01*
X164499Y210000D02*
X289798D01*
X163591Y208500D02*
X289808D01*
X164790Y213000D02*
X289780D01*
X161496Y207000D02*
X289817D01*
X103646Y205500D02*
X263205D01*
X176000Y192226D02*
Y247427D01*
X164884Y226616D02*
Y237384D01*
X164000D02*
Y247450D01*
X173000Y191617D02*
Y247432D01*
X174500Y192154D02*
Y247429D01*
X171500Y190400D02*
Y247435D01*
X162500Y237384D02*
Y247452D01*
X154116Y237384D02*
X164884D01*
X161000D02*
Y247455D01*
X162500Y216471D02*
Y226616D01*
X161000Y217171D02*
Y226616D01*
X154116D02*
X164884D01*
X164000Y214956D02*
Y226616D01*
X150750Y192000D02*
X173899D01*
X150750Y190500D02*
X171587D01*
X150750Y189000D02*
X170646D01*
X150750Y186000D02*
X170346D01*
X150750Y187500D02*
X170274D01*
X178900Y183000D02*
X289962D01*
X176000Y169250D02*
Y181774D01*
X180500Y167889D02*
Y185399D01*
X179000Y169062D02*
Y183087D01*
X177500Y169250D02*
Y182146D01*
X146957Y181500D02*
X289971D01*
X146592Y180000D02*
X289980D01*
X145182Y178500D02*
X239112D01*
X143682Y177000D02*
X238296D01*
X142182Y175500D02*
X238250D01*
X140682Y174000D02*
X238250D01*
X179948Y168441D02*
X191351Y157038D01*
X180389Y168000D02*
X241111D01*
X176861Y163750D02*
X187453Y153158D01*
X137682Y171000D02*
X238438D01*
X136182Y169500D02*
X239611D01*
X139182Y172500D02*
X238250D01*
X135914Y169250D02*
X178000D01*
X107000Y163750D02*
X176861D01*
X167000Y169250D02*
Y247444D01*
X165500Y169250D02*
Y247447D01*
X170000Y169250D02*
Y247438D01*
X171500Y169250D02*
Y183600D01*
X168500Y169250D02*
Y247441D01*
X150750Y184500D02*
X170883D01*
X150750Y183000D02*
X172100D01*
X161000Y169250D02*
Y206829D01*
X164000Y169250D02*
Y209044D01*
X162500Y169250D02*
Y207529D01*
X174500Y169250D02*
Y181846D01*
Y155079D02*
Y163750D01*
X173000Y169250D02*
Y182383D01*
X176000Y154375D02*
Y163750D01*
X171500Y154693D02*
Y163750D01*
X162500Y155079D02*
Y163750D01*
X165500Y154693D02*
Y163750D01*
X161000Y154375D02*
Y163750D01*
X170000Y153322D02*
Y163750D01*
X168500Y129182D02*
Y163750D01*
X260889Y157500D02*
X290117D01*
X262389Y156000D02*
X290126D01*
X259389Y159000D02*
X290107D01*
X263805Y154500D02*
X290135D01*
X256389Y162000D02*
X290089D01*
X257889Y160500D02*
X290099D01*
X254889Y163500D02*
X290080D01*
X250765Y159846D02*
X259552Y151059D01*
X197700Y154500D02*
X256111D01*
X264250Y153000D02*
X290144D01*
X263805Y151500D02*
X290153D01*
X235943Y145500D02*
X290189D01*
X236926Y144000D02*
X290198D01*
X215500Y151500D02*
X259111D01*
X219071Y150000D02*
X290162D01*
X197700Y153000D02*
X257611D01*
X220475Y147000D02*
X290180D01*
X220083Y148500D02*
X290171D01*
X250404Y159846D02*
X250765D01*
X193568Y155200D02*
X194802D01*
X197700Y146800D02*
Y155200D01*
X193061Y155539D02*
X193454Y155265D01*
X189389Y159000D02*
X251611D01*
X190889Y157500D02*
X253111D01*
X191447Y156976D02*
X192034Y156410D01*
X192517Y156000D02*
X254611D01*
X192034Y156410D02*
X193061Y155539D01*
X197700Y150000D02*
X211929D01*
X197700Y148500D02*
X210917D01*
X197700Y147000D02*
X210525D01*
X220399Y145500D02*
X230057D01*
X219830Y144000D02*
X229074D01*
X218500Y142500D02*
X228797D01*
X194807Y155200D02*
X197700D01*
Y151500D02*
X215500D01*
X189300Y149698D02*
Y150932D01*
Y146800D02*
X197700D01*
X189300D02*
Y149693D01*
X236926Y141000D02*
X290217D01*
X235943Y139500D02*
X290226D01*
X237203Y142500D02*
X290208D01*
X236000Y135443D02*
Y139557D01*
X236378Y135000D02*
X290253D01*
X234500Y136426D02*
Y138574D01*
X234290Y136500D02*
X290244D01*
X233000Y136703D02*
Y138297D01*
X237082Y133500D02*
X290262D01*
X237173Y132000D02*
X290271D01*
X236696Y130500D02*
X290280D01*
X235327Y129000D02*
X290289D01*
X220399Y127500D02*
X290299D01*
X220475Y126000D02*
X290307D01*
X220083Y124500D02*
X290317D01*
X219071Y123000D02*
X277205D01*
X218000Y130830D02*
Y142170D01*
X213500Y131083D02*
Y141917D01*
X219500Y129500D02*
Y143500D01*
X212000Y130071D02*
Y142929D01*
X210500Y126500D02*
Y146500D01*
X194000Y125170D02*
Y146800D01*
X195500Y124693D02*
Y146800D01*
X192500Y125079D02*
Y146800D01*
X197000Y123322D02*
Y146800D01*
X191000Y124375D02*
Y146800D01*
X230000Y135443D02*
Y139557D01*
X231500Y136426D02*
Y138574D01*
X216500Y131399D02*
Y141601D01*
X219830Y129000D02*
X230673D01*
X218500Y130500D02*
X229304D01*
X215000Y131475D02*
Y141525D01*
X195822Y124500D02*
X210917D01*
X186389Y162000D02*
X247111D01*
X187889Y160500D02*
X248624D01*
X184889Y163500D02*
X245611D01*
X183500Y155200D02*
Y157111D01*
X185000Y154923D02*
Y155611D01*
X182000Y154923D02*
Y158611D01*
X147182Y157500D02*
X183111D01*
X148682Y156000D02*
X184611D01*
X145682Y159000D02*
X181611D01*
X175822Y154500D02*
X181178D01*
X187507Y153070D02*
X188581Y151915D01*
X187670Y151500D02*
X188913D01*
X187193Y153000D02*
X187573D01*
X188951Y151453D02*
X189235Y151046D01*
X187579Y150000D02*
X189300D01*
X188581Y151915D02*
X188951Y151453D01*
X186875Y148500D02*
X189300D01*
X184781Y147000D02*
X189300D01*
X174781D02*
X182219D01*
X153682Y144000D02*
X211170D01*
X152182Y145500D02*
X210601D01*
X173000Y155170D02*
Y163750D01*
X180500Y153939D02*
Y160111D01*
X167000Y153322D02*
Y163750D01*
X177500Y152281D02*
Y163111D01*
X167193Y153000D02*
X169807D01*
X164000Y155170D02*
Y163750D01*
X144182Y160500D02*
X180111D01*
X155822Y154500D02*
X161178D01*
X165822D02*
X171178D01*
X177193Y153000D02*
X179807D01*
X177670Y151500D02*
X179330D01*
X167670D02*
X169330D01*
X176875Y148500D02*
X180125D01*
X177579Y150000D02*
X179421D01*
X167579D02*
X169421D01*
X166875Y148500D02*
X170125D01*
X156875D02*
X160125D01*
X164781Y147000D02*
X172219D01*
X154781D02*
X162219D01*
X185000Y124923D02*
Y147077D01*
X183500Y125200D02*
Y146800D01*
X182000Y124923D02*
Y147077D01*
X180500Y123939D02*
Y148061D01*
X186500Y123939D02*
Y148061D01*
X176000Y124375D02*
Y147625D01*
X156682Y141000D02*
X229074D01*
X158182Y139500D02*
X230057D01*
X155182Y142500D02*
X212500D01*
X159682Y138000D02*
X290235D01*
X174500Y125079D02*
Y146921D01*
X168682Y129000D02*
X211170D01*
X170182Y127500D02*
X210601D01*
X171682Y126000D02*
X210525D01*
X175822Y124500D02*
X181178D01*
X185822D02*
X191178D01*
X177193Y123000D02*
X179807D01*
X161182Y136500D02*
X231710D01*
X162682Y135000D02*
X229622D01*
X164182Y133500D02*
X228918D01*
X165682Y132000D02*
X228827D01*
X167182Y130500D02*
X212500D01*
X167000Y130682D02*
Y148678D01*
X165500Y132182D02*
Y147307D01*
X164000Y133682D02*
Y146830D01*
X171500Y126182D02*
Y147307D01*
X173000Y125259D02*
Y146830D01*
X170000Y127682D02*
Y148678D01*
X161000Y136682D02*
Y147625D01*
X162500Y135182D02*
Y146921D01*
X125475Y130500D02*
X160818D01*
X150800Y146882D02*
X171773Y125909D01*
X161000Y124375D02*
Y130318D01*
X165500Y124693D02*
Y125818D01*
X165822Y124500D02*
X166818D01*
X164000Y125170D02*
Y127318D01*
X167193Y123000D02*
X168318D01*
X167000Y123322D02*
Y124318D01*
X122475Y127500D02*
X163818D01*
X120975Y126000D02*
X165318D01*
X123975Y129000D02*
X162318D01*
X162500Y125079D02*
Y128818D01*
X155822Y124500D02*
X161178D01*
X156500Y237384D02*
Y247464D01*
X158000Y237384D02*
Y247461D01*
X155000Y237384D02*
Y247467D01*
X159500Y237384D02*
Y247458D01*
X155000Y214956D02*
Y226616D01*
X154116D02*
Y237384D01*
X149000Y192250D02*
Y247478D01*
X150500Y192250D02*
Y247475D01*
X147500Y192250D02*
Y247481D01*
X153500Y169250D02*
Y247470D01*
X152000Y169250D02*
Y247473D01*
X158000Y217171D02*
Y226616D01*
X159500Y217384D02*
Y226616D01*
X156500Y216471D02*
Y226616D01*
X155000Y169250D02*
Y209044D01*
X146982Y181750D02*
X150750D01*
X140250Y192250D02*
X150750D01*
Y181750D02*
Y192250D01*
X147500Y169250D02*
Y181750D01*
X143000Y192250D02*
Y247490D01*
X144500Y192250D02*
Y247487D01*
X141500Y192250D02*
Y247493D01*
X146000Y192250D02*
Y247484D01*
X141500Y181182D02*
Y181750D01*
X140250D02*
Y192250D01*
X138500Y178182D02*
Y247498D01*
X140000Y179682D02*
Y247496D01*
X137000Y176682D02*
Y247501D01*
X135500Y175182D02*
Y247504D01*
X134000Y173682D02*
Y247507D01*
X146946Y181141D02*
X146953Y181455D01*
X146000Y169250D02*
Y179318D01*
X144500Y169250D02*
Y177818D01*
X143000Y169250D02*
Y176318D01*
X133568Y173250D02*
X142068Y181750D01*
X136092Y169410D02*
X146262Y179580D01*
X140250Y181750D02*
X142068D01*
X141500Y169250D02*
Y174818D01*
X138500Y169250D02*
Y171818D01*
X156500Y169250D02*
Y207529D01*
X158000Y169250D02*
Y206829D01*
X150500Y169250D02*
Y181750D01*
X159500Y169250D02*
Y206616D01*
X152000Y154923D02*
Y163750D01*
X150500Y154073D02*
Y163750D01*
X149000Y169250D02*
Y181750D01*
X146000Y158682D02*
Y163750D01*
X144500Y160182D02*
Y163750D01*
X149000Y155682D02*
Y163750D01*
X147500Y157182D02*
Y163750D01*
X155000Y154923D02*
Y163750D01*
X156500Y153939D02*
Y163750D01*
X153500Y155200D02*
Y163750D01*
X159500Y152281D02*
Y163750D01*
X157193Y153000D02*
X159807D01*
X158000Y139682D02*
Y163750D01*
X150181Y154500D02*
X151178D01*
X143728Y160954D02*
X150140Y154542D01*
X140000Y161614D02*
Y163750D01*
X141500Y161614D02*
Y163750D01*
X140000Y169250D02*
Y173318D01*
X143000Y161442D02*
Y163750D01*
X137000Y169250D02*
Y170318D01*
X135500Y161614D02*
Y163750D01*
X134000Y161614D02*
Y163750D01*
X138500Y161614D02*
Y163750D01*
X137000Y161614D02*
Y163750D01*
X141205Y157114D02*
X143134Y155184D01*
X141500Y154693D02*
Y156818D01*
X140000Y153322D02*
Y157114D01*
X138500Y148475D02*
Y157114D01*
X135500Y154693D02*
Y157114D01*
X135822Y154500D02*
X141178D01*
X134000Y155170D02*
Y157114D01*
X137193Y153000D02*
X139807D01*
X137000Y153322D02*
Y157114D01*
X126500Y173250D02*
Y247521D01*
X128000Y173250D02*
Y247518D01*
X125000Y173250D02*
Y247524D01*
X131000Y173250D02*
Y247513D01*
X132500Y173250D02*
Y247510D01*
X129500Y173250D02*
Y247516D01*
X119000Y173250D02*
Y247536D01*
X120500Y173250D02*
Y247533D01*
X117500Y173250D02*
Y247539D01*
X123500Y173250D02*
Y247527D01*
X122000Y173250D02*
Y247530D01*
X106182Y178500D02*
X138818D01*
X107682Y177000D02*
X137318D01*
X109182Y175500D02*
X135818D01*
X110682Y174000D02*
X134318D01*
X111432Y173250D02*
X133568D01*
X132500Y161614D02*
Y163750D01*
X105204Y208500D02*
X155409D01*
X105062Y207000D02*
X157503D01*
X104387Y210000D02*
X154501D01*
X103182Y181500D02*
X141818D01*
X104682Y180000D02*
X140318D01*
X110000Y174682D02*
Y247553D01*
X111500Y173250D02*
Y247550D01*
X108500Y176182D02*
Y247556D01*
X114500Y173250D02*
Y247544D01*
X116000Y173250D02*
Y247541D01*
X113000Y173250D02*
Y247547D01*
X104000Y180682D02*
Y205695D01*
Y210305D02*
Y247564D01*
X107000Y177682D02*
Y247559D01*
X105500Y179182D02*
Y247562D01*
X108500Y161614D02*
Y163750D01*
X110000Y161614D02*
Y163750D01*
X108500Y169250D02*
Y169818D01*
X113000Y161614D02*
Y163750D01*
X114500Y161614D02*
Y163750D01*
X111500Y161614D02*
Y163750D01*
X107000Y169250D02*
Y171318D01*
Y169250D02*
X109086D01*
X105500Y168805D02*
Y172818D01*
X126500Y161614D02*
Y163750D01*
X128000Y161614D02*
Y163750D01*
X125000Y161614D02*
Y163750D01*
X129500Y161614D02*
Y163750D01*
X131000Y161614D02*
Y163750D01*
X123500Y155200D02*
Y157114D01*
X122000Y161614D02*
Y163750D01*
X123500Y161614D02*
Y163750D01*
X120500Y161614D02*
Y163750D01*
X122000Y154923D02*
Y157114D01*
X120500Y153939D02*
Y157114D01*
X131000Y154375D02*
Y157114D01*
X132500Y155079D02*
Y157114D01*
X127193Y153000D02*
X129807D01*
X129500Y152281D02*
Y157114D01*
X128000Y147975D02*
Y157114D01*
X125000Y154923D02*
Y157114D01*
X125822Y154500D02*
X131178D01*
X115822D02*
X121178D01*
X126500Y153939D02*
Y157114D01*
X117500Y161614D02*
Y163750D01*
X119000Y161614D02*
Y163750D01*
X116000Y161614D02*
Y163750D01*
X108500Y139975D02*
Y157114D01*
X110000Y153322D02*
Y157114D01*
X107000Y153322D02*
Y157114D01*
X105500Y161614D02*
Y164195D01*
X107000Y161614D02*
Y163750D01*
X104000Y161614D02*
Y174318D01*
X105500Y154693D02*
Y157114D01*
X104000Y155170D02*
Y157114D01*
X116000Y154375D02*
Y157114D01*
X117193Y153000D02*
X119807D01*
X114500Y155079D02*
Y157114D01*
X119000Y138975D02*
Y157114D01*
X117500Y152281D02*
Y157114D01*
X111500Y154693D02*
Y157114D01*
X113000Y155170D02*
Y157114D01*
X105822Y154500D02*
X111178D01*
X107193Y153000D02*
X109807D01*
X157670Y151500D02*
X159330D01*
X157579Y150000D02*
X159421D01*
X150800Y146882D02*
Y147783D01*
X156500Y141182D02*
Y148061D01*
X152000Y145682D02*
Y147077D01*
X137670Y151500D02*
X139330D01*
X139273Y150595D02*
X139276Y150980D01*
X139227Y149921D02*
X139273Y150595D01*
X146300Y145950D02*
Y147870D01*
X150800Y147000D02*
X152219D01*
X144781D02*
X146300D01*
X155000Y142682D02*
Y147077D01*
X153500Y144182D02*
Y146800D01*
X143095Y146773D02*
X143480Y146776D01*
X140475Y145500D02*
X146345D01*
X142421Y146727D02*
X143095Y146773D01*
X137475Y142500D02*
X148818D01*
X138975Y144000D02*
X147318D01*
X137579Y150000D02*
X139232D01*
X136875Y148500D02*
X138525D01*
X129273Y150595D02*
X129276Y150980D01*
X137000Y146975D02*
Y148678D01*
X135500Y145475D02*
Y147307D01*
X127670Y151500D02*
X129330D01*
X129227Y149921D02*
X129273Y150595D01*
X127579Y150000D02*
X129232D01*
X126875Y148500D02*
X128525D01*
X126500Y146475D02*
Y148061D01*
X134781Y147000D02*
X137025D01*
X133095Y146773D02*
X133480Y146776D01*
X132421Y146727D02*
X133095Y146773D01*
X134000Y143975D02*
Y146830D01*
X130475Y145500D02*
X135525D01*
X132500Y142475D02*
Y146732D01*
X124781Y147000D02*
X127025D01*
X128975Y144000D02*
X134025D01*
X125000Y144975D02*
Y147077D01*
X127475Y142500D02*
X132525D01*
X123500Y143475D02*
Y146800D01*
X159500Y138182D02*
Y149719D01*
X144500Y125079D02*
Y146921D01*
X143000Y125170D02*
Y146766D01*
X150500Y123939D02*
Y140818D01*
X152000Y124923D02*
Y139318D01*
X146000Y124375D02*
Y147625D01*
X134475Y139500D02*
X151818D01*
X132975Y138000D02*
X153318D01*
X135975Y141000D02*
X150318D01*
X141500Y124693D02*
Y146473D01*
X140000Y123322D02*
Y145025D01*
X153500Y125200D02*
Y137818D01*
X155000Y124923D02*
Y136318D01*
X145822Y124500D02*
X151178D01*
X156500Y123939D02*
Y134818D01*
X157193Y123000D02*
X159807D01*
X147193D02*
X149807D01*
X129975Y135000D02*
X156318D01*
X128475Y133500D02*
X157818D01*
X131475Y136500D02*
X154818D01*
X126975Y132000D02*
X159318D01*
X135822Y124500D02*
X141178D01*
X131000Y140975D02*
Y146025D01*
X129500Y139475D02*
Y144525D01*
X128000Y137975D02*
Y143025D01*
X137000Y123322D02*
Y142025D01*
X135500Y124693D02*
Y140525D01*
X134000Y125170D02*
Y139025D01*
X125975Y141000D02*
X131025D01*
X124475Y139500D02*
X129525D01*
X126500Y136475D02*
Y141525D01*
X125000Y134975D02*
Y140025D01*
X123500Y133475D02*
Y138525D01*
X132500Y125079D02*
Y137525D01*
X131000Y124375D02*
Y136025D01*
X126500Y123939D02*
Y131525D01*
X137193Y123000D02*
X139807D01*
X127193D02*
X129807D01*
X122975Y138000D02*
X128025D01*
X123500Y125200D02*
Y128525D01*
X122000Y131975D02*
Y137025D01*
X125822Y124500D02*
X131178D01*
X125000Y124923D02*
Y130025D01*
X117579Y150000D02*
X119421D01*
X116875Y148500D02*
X120125D01*
X117670Y151500D02*
X119330D01*
X120500Y140475D02*
Y148061D01*
X122000Y141975D02*
Y147077D01*
X117500Y137475D02*
Y149719D01*
X116203Y147724D02*
X116473Y147999D01*
X115759Y147216D02*
X116203Y147724D01*
X115598Y147000D02*
X122219D01*
X116000Y135975D02*
Y147492D01*
X115250Y145500D02*
X125525D01*
X115250Y144000D02*
X124025D01*
X115250Y142500D02*
X122525D01*
X121475Y136500D02*
X126525D01*
X119975Y135000D02*
X125025D01*
X118475Y133500D02*
X123525D01*
X114475Y141000D02*
X121025D01*
X112975Y139500D02*
X119525D01*
X115250Y142500D02*
Y146153D01*
X111475Y138000D02*
X118025D01*
X109975Y136500D02*
X116525D01*
X110527Y147999D02*
X110797Y147724D01*
X111241Y147216D01*
X107670Y151500D02*
X109330D01*
X111500Y142975D02*
Y146850D01*
X111750Y143225D02*
Y146153D01*
X110000Y141475D02*
Y148678D01*
X106875Y148500D02*
X110125D01*
X104781Y147000D02*
X111401D01*
X107579Y150000D02*
X109421D01*
X107000Y138475D02*
Y148678D01*
X105500Y137516D02*
Y147307D01*
X108869Y135395D02*
X114737Y141263D01*
X108694Y135000D02*
X115025D01*
X114500Y134475D02*
Y141025D01*
X106403Y137878D02*
X111750Y143225D01*
X107531Y133500D02*
X113525D01*
X120500Y130475D02*
Y135525D01*
X116975Y132000D02*
X122025D01*
X119000Y128975D02*
Y134025D01*
X118775Y128750D02*
X138835Y148810D01*
X120737Y125763D02*
X141310Y146335D01*
X117500Y128750D02*
Y132525D01*
X113275Y133250D02*
X128835Y148810D01*
X115237Y130263D02*
X131310Y146335D01*
X115475Y130500D02*
X120525D01*
X116000Y128750D02*
Y131025D01*
X122000Y124923D02*
Y127025D01*
X120500Y123939D02*
Y125564D01*
X117193Y123000D02*
X119807D01*
X116000Y124375D02*
Y125250D01*
X107531Y129000D02*
X119025D01*
X108114Y128750D02*
X118775D01*
X115822Y124500D02*
X121178D01*
X108101Y125250D02*
X119500D01*
X113000Y133250D02*
Y139525D01*
X111500Y133250D02*
Y138025D01*
X110000Y133250D02*
Y136525D01*
X114500Y128750D02*
Y129823D01*
X111500Y128750D02*
Y129750D01*
X110000Y128750D02*
Y129750D01*
X108500Y133250D02*
Y134469D01*
X108114Y133250D02*
X113275D01*
X108500Y128750D02*
Y129750D01*
X104000Y125170D02*
Y146830D01*
X113000Y128750D02*
Y129750D01*
X108101D02*
X114000D01*
X111500Y124693D02*
Y125250D01*
X110000Y123322D02*
Y125250D01*
X107000Y123322D02*
Y124806D01*
X105500Y129016D02*
Y129484D01*
X105822Y124500D02*
X111178D01*
X282795Y123000D02*
X290326D01*
X283614Y121500D02*
X290335D01*
X283172Y118500D02*
X290353D01*
X281346Y117000D02*
X290362D01*
X283717Y120000D02*
X290344D01*
X227750Y91500D02*
X290517D01*
X227750Y88500D02*
X290535D01*
X227750Y87000D02*
X290544D01*
X227750Y90000D02*
X290526D01*
X227750Y84000D02*
X290562D01*
X227750Y82500D02*
X290571D01*
X227750Y85500D02*
X290553D01*
X227117Y79500D02*
X290589D01*
X227654Y78000D02*
X290599D01*
X225900Y81000D02*
X290580D01*
X227354Y75000D02*
X290617D01*
X227726Y76500D02*
X290608D01*
X222500Y92250D02*
Y247338D01*
X276500Y121846D02*
Y247234D01*
X221000Y92250D02*
Y247340D01*
X225500Y92250D02*
Y247332D01*
X227000Y92250D02*
Y247329D01*
X224000Y92250D02*
Y247335D01*
X216500Y92250D02*
Y121601D01*
X215500Y121500D02*
X276386D01*
X219500Y92250D02*
Y123500D01*
X218000Y92250D02*
Y122170D01*
X227750Y81750D02*
Y92250D01*
X224736Y81750D02*
X227750D01*
X225500Y81308D02*
Y81750D01*
X227000Y79704D02*
Y81750D01*
X215250Y92250D02*
X227750D01*
X215250Y81750D02*
X218264D01*
X215250D02*
Y92250D01*
X216500Y80400D02*
Y81750D01*
X288500Y3193D02*
Y247211D01*
X289573Y247209D02*
X291000Y11744D01*
X287000Y3185D02*
Y247214D01*
X284000Y3170D02*
Y247220D01*
X285500Y3178D02*
Y247217D01*
X275000Y3125D02*
Y247237D01*
X272000Y3110D02*
Y247243D01*
X273500Y3118D02*
Y247240D01*
X270500Y3102D02*
Y247246D01*
X269000Y3095D02*
Y200750D01*
X264500Y3073D02*
Y199563D01*
X290000Y3200D02*
Y176744D01*
X282500Y3162D02*
Y117705D01*
X281000Y3155D02*
Y116886D01*
X278000Y3140D02*
Y117328D01*
X279500Y3148D02*
Y116783D01*
X276500Y3133D02*
Y119154D01*
X267500Y3087D02*
Y199563D01*
X266000Y3080D02*
Y199250D01*
X263000Y3065D02*
Y150695D01*
X261500Y3057D02*
Y150250D01*
X260000Y3050D02*
Y150695D01*
X249500Y2998D02*
Y159999D01*
X251000Y3005D02*
Y159611D01*
X248000Y2990D02*
Y161111D01*
X245000Y2975D02*
Y164111D01*
X246500Y2983D02*
Y162611D01*
X243500Y2967D02*
Y165611D01*
X240500Y2953D02*
Y168611D01*
X242000Y2960D02*
Y167111D01*
X239000Y2945D02*
Y170113D01*
X237500Y2937D02*
Y247309D01*
X228500Y2892D02*
Y247326D01*
X257000Y3035D02*
Y153611D01*
X258500Y3042D02*
Y152111D01*
X255500Y3028D02*
Y155111D01*
X254000Y3020D02*
Y156611D01*
X252500Y3012D02*
Y158111D01*
X236000Y2930D02*
Y129557D01*
X234500Y2922D02*
Y128574D01*
X233000Y2915D02*
Y128297D01*
X231500Y2908D02*
Y128574D01*
X230000Y2900D02*
Y129557D01*
X197670Y121500D02*
X215500D01*
X197193Y123000D02*
X211929D01*
X197579Y120000D02*
X276284D01*
X196875Y118500D02*
X276828D01*
X184781Y117000D02*
X192219D01*
X194781D02*
X278654D01*
X194250Y91500D02*
X215250D01*
X194000Y92250D02*
Y116830D01*
X194250Y88500D02*
X215250D01*
X194250Y87000D02*
X215250D01*
X194250Y90000D02*
X215250D01*
X129750Y94500D02*
X290498D01*
X129305Y93000D02*
X290508D01*
X129305Y96000D02*
X290489D01*
X181750Y92250D02*
X194250D01*
X192500D02*
Y116921D01*
X189500Y122281D02*
Y146800D01*
X187193Y123000D02*
X189807D01*
X187670Y121500D02*
X189330D01*
X187579Y120000D02*
X189421D01*
X189500Y92250D02*
Y119719D01*
X188000Y92250D02*
Y152540D01*
X177579Y120000D02*
X179421D01*
X176875Y118500D02*
X180125D01*
X177670Y121500D02*
X179330D01*
X186875Y118500D02*
X190125D01*
X174781Y117000D02*
X182219D01*
X183500Y92250D02*
Y116800D01*
X182000Y92250D02*
Y117077D01*
X186500Y92250D02*
Y118061D01*
X191000Y92250D02*
Y117625D01*
X185000Y92250D02*
Y117077D01*
X159750Y90000D02*
X181750D01*
X159750Y88500D02*
X181750D01*
X159750Y91500D02*
X181750D01*
X159750Y85500D02*
X181750D01*
X159750Y87000D02*
X181750D01*
X212000Y30182D02*
Y122929D01*
X213500Y31682D02*
Y121917D01*
X210500Y28682D02*
Y126500D01*
X207500Y25682D02*
Y247366D01*
X209000Y27182D02*
Y247363D01*
X206000Y24182D02*
Y247369D01*
X203000Y21182D02*
Y247375D01*
X204500Y22682D02*
Y247372D01*
X201500Y19682D02*
Y247378D01*
X200000Y18182D02*
Y247381D01*
X198500Y16682D02*
Y247384D01*
X194250Y84000D02*
X215250D01*
X194250Y82500D02*
X215250D01*
X194250Y85500D02*
X215250D01*
X215000Y33182D02*
Y121525D01*
X197000Y15182D02*
Y118678D01*
X195500Y13750D02*
Y117307D01*
X192400Y81000D02*
X217100D01*
X193617Y79500D02*
X215883D01*
X194154Y78000D02*
X215346D01*
X194226Y76500D02*
X215274D01*
X194250Y81750D02*
Y92250D01*
X181750Y81750D02*
X184764D01*
X183500Y80913D02*
Y81750D01*
X192500Y80913D02*
Y81750D01*
X182000Y78601D02*
Y81750D01*
X181750D02*
Y92250D01*
X159750Y82500D02*
X181750D01*
X159750Y84000D02*
X181750D01*
X180500Y40182D02*
Y118061D01*
X179000Y38682D02*
Y161611D01*
X191236Y81750D02*
X194250D01*
X194000Y78601D02*
Y81750D01*
Y68601D02*
Y75399D01*
X182000Y68601D02*
Y75399D01*
X157900Y81000D02*
X183600D01*
X159117Y79500D02*
X182383D01*
X169846Y78000D02*
X181846D01*
X172216Y75000D02*
X182146D01*
X171672Y76500D02*
X181774D01*
X227117Y64500D02*
X290680D01*
X225900Y63000D02*
X290689D01*
X227654Y66000D02*
X290671D01*
X223750Y52500D02*
X290753D01*
X223750Y51000D02*
X290762D01*
X223797Y61500D02*
X290699D01*
X223750Y58500D02*
X290717D01*
X223750Y57000D02*
X290726D01*
X223750Y60000D02*
X290707D01*
X223750Y54000D02*
X290744D01*
X223750Y55500D02*
X290735D01*
X223750Y43500D02*
X290808D01*
X223750Y42000D02*
X290817D01*
X223750Y45000D02*
X290798D01*
X223750Y39000D02*
X290835D01*
X223750Y37500D02*
X290844D01*
X223750Y40500D02*
X290826D01*
X223750Y48000D02*
X290780D01*
X223750Y46500D02*
X290789D01*
X223750Y49500D02*
X290771D01*
X222682Y34500D02*
X290862D01*
X223694Y36000D02*
X290853D01*
X226413Y73500D02*
X290626D01*
X224101Y72000D02*
X290635D01*
X225500Y71308D02*
Y72692D01*
X226413Y70500D02*
X290644D01*
X227354Y69000D02*
X290653D01*
X227000Y69704D02*
Y74296D01*
X216500Y70400D02*
Y73600D01*
X218000Y71617D02*
Y72383D01*
X194226Y67500D02*
X215274D01*
X227726D02*
X290662D01*
X223774Y60962D02*
X223783Y61335D01*
X223750Y36500D02*
Y60854D01*
X219217Y61335D02*
X219226Y60962D01*
X219250Y37432D02*
Y60854D01*
X194154Y66000D02*
X215346D01*
X218000Y36182D02*
Y62384D01*
X216500Y34682D02*
Y63600D01*
X221182Y33000D02*
X290871D01*
X219682Y31500D02*
X290880D01*
X227000Y2885D02*
Y64296D01*
X225500Y2877D02*
Y62692D01*
X224000Y2870D02*
Y61969D01*
X222500Y2863D02*
Y34318D01*
X216682Y28500D02*
X290898D01*
X215182Y27000D02*
X290908D01*
X218182Y30000D02*
X290889D01*
X213682Y25500D02*
X290917D01*
X198092Y9910D02*
X223090Y34908D01*
X210682Y22500D02*
X290935D01*
X209182Y21000D02*
X290944D01*
X212182Y24000D02*
X290926D01*
X206182Y18000D02*
X290962D01*
X291000Y3205D02*
Y11744D01*
X207682Y19500D02*
X290953D01*
X203182Y15000D02*
X290980D01*
X201682Y13500D02*
X290989D01*
X204682Y16500D02*
X290971D01*
X198682Y10500D02*
X291000D01*
X200182Y12000D02*
X290999D01*
X221000Y2855D02*
Y32818D01*
X219500Y2847D02*
Y31318D01*
X218000Y2840D02*
Y29818D01*
X216500Y2833D02*
Y28318D01*
X215000Y2825D02*
Y26818D01*
X213500Y2818D02*
Y25318D01*
X195568Y13750D02*
X219250Y37432D01*
X212000Y2810D02*
Y23818D01*
X210500Y2802D02*
Y22318D01*
X209000Y2795D02*
Y20818D01*
X207500Y2788D02*
Y19318D01*
X206000Y2780D02*
Y17818D01*
X204500Y2772D02*
Y16318D01*
X203000Y2765D02*
Y14818D01*
X201500Y2757D02*
Y13318D01*
X200000Y2750D02*
Y11818D01*
X198500Y2743D02*
Y10318D01*
X197000Y2735D02*
Y9306D01*
X195500Y2727D02*
Y9250D01*
X193854Y75000D02*
X215646D01*
X192913Y73500D02*
X216587D01*
X192500Y70913D02*
Y73087D01*
X192913Y70500D02*
X216587D01*
X193617Y64500D02*
X215883D01*
X193854Y69000D02*
X215646D01*
X190601Y72000D02*
X218899D01*
X192400Y63000D02*
X217100D01*
X190297Y61500D02*
X219203D01*
X190250Y52500D02*
X219250D01*
X190250Y51000D02*
X219250D01*
X190274Y60962D02*
X190283Y61335D01*
X190250Y48000D02*
X219250D01*
X190250Y46500D02*
X219250D01*
X190250Y49500D02*
X219250D01*
X190250Y58500D02*
X219250D01*
X190250Y57000D02*
X219250D01*
X190250Y60000D02*
X219250D01*
X190250Y54000D02*
X219250D01*
X190250Y55500D02*
X219250D01*
X183500Y70913D02*
Y73087D01*
X171295Y72000D02*
X185399D01*
X172114Y73500D02*
X183087D01*
X159654Y66000D02*
X181846D01*
X159726Y67500D02*
X181774D01*
X158413Y70500D02*
X183087D01*
X159117Y64500D02*
X182383D01*
X159354Y69000D02*
X182146D01*
X150228Y61500D02*
X185703D01*
X157900Y63000D02*
X183600D01*
X148682Y60000D02*
X185750D01*
X147182Y58500D02*
X185750D01*
X185717Y61335D02*
X185726Y60962D01*
X144182Y55500D02*
X185750D01*
X145682Y57000D02*
X185750D01*
X141182Y52500D02*
X185750D01*
X139682Y51000D02*
X185750D01*
X142682Y54000D02*
X185750D01*
X136682Y48000D02*
X185750D01*
X138182Y49500D02*
X185750D01*
X190250Y45000D02*
X219250D01*
X190016Y43500D02*
X219250D01*
X190250Y44500D02*
Y60854D01*
X194000Y13750D02*
Y65399D01*
X192500Y13750D02*
Y63087D01*
X191000Y13750D02*
Y62146D01*
X188682Y42000D02*
X219250D01*
X176592Y29910D02*
X189590Y42908D01*
X189500Y13750D02*
Y42818D01*
X185682Y39000D02*
X219250D01*
X184182Y37500D02*
X219250D01*
X187182Y40500D02*
X219250D01*
X192500Y2712D02*
Y9250D01*
X194000Y2720D02*
Y9250D01*
X191000Y2705D02*
Y9250D01*
X182682Y36000D02*
X217818D01*
X181182Y34500D02*
X216318D01*
X179682Y33000D02*
X214818D01*
X178182Y31500D02*
X213318D01*
X176682Y30000D02*
X211818D01*
X185000Y44682D02*
Y62146D01*
X185750Y45432D02*
Y60854D01*
X183500Y43182D02*
Y63087D01*
X188000Y13750D02*
Y41318D01*
X186500Y13750D02*
Y39818D01*
X185000Y13750D02*
Y38318D01*
X106682Y46500D02*
X185750D01*
X105182Y45000D02*
X185318D01*
X103682Y43500D02*
X183818D01*
X174068Y33750D02*
X185750Y45432D01*
X182000Y41682D02*
Y65399D01*
X188000Y2690D02*
Y9250D01*
X189500Y2698D02*
Y9250D01*
X186500Y2682D02*
Y9250D01*
X185000Y2675D02*
Y9250D01*
X183500Y2668D02*
Y9250D01*
Y13750D02*
Y36818D01*
X182000Y13750D02*
Y35318D01*
X180500Y13750D02*
Y33818D01*
X182000Y2660D02*
Y9250D01*
X180500Y2653D02*
Y9250D01*
X177500Y122281D02*
Y149719D01*
X167670Y121500D02*
X169241D01*
X159500Y122281D02*
Y131818D01*
X168500Y78250D02*
Y122818D01*
X146960Y144358D02*
X168591Y122727D01*
X157579Y120000D02*
X159421D01*
X157670Y121500D02*
X159330D01*
X158000Y92250D02*
Y133318D01*
X166875Y118500D02*
X170125D01*
X164781Y117000D02*
X172219D01*
X167579Y120000D02*
X169421D01*
X159750Y81750D02*
Y92250D01*
X159500Y78601D02*
Y81750D01*
Y92250D02*
Y119719D01*
X156875Y118500D02*
X160125D01*
X154781Y117000D02*
X162219D01*
X147250Y92250D02*
X159750D01*
X156736Y81750D02*
X159750D01*
X158000Y80913D02*
Y81750D01*
X147670Y121500D02*
X149330D01*
X147579Y120000D02*
X149421D01*
X147500Y122281D02*
Y143818D01*
X149000Y92250D02*
Y142318D01*
X147500Y92250D02*
Y119719D01*
X137579Y120000D02*
X139421D01*
X136875Y118500D02*
X140125D01*
X137670Y121500D02*
X139330D01*
X146875Y118500D02*
X150125D01*
X152000Y92250D02*
Y117077D01*
X153500Y92250D02*
Y116800D01*
X150500Y92250D02*
Y118061D01*
X156500Y92250D02*
Y118061D01*
X155000Y92250D02*
Y117077D01*
X149000Y80913D02*
Y81750D01*
X144781Y117000D02*
X152219D01*
X147250Y81750D02*
Y92250D01*
X134781Y117000D02*
X142219D01*
X147250Y81750D02*
X150264D01*
X147500Y78601D02*
Y81750D01*
X177500Y37182D02*
Y119719D01*
X171500Y76750D02*
Y117307D01*
X170000Y77937D02*
Y118678D01*
X176000Y35682D02*
Y117625D01*
X174500Y34182D02*
Y116921D01*
X173000Y33750D02*
Y116830D01*
X167000Y77937D02*
Y118678D01*
X159654Y78000D02*
X167154D01*
X165500Y76750D02*
Y117307D01*
X167000Y33750D02*
Y71063D01*
X171500Y33750D02*
Y72250D01*
X170000Y33750D02*
Y71063D01*
X168500Y33750D02*
Y70750D01*
X159726Y76500D02*
X165328D01*
X158413Y73500D02*
X164886D01*
X156101Y72000D02*
X165705D01*
X165500Y33750D02*
Y72250D01*
X146000Y63682D02*
Y117625D01*
X144500Y62182D02*
Y116921D01*
X143000Y60682D02*
Y116830D01*
X162500Y33750D02*
Y116921D01*
X164000Y33750D02*
Y116830D01*
X161000Y33750D02*
Y117625D01*
X140000Y57682D02*
Y118678D01*
X141500Y59182D02*
Y117307D01*
X138500Y56182D02*
Y143525D01*
X137000Y54682D02*
Y118678D01*
X135500Y53182D02*
Y117307D01*
X159354Y75000D02*
X164784D01*
X158000Y70913D02*
Y73087D01*
X159500Y68601D02*
Y75399D01*
X149000Y70913D02*
Y73087D01*
X147500Y68601D02*
Y75399D01*
X129500Y122281D02*
Y134525D01*
X127579Y120000D02*
X129421D01*
X127670Y121500D02*
X129330D01*
X129500Y95646D02*
Y119719D01*
X128000Y97062D02*
Y133025D01*
X126875Y118500D02*
X130125D01*
X124781Y117000D02*
X132219D01*
X126500Y97204D02*
Y118061D01*
X125000Y96387D02*
Y117077D01*
X129250Y87000D02*
X147250D01*
X129275Y92636D02*
X129283Y92966D01*
X129250Y84000D02*
X147250D01*
X129250Y82500D02*
X147250D01*
X129250Y85500D02*
X147250D01*
X129250Y91500D02*
X147250D01*
X124697Y92998D02*
X124727Y92415D01*
X129250Y88500D02*
X147250D01*
X129250Y90000D02*
X147250D01*
X117670Y121500D02*
X119330D01*
X117579Y120000D02*
X119421D01*
X117500Y122281D02*
Y125250D01*
X116875Y118500D02*
X120125D01*
X108500Y96805D02*
Y125250D01*
X107193Y123000D02*
X109807D01*
X107579Y120000D02*
X109421D01*
X107670Y121500D02*
X109330D01*
X106875Y118500D02*
X110125D01*
X107000Y97250D02*
Y118678D01*
X109305Y96000D02*
X124695D01*
X109750Y94500D02*
X124250D01*
X114781Y117000D02*
X122219D01*
X109305Y93000D02*
X124695D01*
X104781Y117000D02*
X112219D01*
X105500Y96805D02*
Y117307D01*
X134000Y51682D02*
Y116830D01*
X129250Y81000D02*
X149100D01*
X129250Y80500D02*
Y92357D01*
X131000Y51250D02*
Y117625D01*
X132500Y51250D02*
Y116921D01*
X129500Y51250D02*
Y93354D01*
X129016Y79500D02*
X147883D01*
X124750Y81432D02*
Y92325D01*
X113068Y69750D02*
X124750Y81432D01*
X127682Y78000D02*
X147346D01*
X124682Y75000D02*
X147646D01*
X126182Y76500D02*
X147274D01*
X128000Y51250D02*
Y78318D01*
X126500Y51250D02*
Y76818D01*
X125000Y51250D02*
Y75318D01*
X121682Y72000D02*
X150899D01*
X120182Y70500D02*
X148587D01*
X123182Y73500D02*
X148587D01*
X118682Y69000D02*
X147646D01*
X115592Y65910D02*
X128590Y78908D01*
X122000Y78682D02*
Y117077D01*
X123500Y80182D02*
Y116800D01*
X120500Y77182D02*
Y118061D01*
X119000Y75682D02*
Y125250D01*
X117500Y74182D02*
Y119719D01*
X116000Y72682D02*
Y117625D01*
X111500Y69750D02*
Y117307D01*
X114500Y71182D02*
Y116921D01*
X110000Y69750D02*
Y118678D01*
X113000Y69750D02*
Y116830D01*
X104000Y69388D02*
Y116830D01*
X120500Y51250D02*
Y70818D01*
X119000Y51250D02*
Y69318D01*
X108500Y69750D02*
Y92195D01*
X123500Y51250D02*
Y73818D01*
X122000Y51250D02*
Y72318D01*
X107000Y70062D02*
Y91750D01*
X107534Y69783D02*
X107864Y69775D01*
X105500Y70204D02*
Y92195D01*
X108143Y69750D02*
X113068D01*
X155000Y33750D02*
Y61774D01*
X153500Y33750D02*
Y61750D01*
X159500Y33750D02*
Y65399D01*
X158000Y33750D02*
Y63087D01*
X156500Y33750D02*
Y62146D01*
X152500Y61750D02*
X154500D01*
X150251Y61522D02*
X150508Y61744D01*
X152000Y33750D02*
Y61774D01*
X150500Y33750D02*
Y61737D01*
X174500Y13750D02*
Y29250D01*
X179000Y13750D02*
Y32318D01*
X177500Y13750D02*
Y30818D01*
X176000Y13750D02*
Y29484D01*
X149942Y61226D02*
X150251Y61522D01*
X150500Y13750D02*
Y29250D01*
X136092Y47410D02*
X149848Y61166D01*
X153500Y13750D02*
Y29250D01*
X152000Y13750D02*
Y29250D01*
X147009Y64737D02*
X147422Y65245D01*
X146726Y64442D02*
X147009Y64737D01*
X144500Y33750D02*
Y55818D01*
X149000Y33750D02*
Y60318D01*
X147500Y33750D02*
Y58818D01*
X146000Y33750D02*
Y57318D01*
X140000Y33750D02*
Y51318D01*
X138500Y33750D02*
Y49818D01*
X137000Y33750D02*
Y48318D01*
X143000Y33750D02*
Y54318D01*
X141500Y33750D02*
Y52818D01*
X143000Y13750D02*
Y29250D01*
X144500Y13750D02*
Y29250D01*
X141500Y13750D02*
Y29250D01*
X147500Y13750D02*
Y29250D01*
X149000Y13750D02*
Y29250D01*
X146000Y13750D02*
Y29250D01*
X135500Y13750D02*
Y29250D01*
X137000Y13750D02*
Y29250D01*
X135500Y33750D02*
Y46984D01*
X140000Y13750D02*
Y29250D01*
X138500Y13750D02*
Y29250D01*
X167000Y13750D02*
Y29250D01*
X168500Y13750D02*
Y29250D01*
X165500Y13750D02*
Y29250D01*
X171500Y13750D02*
Y29250D01*
X173000Y13750D02*
Y29250D01*
X170000Y13750D02*
Y29250D01*
X162500Y13750D02*
Y29250D01*
X164000Y13750D02*
Y29250D01*
X161000Y13750D02*
Y29250D01*
X162500Y2562D02*
Y9250D01*
X161000Y2555D02*
Y9250D01*
X177500Y2637D02*
Y9250D01*
X179000Y2645D02*
Y9250D01*
X176000Y2630D02*
Y9250D01*
X173000Y2615D02*
Y9250D01*
X174500Y2623D02*
Y9250D01*
X171500Y2607D02*
Y9250D01*
X168500Y2592D02*
Y9250D01*
X170000Y2600D02*
Y9250D01*
X167000Y2585D02*
Y9250D01*
X165500Y2578D02*
Y9250D01*
X164000Y2570D02*
Y9250D01*
X156500Y13750D02*
Y29250D01*
X158000Y13750D02*
Y29250D01*
X155000Y13750D02*
Y29250D01*
X159500Y13750D02*
Y29250D01*
X144500Y2472D02*
Y9250D01*
X143000Y2465D02*
Y9250D01*
X140000Y2450D02*
Y9250D01*
X141500Y2458D02*
Y9250D01*
X138500Y2442D02*
Y9250D01*
X137000Y2435D02*
Y9250D01*
X135500Y2427D02*
Y9250D01*
X158000Y2540D02*
Y9250D01*
X159500Y2547D02*
Y9250D01*
X156500Y2533D02*
Y9250D01*
X155000Y2525D02*
Y9250D01*
X153500Y2517D02*
Y9250D01*
X150500Y2503D02*
Y9250D01*
X152000Y2510D02*
Y9250D01*
X149000Y2495D02*
Y9250D01*
X147500Y2488D02*
Y9250D01*
X146000Y2480D02*
Y9250D01*
X117182Y67500D02*
X147274D01*
X133568Y51250D02*
X146666Y64348D01*
X117500Y51250D02*
Y67818D01*
Y33750D02*
Y46750D01*
X115682Y66000D02*
X147346D01*
X106000Y51250D02*
X133568D01*
X116000Y33750D02*
Y46750D01*
Y51250D02*
Y66318D01*
X126500Y33750D02*
Y46750D01*
X129500Y33750D02*
Y46750D01*
X125000Y33750D02*
Y46750D01*
X132500Y33750D02*
Y46750D01*
X134000Y33750D02*
Y46750D01*
X131000Y33750D02*
Y46750D01*
X120500Y33750D02*
Y46750D01*
X106932D02*
X134500D01*
X119000Y33750D02*
Y46750D01*
X123500Y33750D02*
Y46750D01*
X122000Y33750D02*
Y46750D01*
X110000Y51250D02*
Y65250D01*
X108500Y51250D02*
Y65250D01*
X114500Y51250D02*
Y65306D01*
X113000Y51250D02*
Y65250D01*
X111500Y51250D02*
Y65250D01*
X108175D02*
X114000D01*
X107502Y65197D02*
X108085Y65227D01*
X107000Y51250D02*
Y64938D01*
X105500Y51194D02*
Y64796D01*
X104000Y50182D02*
Y65613D01*
X110000Y33750D02*
Y46750D01*
X111500Y33750D02*
Y46750D01*
X108500Y33750D02*
Y46750D01*
X114500Y33750D02*
Y46750D01*
X113000Y33750D02*
Y46750D01*
X104000Y33750D02*
Y43818D01*
X107000Y33750D02*
Y46750D01*
X105500Y33750D02*
Y45318D01*
X128000Y13750D02*
Y29250D01*
X129500Y13750D02*
Y29250D01*
X128000Y33750D02*
Y46750D01*
X132500Y13750D02*
Y29250D01*
X134000Y13750D02*
Y29250D01*
X131000Y13750D02*
Y29250D01*
X122000Y13750D02*
Y29250D01*
X123500Y13750D02*
Y29250D01*
X120500Y13750D02*
Y29250D01*
X126500Y13750D02*
Y29250D01*
X125000Y13750D02*
Y29250D01*
X132500Y2413D02*
Y9250D01*
X134000Y2420D02*
Y9250D01*
X131000Y2405D02*
Y9250D01*
X128000Y2390D02*
Y9250D01*
X129500Y2397D02*
Y9250D01*
X126500Y2382D02*
Y9250D01*
X123500Y2368D02*
Y9250D01*
X125000Y2375D02*
Y9250D01*
X122000Y2360D02*
Y9250D01*
X120500Y2352D02*
Y9250D01*
X119000Y2345D02*
Y9250D01*
X113000Y13750D02*
Y29250D01*
X114500Y13750D02*
Y29250D01*
X111500Y13750D02*
Y29250D01*
X117500Y13750D02*
Y29250D01*
X119000Y13750D02*
Y29250D01*
X116000Y13750D02*
Y29250D01*
X105500Y13750D02*
Y29250D01*
X107000Y13750D02*
Y29250D01*
X104000Y13750D02*
Y29250D01*
X110000Y13750D02*
Y29250D01*
X108500Y13750D02*
Y29250D01*
X116000Y2330D02*
Y9250D01*
X117500Y2338D02*
Y9250D01*
X114500Y2323D02*
Y9250D01*
X113000Y2315D02*
Y9250D01*
X111500Y2307D02*
Y9250D01*
X108500Y2293D02*
Y9250D01*
X110000Y2300D02*
Y9250D01*
X107000Y2285D02*
Y9250D01*
X105500Y2277D02*
Y9250D01*
X104000Y2270D02*
Y9250D01*
X102500Y210750D02*
Y247567D01*
Y182182D02*
Y205250D01*
X101000Y184388D02*
Y205250D01*
Y210750D02*
Y247570D01*
X91000Y210750D02*
X102500D01*
X99500D02*
Y247573D01*
X92139Y205250D02*
X102500D01*
X99500Y185204D02*
Y205250D01*
X90889Y204000D02*
X262386D01*
X101727Y183000D02*
X140250D01*
X100888Y184500D02*
X140250D01*
X101699Y183030D02*
X101927Y182791D01*
X102106Y182576D02*
X111432Y173250D01*
X87889Y201000D02*
X262828D01*
X86389Y199500D02*
X264654D01*
X89389Y202500D02*
X262283D01*
X83146Y196500D02*
X289880D01*
X84889Y198000D02*
X289871D01*
X93500Y210750D02*
Y247585D01*
X95000Y210750D02*
Y247582D01*
X92000Y210750D02*
Y247587D01*
X89000Y209889D02*
Y247593D01*
X90500Y210704D02*
Y247590D01*
X87500Y208389D02*
Y247596D01*
X84500Y205389D02*
Y247602D01*
X86000Y206889D02*
Y247599D01*
X83000Y203889D02*
Y247605D01*
X81500Y202389D02*
Y247607D01*
X80000Y200887D02*
Y247610D01*
X96500Y210750D02*
Y247579D01*
X98000Y210750D02*
Y247576D01*
Y185062D02*
Y205250D01*
X98433Y179809D02*
X98867Y179419D01*
X96500Y183646D02*
Y205250D01*
X83948Y197059D02*
X92139Y205250D01*
X80059Y200948D02*
X89052Y209941D01*
X93500Y161614D02*
Y205250D01*
X98947Y179371D02*
X108908Y169410D01*
X92000Y161614D02*
Y205111D01*
X96500Y161614D02*
Y181354D01*
X98000Y161614D02*
Y179938D01*
X95000Y161614D02*
Y205250D01*
X87500Y161614D02*
Y200611D01*
X86000Y161614D02*
Y199111D01*
X84500Y161614D02*
Y197611D01*
X90500Y161614D02*
Y203611D01*
X89000Y161614D02*
Y202111D01*
X101000Y161614D02*
Y177318D01*
X102500Y161614D02*
Y175818D01*
X99500Y161614D02*
Y178818D01*
X90500Y151682D02*
Y157114D01*
X92000Y153016D02*
Y157114D01*
X89000Y150182D02*
Y157114D01*
X79305Y168000D02*
X104695D01*
X79305Y165000D02*
X104695D01*
X79750Y166500D02*
X104250D01*
X87500Y148531D02*
Y157114D01*
X86000Y116194D02*
Y157114D01*
X77000Y169250D02*
Y247616D01*
X78500Y168805D02*
Y247613D01*
X75500Y168805D02*
Y247619D01*
X83000Y161614D02*
Y196438D01*
X81500Y161614D02*
Y196296D01*
X80000Y161614D02*
Y197113D01*
X74915Y168773D02*
X75498Y168804D01*
X75136Y164225D02*
X75466Y164217D01*
X74000Y161614D02*
Y164250D01*
X83000Y156250D02*
Y157114D01*
X84500Y155805D02*
Y157114D01*
X81500Y155805D02*
Y157114D01*
X80000Y152182D02*
Y157114D01*
X78500Y150682D02*
Y157114D01*
Y161614D02*
Y164195D01*
X77000Y161614D02*
Y163750D01*
X75500Y161614D02*
Y164195D01*
X77000Y149182D02*
Y157114D01*
X75500Y147682D02*
Y157114D01*
X44777Y240000D02*
X289617D01*
X44777Y238500D02*
X289626D01*
X44777Y237000D02*
X154116D01*
X67500Y226500D02*
X289699D01*
X67500Y225000D02*
X289707D01*
X44777Y234000D02*
X154116D01*
X1750Y246000D02*
X289580D01*
X1750Y244500D02*
X289589D01*
X6997Y247750D02*
X289573Y247209D01*
X1750Y241500D02*
X289608D01*
X1750Y243000D02*
X289598D01*
X66409Y222000D02*
X289726D01*
X67271Y220500D02*
X289735D01*
X44777Y223500D02*
X289717D01*
X67498Y219000D02*
X289744D01*
X67198Y217500D02*
X289753D01*
X66222Y216000D02*
X155896D01*
X36478Y214500D02*
X154732D01*
X36478Y213000D02*
X154210D01*
X36478Y211500D02*
X154139D01*
X1750Y193500D02*
X289898D01*
X1750Y195000D02*
X289889D01*
X67500Y232500D02*
X154116D01*
X67500Y231000D02*
X154116D01*
X66500Y233500D02*
Y247636D01*
X67500Y229500D02*
X154116D01*
X67500Y228000D02*
X154116D01*
X67500Y224700D02*
Y233500D01*
X1750Y247500D02*
X137650D01*
X44777Y235500D02*
X154116D01*
X58700Y233500D02*
X67500D01*
X58700Y224700D02*
X67500D01*
X36478Y210000D02*
X89113D01*
X36478Y208500D02*
X87611D01*
X36478Y207000D02*
X86111D01*
X36478Y205500D02*
X84611D01*
X1750Y196500D02*
X80854D01*
X1750Y204000D02*
X83111D01*
X1750Y202500D02*
X81611D01*
X1750Y201000D02*
X80111D01*
X1750Y198000D02*
X79438D01*
X1750Y199500D02*
X79296D01*
X1750Y184500D02*
X97113D01*
X1750Y181500D02*
X96438D01*
X1750Y183000D02*
X96296D01*
X61146Y178500D02*
X99818D01*
X65682Y177000D02*
X101318D01*
X25900Y180000D02*
X97854D01*
X1750Y190500D02*
X140250D01*
X1750Y189000D02*
X140250D01*
X1750Y192000D02*
X140250D01*
X1750Y186000D02*
X140250D01*
X1750Y187500D02*
X140250D01*
X71682Y171000D02*
X107318D01*
X73182Y169500D02*
X108818D01*
X70182Y172500D02*
X105818D01*
X73932Y168750D02*
X74825D01*
X73000Y164250D02*
X74857D01*
X74000Y146182D02*
Y157114D01*
X68682Y174000D02*
X104318D01*
X27682Y163500D02*
X177111D01*
X67182Y175500D02*
X102818D01*
X29182Y162000D02*
X178611D01*
X29568Y161614D02*
X142137D01*
X69500Y173182D02*
Y247630D01*
X71000Y171682D02*
Y247627D01*
X68000Y174682D02*
Y247633D01*
X72500Y170182D02*
Y247625D01*
X74000Y168750D02*
Y247622D01*
X68000Y161614D02*
Y168318D01*
X65092Y177590D02*
X73932Y168750D01*
X25636Y168000D02*
X68318D01*
X24718Y169500D02*
X66818D01*
X62568Y173750D02*
X71408Y164910D01*
X66500Y161614D02*
Y169818D01*
X72500Y161614D02*
Y164306D01*
Y144750D02*
Y157114D01*
X71000Y144774D02*
Y157114D01*
X25923Y166500D02*
X69818D01*
X26285Y165000D02*
X71318D01*
X69500Y161614D02*
Y166818D01*
X71000Y161614D02*
Y165318D01*
X69500Y145204D02*
Y157114D01*
X101000Y154375D02*
Y157114D01*
X102500Y155079D02*
Y157114D01*
X99500Y153348D02*
Y157114D01*
X98000Y147646D02*
Y148750D01*
X93000Y153250D02*
X98807D01*
X97081Y148750D02*
X98807D01*
X98000Y153250D02*
Y157114D01*
X98250Y141000D02*
X109525D01*
X98250Y139500D02*
X108025D01*
X98250Y138000D02*
X106525D01*
X98250Y136500D02*
X104484D01*
X98250Y133500D02*
X105469D01*
X98250Y135000D02*
X104306D01*
X98204Y147000D02*
X102219D01*
X98250Y145500D02*
X111750D01*
X97387Y148500D02*
X99884D01*
X98250Y144000D02*
X111750D01*
X98250Y142500D02*
X111025D01*
X95000Y153250D02*
Y157114D01*
X96500Y153250D02*
Y157114D01*
X93500Y153250D02*
Y157114D01*
X85704Y153000D02*
X91969D01*
X87910Y149092D02*
X91408Y152590D01*
X92182Y147000D02*
X92796D01*
X91750Y138000D02*
X92750D01*
X91750Y139500D02*
X92750D01*
X91750Y135000D02*
X92750D01*
X91750Y133500D02*
X92750D01*
X91750Y136500D02*
X92750D01*
X91750Y146568D02*
X93221Y148039D01*
X91750Y144000D02*
X92750D01*
X91750Y145500D02*
X92750D01*
X91750Y141000D02*
X92750D01*
X91750Y142500D02*
X92750D01*
X102500Y125079D02*
Y146921D01*
X98250Y124500D02*
X101178D01*
X101000Y124375D02*
Y147625D01*
X98250Y123000D02*
X99807D01*
X99500Y122281D02*
Y148652D01*
X98250Y130500D02*
X104484D01*
X98250Y129000D02*
X105469D01*
X98250Y132000D02*
X104306D01*
X98250Y126000D02*
X104484D01*
X98250Y127500D02*
X104306D01*
X99500Y117817D02*
Y119719D01*
X99054Y118500D02*
X100125D01*
X98250Y120000D02*
X99421D01*
X99730Y117000D02*
X102219D01*
X99562Y115500D02*
X290371D01*
X98146Y114000D02*
X290380D01*
X91750Y112500D02*
X290389D01*
X91750Y109500D02*
X290407D01*
X91750Y111000D02*
X290399D01*
X91750Y124500D02*
X92750D01*
X91750Y123000D02*
X92750D01*
X91750Y126000D02*
X92750D01*
Y118172D02*
Y146500D01*
X98250Y119311D02*
Y146500D01*
X91750Y121500D02*
X92750D01*
X91750Y130500D02*
X92750D01*
X91750Y129000D02*
X92750D01*
X91750Y132000D02*
X92750D01*
X91750Y127500D02*
X92750D01*
X87250Y116121D02*
Y147500D01*
X98250Y121500D02*
X99330D01*
X98250Y119311D02*
X98944Y118616D01*
X93559Y116223D02*
X94570Y115213D01*
X91750Y118500D02*
X92750D01*
X91750Y117000D02*
X93012D01*
X91750Y120000D02*
X92750D01*
X91750Y114000D02*
X95854D01*
X91750Y115500D02*
X94283D01*
X85562Y154500D02*
X101178D01*
X85194Y151500D02*
X90318D01*
X84500Y143531D02*
Y150318D01*
X43727Y157114D02*
X141205D01*
X84146Y156000D02*
X142318D01*
X44204D02*
X81854D01*
X75092Y140910D02*
X84590Y150408D01*
X84182Y150000D02*
X88818D01*
X84177Y144000D02*
X87250D01*
X83000Y144694D02*
Y148818D01*
X84750Y142500D02*
X87250D01*
X84177Y141000D02*
X87250D01*
X82682Y148500D02*
X87484D01*
X79682Y145500D02*
X87250D01*
X81182Y147000D02*
X87250D01*
X81500Y144516D02*
Y147318D01*
X44062Y154500D02*
X80438D01*
X42646Y153000D02*
X80296D01*
X68000Y145062D02*
Y157114D01*
X72568Y144750D02*
X80406Y152588D01*
X80000Y142828D02*
Y145818D01*
X70534Y144783D02*
X70864Y144775D01*
X39682Y151500D02*
X79318D01*
X38182Y150000D02*
X77818D01*
X36682Y148500D02*
X76318D01*
X35182Y147000D02*
X74818D01*
X33682Y145500D02*
X73318D01*
X78182Y144000D02*
X80823D01*
X76682Y142500D02*
X79672D01*
X78500Y141328D02*
Y144318D01*
X75182Y141000D02*
X78172D01*
X71143Y144750D02*
X72568D01*
X29182Y141000D02*
X66695D01*
X32182Y144000D02*
X66695D01*
X71175Y140250D02*
X73500D01*
X80828Y138000D02*
X87250D01*
X79328Y136500D02*
X87250D01*
X82328Y139500D02*
X87250D01*
X77828Y135000D02*
X87250D01*
X76328Y133500D02*
X87250D01*
X84500Y115031D02*
Y141469D01*
X73328Y130500D02*
X87250D01*
X71828Y129000D02*
X87250D01*
X74828Y132000D02*
X87250D01*
X68828Y126000D02*
X87250D01*
X70328Y127500D02*
X87250D01*
X63516Y118500D02*
X87250D01*
X63694Y117000D02*
X87250D01*
X66500Y124500D02*
X87250D01*
X63250Y109500D02*
X84750D01*
X63250Y111000D02*
X84750D01*
X61204Y121500D02*
X87250D01*
X60774Y120000D02*
X87250D01*
X61062Y123000D02*
X87250D01*
X63250Y115500D02*
X84823D01*
X63250Y112500D02*
X84728D01*
X77000Y139828D02*
Y142818D01*
X75500Y138328D02*
Y141318D01*
X70502Y140197D02*
X71085Y140227D01*
X74000Y136828D02*
Y140306D01*
X72500Y135328D02*
Y140250D01*
X71000Y133828D02*
Y140223D01*
X69500Y132328D02*
Y139796D01*
X68000Y130828D02*
Y139938D01*
X67917Y125089D02*
X83185Y140357D01*
X65672Y128500D02*
X80357Y143185D01*
X27682Y139500D02*
X76672D01*
X26285Y138000D02*
X75172D01*
X63250Y114000D02*
X84250D01*
X25923Y136500D02*
X73672D01*
X25636Y135000D02*
X72172D01*
X24718Y133500D02*
X70672D01*
X1750Y132000D02*
X69172D01*
X23332Y130500D02*
X67672D01*
X60500Y233500D02*
Y247648D01*
X62000Y233500D02*
Y247645D01*
X59000Y233500D02*
Y247651D01*
X63500Y233500D02*
Y247642D01*
X65000Y233500D02*
Y247639D01*
X58700Y224700D02*
Y233500D01*
X44777Y231000D02*
X58700D01*
X44777Y229500D02*
X58700D01*
X44777Y232500D02*
X58700D01*
X44777Y228000D02*
X58700D01*
X44777Y221750D02*
Y240250D01*
X63500Y223481D02*
Y224700D01*
X65000Y223068D02*
Y224700D01*
X62000Y223360D02*
Y224700D01*
X66500Y221892D02*
Y224700D01*
X60500Y222649D02*
Y224700D01*
X44777Y225000D02*
X58700D01*
X44777Y222000D02*
X59791D01*
X44777Y226500D02*
X58700D01*
X59000Y220696D02*
Y224700D01*
X35000Y240250D02*
Y247696D01*
X36500Y240250D02*
Y247694D01*
X33500Y240250D02*
Y247699D01*
X39500Y240250D02*
Y247688D01*
X41000Y240250D02*
Y247685D01*
X38000Y240250D02*
Y247691D01*
X30500Y240250D02*
Y247705D01*
X32000Y240250D02*
Y247702D01*
X26000Y217250D02*
Y247714D01*
X29000Y217250D02*
Y247708D01*
X27500Y217250D02*
Y247711D01*
X44000Y240250D02*
Y247679D01*
Y221750D02*
Y240250D01*
X42500D02*
Y247682D01*
X33500Y217250D02*
Y221750D01*
X35000Y217250D02*
Y221750D01*
X32000Y217250D02*
Y221750D01*
X29679Y240250D02*
X44777D01*
X29679Y221750D02*
X44777D01*
X29679D02*
Y240250D01*
X30500Y217250D02*
Y221750D01*
Y240250D01*
X60500Y178704D02*
Y215551D01*
X59000Y178562D02*
Y217504D01*
X57500Y177146D02*
Y247653D01*
X66500Y176182D02*
Y216308D01*
X56000Y161614D02*
Y247656D01*
X51500Y161614D02*
Y247665D01*
X36478Y216000D02*
X59978D01*
X50000Y161614D02*
Y247668D01*
X54500Y161614D02*
Y247659D01*
X53000Y161614D02*
Y247662D01*
X65000Y177677D02*
Y215132D01*
X63500Y178250D02*
Y214719D01*
X62143Y178250D02*
X63500D01*
X62175Y173750D02*
X62568D01*
X62000Y178275D02*
Y214840D01*
X61502Y173696D02*
X62085Y173727D01*
X61534Y178283D02*
X61864Y178275D01*
X57500Y161614D02*
Y174854D01*
X42500Y161614D02*
Y221750D01*
X44000Y161614D02*
Y221750D01*
X41000Y161614D02*
Y221750D01*
X47000Y161614D02*
Y247674D01*
X48500Y161614D02*
Y247671D01*
X45500Y161614D02*
Y247676D01*
X36500Y161614D02*
Y221750D01*
X36478Y204750D02*
Y217250D01*
X39500Y161614D02*
Y221750D01*
X38000Y161614D02*
Y221750D01*
X30500Y161614D02*
Y204750D01*
X32000Y161614D02*
Y204750D01*
X29000Y162182D02*
Y204750D01*
X35000Y161614D02*
Y204750D01*
X33500Y161614D02*
Y204750D01*
X25900Y172100D02*
Y180900D01*
X27500Y163682D02*
Y204750D01*
X26000Y165697D02*
Y204750D01*
X19777Y238500D02*
X29679D01*
X19777Y237000D02*
X29679D01*
X19777Y240000D02*
X29679D01*
X19777Y235500D02*
X29679D01*
X19777Y234000D02*
X29679D01*
X18500Y221750D02*
Y240250D01*
X15500D02*
Y247734D01*
X4679Y240250D02*
X19777D01*
X14000D02*
Y247737D01*
X18500Y240250D02*
Y247728D01*
X17000Y240250D02*
Y247731D01*
X19777Y228000D02*
X29679D01*
X19777Y226500D02*
X29679D01*
X19777Y229500D02*
X29679D01*
X19777Y223500D02*
X29679D01*
X19777Y222000D02*
X29679D01*
X19777Y225000D02*
X29679D01*
X19777Y232500D02*
X29679D01*
X19777Y231000D02*
X29679D01*
X4679Y221750D02*
X19777D01*
X8000Y240250D02*
Y247748D01*
X9500Y240250D02*
Y247745D01*
X6500Y240250D02*
Y247750D01*
X12500Y240250D02*
Y247740D01*
X11000Y240250D02*
Y247742D01*
X5000Y240250D02*
Y247750D01*
X1750D02*
X6997D01*
X1750Y240000D02*
X4679D01*
Y221750D02*
Y240250D01*
X1750Y238500D02*
X4679D01*
X1750Y228000D02*
X4679D01*
X1750Y226500D02*
X4679D01*
X1750Y229500D02*
X4679D01*
X1750Y223500D02*
X4679D01*
X1750Y222000D02*
X4679D01*
X1750Y225000D02*
X4679D01*
X1750Y235500D02*
X4679D01*
X1750Y234000D02*
X4679D01*
X1750Y237000D02*
X4679D01*
X1750Y231000D02*
X4679D01*
X1750Y232500D02*
X4679D01*
X20000Y217250D02*
Y247725D01*
X19777Y221750D02*
Y240250D01*
X18500Y217250D02*
Y221750D01*
X23000Y217250D02*
Y247719D01*
X24500Y217250D02*
Y247716D01*
X21500Y217250D02*
Y247722D01*
X1750Y220500D02*
X58929D01*
X1750Y217500D02*
X59002D01*
X1750Y219000D02*
X58701D01*
X17978Y217250D02*
X36478D01*
X24500Y180900D02*
Y204750D01*
X25900Y178500D02*
X58854D01*
X23000Y180900D02*
Y204750D01*
X25900Y177000D02*
X57438D01*
X25900Y174000D02*
X58113D01*
X25900Y175500D02*
X57296D01*
X17978Y204750D02*
X36478D01*
X17100Y180900D02*
X25900D01*
X18500D02*
Y204750D01*
X21500Y180900D02*
Y204750D01*
X20000Y180900D02*
Y204750D01*
X15500Y109871D02*
Y221750D01*
X17978Y204750D02*
Y217250D01*
X14000Y109784D02*
Y221750D01*
X17000Y109419D02*
Y221750D01*
X12500Y109120D02*
Y221750D01*
X1750Y216000D02*
X17978D01*
X1750Y214500D02*
X17978D01*
X5000Y221750D02*
Y240250D01*
X1750Y211500D02*
X17978D01*
X1750Y213000D02*
X17978D01*
X1750Y177000D02*
X17100D01*
X1750Y175500D02*
X17100D01*
X1750Y178500D02*
X17100D01*
Y172100D02*
Y180900D01*
X1750Y174000D02*
X17100D01*
X1750Y208500D02*
X17978D01*
X1750Y207000D02*
X17978D01*
X1750Y210000D02*
X17978D01*
X1750Y205500D02*
X17978D01*
X1750Y180000D02*
X17100D01*
X62000Y161614D02*
Y173723D01*
X60500Y161614D02*
Y173296D01*
X59000Y161614D02*
Y173438D01*
X63500Y161614D02*
Y172818D01*
X65000Y161614D02*
Y171318D01*
X44000Y156646D02*
Y157114D01*
X25900Y172500D02*
X63818D01*
X28636Y157114D02*
X38966D01*
X38000Y156186D02*
Y157114D01*
X38015Y156197D02*
X38717Y156899D01*
X37783Y155965D02*
X38015Y156197D01*
X66500Y143646D02*
Y157114D01*
Y129328D02*
Y141354D01*
X26645Y138463D02*
X40794Y152612D01*
X30682Y142500D02*
X66250D01*
X25871Y156000D02*
X37810D01*
X25337Y129000D02*
X66172D01*
X26608Y128500D02*
X65672D01*
X32000Y150182D02*
Y157114D01*
X33500Y151682D02*
Y157114D01*
X29000Y147182D02*
Y157114D01*
X30500Y148682D02*
Y157114D01*
X27500Y145682D02*
Y157422D01*
X26645Y164537D02*
X29568Y161614D01*
X25785Y157500D02*
X27376D01*
X25120Y159000D02*
X25818D01*
X26000Y144182D02*
Y158818D01*
X35000Y153182D02*
Y157114D01*
X36500Y154682D02*
Y157114D01*
X25871Y147000D02*
X28818D01*
X25785Y145500D02*
X27318D01*
X27500Y128500D02*
Y139318D01*
X26000Y128620D02*
Y137303D01*
X25419Y154500D02*
X36318D01*
X25419Y148500D02*
X30318D01*
X25120Y144000D02*
X25818D01*
X24887Y129376D02*
X25362Y128979D01*
X24639Y129618D02*
X24887Y129376D01*
X60500Y128500D02*
Y157114D01*
X62000Y128500D02*
Y157114D01*
X59000Y128500D02*
Y157114D01*
X63500Y128500D02*
Y157114D01*
X65000Y128500D02*
Y157114D01*
X60500Y123888D02*
Y124500D01*
X57500Y128500D02*
Y157114D01*
X26608Y124500D02*
X57354D01*
X56000Y128500D02*
Y157114D01*
X26608Y124500D02*
X57354D01*
X62000Y119694D02*
Y124500D01*
X60775Y120136D02*
X60783Y120466D01*
X63500Y118531D02*
Y124500D01*
X59646D02*
X66500D01*
X59646D02*
X66500D01*
X56250Y108643D02*
Y119825D01*
X56196Y120498D02*
X56227Y119915D01*
X48500Y128500D02*
Y157114D01*
X50000Y128500D02*
Y157114D01*
X47000Y128500D02*
Y157114D01*
X53000Y128500D02*
Y157114D01*
X54500Y128500D02*
Y157114D01*
X51500Y128500D02*
Y157114D01*
X42500Y128500D02*
Y152938D01*
X41000Y128500D02*
Y152782D01*
X39500Y128500D02*
Y151318D01*
X45500Y128500D02*
Y157114D01*
X44000Y128500D02*
Y154354D01*
X36500Y128500D02*
Y148318D01*
X35000Y128500D02*
Y146818D01*
X33500Y128500D02*
Y145318D01*
X56000Y123146D02*
Y124500D01*
X38000Y128500D02*
Y149818D01*
X32000Y128500D02*
Y143818D01*
X30500Y128500D02*
Y142318D01*
X29000Y128500D02*
Y140818D01*
X24900Y123637D02*
X25129Y123839D01*
X24639Y123382D02*
X24900Y123637D01*
X23000Y170636D02*
Y172100D01*
X24500Y169718D02*
Y172100D01*
X21500Y170900D02*
Y172100D01*
X23000Y160636D02*
Y161715D01*
X23463Y161355D02*
X27044Y157774D01*
X21500Y160900D02*
Y162077D01*
X17100Y172100D02*
X25900D01*
X1750Y171000D02*
X65318D01*
X1750Y162000D02*
X22303D01*
X24500Y159718D02*
Y160318D01*
X24166Y153000D02*
X34818D01*
X23332Y160500D02*
X24318D01*
X24500Y149718D02*
Y153282D01*
X24166Y150000D02*
X31818D01*
X23000Y150636D02*
Y152364D01*
X1750Y151500D02*
X33318D01*
X21500Y150900D02*
Y152100D01*
X18500Y169718D02*
Y172100D01*
X20000Y170636D02*
Y172100D01*
X1750Y163500D02*
X18282D01*
X20000Y160636D02*
Y162364D01*
X1750Y160500D02*
X19668D01*
X18500Y159718D02*
Y163282D01*
X1750Y169500D02*
X18282D01*
X1750Y168000D02*
X17364D01*
X1750Y172500D02*
X17100D01*
X1750Y165000D02*
X17364D01*
X1750Y166500D02*
X17100D01*
X20000Y150636D02*
Y152364D01*
X1750Y150000D02*
X18834D01*
X18500Y149718D02*
Y153282D01*
X1750Y148500D02*
X17581D01*
X1750Y147000D02*
X17129D01*
X1750Y159000D02*
X17880D01*
X1750Y157500D02*
X17215D01*
X1750Y156000D02*
X17129D01*
X1750Y153000D02*
X18834D01*
X1750Y154500D02*
X17581D01*
X23463Y141645D02*
X37783Y155965D01*
X24500Y142682D02*
Y143282D01*
X23332Y142500D02*
X24318D01*
X24500Y129718D02*
Y133282D01*
X23000Y130636D02*
Y132364D01*
Y141285D02*
Y142364D01*
X1750Y141000D02*
X22303D01*
X21500Y140923D02*
Y142100D01*
X24166Y123000D02*
X55938D01*
X1750Y114000D02*
X56250D01*
X1750Y111000D02*
X56250D01*
X16832Y109500D02*
X56250D01*
X1750Y112500D02*
X56250D01*
X1750Y120000D02*
X56223D01*
X1750Y118500D02*
X56250D01*
X1750Y121500D02*
X55796D01*
X1750Y115500D02*
X56250D01*
X1750Y117000D02*
X56250D01*
X18500Y139718D02*
Y143282D01*
X20000Y140636D02*
Y142364D01*
X1750Y136500D02*
X17100D01*
X1750Y133500D02*
X18282D01*
X18500Y129718D02*
Y133282D01*
X1750Y135000D02*
X17364D01*
X1750Y144000D02*
X17880D01*
X1750Y142500D02*
X19668D01*
X1750Y145500D02*
X17215D01*
X1750Y139500D02*
X18282D01*
X1750Y138000D02*
X17364D01*
X20000Y130636D02*
Y132364D01*
X21500Y130900D02*
Y132100D01*
X1750Y123000D02*
X18834D01*
X18500Y108166D02*
Y123282D01*
X1750Y109500D02*
X13168D01*
X1750Y130500D02*
X19668D01*
X1750Y129000D02*
X17880D01*
X1750Y127500D02*
X17215D01*
X1750Y124500D02*
X17581D01*
X1750Y126000D02*
X17129D01*
X91750Y105000D02*
X290435D01*
X91750Y103500D02*
X290444D01*
X91750Y106500D02*
X290426D01*
X91750Y100500D02*
X290462D01*
X91750Y99000D02*
X290471D01*
X91750Y102000D02*
X290453D01*
X91750Y108000D02*
X290417D01*
X74250Y99000D02*
X84750D01*
X74274Y100500D02*
X84750D01*
Y92689D02*
Y112399D01*
X74250Y97500D02*
X84750D01*
X91750Y96000D02*
X104695D01*
X91750Y93000D02*
X104695D01*
X91750Y94500D02*
X104250D01*
X91750Y90000D02*
X124750D01*
X91750Y88500D02*
X124750D01*
X91750Y91500D02*
X124750D01*
X91750Y97500D02*
X290480D01*
X74475Y94500D02*
X84750D01*
X74250Y96000D02*
X84750D01*
X85510Y88500D02*
X87250D01*
X75975Y93000D02*
X84750D01*
X83000Y90939D02*
Y140172D01*
X84500Y92439D02*
Y112969D01*
X77000Y91975D02*
Y134172D01*
X81500Y89439D02*
Y138672D01*
X80000Y89531D02*
Y137172D01*
X78500Y90694D02*
Y135672D01*
X74000Y103677D02*
Y131172D01*
X72500Y104250D02*
Y129672D01*
X71000Y103677D02*
Y128172D01*
X74177Y103500D02*
X84750D01*
X75500Y93475D02*
Y132672D01*
X74750Y102000D02*
X84750D01*
X77475Y91500D02*
X83561D01*
X79677Y90000D02*
X82061D01*
X80250Y88500D02*
X80561D01*
X74250Y94725D02*
Y100387D01*
Y94725D02*
X78105Y90869D01*
X71263Y92763D02*
X75622Y88403D01*
X101000Y47182D02*
Y117625D01*
X102500Y48682D02*
Y116921D01*
X99500Y45682D02*
Y115354D01*
X98000Y44182D02*
Y113938D01*
X96500Y42682D02*
Y113796D01*
X95000Y41562D02*
Y114612D01*
X91750Y87255D02*
Y146568D01*
X82541Y85531D02*
X87250Y90240D01*
Y88187D02*
Y90240D01*
X93500Y40146D02*
Y116284D01*
X92000Y33750D02*
Y146818D01*
X91736Y87000D02*
X124750D01*
X90927Y85500D02*
X124750D01*
X89427Y84000D02*
X124750D01*
X90500Y33750D02*
Y85073D01*
X83153Y84090D02*
X87250Y88187D01*
X84010Y87000D02*
X86063D01*
X86000Y86937D02*
Y88990D01*
X82337Y76910D02*
X91090Y85663D01*
X89000Y33750D02*
Y83573D01*
X80225Y88164D02*
X84750Y92689D01*
X84500Y85437D02*
Y87490D01*
X77000Y80750D02*
Y86484D01*
X72500Y80750D02*
Y91525D01*
X71000Y80750D02*
Y93099D01*
X75500Y80750D02*
Y88525D01*
X74000Y80750D02*
Y90025D01*
X82554Y85500D02*
X84563D01*
X83000Y84360D02*
Y85990D01*
X78906Y85120D02*
Y86120D01*
X78500Y80750D02*
Y86306D01*
X66500Y103975D02*
Y124500D01*
X65475Y105000D02*
X84750D01*
X65000Y105475D02*
Y124500D01*
X69500Y100975D02*
Y126672D01*
X68000Y102475D02*
Y125172D01*
X63250Y108000D02*
X84750D01*
X63975Y106500D02*
X84750D01*
X63500Y106975D02*
Y116469D01*
X63250Y107225D02*
X69737Y100737D01*
X60689Y104836D02*
X66750Y98775D01*
X69936Y100500D02*
X70728D01*
X68475Y102000D02*
X70250D01*
Y99000D02*
X70750D01*
X70250Y97500D02*
X70750D01*
X66975Y103500D02*
X70823D01*
X56250Y100500D02*
X65025D01*
X57182Y102000D02*
X63525D01*
X56250Y97500D02*
X66750D01*
X56250Y99000D02*
X66525D01*
X63250Y107225D02*
Y115886D01*
X56217Y108034D02*
X56225Y108364D01*
X56000Y107646D02*
Y120854D01*
X55418Y106633D02*
X55809Y107067D01*
X54500Y105682D02*
Y124500D01*
X18620Y108000D02*
X56195D01*
X19285Y106500D02*
X55318D01*
X19371Y105000D02*
X53818D01*
X52410Y103592D02*
X55371Y106553D01*
X53000Y104182D02*
Y124500D01*
X58717Y103500D02*
X62025D01*
X58791Y103574D02*
X59030Y103802D01*
X56250Y101068D02*
X58576Y103394D01*
X18919Y103500D02*
X52323D01*
X1750Y100500D02*
X51750D01*
X17666Y102000D02*
X51750D01*
X19400Y97500D02*
X51750D01*
X19400Y99000D02*
X51750D01*
X70750Y94000D02*
Y100399D01*
X70250Y94500D02*
X70750D01*
X70250Y96000D02*
X70750D01*
X70250Y93000D02*
X71064D01*
X70250Y91500D02*
X72525D01*
X70250Y86601D02*
Y99500D01*
X56250Y94500D02*
X66750D01*
X56250Y93000D02*
X66750D01*
X56250Y96000D02*
X66750D01*
Y86614D02*
Y98775D01*
X56250Y91500D02*
X66750D01*
X70250Y88500D02*
X75525D01*
X70250Y87000D02*
X76323D01*
X70250Y90000D02*
X74025D01*
X70694Y85500D02*
X78906D01*
X70516Y84000D02*
X79052D01*
X56250Y88500D02*
X66750D01*
X56250Y87000D02*
X66750D01*
X56250Y90000D02*
X66750D01*
X66500Y80750D02*
Y83969D01*
X60500Y80750D02*
Y104613D01*
X66500Y86031D02*
Y99025D01*
X59000Y80750D02*
Y103773D01*
X63500Y80750D02*
Y102025D01*
X65000Y80750D02*
Y100525D01*
X62000Y80750D02*
Y103525D01*
X19400Y94500D02*
X51750D01*
X19400Y93000D02*
X51750D01*
X19400Y96000D02*
X51750D01*
X57500Y80750D02*
Y102318D01*
X56250Y84675D02*
Y101068D01*
Y85500D02*
X66306D01*
X56305Y84000D02*
X66484D01*
X56273Y84585D02*
X56304Y84002D01*
X1750Y90000D02*
X51750D01*
X1750Y88500D02*
X51750D01*
X19400Y91500D02*
X51750D01*
X1750Y85500D02*
X51750D01*
X1750Y87000D02*
X51750D01*
X95924Y42106D02*
X104408Y50590D01*
X102182Y42000D02*
X182318D01*
X95470Y41699D02*
X95709Y41927D01*
X99129Y38947D02*
X106932Y46750D01*
X102500Y33750D02*
Y42318D01*
X87927Y82500D02*
X124750D01*
X86427Y81000D02*
X124318D01*
X84927Y79500D02*
X122818D01*
X83427Y78000D02*
X121318D01*
X81776Y76500D02*
X119818D01*
X100682Y40500D02*
X180818D01*
X99182Y39000D02*
X179318D01*
X98691Y38433D02*
X99081Y38867D01*
X101000Y33750D02*
Y40818D01*
X98305Y37500D02*
X177818D01*
X99500Y33750D02*
Y39318D01*
X95000Y33750D02*
Y36438D01*
X96500Y33750D02*
Y36296D01*
X93500Y33750D02*
Y37854D01*
X98000Y33750D02*
Y37113D01*
X93500Y13750D02*
Y29250D01*
X83000Y33750D02*
Y77573D01*
X81500Y33750D02*
Y76380D01*
X87500Y33750D02*
Y82073D01*
X86000Y33750D02*
Y80573D01*
X84500Y33750D02*
Y79073D01*
X79813Y80750D02*
X80153Y81090D01*
X69500Y80750D02*
Y82984D01*
Y33750D02*
Y76250D01*
X68000Y33750D02*
Y76250D01*
X77000Y33750D02*
Y76250D01*
X78500Y33750D02*
Y76250D01*
X75500Y33750D02*
Y76250D01*
X80000Y33750D02*
Y76250D01*
X81500Y13750D02*
Y29250D01*
X78500Y13750D02*
Y29250D01*
X72500Y33750D02*
Y76250D01*
X74000Y33750D02*
Y76250D01*
X71000Y33750D02*
Y76250D01*
Y13750D02*
Y29250D01*
X69500Y13750D02*
Y29250D01*
X96500Y13750D02*
Y29250D01*
X98000Y13750D02*
Y29250D01*
X95000Y13750D02*
Y29250D01*
X101000Y13750D02*
Y29250D01*
X102500Y13750D02*
Y29250D01*
X99500Y13750D02*
Y29250D01*
X87500Y13750D02*
Y29250D01*
X89000Y13750D02*
Y29250D01*
X86000Y13750D02*
Y29250D01*
X92000Y13750D02*
Y29250D01*
X90500Y13750D02*
Y29250D01*
X101000Y2255D02*
Y9250D01*
X102500Y2262D02*
Y9250D01*
X99500Y2248D02*
Y9250D01*
X96500Y2232D02*
Y9250D01*
X98000Y2240D02*
Y9250D01*
X95000Y2225D02*
Y9250D01*
X92000Y2210D02*
Y9250D01*
X93500Y2217D02*
Y9250D01*
X90500Y2203D02*
Y9250D01*
X89000Y2195D02*
Y9250D01*
X87500Y2187D02*
Y9250D01*
X75500Y13750D02*
Y29250D01*
X77000Y13750D02*
Y29250D01*
X74000Y13750D02*
Y29250D01*
X83000Y13750D02*
Y29250D01*
X84500Y13750D02*
Y29250D01*
X80000Y13750D02*
Y29250D01*
X72500Y13750D02*
Y29250D01*
X71000Y2105D02*
Y9250D01*
X68000Y13750D02*
Y29250D01*
X69500Y2097D02*
Y9250D01*
X68000Y2090D02*
Y9250D01*
X84500Y2173D02*
Y9250D01*
X86000Y2180D02*
Y9250D01*
X83000Y2165D02*
Y9250D01*
X81500Y2158D02*
Y9250D01*
X80000Y2150D02*
Y9250D01*
X77000Y2135D02*
Y9250D01*
X78500Y2142D02*
Y9250D01*
X75500Y2128D02*
Y9250D01*
X74000Y2120D02*
Y9250D01*
X72500Y2112D02*
Y9250D01*
X44785Y73500D02*
X116818D01*
X44871Y72000D02*
X115318D01*
X44419Y70500D02*
X113818D01*
X44419Y64500D02*
X146781D01*
X44871Y63000D02*
X145318D01*
X44785Y61500D02*
X143818D01*
X44120Y75000D02*
X118318D01*
X43166Y69000D02*
X103695D01*
X31399Y67500D02*
X103250D01*
X44120Y60000D02*
X142318D01*
X43166Y66000D02*
X103695D01*
X44636Y54000D02*
X136318D01*
X44900Y52500D02*
X134818D01*
X44636Y51000D02*
X104969D01*
X50182Y36000D02*
X176318D01*
X51682Y34500D02*
X174818D01*
X43718Y49500D02*
X103318D01*
X42332Y58500D02*
X140818D01*
X38182Y57000D02*
X139318D01*
X43718Y55500D02*
X137818D01*
X36750Y48000D02*
X101818D01*
X42332Y46500D02*
X100318D01*
X68000Y80750D02*
Y82806D01*
X56750Y82500D02*
X78960D01*
X57500Y33750D02*
Y76250D01*
X60500Y33750D02*
Y76250D01*
X62000Y33750D02*
Y76250D01*
X59000Y33750D02*
Y76250D01*
X56305Y81000D02*
X80063D01*
X39217Y80750D02*
X51879D01*
X56121D02*
X79813D01*
X56000Y33750D02*
Y76250D01*
X47182Y39000D02*
X93250D01*
X48682Y37500D02*
X93695D01*
X63500Y33750D02*
Y76250D01*
X66500Y33750D02*
Y76250D01*
X65000Y33750D02*
Y76250D01*
X44120Y45000D02*
X98818D01*
X44785Y43500D02*
X97318D01*
X42801Y76250D02*
X80745D01*
X44948Y42000D02*
X95783D01*
X45682Y40500D02*
X93695D01*
X51500Y29250D02*
X175000D01*
X44900Y22500D02*
X204318D01*
X52432Y33750D02*
X174068D01*
X44900Y21000D02*
X202818D01*
X44900Y19500D02*
X201318D01*
X66500Y13750D02*
Y29250D01*
X42332Y28500D02*
X210318D01*
X36750Y27000D02*
X208818D01*
X44900Y25500D02*
X207318D01*
X44900Y24000D02*
X205818D01*
X38182Y18000D02*
X199818D01*
X39682Y16500D02*
X198318D01*
X41182Y15000D02*
X196818D01*
X42432Y13750D02*
X195568D01*
X41500Y9250D02*
X196500D01*
X19400Y7500D02*
X291000D01*
X66500Y2083D02*
Y9250D01*
X1750Y6000D02*
X291000D01*
X1750Y4500D02*
X291000D01*
X19400Y9000D02*
X291000D01*
X1750Y1759D02*
X291000Y3205D01*
X1750Y3000D02*
X249996D01*
X57500Y13750D02*
Y29250D01*
X59000Y13750D02*
Y29250D01*
X56000Y13750D02*
Y29250D01*
X62000Y13750D02*
Y29250D01*
X63500Y13750D02*
Y29250D01*
X60500Y13750D02*
Y29250D01*
X53000Y33750D02*
Y76250D01*
X54500Y33750D02*
Y76250D01*
X45645Y40537D02*
X52432Y33750D01*
X54500Y13750D02*
Y29250D01*
X53000Y13750D02*
Y29250D01*
X65000Y13750D02*
Y29250D01*
Y2075D02*
Y9250D01*
X63500Y2067D02*
Y9250D01*
X62000Y2060D02*
Y9250D01*
X60500Y2052D02*
Y9250D01*
X57500Y2038D02*
Y9250D01*
X59000Y2045D02*
Y9250D01*
X56000Y2030D02*
Y9250D01*
X54500Y2022D02*
Y9250D01*
X53000Y2015D02*
Y9250D01*
X51750Y84643D02*
Y102000D01*
X51717Y84034D02*
X51725Y84364D01*
X51500Y83646D02*
Y124500D01*
X48500Y80750D02*
Y124500D01*
X50000Y80750D02*
Y124500D01*
X47000Y80750D02*
Y124500D01*
X41000Y80750D02*
Y124500D01*
X42500Y80750D02*
Y124500D01*
X39500Y80750D02*
Y124500D01*
X45500Y80750D02*
Y124500D01*
X44000Y80750D02*
Y124500D01*
X51500Y80750D02*
Y81354D01*
X44000Y75166D02*
Y76250D01*
Y65166D02*
Y69834D01*
X42500Y66419D02*
Y68581D01*
X41000Y66871D02*
Y68129D01*
X39500Y66785D02*
Y68216D01*
X36500Y78965D02*
Y124500D01*
X38000Y80392D02*
Y124500D01*
X35000Y77465D02*
Y124500D01*
X32000Y74465D02*
Y124500D01*
X33500Y75965D02*
Y124500D01*
X30500Y72965D02*
Y124500D01*
X27500Y69965D02*
Y124500D01*
X29000Y71465D02*
Y124500D01*
X19400Y91100D02*
Y99900D01*
X25505Y67969D02*
X37626Y80090D01*
X26000Y68465D02*
Y124380D01*
X32899Y69000D02*
X37834D01*
X38000Y66120D02*
Y68880D01*
X34399Y70500D02*
X36581D01*
X36500Y64332D02*
Y70668D01*
X29899Y66000D02*
X37834D01*
X29345Y63000D02*
X36129D01*
X29345Y65446D02*
X36110Y72211D01*
X29345Y64500D02*
X36581D01*
X19400Y63000D02*
X24845D01*
X45500Y40723D02*
Y76250D01*
X47000Y39182D02*
Y76250D01*
X50000Y36182D02*
Y76250D01*
X51500Y34682D02*
Y76250D01*
X48500Y37682D02*
Y76250D01*
X35000Y60182D02*
Y71101D01*
X29345Y61500D02*
X35947D01*
X29345Y60000D02*
X34818D01*
X32910Y58092D02*
X35355Y60537D01*
X33500Y58682D02*
Y69601D01*
X42500Y56419D02*
Y58581D01*
X41000Y56871D02*
Y58129D01*
X39500Y56784D02*
Y57947D01*
X44000Y55166D02*
Y59834D01*
X38000Y56120D02*
Y56818D01*
X36750Y55500D02*
X37282D01*
X29345Y58500D02*
X33318D01*
X36750Y55568D02*
X38537Y57355D01*
X36750Y54801D02*
Y55568D01*
X24845Y56899D02*
Y66377D01*
X24500Y56554D02*
Y123282D01*
X32000Y1910D02*
Y68101D01*
X30500Y1902D02*
Y66601D01*
X29345Y55967D02*
Y65446D01*
X23000Y55054D02*
Y122364D01*
X19400Y57000D02*
X24845D01*
X21500Y53554D02*
Y122100D01*
X20000Y52054D02*
Y122364D01*
X19400Y51454D02*
Y57400D01*
X29345Y57000D02*
X32306D01*
X29296Y55500D02*
X32250D01*
Y18500D02*
Y56500D01*
X29000Y1895D02*
Y54770D01*
X19400Y55500D02*
X23446D01*
X19400Y54000D02*
X21946D01*
X28310D02*
X32250D01*
X19400Y51454D02*
X24845Y56899D01*
X18500Y99900D02*
Y102834D01*
X17000Y99900D02*
Y101581D01*
X15500Y99900D02*
Y101129D01*
X17000Y76919D02*
Y91100D01*
X18500Y75666D02*
Y91100D01*
X15500Y77371D02*
Y91100D01*
X10600Y99900D02*
X19400D01*
X14000D02*
Y101216D01*
X10600Y91100D02*
X19400D01*
X14000Y77284D02*
Y91100D01*
X17666Y76500D02*
X34035D01*
X18919Y75000D02*
X32535D01*
X19371Y73500D02*
X31035D01*
X19285Y72000D02*
X29535D01*
X18620Y70500D02*
X28035D01*
X1750Y69000D02*
X13168D01*
X1750Y84000D02*
X51695D01*
X1750Y81000D02*
X51695D01*
X1750Y82500D02*
X51250D01*
X1750Y79500D02*
X37035D01*
X1750Y78000D02*
X35535D01*
X11000Y99900D02*
Y103668D01*
X12500Y99900D02*
Y101880D01*
X11000Y107332D02*
Y221750D01*
X10600Y91100D02*
Y99900D01*
X1750Y97500D02*
X10600D01*
X1750Y99000D02*
X10600D01*
X1750Y108000D02*
X11380D01*
X1750Y106500D02*
X10716D01*
X1750Y105000D02*
X10629D01*
X1750Y102000D02*
X12334D01*
X1750Y103500D02*
X11081D01*
X12500Y76620D02*
Y91100D01*
X1750Y75000D02*
X11081D01*
X11000Y74832D02*
Y91100D01*
X1750Y72000D02*
X10716D01*
X1750Y70500D02*
X11380D01*
X1750Y73500D02*
X10629D01*
X1750Y94500D02*
X10600D01*
X1750Y93000D02*
X10600D01*
X1750Y96000D02*
X10600D01*
X1750Y76500D02*
X12334D01*
X1750Y91500D02*
X10600D01*
X17000Y66919D02*
Y69081D01*
X16832Y69000D02*
X26535D01*
X15500Y67371D02*
Y68629D01*
X18218Y66000D02*
X24845D01*
X19136Y64500D02*
X24845D01*
X18500Y65666D02*
Y70334D01*
X1750Y67500D02*
X25145D01*
X19136Y61500D02*
X24845D01*
X18218Y60000D02*
X24845D01*
X15500Y57400D02*
Y58629D01*
X18500Y57400D02*
Y60334D01*
X17250Y42940D02*
X28685Y54375D01*
X17000Y57400D02*
Y59081D01*
X1750Y58500D02*
X24845D01*
X10600Y57400D02*
X19400D01*
X14000D02*
Y58715D01*
X12500Y66620D02*
Y69380D01*
X14000Y67285D02*
Y68716D01*
X11000Y64832D02*
Y71168D01*
X8000Y1790D02*
Y221750D01*
X9500Y1798D02*
Y221750D01*
X6500Y1782D02*
Y221750D01*
X5000Y1775D02*
Y221750D01*
X1750Y66000D02*
X11782D01*
X3500Y1767D02*
Y247750D01*
X2000Y1760D02*
Y247750D01*
X1750Y1759D02*
Y247750D01*
X11000Y57400D02*
Y61168D01*
X12500Y57400D02*
Y59380D01*
X1750Y55500D02*
X10600D01*
Y48600D02*
Y57400D01*
X1750Y54000D02*
X10600D01*
X1750Y64500D02*
X10864D01*
X1750Y61500D02*
X10864D01*
X1750Y63000D02*
X10600D01*
X1750Y60000D02*
X11782D01*
X1750Y57000D02*
X10600D01*
X44000Y45166D02*
Y49834D01*
X42500Y46419D02*
Y48581D01*
X41000Y36871D02*
Y38052D01*
X42463Y37355D02*
X49908Y29910D01*
X43166Y36000D02*
X43818D01*
X42500Y36419D02*
Y37318D01*
X41000Y46871D02*
Y48129D01*
X36750Y37500D02*
X42277D01*
X44871Y33000D02*
X46818D01*
X44785Y31500D02*
X48318D01*
X44419Y34500D02*
X45318D01*
X44120Y30000D02*
X49818D01*
X44000Y35166D02*
Y35818D01*
X41000Y26900D02*
Y28129D01*
X44000Y26900D02*
Y29834D01*
X42500Y26900D02*
Y28581D01*
X36750Y49500D02*
X37282D01*
X39500Y46784D02*
Y48215D01*
X26810Y52500D02*
X32250D01*
X38000Y46120D02*
Y48880D01*
X36750Y46500D02*
X38668D01*
X36750Y44801D02*
Y50199D01*
X25310Y51000D02*
X32250D01*
X23810Y49500D02*
X32250D01*
X19400Y52500D02*
X20446D01*
X20810Y46500D02*
X32250D01*
X22310Y48000D02*
X32250D01*
X39500Y36784D02*
Y38216D01*
X36750Y28500D02*
X38668D01*
X38000Y36120D02*
Y38880D01*
Y26900D02*
Y28880D01*
X39500Y26900D02*
Y28216D01*
X36750Y26900D02*
Y30199D01*
Y36000D02*
X37834D01*
X36750Y39000D02*
X37834D01*
X36750Y34801D02*
Y40199D01*
X19371Y31500D02*
X32250D01*
X45500Y13750D02*
Y34318D01*
X47000Y13750D02*
Y32818D01*
X44900Y18100D02*
Y26900D01*
X50000Y13750D02*
Y29823D01*
X51500Y13750D02*
Y29250D01*
X48500Y13750D02*
Y31318D01*
X36750Y26900D02*
X44900D01*
X38082Y18100D02*
X42432Y13750D01*
X41000Y15182D02*
Y18100D01*
X44000Y13750D02*
Y18100D01*
X42500Y13750D02*
Y18100D01*
X50000Y2000D02*
Y9250D01*
X51500Y2008D02*
Y9250D01*
X48500Y1993D02*
Y9250D01*
X45500Y1977D02*
Y9250D01*
X47000Y1985D02*
Y9250D01*
X44000Y1970D02*
Y9250D01*
X38082Y18100D02*
X44900D01*
X42500Y1963D02*
Y9250D01*
X41000Y1955D02*
Y9306D01*
X39500Y16682D02*
Y18100D01*
X27500Y1887D02*
Y53190D01*
X32910Y16908D02*
X39908Y9910D01*
X26000Y1880D02*
Y51690D01*
X24500Y1873D02*
Y50190D01*
X19400Y21000D02*
X32250D01*
X23000Y1865D02*
Y48690D01*
X21500Y1857D02*
Y47190D01*
X20000Y1850D02*
Y45690D01*
X38000Y1940D02*
Y11818D01*
X39500Y1947D02*
Y10318D01*
X36500Y1932D02*
Y13318D01*
X35000Y1925D02*
Y14818D01*
X33500Y1918D02*
Y16318D01*
X19400Y13500D02*
X36318D01*
X19400Y12000D02*
X37818D01*
X19400Y15000D02*
X34818D01*
X19400Y10500D02*
X39318D01*
X19400Y6600D02*
Y15400D01*
X19310Y45000D02*
X32250D01*
X17810Y43500D02*
X32250D01*
X15500Y47554D02*
Y48600D01*
X18500Y33666D02*
Y44190D01*
X17250Y42000D02*
X32250D01*
X17250Y36026D02*
Y42940D01*
X10600Y48600D02*
X16546D01*
X1750Y48000D02*
X15946D01*
X1750Y46500D02*
X14446D01*
X13410Y45464D02*
X16546Y48600D01*
X14000Y46054D02*
Y48600D01*
X17790Y34500D02*
X32250D01*
X18919Y33000D02*
X32250D01*
X17256Y36000D02*
X32250D01*
X19285Y30000D02*
X32250D01*
X18620Y28500D02*
X32250D01*
X17250Y39000D02*
X32250D01*
X17250Y37500D02*
X32250D01*
X17250Y40500D02*
X32250D01*
X16832Y27000D02*
X32250D01*
X1750Y42000D02*
X12750D01*
X12500Y34951D02*
Y48600D01*
X12750Y36026D02*
Y43872D01*
X11000Y32832D02*
Y48600D01*
X1750Y51000D02*
X10600D01*
X1750Y49500D02*
X10600D01*
X1750Y52500D02*
X10600D01*
X1750Y45000D02*
X13053D01*
X1750Y43500D02*
X12750D01*
X1750Y33000D02*
X11081D01*
X1750Y30000D02*
X10716D01*
X1750Y31500D02*
X10629D01*
X1750Y27000D02*
X13168D01*
X1750Y28500D02*
X11380D01*
X1750Y39000D02*
X12750D01*
X1750Y37500D02*
X12750D01*
X1750Y40500D02*
X12750D01*
X1750Y36000D02*
X12744D01*
X1750Y34500D02*
X12210D01*
X17000Y24919D02*
Y27081D01*
X18218Y24000D02*
X32250D01*
X15500Y25371D02*
Y26629D01*
X19136Y22500D02*
X32250D01*
X18500Y23666D02*
Y28334D01*
X1750Y25500D02*
X32250D01*
X19136Y19500D02*
X32250D01*
X18218Y18000D02*
X32306D01*
X17000Y15400D02*
Y17081D01*
X18500Y15400D02*
Y18334D01*
Y1843D02*
Y6600D01*
X17000Y1835D02*
Y6600D01*
X1750Y16500D02*
X33318D01*
X10600Y15400D02*
X19400D01*
X15500D02*
Y16629D01*
X10600Y6600D02*
X19400D01*
X15500Y1828D02*
Y6600D01*
X12500Y24620D02*
Y27380D01*
X14000Y25284D02*
Y26715D01*
X11000Y22832D02*
Y29168D01*
X12500Y15400D02*
Y17380D01*
X14000Y15400D02*
Y16715D01*
X11000Y15400D02*
Y19168D01*
X1750Y24000D02*
X11782D01*
X1750Y22500D02*
X10864D01*
X1750Y21000D02*
X10600D01*
X1750Y18000D02*
X11782D01*
X1750Y19500D02*
X10864D01*
X10600Y6600D02*
Y15400D01*
X14000Y1820D02*
Y6600D01*
X1750Y7500D02*
X10600D01*
X12500Y1812D02*
Y6600D01*
X11000Y1805D02*
Y6600D01*
X1750Y13500D02*
X10600D01*
X1750Y12000D02*
X10600D01*
X1750Y15000D02*
X10600D01*
X1750Y9000D02*
X10600D01*
X1750Y10500D02*
X10600D01*
M02*
