M48
;Layer_Color=9474304
;FILE_FORMAT=2:4
INCH,LZ
;TYPE=PLATED
T01F00S00C0.0100
T02F00S00C0.0150
T03F00S00C0.0276
T04F00S00C0.0280
T05F00S00C0.0310
T06F00S00C0.0315
T07F00S00C0.0350
T08F00S00C0.0354
T09F00S00C0.0390
T10F00S00C0.0433
%
T01
X01685Y03355
X0178Y0339
X018112Y033362
X01725Y03525
X01865Y03645
X01615Y0368
X01825Y0393
X02065Y0386
Y0382
Y03775
T02
X0196Y02895
X0154Y0333
X01415Y0406
X016Y04265
X0177Y0417
X0183Y0404
X01955Y0397
X0169Y0393
X01585Y03725
Y0357
X0197Y0367
X0207Y0345
X0227
X0206Y0318
X0207Y0417
X0199Y0433
X02025Y04585
X0182Y04495
X0341Y0426
X03615Y04035
T03
X0333Y0383
Y0393
T04
X02685Y0325
X038Y0371
X0366Y04535
T05
X03155Y0377
Y0397
T06
X0115Y02615
Y02715
Y02815
Y03035
X01405Y0303
Y0293
Y0283
Y0273
Y0313
Y0323
X0115Y03235
Y03135
Y0346
Y0356
X01631Y04696
Y04796
T07
X02455Y04375
X02755
T08
X02595Y04625
Y04825
T09
X02535Y03175
Y03275
Y03375
Y03715
X02635
X02735
X02835
X02935
Y04015
X02835
X02735
X02635
X02535
X02435
X02335
X02235
X02135
X02035
Y03715
X02135
X02235
X02335
X02435
X0288Y03375
Y03275
Y03175
X03215
Y03275
Y03375
T10
X01215Y0377
Y0387
Y0397
Y0407
Y0417
Y0427
M30
