G04*
G04 #@! TF.GenerationSoftware,Altium Limited,Altium Designer,23.10.1 (27)*
G04*
G04 Layer_Color=65535*
%FSLAX25Y25*%
%MOIN*%
G70*
G04*
G04 #@! TF.SameCoordinates,35A5512B-BB22-45A0-ACD4-C44AAE3452D1*
G04*
G04*
G04 #@! TF.FilePolarity,Positive*
G04*
G01*
G75*
%ADD10C,0.01000*%
%ADD11C,0.00984*%
%ADD12C,0.02362*%
%ADD13C,0.00700*%
%ADD14C,0.00600*%
%ADD15C,0.00787*%
%ADD16C,0.02500*%
%ADD17C,0.00394*%
%ADD18C,0.00400*%
%ADD19C,0.00300*%
%ADD20R,0.03600X0.39900*%
%ADD21R,0.02000X0.12598*%
G36*
X89465Y201945D02*
X87102D01*
Y204701D01*
X89465D01*
Y201945D01*
D02*
G37*
G36*
X70861Y114089D02*
X69861D01*
Y115589D01*
X70861D01*
Y114089D01*
D02*
G37*
G36*
X35139Y101293D02*
X34139D01*
Y102793D01*
X35139D01*
Y101293D01*
D02*
G37*
G36*
X129584Y68646D02*
Y68442D01*
Y664D01*
X83788D01*
Y69460D01*
X129584D01*
Y68646D01*
D02*
G37*
%LPC*%
G36*
X93150Y64575D02*
X92947D01*
Y63965D01*
X92743D01*
Y63354D01*
X92540D01*
Y62743D01*
X92336D01*
Y62133D01*
X89690D01*
Y61726D01*
X90097D01*
Y61522D01*
X90301D01*
Y61319D01*
X90504D01*
Y61115D01*
X90708D01*
Y60912D01*
X91115D01*
Y60708D01*
X91319D01*
Y60504D01*
X91522D01*
Y60301D01*
X91726D01*
Y60097D01*
X91522D01*
Y59487D01*
X91319D01*
Y58876D01*
X91115D01*
Y58266D01*
X90912D01*
Y57858D01*
X91115D01*
Y58062D01*
X91319D01*
Y58266D01*
X91726D01*
Y58469D01*
X91929D01*
Y58673D01*
X92336D01*
Y58876D01*
X92540D01*
Y59080D01*
X92743D01*
Y59283D01*
X93354D01*
Y59080D01*
X93558D01*
Y58876D01*
X93965D01*
Y58673D01*
X94168D01*
Y58469D01*
X94575D01*
Y58266D01*
X94779D01*
Y58062D01*
X94982D01*
Y57858D01*
X95186D01*
Y58469D01*
X94982D01*
Y59080D01*
X94779D01*
Y59690D01*
X94575D01*
Y60504D01*
X94779D01*
Y60708D01*
X94982D01*
Y60912D01*
X95389D01*
Y61115D01*
X95593D01*
Y61319D01*
X96000D01*
Y61522D01*
X96204D01*
Y61726D01*
X96407D01*
Y61929D01*
X96611D01*
Y62133D01*
X93965D01*
Y62336D01*
X93761D01*
Y62947D01*
X93558D01*
Y63557D01*
X93354D01*
Y64168D01*
X93150D01*
Y64575D01*
D02*
G37*
G36*
X90912Y57858D02*
X90708D01*
Y57655D01*
X90912D01*
Y57858D01*
D02*
G37*
G36*
X118186Y57044D02*
X117982D01*
Y56841D01*
X117372D01*
Y56637D01*
X117168D01*
Y56434D01*
X116965D01*
Y56230D01*
X116761D01*
Y55620D01*
X116558D01*
Y55416D01*
X116761D01*
Y54805D01*
X116965D01*
Y54398D01*
X117168D01*
Y54195D01*
X117575D01*
Y53991D01*
X118593D01*
Y54195D01*
X119000D01*
Y54398D01*
X119203D01*
Y54805D01*
X119407D01*
Y55212D01*
X119611D01*
Y55823D01*
X119407D01*
Y56230D01*
X119203D01*
Y56434D01*
X119000D01*
Y56637D01*
X118797D01*
Y56841D01*
X118186D01*
Y57044D01*
D02*
G37*
G36*
X94982Y42186D02*
X94779D01*
Y41982D01*
X94982D01*
Y42186D01*
D02*
G37*
G36*
X94575Y41982D02*
X94372D01*
Y41779D01*
X94575D01*
Y41982D01*
D02*
G37*
G36*
X116150Y56027D02*
X115947D01*
Y55823D01*
X115743D01*
Y55620D01*
X115540D01*
Y55416D01*
X115133D01*
Y55212D01*
X114929D01*
Y55009D01*
X114522D01*
Y54805D01*
X114115D01*
Y54602D01*
X113911D01*
Y54398D01*
X113504D01*
Y54195D01*
X113301D01*
Y53991D01*
X112894D01*
Y53788D01*
X112690D01*
Y53584D01*
X112283D01*
Y53381D01*
X112080D01*
Y53177D01*
X111673D01*
Y52974D01*
X111266D01*
Y52770D01*
X111062D01*
Y52566D01*
X110655D01*
Y52363D01*
X110451D01*
Y52159D01*
X110044D01*
Y51956D01*
X109841D01*
Y51752D01*
X109434D01*
Y51549D01*
X109230D01*
Y51345D01*
X108823D01*
Y51142D01*
X108416D01*
Y50938D01*
X108212D01*
Y50735D01*
X107805D01*
Y50531D01*
X107602D01*
Y50327D01*
X107195D01*
Y50124D01*
X106991D01*
Y49920D01*
X106788D01*
Y49717D01*
X106380D01*
Y49513D01*
X105973D01*
Y49310D01*
X105770D01*
Y49106D01*
X105566D01*
Y48903D01*
X105159D01*
Y48699D01*
X104956D01*
Y48496D01*
X104549D01*
Y48292D01*
X104142D01*
Y48088D01*
X103938D01*
Y47885D01*
X103531D01*
Y47681D01*
X103124D01*
Y47478D01*
X102920D01*
Y47274D01*
X102513D01*
Y47071D01*
X102310D01*
Y46867D01*
X101903D01*
Y46664D01*
X101699D01*
Y46460D01*
X101292D01*
Y46257D01*
X100885D01*
Y46053D01*
X100681D01*
Y45850D01*
X100274D01*
Y45646D01*
X100071D01*
Y45443D01*
X99867D01*
Y45239D01*
X99460D01*
Y45035D01*
X99257D01*
Y44832D01*
X98850D01*
Y44628D01*
X98443D01*
Y44425D01*
X98239D01*
Y44221D01*
X97832D01*
Y44018D01*
X97628D01*
Y43814D01*
X97221D01*
Y43611D01*
X97018D01*
Y43407D01*
X96611D01*
Y43203D01*
X96407D01*
Y43000D01*
X96000D01*
Y42796D01*
X95593D01*
Y42593D01*
X95389D01*
Y42389D01*
X94982D01*
Y42186D01*
X95593D01*
Y42389D01*
X96000D01*
Y42593D01*
X96407D01*
Y42796D01*
X96814D01*
Y43000D01*
X97018D01*
Y43203D01*
X97425D01*
Y43407D01*
X97832D01*
Y43611D01*
X98239D01*
Y43814D01*
X98850D01*
Y44018D01*
X99257D01*
Y44221D01*
X99664D01*
Y44425D01*
X99867D01*
Y44628D01*
X100274D01*
Y44832D01*
X100681D01*
Y45035D01*
X101089D01*
Y45239D01*
X101496D01*
Y45443D01*
X101903D01*
Y45646D01*
X102513D01*
Y45850D01*
X102920D01*
Y46053D01*
X103124D01*
Y46257D01*
X103531D01*
Y46460D01*
X103938D01*
Y46664D01*
X104345D01*
Y46867D01*
X104752D01*
Y47071D01*
X105159D01*
Y47274D01*
X105566D01*
Y47478D01*
X105973D01*
Y47681D01*
X106380D01*
Y47885D01*
X106788D01*
Y48088D01*
X107195D01*
Y48292D01*
X107602D01*
Y48496D01*
X108009D01*
Y48699D01*
X108416D01*
Y48903D01*
X108823D01*
Y49106D01*
X109230D01*
Y49310D01*
X109637D01*
Y49513D01*
X110044D01*
Y49717D01*
X110451D01*
Y49920D01*
X110655D01*
Y50124D01*
X111062D01*
Y50327D01*
X111469D01*
Y50531D01*
X112080D01*
Y50735D01*
X112487D01*
Y50938D01*
X112894D01*
Y51142D01*
X113301D01*
Y51345D01*
X113504D01*
Y51549D01*
X113911D01*
Y51752D01*
X114319D01*
Y51345D01*
X114115D01*
Y50938D01*
X113911D01*
Y50531D01*
X113708D01*
Y50124D01*
X113504D01*
Y49717D01*
X113301D01*
Y49310D01*
X113097D01*
Y48903D01*
X112894D01*
Y48496D01*
X112690D01*
Y48088D01*
X112487D01*
Y47681D01*
X112283D01*
Y47274D01*
X112080D01*
Y46867D01*
X111876D01*
Y46460D01*
X111673D01*
Y46053D01*
X111469D01*
Y45646D01*
X111266D01*
Y45239D01*
X111062D01*
Y45035D01*
X110858D01*
Y44628D01*
X110655D01*
Y44221D01*
X110451D01*
Y43611D01*
X110248D01*
Y43203D01*
X110044D01*
Y42796D01*
X109841D01*
Y42389D01*
X109637D01*
Y42186D01*
X109434D01*
Y41779D01*
X109230D01*
Y41372D01*
X109027D01*
Y40965D01*
X108823D01*
Y40558D01*
X108619D01*
Y40150D01*
X108416D01*
Y39743D01*
X108212D01*
Y39336D01*
X108009D01*
Y38929D01*
X107805D01*
Y38522D01*
X107602D01*
Y38115D01*
X107398D01*
Y37708D01*
X107195D01*
Y37301D01*
X106991D01*
Y36894D01*
X106788D01*
Y36487D01*
X106584D01*
Y36080D01*
X106380D01*
Y35673D01*
X106177D01*
Y35265D01*
X105973D01*
Y35062D01*
X105770D01*
Y34655D01*
X105566D01*
Y34248D01*
X105363D01*
Y33637D01*
X105159D01*
Y33230D01*
X104956D01*
Y32823D01*
X104752D01*
Y32620D01*
X104549D01*
Y32212D01*
X104345D01*
Y31805D01*
X104142D01*
Y31398D01*
X103938D01*
Y30991D01*
X104142D01*
Y31195D01*
X104345D01*
Y31602D01*
X104549D01*
Y32009D01*
X104752D01*
Y32212D01*
X104956D01*
Y32620D01*
X105159D01*
Y32823D01*
X105363D01*
Y33230D01*
X105566D01*
Y33434D01*
X105770D01*
Y33841D01*
X105973D01*
Y34044D01*
X106177D01*
Y34451D01*
X106380D01*
Y34858D01*
X106584D01*
Y35062D01*
X106788D01*
Y35469D01*
X106991D01*
Y35673D01*
X107195D01*
Y36080D01*
X107398D01*
Y36283D01*
X107602D01*
Y36690D01*
X107805D01*
Y36894D01*
X108009D01*
Y37301D01*
X108212D01*
Y37708D01*
X108416D01*
Y37911D01*
X108619D01*
Y38319D01*
X108823D01*
Y38522D01*
X109027D01*
Y38929D01*
X109230D01*
Y39133D01*
X109434D01*
Y39540D01*
X109637D01*
Y39947D01*
X109841D01*
Y40150D01*
X110044D01*
Y40558D01*
X110248D01*
Y40761D01*
X110451D01*
Y41168D01*
X110655D01*
Y41372D01*
X110858D01*
Y41779D01*
X111062D01*
Y41982D01*
X111266D01*
Y42389D01*
X111469D01*
Y42796D01*
X111673D01*
Y43000D01*
X111876D01*
Y43407D01*
X112080D01*
Y43611D01*
X112283D01*
Y44018D01*
X112487D01*
Y44221D01*
X112690D01*
Y44425D01*
Y44628D01*
X112894D01*
Y44832D01*
X113097D01*
Y45239D01*
X113301D01*
Y45646D01*
X113504D01*
Y45850D01*
X113708D01*
Y46257D01*
X113911D01*
Y46460D01*
X114115D01*
Y46867D01*
X114319D01*
Y47071D01*
X114522D01*
Y47478D01*
X114726D01*
Y47681D01*
X114929D01*
Y48088D01*
X115133D01*
Y48496D01*
X115336D01*
Y48699D01*
X115540D01*
Y49106D01*
X115743D01*
Y49310D01*
X115947D01*
Y49717D01*
X116150D01*
Y49920D01*
X116354D01*
Y50327D01*
X116558D01*
Y50735D01*
X116761D01*
Y50938D01*
X116965D01*
Y51345D01*
X117168D01*
Y51549D01*
X117372D01*
Y51956D01*
X117575D01*
Y52159D01*
X117779D01*
Y52566D01*
X117982D01*
Y52770D01*
X118186D01*
Y53177D01*
X118389D01*
Y53381D01*
X117779D01*
Y53584D01*
X117168D01*
Y53788D01*
X116761D01*
Y53991D01*
X116558D01*
Y54195D01*
X116354D01*
Y54602D01*
X116150D01*
Y56027D01*
D02*
G37*
G36*
X103938Y30991D02*
X103735D01*
Y30584D01*
X103938D01*
Y30991D01*
D02*
G37*
G36*
X129177Y69053D02*
X102106D01*
Y67425D01*
Y67221D01*
Y47478D01*
X102310D01*
Y47681D01*
X102513D01*
Y47885D01*
X102920D01*
Y48088D01*
X103124D01*
Y48292D01*
X103531D01*
Y48496D01*
X103938D01*
Y48699D01*
X104142D01*
Y48903D01*
X104549D01*
Y49106D01*
X104752D01*
Y49310D01*
X105159D01*
Y49513D01*
X105363D01*
Y49717D01*
X105770D01*
Y49920D01*
X105973D01*
Y50124D01*
X106380D01*
Y50327D01*
X106584D01*
Y50531D01*
X106991D01*
Y50735D01*
X107195D01*
Y50938D01*
X107602D01*
Y51142D01*
X108009D01*
Y51345D01*
X108212D01*
Y51549D01*
X108619D01*
Y51752D01*
X108823D01*
Y51956D01*
X109230D01*
Y52159D01*
X109434D01*
Y52363D01*
X109841D01*
Y52566D01*
X110044D01*
Y52770D01*
X110451D01*
Y52974D01*
X110655D01*
Y53177D01*
X111062D01*
Y53381D01*
X111469D01*
Y53584D01*
X111673D01*
Y53788D01*
X112080D01*
Y53991D01*
X112283D01*
Y54195D01*
X112690D01*
Y54398D01*
X112894D01*
Y54602D01*
X113301D01*
Y54805D01*
X113504D01*
Y55009D01*
X113911D01*
Y55212D01*
X114319D01*
Y55416D01*
X114522D01*
Y55620D01*
X114929D01*
Y55823D01*
X115133D01*
Y56027D01*
X115336D01*
Y56230D01*
X115743D01*
Y56434D01*
X115947D01*
Y56637D01*
X116354D01*
Y56841D01*
X116761D01*
Y57044D01*
X116965D01*
Y57248D01*
X117575D01*
Y57451D01*
X118593D01*
Y57248D01*
X119000D01*
Y57044D01*
X119407D01*
Y56841D01*
X119611D01*
Y56637D01*
X119814D01*
Y56230D01*
X120018D01*
Y54805D01*
X119814D01*
Y54398D01*
X119611D01*
Y54195D01*
X119407D01*
Y53788D01*
X119203D01*
Y53584D01*
X119000D01*
Y53177D01*
X118797D01*
Y52974D01*
X118593D01*
Y52566D01*
X118389D01*
Y52159D01*
X118186D01*
Y51956D01*
X117982D01*
Y51549D01*
X117779D01*
Y51345D01*
X117575D01*
Y50938D01*
X117372D01*
Y50735D01*
X117168D01*
Y50327D01*
X116965D01*
Y49920D01*
X116761D01*
Y49717D01*
X116558D01*
Y49310D01*
X116354D01*
Y49106D01*
X116150D01*
Y48699D01*
X115947D01*
Y48496D01*
X115743D01*
Y48088D01*
X115540D01*
Y47885D01*
X115336D01*
Y47478D01*
X115133D01*
Y47071D01*
X114929D01*
Y46867D01*
X114726D01*
Y46460D01*
X114522D01*
Y46257D01*
X114319D01*
Y45850D01*
X114115D01*
Y45646D01*
X113911D01*
Y45239D01*
X113708D01*
Y45035D01*
X113504D01*
Y44628D01*
X113301D01*
Y44221D01*
X113097D01*
Y44018D01*
X112894D01*
Y43611D01*
X112690D01*
Y43407D01*
X112487D01*
Y43000D01*
X112283D01*
Y42796D01*
X112080D01*
Y42389D01*
X111876D01*
Y42186D01*
X111673D01*
Y41779D01*
X111469D01*
Y41372D01*
X111266D01*
Y41168D01*
X111062D01*
Y40761D01*
X110858D01*
Y40558D01*
X110655D01*
Y40150D01*
X110451D01*
Y39947D01*
X110248D01*
Y39540D01*
X110044D01*
Y39133D01*
X109841D01*
Y38929D01*
X109637D01*
Y38522D01*
X109434D01*
Y38319D01*
X109230D01*
Y37911D01*
X109027D01*
Y37708D01*
X108823D01*
Y37301D01*
X108619D01*
Y37097D01*
X108416D01*
Y36690D01*
X108212D01*
Y36283D01*
X108009D01*
Y36080D01*
X107805D01*
Y35673D01*
X107602D01*
Y35469D01*
X107398D01*
Y35062D01*
X107195D01*
Y34655D01*
X106991D01*
Y34451D01*
X106788D01*
Y34248D01*
X106584D01*
Y33841D01*
X106380D01*
Y33434D01*
X106177D01*
Y33230D01*
X105973D01*
Y32823D01*
X105770D01*
Y32620D01*
X105566D01*
Y32212D01*
X105363D01*
Y32009D01*
X105159D01*
Y31602D01*
X104956D01*
Y31398D01*
X104752D01*
Y30991D01*
X104549D01*
Y30584D01*
X104345D01*
Y30380D01*
X104142D01*
Y29974D01*
X103938D01*
Y29770D01*
X103735D01*
Y29363D01*
X103531D01*
Y29159D01*
X103327D01*
Y28752D01*
X103124D01*
Y28345D01*
X102920D01*
Y28142D01*
X102717D01*
Y27735D01*
X102513D01*
Y27531D01*
X102310D01*
Y27124D01*
X102106D01*
Y20611D01*
X101292D01*
Y20814D01*
X100274D01*
Y21018D01*
X99664D01*
Y21221D01*
X99053D01*
Y21425D01*
X98646D01*
Y21628D01*
X98443D01*
Y21832D01*
X98035D01*
Y22035D01*
X97832D01*
Y22239D01*
X97628D01*
Y22443D01*
X97425D01*
Y22646D01*
X97018D01*
Y22850D01*
X96814D01*
Y23053D01*
X96611D01*
Y23460D01*
X96407D01*
Y23664D01*
X96204D01*
Y23867D01*
X96000D01*
Y24274D01*
X95797D01*
Y24681D01*
X95593D01*
Y25089D01*
X95389D01*
Y25292D01*
X95186D01*
Y25903D01*
X94982D01*
Y26717D01*
X94779D01*
Y29770D01*
X94982D01*
Y30584D01*
X95186D01*
Y31195D01*
X95389D01*
Y31602D01*
X95593D01*
Y32009D01*
X95797D01*
Y32212D01*
X96000D01*
Y32620D01*
X96204D01*
Y32823D01*
X96407D01*
Y33230D01*
X96611D01*
Y33434D01*
X96814D01*
Y33637D01*
X97018D01*
Y33841D01*
X97221D01*
Y34044D01*
X97628D01*
Y34248D01*
X97832D01*
Y34451D01*
X98035D01*
Y34655D01*
X98239D01*
Y34858D01*
X98646D01*
Y35062D01*
X99053D01*
Y35265D01*
X99460D01*
Y35469D01*
X100274D01*
Y35673D01*
X101089D01*
Y35876D01*
X102106D01*
Y28956D01*
X102310D01*
Y29363D01*
X102513D01*
Y29770D01*
X102717D01*
Y29974D01*
X102920D01*
Y30380D01*
X103124D01*
Y30788D01*
X103327D01*
Y31398D01*
X103531D01*
Y31805D01*
X103735D01*
Y32212D01*
X103938D01*
Y32416D01*
X104142D01*
Y32823D01*
X104345D01*
Y33230D01*
X104549D01*
Y33637D01*
X104752D01*
Y34044D01*
X104956D01*
Y34451D01*
X105159D01*
Y34858D01*
X105363D01*
Y35469D01*
X105566D01*
Y35876D01*
X105770D01*
Y36080D01*
X105973D01*
Y36487D01*
X106177D01*
Y36894D01*
X106380D01*
Y37301D01*
X106584D01*
Y37708D01*
X106788D01*
Y38115D01*
X106991D01*
Y38522D01*
X107195D01*
Y38929D01*
X107398D01*
Y39336D01*
X107602D01*
Y39540D01*
X107805D01*
Y39947D01*
X108009D01*
Y40354D01*
X108212D01*
Y40761D01*
X108416D01*
Y41168D01*
X108619D01*
Y41779D01*
X108823D01*
Y41982D01*
X109027D01*
Y42389D01*
X109230D01*
Y42796D01*
X109434D01*
Y43203D01*
X109637D01*
Y43611D01*
X109841D01*
Y44018D01*
X110044D01*
Y44425D01*
X110248D01*
Y44832D01*
X110451D01*
Y45239D01*
X110655D01*
Y45646D01*
X110858D01*
Y46053D01*
X111062D01*
Y46460D01*
X111266D01*
Y46664D01*
X111469D01*
Y47071D01*
X111673D01*
Y47681D01*
X111876D01*
Y48088D01*
X112080D01*
Y48496D01*
X112283D01*
Y48903D01*
X112487D01*
Y49106D01*
X112690D01*
Y49513D01*
X112894D01*
Y49920D01*
X113097D01*
Y50327D01*
X113301D01*
Y50735D01*
X113097D01*
Y50531D01*
X112690D01*
Y50327D01*
X112283D01*
Y50124D01*
X111876D01*
Y49920D01*
X111469D01*
Y49717D01*
X111062D01*
Y49513D01*
X110655D01*
Y49310D01*
X110248D01*
Y49106D01*
X109841D01*
Y48903D01*
X109434D01*
Y48699D01*
X109027D01*
Y48496D01*
X108619D01*
Y48292D01*
X108212D01*
Y48088D01*
X107805D01*
Y47885D01*
X107398D01*
Y47681D01*
X106991D01*
Y47478D01*
X106584D01*
Y47274D01*
X106380D01*
Y47071D01*
X105973D01*
Y46867D01*
X105363D01*
Y46664D01*
X104956D01*
Y46460D01*
X104549D01*
Y46257D01*
X104142D01*
Y46053D01*
X103735D01*
Y45850D01*
X103531D01*
Y45646D01*
X103124D01*
Y45443D01*
X102717D01*
Y45239D01*
X102310D01*
Y45035D01*
X102106D01*
Y38319D01*
X100478D01*
Y36487D01*
X99867D01*
Y36283D01*
X99053D01*
Y36080D01*
X98646D01*
Y35876D01*
X98239D01*
Y35673D01*
X98035D01*
Y35469D01*
X97628D01*
Y35265D01*
X97425D01*
Y35062D01*
X97018D01*
Y34858D01*
X96814D01*
Y34655D01*
X96611D01*
Y34451D01*
X96407D01*
Y34248D01*
X96204D01*
Y34044D01*
X96000D01*
Y34248D01*
X95593D01*
Y34451D01*
X95186D01*
Y34655D01*
X94779D01*
Y34858D01*
X94575D01*
Y34655D01*
X94372D01*
Y34451D01*
X94168D01*
Y34044D01*
X93965D01*
Y33637D01*
X93761D01*
Y33230D01*
X93558D01*
Y32823D01*
X93354D01*
Y32620D01*
X93150D01*
Y32212D01*
X92947D01*
Y31805D01*
X92743D01*
Y31602D01*
X93150D01*
Y31398D01*
X93558D01*
Y31195D01*
X93761D01*
Y30991D01*
X93965D01*
Y30788D01*
X94168D01*
Y30177D01*
X93965D01*
Y29159D01*
X93761D01*
Y27327D01*
X93965D01*
Y26310D01*
X94168D01*
Y25699D01*
X93965D01*
Y25496D01*
X93558D01*
Y25292D01*
X93354D01*
Y25089D01*
X92947D01*
Y24885D01*
X92743D01*
Y24681D01*
X92947D01*
Y24274D01*
X93150D01*
Y24071D01*
X93354D01*
Y23664D01*
X93558D01*
Y23257D01*
X93761D01*
Y22850D01*
X93965D01*
Y22443D01*
X94168D01*
Y22239D01*
X94372D01*
Y21832D01*
X94982D01*
Y22035D01*
X95389D01*
Y22239D01*
X95797D01*
Y22443D01*
X96204D01*
Y22239D01*
X96407D01*
Y22035D01*
X96611D01*
Y21832D01*
X96814D01*
Y21628D01*
X97221D01*
Y21425D01*
X97425D01*
Y21221D01*
X97628D01*
Y21018D01*
X98035D01*
Y20814D01*
X98443D01*
Y20611D01*
X98850D01*
Y20407D01*
X99257D01*
Y20203D01*
X99867D01*
Y20000D01*
X100478D01*
Y18372D01*
X102106D01*
Y13894D01*
X102310D01*
Y14097D01*
X102513D01*
Y14301D01*
X102717D01*
Y14504D01*
X103124D01*
Y14708D01*
X129177D01*
Y69053D01*
D02*
G37*
G36*
Y14301D02*
X103327D01*
Y14097D01*
X102920D01*
Y13894D01*
X102717D01*
Y13690D01*
X102513D01*
Y13283D01*
X102310D01*
Y12876D01*
X101903D01*
Y13283D01*
X101699D01*
Y13487D01*
X101496D01*
Y13690D01*
X101292D01*
Y13894D01*
X100885D01*
Y14097D01*
X100478D01*
Y14301D01*
X84195D01*
Y1071D01*
X129177D01*
Y14301D01*
D02*
G37*
%LPD*%
G36*
X124496Y64779D02*
X124699D01*
Y64575D01*
X124903D01*
Y64372D01*
X125106D01*
Y63151D01*
X124089D01*
Y63965D01*
X123885D01*
Y64168D01*
X123478D01*
Y61115D01*
X123885D01*
Y61319D01*
X124089D01*
Y62133D01*
X125106D01*
Y60912D01*
X124903D01*
Y60708D01*
X124699D01*
Y60504D01*
X124496D01*
Y60301D01*
X123071D01*
Y60504D01*
X122867D01*
Y60708D01*
X122664D01*
Y60912D01*
X122460D01*
Y64372D01*
X122664D01*
Y64575D01*
X122867D01*
Y64779D01*
X123071D01*
Y64982D01*
X124496D01*
Y64779D01*
D02*
G37*
G36*
X118593D02*
X118797D01*
Y60301D01*
X117779D01*
Y62336D01*
X117168D01*
Y60301D01*
X116150D01*
Y64982D01*
X117168D01*
Y63354D01*
X117372D01*
Y63151D01*
X117779D01*
Y64982D01*
X118593D01*
Y64779D01*
D02*
G37*
G36*
X121239D02*
X121646D01*
Y64575D01*
X121850D01*
Y64168D01*
X122053D01*
Y61115D01*
X121850D01*
Y60708D01*
X121646D01*
Y60504D01*
X121239D01*
Y60301D01*
X120018D01*
Y60504D01*
X119814D01*
Y60708D01*
X119611D01*
Y60912D01*
X119407D01*
Y61522D01*
X119203D01*
Y63965D01*
X119407D01*
Y64372D01*
X119611D01*
Y64575D01*
X119814D01*
Y64779D01*
X120018D01*
Y64982D01*
X121239D01*
Y64779D01*
D02*
G37*
G36*
X114522Y60301D02*
X113504D01*
Y62133D01*
X113301D01*
Y62947D01*
X113504D01*
Y63557D01*
X113301D01*
Y64779D01*
X113504D01*
Y64982D01*
X114522D01*
Y60301D01*
D02*
G37*
G36*
X112283Y64779D02*
Y64372D01*
X112487D01*
Y63354D01*
X112690D01*
Y62336D01*
X112894D01*
Y61319D01*
X113097D01*
Y60301D01*
X112080D01*
Y60504D01*
X111876D01*
Y61115D01*
X111062D01*
Y60301D01*
X110044D01*
Y60912D01*
X110248D01*
Y61929D01*
X110451D01*
Y63151D01*
X110655D01*
Y64168D01*
X110858D01*
Y64982D01*
X112283D01*
Y64779D01*
D02*
G37*
G36*
X109027D02*
X109434D01*
Y64575D01*
X109637D01*
Y64168D01*
X109841D01*
Y61115D01*
X109637D01*
Y60708D01*
X109434D01*
Y60504D01*
X109027D01*
Y60301D01*
X106991D01*
Y62540D01*
X106788D01*
Y63151D01*
X106991D01*
Y64779D01*
X107195D01*
Y64982D01*
X109027D01*
Y64779D01*
D02*
G37*
G36*
X121239Y59283D02*
X120221D01*
Y59487D01*
Y59894D01*
X121239D01*
Y59283D01*
D02*
G37*
G36*
X112080D02*
X111062D01*
Y59894D01*
X112080D01*
Y59283D01*
D02*
G37*
%LPC*%
G36*
X120832Y64168D02*
X120425D01*
Y61522D01*
Y61319D01*
Y61115D01*
X120832D01*
Y61319D01*
X121035D01*
Y63965D01*
X120832D01*
Y64168D01*
D02*
G37*
G36*
X111673Y63557D02*
X111469D01*
Y62540D01*
X111266D01*
Y61929D01*
X111876D01*
Y62540D01*
X111673D01*
Y63557D01*
D02*
G37*
G36*
X108619Y64168D02*
X108212D01*
Y63151D01*
X108416D01*
Y62540D01*
X108212D01*
Y61319D01*
Y61115D01*
X108619D01*
Y64168D01*
D02*
G37*
%LPD*%
G36*
X94982Y12469D02*
X94779D01*
Y12062D01*
X94575D01*
Y11858D01*
X94372D01*
Y11451D01*
X93354D01*
Y12265D01*
X93558D01*
Y12673D01*
X94982D01*
Y12469D01*
D02*
G37*
G36*
X112283Y10637D02*
X112080D01*
Y10027D01*
X111876D01*
Y9619D01*
X111673D01*
Y9212D01*
X111469D01*
Y8805D01*
X111266D01*
Y8398D01*
X111062D01*
Y7991D01*
X111266D01*
Y7380D01*
X111469D01*
Y6973D01*
X111673D01*
Y6363D01*
X111876D01*
Y5752D01*
X112080D01*
Y4938D01*
X112283D01*
Y4327D01*
X110451D01*
Y5142D01*
X110248D01*
Y5345D01*
Y5752D01*
X110044D01*
Y6363D01*
X109841D01*
Y6159D01*
X109637D01*
Y4327D01*
X108009D01*
Y11044D01*
X109637D01*
Y8805D01*
X109841D01*
Y9416D01*
X110044D01*
Y10027D01*
X110248D01*
Y10434D01*
X110451D01*
Y11044D01*
X112283D01*
Y10637D01*
D02*
G37*
G36*
X116965Y4124D02*
X115336D01*
Y4327D01*
X115133D01*
Y6973D01*
X114522D01*
Y4124D01*
X112894D01*
Y11044D01*
X114522D01*
Y8602D01*
X115133D01*
Y11044D01*
X116965D01*
Y4124D01*
D02*
G37*
G36*
X105363D02*
X103735D01*
Y5752D01*
Y5956D01*
Y6973D01*
X102920D01*
Y4124D01*
X101292D01*
Y11044D01*
X102920D01*
Y8602D01*
X103735D01*
Y11044D01*
X105363D01*
Y4124D01*
D02*
G37*
G36*
X98850Y11044D02*
X99664D01*
Y10841D01*
X100071D01*
Y10637D01*
X100274D01*
Y10434D01*
X100478D01*
Y10027D01*
X100681D01*
Y8398D01*
X99053D01*
Y9619D01*
X98850D01*
Y9823D01*
X98443D01*
Y9619D01*
X98239D01*
Y5549D01*
X98443D01*
Y5345D01*
X98850D01*
Y5549D01*
X99053D01*
Y6973D01*
X100681D01*
Y5345D01*
X100478D01*
Y4938D01*
X100274D01*
Y4735D01*
X100071D01*
Y4531D01*
X99867D01*
Y4327D01*
X99257D01*
Y4124D01*
X97832D01*
Y4327D01*
X97425D01*
Y4531D01*
X97221D01*
Y4735D01*
X97018D01*
Y4938D01*
X96814D01*
Y5142D01*
X96611D01*
Y10027D01*
X96814D01*
Y10434D01*
X97018D01*
Y10637D01*
X97221D01*
Y10841D01*
X97628D01*
Y11044D01*
X98443D01*
Y11248D01*
X98850D01*
Y11044D01*
D02*
G37*
G36*
X90301Y10841D02*
X90504D01*
Y10637D01*
X90708D01*
Y10434D01*
X90912D01*
Y10027D01*
X91115D01*
Y8805D01*
X90912D01*
Y8195D01*
X90708D01*
Y7991D01*
X90504D01*
Y7788D01*
X90708D01*
Y7584D01*
X90912D01*
Y7380D01*
X91115D01*
Y5345D01*
Y5142D01*
X90912D01*
Y4735D01*
X90708D01*
Y4531D01*
X90301D01*
Y4327D01*
X87044D01*
Y11044D01*
X90301D01*
Y10841D01*
D02*
G37*
G36*
X125310Y10637D02*
X125513D01*
Y9416D01*
X125717D01*
Y8195D01*
X125920D01*
Y7177D01*
X126124D01*
Y6363D01*
X126327D01*
Y5345D01*
X126531D01*
Y4124D01*
X124903D01*
Y4327D01*
X124699D01*
Y5345D01*
X123681D01*
Y4531D01*
X123478D01*
Y4124D01*
X121850D01*
Y4938D01*
X122053D01*
Y5956D01*
X122257D01*
Y6973D01*
X122460D01*
Y7991D01*
X122664D01*
Y9009D01*
X122867D01*
Y10230D01*
X123071D01*
Y11044D01*
X125310D01*
Y10637D01*
D02*
G37*
G36*
X120425Y10841D02*
X120832D01*
Y10637D01*
X121035D01*
Y10434D01*
X121239D01*
Y10230D01*
X121442D01*
Y9619D01*
X121646D01*
Y5549D01*
X121442D01*
Y5142D01*
X121239D01*
Y4938D01*
X121035D01*
Y4735D01*
X120832D01*
Y4531D01*
X120628D01*
Y4327D01*
X120221D01*
Y4124D01*
X118797D01*
Y4327D01*
X118389D01*
Y4531D01*
X117982D01*
Y4735D01*
X117779D01*
Y5345D01*
X117575D01*
Y10027D01*
X117779D01*
Y10434D01*
X117982D01*
Y10637D01*
X118186D01*
Y10841D01*
X118593D01*
Y11044D01*
X120425D01*
Y10841D01*
D02*
G37*
G36*
X94982Y10637D02*
X95186D01*
Y10027D01*
Y9823D01*
Y9416D01*
X95389D01*
Y8195D01*
X95593D01*
Y7177D01*
X95797D01*
Y6159D01*
X96000D01*
Y5142D01*
X96204D01*
Y4124D01*
X94575D01*
Y4327D01*
X94372D01*
Y5345D01*
X93354D01*
Y4531D01*
X93150D01*
Y4124D01*
X91522D01*
Y4938D01*
X91726D01*
Y5956D01*
X91929D01*
Y6973D01*
X92133D01*
Y7991D01*
X92336D01*
Y9009D01*
X92540D01*
Y10230D01*
X92743D01*
Y11044D01*
X94982D01*
Y10637D01*
D02*
G37*
%LPC*%
G36*
X89283Y9823D02*
X88876D01*
Y9619D01*
X88673D01*
Y8602D01*
X88876D01*
Y8398D01*
X89283D01*
Y8602D01*
X89487D01*
Y8805D01*
Y9619D01*
X89283D01*
Y9823D01*
D02*
G37*
G36*
X89487Y7177D02*
X88673D01*
Y5956D01*
Y5752D01*
Y5549D01*
X88876D01*
Y5345D01*
X89080D01*
Y5549D01*
X89487D01*
Y7177D01*
D02*
G37*
G36*
X124292Y9619D02*
X124089D01*
Y7991D01*
X123885D01*
Y6566D01*
X124496D01*
Y8398D01*
X124292D01*
Y9619D01*
D02*
G37*
G36*
X119814Y9823D02*
X119203D01*
Y9619D01*
X119000D01*
Y7177D01*
Y6973D01*
Y5752D01*
X119203D01*
Y5549D01*
X119407D01*
Y5345D01*
X119611D01*
Y5549D01*
X119814D01*
Y9823D01*
D02*
G37*
G36*
X93965Y9619D02*
X93761D01*
Y7991D01*
X93558D01*
Y7788D01*
Y7584D01*
Y6566D01*
X94168D01*
Y8398D01*
X93965D01*
Y9619D01*
D02*
G37*
%LPD*%
D10*
X149997Y94203D02*
G03*
X149997Y94203I-1297J0D01*
G01*
X184497D02*
G03*
X184497Y94203I-1297J0D01*
G01*
X217997D02*
G03*
X217997Y94203I-1297J0D01*
G01*
X75795Y224000D02*
G03*
X75795Y224000I-12795J0D01*
G01*
X229242Y132542D02*
G03*
X236757Y132599I3758J-42D01*
G01*
X236758Y142558D02*
G03*
X229243Y142501I-3758J42D01*
G01*
X235391Y213815D02*
G03*
X235391Y213815I-23391J0D01*
G01*
X172746Y207863D02*
G03*
X172608Y207735I-13333J14166D01*
G01*
X255500Y2500D02*
Y48000D01*
X262500Y2500D02*
Y48000D01*
X255500Y2500D02*
X262500D01*
X255500Y48000D02*
X262500D01*
X152500Y18000D02*
X224500D01*
X152500Y38000D02*
X224500D01*
Y18000D02*
Y38000D01*
X152500Y18000D02*
Y38000D01*
X255000Y49000D02*
Y93000D01*
X263500Y49000D02*
Y93000D01*
X255000Y49000D02*
X263500D01*
X255000Y93000D02*
X263500D01*
X264000Y43000D02*
Y56000D01*
X272000Y43000D02*
Y56000D01*
X264000Y43000D02*
X272000D01*
X264000Y56000D02*
X272000D01*
X255000Y94000D02*
Y123500D01*
X263000Y94000D02*
Y123500D01*
X255000Y94000D02*
X263000D01*
X255000Y123500D02*
X263000D01*
X50400Y224000D02*
X75500D01*
X71400D02*
X72400D01*
X71300D02*
X72200D01*
X75200Y221000D01*
X68800Y224000D02*
X69000D01*
X74300Y218700D01*
X65200Y224000D02*
X65800D01*
X73200Y216600D01*
X62400Y224000D02*
X62700D01*
X71700Y215000D01*
X59200Y224000D02*
X59400D01*
X69900Y213500D01*
X55500Y224000D02*
X55900D01*
X67700Y212200D01*
X52600Y224000D02*
X65000Y211600D01*
X50200Y222900D02*
Y224300D01*
Y222900D02*
X61700Y211400D01*
X229200Y132800D02*
Y142400D01*
X236800Y132500D02*
Y142500D01*
X187984Y237437D02*
X235622D01*
X187984Y201217D02*
Y237437D01*
Y189799D02*
Y201217D01*
Y189799D02*
X235622D01*
Y237437D01*
X141000Y215500D02*
X152500Y204000D01*
X140000Y221000D02*
X158000Y203000D01*
X140000Y221000D02*
Y222000D01*
X143500D02*
X162500Y203000D01*
X148000Y222000D02*
X166000Y204000D01*
X146500Y222000D02*
X148000D01*
X152500D02*
X169000Y205500D01*
X152000Y222000D02*
X152500D01*
X157000D02*
X171500Y207500D01*
X155000Y222000D02*
X157000D01*
X161000D02*
X173500Y209500D01*
X160500Y222000D02*
X161000D01*
X165000D02*
X175500Y211500D01*
X169000Y222000D02*
X177000Y214000D01*
X167000Y222000D02*
X169000D01*
X173500D02*
X178000Y217500D01*
X171000Y222000D02*
X173500D01*
X140000D02*
X178500D01*
X154500Y20500D02*
Y26498D01*
X156499Y24498D01*
X158499Y26498D01*
Y20500D01*
X161498Y24498D02*
X163497D01*
X164497Y23499D01*
Y20500D01*
X161498D01*
X160498Y21499D01*
X161498Y22499D01*
X164497D01*
X166496Y20500D02*
Y24498D01*
X169495D01*
X170495Y23499D01*
Y20500D01*
X172494Y26498D02*
Y20500D01*
Y23499D01*
X173494Y24498D01*
X175493D01*
X176493Y23499D01*
Y20500D01*
X178492Y26498D02*
Y20500D01*
X181491D01*
X182491Y21499D01*
Y22499D01*
X181491Y23499D01*
X178492D01*
X181491D01*
X182491Y24498D01*
Y25498D01*
X181491Y26498D01*
X178492D01*
X184490Y24498D02*
Y21499D01*
X185490Y20500D01*
X188489D01*
Y24498D01*
X190488Y20500D02*
X192488D01*
X191488D01*
Y24498D01*
X190488D01*
X195487Y19500D02*
X199485D01*
X201485Y20500D02*
X203484D01*
X202484D01*
Y26498D01*
X201485Y25498D01*
X206483Y21499D02*
X207483Y20500D01*
X209482D01*
X210482Y21499D01*
Y25498D01*
X209482Y26498D01*
X207483D01*
X206483Y25498D01*
Y24498D01*
X207483Y23499D01*
X210482D01*
X212481Y25498D02*
X213481Y26498D01*
X215480D01*
X216480Y25498D01*
Y21499D01*
X215480Y20500D01*
X213481D01*
X212481Y21499D01*
Y25498D01*
X221478Y20500D02*
Y26498D01*
X218479Y23499D01*
X222478D01*
X158499Y34998D02*
X157499Y35997D01*
X155500D01*
X154500Y34998D01*
Y30999D01*
X155500Y29999D01*
X157499D01*
X158499Y30999D01*
X160498Y33998D02*
Y29999D01*
Y31999D01*
X161498Y32998D01*
X162497Y33998D01*
X163497D01*
X169495Y29999D02*
X167496D01*
X166496Y30999D01*
Y32998D01*
X167496Y33998D01*
X169495D01*
X170495Y32998D01*
Y31999D01*
X166496D01*
X173494Y33998D02*
X175493D01*
X176493Y32998D01*
Y29999D01*
X173494D01*
X172494Y30999D01*
X173494Y31999D01*
X176493D01*
X179492Y34998D02*
Y33998D01*
X178492D01*
X180492D01*
X179492D01*
Y30999D01*
X180492Y29999D01*
X186490D02*
X184490D01*
X183491Y30999D01*
Y32998D01*
X184490Y33998D01*
X186490D01*
X187489Y32998D01*
Y31999D01*
X183491D01*
X193487Y35997D02*
Y29999D01*
X190488D01*
X189489Y30999D01*
Y32998D01*
X190488Y33998D01*
X193487D01*
X201485Y35997D02*
Y29999D01*
X204484D01*
X205484Y30999D01*
Y31999D01*
Y32998D01*
X204484Y33998D01*
X201485D01*
X207483D02*
Y30999D01*
X208483Y29999D01*
X211482D01*
Y29000D01*
X210482Y28000D01*
X209482D01*
X211482Y29999D02*
Y33998D01*
X269999Y55000D02*
X266000D01*
Y52334D01*
X269999Y48335D02*
Y51001D01*
X266000D01*
Y48335D01*
X267999Y51001D02*
Y49668D01*
X269999Y47003D02*
X266000D01*
Y45003D01*
X266666Y44337D01*
X269332D01*
X269999Y45003D01*
Y47003D01*
X260999Y121000D02*
X257000D01*
Y119001D01*
X257666Y118334D01*
X258333D01*
X258999Y119001D01*
Y121000D01*
Y119001D01*
X259666Y118334D01*
X260332D01*
X260999Y119001D01*
Y121000D01*
X259666Y116335D02*
Y115002D01*
X258999Y114336D01*
X257000D01*
Y116335D01*
X257666Y117001D01*
X258333Y116335D01*
Y114336D01*
X259666Y113003D02*
X257000D01*
X258333D01*
X258999Y112336D01*
X259666Y111670D01*
Y111003D01*
Y109004D02*
X257000D01*
X258333D01*
X258999Y108337D01*
X259666Y107671D01*
Y107004D01*
X257000Y105005D02*
Y103672D01*
Y104339D01*
X259666D01*
Y105005D01*
X257000Y99674D02*
Y101006D01*
X257666Y101673D01*
X258999D01*
X259666Y101006D01*
Y99674D01*
X258999Y99007D01*
X258333D01*
Y101673D01*
X259666Y97674D02*
X257000D01*
X258333D01*
X258999Y97008D01*
X259666Y96341D01*
Y95675D01*
X257666Y91500D02*
X261665D01*
Y89501D01*
X260999Y88834D01*
X259666D01*
X258999Y89501D01*
Y91500D01*
X261665Y87501D02*
Y86168D01*
Y86835D01*
X257666D01*
Y87501D01*
Y86168D01*
X257000Y84169D02*
Y81503D01*
X260999Y77504D02*
X261665Y78171D01*
Y79504D01*
X260999Y80170D01*
X260332D01*
X259666Y79504D01*
Y78171D01*
X258999Y77504D01*
X258333D01*
X257666Y78171D01*
Y79504D01*
X258333Y80170D01*
X257666Y74172D02*
Y75505D01*
X258333Y76172D01*
X259666D01*
X260332Y75505D01*
Y74172D01*
X259666Y73506D01*
X258999D01*
Y76172D01*
X257666Y72173D02*
X260332D01*
Y70174D01*
X259666Y69507D01*
X257666D01*
Y68174D02*
Y66175D01*
X258333Y65508D01*
X258999Y66175D01*
Y67508D01*
X259666Y68174D01*
X260332Y67508D01*
Y65508D01*
X257666Y63509D02*
Y62176D01*
X258333Y61510D01*
X259666D01*
X260332Y62176D01*
Y63509D01*
X259666Y64175D01*
X258333D01*
X257666Y63509D01*
X260332Y60177D02*
X257666D01*
X258999D01*
X259666Y59510D01*
X260332Y58844D01*
Y58177D01*
X257000Y56178D02*
Y53512D01*
X257666Y52179D02*
Y50846D01*
Y51513D01*
X261665D01*
X260999Y52179D01*
X257166Y46000D02*
X261165D01*
Y44001D01*
X260499Y43334D01*
X259166D01*
X258499Y44001D01*
Y46000D01*
X261165Y42001D02*
Y40668D01*
Y41335D01*
X257166D01*
Y42001D01*
Y40668D01*
X256500Y38669D02*
Y36003D01*
X260499Y32004D02*
X261165Y32671D01*
Y34004D01*
X260499Y34670D01*
X259832D01*
X259166Y34004D01*
Y32671D01*
X258499Y32004D01*
X257833D01*
X257166Y32671D01*
Y34004D01*
X257833Y34670D01*
X257166Y28672D02*
Y30005D01*
X257833Y30672D01*
X259166D01*
X259832Y30005D01*
Y28672D01*
X259166Y28006D01*
X258499D01*
Y30672D01*
X257166Y26673D02*
X259832D01*
Y24674D01*
X259166Y24007D01*
X257166D01*
Y22674D02*
Y20675D01*
X257833Y20008D01*
X258499Y20675D01*
Y22008D01*
X259166Y22674D01*
X259832Y22008D01*
Y20008D01*
X257166Y18009D02*
Y16676D01*
X257833Y16010D01*
X259166D01*
X259832Y16676D01*
Y18009D01*
X259166Y18676D01*
X257833D01*
X257166Y18009D01*
X259832Y14677D02*
X257166D01*
X258499D01*
X259166Y14010D01*
X259832Y13344D01*
Y12677D01*
X256500Y10678D02*
Y8012D01*
X257166Y4014D02*
Y6679D01*
X259832Y4014D01*
X260499D01*
X261165Y4680D01*
Y6013D01*
X260499Y6679D01*
X103001Y160000D02*
Y157500D01*
X103501Y157001D01*
X104500D01*
X105000Y157500D01*
Y160000D01*
X107499Y157001D02*
Y160000D01*
X106000Y158500D01*
X107999D01*
X237501Y159500D02*
Y157000D01*
X238001Y156500D01*
X239000D01*
X239500Y157000D01*
Y159500D01*
X242499Y156500D02*
X240500D01*
X242499Y158500D01*
Y159000D01*
X241999Y159500D01*
X241000D01*
X240500Y159000D01*
X123501Y202999D02*
Y200500D01*
X124001Y200001D01*
X125000D01*
X125500Y200500D01*
Y202999D01*
X126500Y200001D02*
X127499D01*
X126999D01*
Y202999D01*
X126500Y202500D01*
X224000Y154499D02*
X224500Y154999D01*
Y155999D01*
X224000Y156499D01*
X223500D01*
X223000Y155999D01*
Y154999D01*
X222500Y154499D01*
X222000D01*
X221500Y154999D01*
Y155999D01*
X222000Y156499D01*
X224500Y153500D02*
X221500D01*
X222500Y152500D01*
X221500Y151500D01*
X224500D01*
X221500Y150501D02*
Y149501D01*
Y150001D01*
X224500D01*
X224000Y150501D01*
X67001Y21001D02*
Y24000D01*
X68501D01*
X69001Y23500D01*
Y22500D01*
X68501Y22000D01*
X67001D01*
X68001D02*
X69001Y21001D01*
X72000D02*
X70000D01*
X72000Y23000D01*
Y23500D01*
X71500Y24000D01*
X70500D01*
X70000Y23500D01*
X72999D02*
X73499Y24000D01*
X74499D01*
X74999Y23500D01*
Y23000D01*
X74499Y22500D01*
X73999D01*
X74499D01*
X74999Y22000D01*
Y21500D01*
X74499Y21001D01*
X73499D01*
X72999Y21500D01*
X137001Y55501D02*
Y58499D01*
X138501D01*
X139001Y58000D01*
Y57000D01*
X138501Y56500D01*
X137001D01*
X138001D02*
X139001Y55501D01*
X142000D02*
X140000D01*
X142000Y57500D01*
Y58000D01*
X141500Y58499D01*
X140500D01*
X140000Y58000D01*
X144999Y55501D02*
X142999D01*
X144999Y57500D01*
Y58000D01*
X144499Y58499D01*
X143499D01*
X142999Y58000D01*
X172001Y55501D02*
Y58499D01*
X173501D01*
X174001Y58000D01*
Y57000D01*
X173501Y56500D01*
X172001D01*
X173001D02*
X174001Y55501D01*
X176999D02*
X175000D01*
X176999Y57500D01*
Y58000D01*
X176500Y58499D01*
X175500D01*
X175000Y58000D01*
X177999Y55501D02*
X178999D01*
X178499D01*
Y58499D01*
X177999Y58000D01*
X205001Y57000D02*
Y60000D01*
X206501D01*
X207001Y59500D01*
Y58500D01*
X206501Y58000D01*
X205001D01*
X206001D02*
X207001Y57000D01*
X210000D02*
X208000D01*
X210000Y59000D01*
Y59500D01*
X209500Y60000D01*
X208500D01*
X208000Y59500D01*
X210999D02*
X211499Y60000D01*
X212499D01*
X212999Y59500D01*
Y57500D01*
X212499Y57000D01*
X211499D01*
X210999Y57500D01*
Y59500D01*
X66751Y40501D02*
Y43499D01*
X68251D01*
X68751Y43000D01*
Y42000D01*
X68251Y41500D01*
X66751D01*
X67751D02*
X68751Y40501D01*
X69750D02*
X70750D01*
X70250D01*
Y43499D01*
X69750Y43000D01*
X72249Y41000D02*
X72749Y40501D01*
X73749D01*
X74249Y41000D01*
Y43000D01*
X73749Y43499D01*
X72749D01*
X72249Y43000D01*
Y42500D01*
X72749Y42000D01*
X74249D01*
X66751Y60000D02*
Y62999D01*
X68251D01*
X68751Y62500D01*
Y61500D01*
X68251Y61000D01*
X66751D01*
X67751D02*
X68751Y60000D01*
X69750D02*
X70750D01*
X70250D01*
Y62999D01*
X69750Y62500D01*
X72249D02*
X72749Y62999D01*
X73749D01*
X74249Y62500D01*
Y62000D01*
X73749Y61500D01*
X74249Y61000D01*
Y60500D01*
X73749Y60000D01*
X72749D01*
X72249Y60500D01*
Y61000D01*
X72749Y61500D01*
X72249Y62000D01*
Y62500D01*
X72749Y61500D02*
X73749D01*
X137751Y90500D02*
Y93499D01*
X139251D01*
X139751Y93000D01*
Y92000D01*
X139251Y91500D01*
X137751D01*
X138751D02*
X139751Y90500D01*
X140750D02*
X141750D01*
X141250D01*
Y93499D01*
X140750Y93000D01*
X143249Y93499D02*
X145249D01*
Y93000D01*
X143249Y91000D01*
Y90500D01*
X171751D02*
Y93499D01*
X173251D01*
X173751Y93000D01*
Y92000D01*
X173251Y91500D01*
X171751D01*
X172751D02*
X173751Y90500D01*
X174750D02*
X175750D01*
X175250D01*
Y93499D01*
X174750Y93000D01*
X179249Y93499D02*
X178249Y93000D01*
X177249Y92000D01*
Y91000D01*
X177749Y90500D01*
X178749D01*
X179249Y91000D01*
Y91500D01*
X178749Y92000D01*
X177249D01*
X204251Y91000D02*
Y93999D01*
X205751D01*
X206251Y93500D01*
Y92500D01*
X205751Y92000D01*
X204251D01*
X205251D02*
X206251Y91000D01*
X207250D02*
X208250D01*
X207750D01*
Y93999D01*
X207250Y93500D01*
X211749Y93999D02*
X209749D01*
Y92500D01*
X210749Y93000D01*
X211249D01*
X211749Y92500D01*
Y91500D01*
X211249Y91000D01*
X210249D01*
X209749Y91500D01*
X129251Y97000D02*
Y99999D01*
X130751D01*
X131251Y99500D01*
Y98500D01*
X130751Y98000D01*
X129251D01*
X130251D02*
X131251Y97000D01*
X132250D02*
X133250D01*
X132750D01*
Y99999D01*
X132250Y99500D01*
X136249Y97000D02*
Y99999D01*
X134749Y98500D01*
X136749D01*
X138751Y97000D02*
Y99999D01*
X140251D01*
X140751Y99500D01*
Y98500D01*
X140251Y98000D01*
X138751D01*
X139751D02*
X140751Y97000D01*
X141750D02*
X142750D01*
X142250D01*
Y99999D01*
X141750Y99500D01*
X144249D02*
X144749Y99999D01*
X145749D01*
X146249Y99500D01*
Y99000D01*
X145749Y98500D01*
X145249D01*
X145749D01*
X146249Y98000D01*
Y97500D01*
X145749Y97000D01*
X144749D01*
X144249Y97500D01*
X149751Y97500D02*
Y100499D01*
X151251D01*
X151751Y100000D01*
Y99000D01*
X151251Y98500D01*
X149751D01*
X150751D02*
X151751Y97500D01*
X152750D02*
X153750D01*
X153250D01*
Y100499D01*
X152750Y100000D01*
X157249Y97500D02*
X155249D01*
X157249Y99500D01*
Y100000D01*
X156749Y100499D01*
X155749D01*
X155249Y100000D01*
X101251Y181000D02*
Y184000D01*
X102751D01*
X103250Y183500D01*
Y182500D01*
X102751Y182000D01*
X101251D01*
X102251D02*
X103250Y181000D01*
X104250D02*
X105250D01*
X104750D01*
Y184000D01*
X104250Y183500D01*
X106749Y181000D02*
X107749D01*
X107249D01*
Y184000D01*
X106749Y183500D01*
X84751Y181000D02*
Y184000D01*
X86251D01*
X86751Y183500D01*
Y182500D01*
X86251Y182000D01*
X84751D01*
X85751D02*
X86751Y181000D01*
X87750D02*
X88750D01*
X88250D01*
Y184000D01*
X87750Y183500D01*
X90249D02*
X90749Y184000D01*
X91749D01*
X92249Y183500D01*
Y181500D01*
X91749Y181000D01*
X90749D01*
X90249Y181500D01*
Y183500D01*
X240001Y141880D02*
Y144879D01*
X241500D01*
X242000Y144379D01*
Y143379D01*
X241500Y142880D01*
X240001D01*
X241001D02*
X242000Y141880D01*
X243000Y142380D02*
X243500Y141880D01*
X244499D01*
X244999Y142380D01*
Y144379D01*
X244499Y144879D01*
X243500D01*
X243000Y144379D01*
Y143879D01*
X243500Y143379D01*
X244999D01*
X93501Y71500D02*
Y74499D01*
X95000D01*
X95500Y74000D01*
Y73000D01*
X95000Y72500D01*
X93501D01*
X94500D02*
X95500Y71500D01*
X96500Y74000D02*
X97000Y74499D01*
X97999D01*
X98499Y74000D01*
Y73500D01*
X97999Y73000D01*
X98499Y72500D01*
Y72000D01*
X97999Y71500D01*
X97000D01*
X96500Y72000D01*
Y72500D01*
X97000Y73000D01*
X96500Y73500D01*
Y74000D01*
X97000Y73000D02*
X97999D01*
X84501Y71500D02*
Y74499D01*
X86000D01*
X86500Y74000D01*
Y73000D01*
X86000Y72500D01*
X84501D01*
X85501D02*
X86500Y71500D01*
X87500Y74499D02*
X89499D01*
Y74000D01*
X87500Y72000D01*
Y71500D01*
X74800Y107800D02*
Y110799D01*
X76300D01*
X76799Y110299D01*
Y109300D01*
X76300Y108800D01*
X74800D01*
X75800D02*
X76799Y107800D01*
X79798Y110799D02*
X78799Y110299D01*
X77799Y109300D01*
Y108300D01*
X78299Y107800D01*
X79299D01*
X79798Y108300D01*
Y108800D01*
X79299Y109300D01*
X77799D01*
X284501Y155500D02*
Y158500D01*
X286000D01*
X286500Y158000D01*
Y157000D01*
X286000Y156500D01*
X284501D01*
X285501D02*
X286500Y155500D01*
X289499Y158500D02*
X287500D01*
Y157000D01*
X288499Y157500D01*
X288999D01*
X289499Y157000D01*
Y156000D01*
X288999Y155500D01*
X288000D01*
X287500Y156000D01*
X130001Y71500D02*
Y74499D01*
X131500D01*
X132000Y74000D01*
Y73000D01*
X131500Y72500D01*
X130001D01*
X131000D02*
X132000Y71500D01*
X134499D02*
Y74499D01*
X133000Y73000D01*
X134999D01*
X121001Y72000D02*
Y74999D01*
X122500D01*
X123000Y74500D01*
Y73500D01*
X122500Y73000D01*
X121001D01*
X122001D02*
X123000Y72000D01*
X124000Y74500D02*
X124500Y74999D01*
X125499D01*
X125999Y74500D01*
Y74000D01*
X125499Y73500D01*
X124999D01*
X125499D01*
X125999Y73000D01*
Y72500D01*
X125499Y72000D01*
X124500D01*
X124000Y72500D01*
X112501Y71500D02*
Y74499D01*
X114000D01*
X114500Y74000D01*
Y73000D01*
X114000Y72500D01*
X112501D01*
X113500D02*
X114500Y71500D01*
X117499D02*
X115500D01*
X117499Y73500D01*
Y74000D01*
X116999Y74499D01*
X116000D01*
X115500Y74000D01*
X103501Y71500D02*
Y74499D01*
X105000D01*
X105500Y74000D01*
Y73000D01*
X105000Y72500D01*
X103501D01*
X104500D02*
X105500Y71500D01*
X106500D02*
X107499D01*
X107000D01*
Y74499D01*
X106500Y74000D01*
X284501Y192999D02*
Y190000D01*
X286500D01*
X289499D02*
X287500D01*
X289499Y192000D01*
Y192500D01*
X288999Y192999D01*
X288000D01*
X287500Y192500D01*
X193001Y177999D02*
Y175001D01*
X195000D01*
X196000D02*
X196999D01*
X196500D01*
Y177999D01*
X196000Y177500D01*
X9001Y187499D02*
X8001D01*
X8501D01*
Y185000D01*
X8001Y184501D01*
X7501D01*
X7001Y185000D01*
X10000Y184501D02*
Y187499D01*
X11500D01*
X11999Y187000D01*
Y186000D01*
X11500Y185500D01*
X10000D01*
X12999Y184501D02*
X13999D01*
X13499D01*
Y187499D01*
X12999Y187000D01*
X8003Y203500D02*
X7003D01*
X7503D01*
Y201000D01*
X7003Y200500D01*
X6503D01*
X6004Y201000D01*
X9003Y200500D02*
Y202500D01*
X10002Y203500D01*
X11002Y202500D01*
Y200500D01*
Y202000D01*
X9003D01*
X14001Y203000D02*
X13501Y203500D01*
X12502D01*
X12002Y203000D01*
Y201000D01*
X12502Y200500D01*
X13501D01*
X14001Y201000D01*
X15001Y203500D02*
Y200500D01*
Y201500D01*
X17000Y203500D01*
X15500Y202000D01*
X17000Y200500D01*
X20999Y203500D02*
Y200500D01*
X22498D01*
X22998Y201000D01*
Y203000D01*
X22498Y203500D01*
X20999D01*
X25997Y203000D02*
X25497Y203500D01*
X24498D01*
X23998Y203000D01*
Y201000D01*
X24498Y200500D01*
X25497D01*
X25997Y201000D01*
X26997Y200500D02*
X27996D01*
X27497D01*
Y203500D01*
X26997Y203000D01*
X31251Y131500D02*
X32251D01*
X31751D01*
Y128500D01*
X31251D01*
X32251D01*
X35750Y131000D02*
X35250Y131500D01*
X34250D01*
X33750Y131000D01*
Y129000D01*
X34250Y128500D01*
X35250D01*
X35750Y129000D01*
X38749Y131500D02*
X37749Y131000D01*
X36749Y130000D01*
Y129000D01*
X37249Y128500D01*
X38249D01*
X38749Y129000D01*
Y129500D01*
X38249Y130000D01*
X36749D01*
X151751Y55999D02*
X152751D01*
X152251D01*
Y53000D01*
X151751D01*
X152751D01*
X156250Y55500D02*
X155750Y55999D01*
X154750D01*
X154250Y55500D01*
Y53500D01*
X154750Y53000D01*
X155750D01*
X156250Y53500D01*
X159249Y55999D02*
X157249D01*
Y54500D01*
X158249Y55000D01*
X158749D01*
X159249Y54500D01*
Y53500D01*
X158749Y53000D01*
X157749D01*
X157249Y53500D01*
X185251Y55500D02*
X186251D01*
X185751D01*
Y52500D01*
X185251D01*
X186251D01*
X189750Y55000D02*
X189250Y55500D01*
X188250D01*
X187750Y55000D01*
Y53000D01*
X188250Y52500D01*
X189250D01*
X189750Y53000D01*
X192249Y52500D02*
Y55500D01*
X190749Y54000D01*
X192749D01*
X219751Y55999D02*
X220751D01*
X220251D01*
Y53000D01*
X219751D01*
X220751D01*
X224250Y55500D02*
X223750Y55999D01*
X222750D01*
X222250Y55500D01*
Y53500D01*
X222750Y53000D01*
X223750D01*
X224250Y53500D01*
X225249Y55500D02*
X225749Y55999D01*
X226749D01*
X227249Y55500D01*
Y55000D01*
X226749Y54500D01*
X226249D01*
X226749D01*
X227249Y54000D01*
Y53500D01*
X226749Y53000D01*
X225749D01*
X225249Y53500D01*
X39251Y194000D02*
X40251D01*
X39751D01*
Y191000D01*
X39251D01*
X40251D01*
X43750Y193500D02*
X43250Y194000D01*
X42250D01*
X41750Y193500D01*
Y191500D01*
X42250Y191000D01*
X43250D01*
X43750Y191500D01*
X46749Y191000D02*
X44749D01*
X46749Y193000D01*
Y193500D01*
X46249Y194000D01*
X45249D01*
X44749Y193500D01*
X85251Y153999D02*
X86251D01*
X85751D01*
Y151000D01*
X85251D01*
X86251D01*
X89750Y153500D02*
X89250Y153999D01*
X88250D01*
X87750Y153500D01*
Y151500D01*
X88250Y151000D01*
X89250D01*
X89750Y151500D01*
X90749Y151000D02*
X91749D01*
X91249D01*
Y153999D01*
X90749Y153500D01*
X2501Y121500D02*
Y118500D01*
Y120000D01*
X4500D01*
Y121500D01*
Y118500D01*
X5500Y121000D02*
X6000Y121500D01*
X6999D01*
X7499Y121000D01*
Y120500D01*
X6999Y120000D01*
X6499D01*
X6999D01*
X7499Y119500D01*
Y119000D01*
X6999Y118500D01*
X6000D01*
X5500Y119000D01*
X26600Y89499D02*
Y86500D01*
Y87999D01*
X28599D01*
Y89499D01*
Y86500D01*
X31099D02*
Y89499D01*
X29599Y87999D01*
X31598D01*
X26001Y5000D02*
Y2001D01*
Y3500D01*
X28000D01*
Y5000D01*
Y2001D01*
X30999D02*
X29000D01*
X30999Y4000D01*
Y4500D01*
X30499Y5000D01*
X29500D01*
X29000Y4500D01*
X26001Y46499D02*
Y43501D01*
Y45000D01*
X28000D01*
Y46499D01*
Y43501D01*
X29000D02*
X29999D01*
X29500D01*
Y46499D01*
X29000Y46000D01*
X145501Y179499D02*
Y176500D01*
X147000D01*
X147500Y177000D01*
Y179000D01*
X147000Y179499D01*
X145501D01*
X148500Y176500D02*
X149499D01*
X149000D01*
Y179499D01*
X148500Y179000D01*
X268599Y153899D02*
X268099Y154399D01*
X267100D01*
X266600Y153899D01*
Y151900D01*
X267100Y151400D01*
X268099D01*
X268599Y151900D01*
X269599Y151400D02*
X270599D01*
X270099D01*
Y154399D01*
X269599Y153899D01*
X274098Y154399D02*
X272098D01*
Y152900D01*
X273098Y153399D01*
X273598D01*
X274098Y152900D01*
Y151900D01*
X273598Y151400D01*
X272598D01*
X272098Y151900D01*
X278599Y153899D02*
X278099Y154399D01*
X277100D01*
X276600Y153899D01*
Y151900D01*
X277100Y151400D01*
X278099D01*
X278599Y151900D01*
X279599Y151400D02*
X280599D01*
X280099D01*
Y154399D01*
X279599Y153899D01*
X283598Y151400D02*
Y154399D01*
X282098Y152900D01*
X284098D01*
X234749Y122500D02*
X235249Y122001D01*
X236249D01*
X236749Y122500D01*
Y124500D01*
X236249Y124999D01*
X235249D01*
X234749Y124500D01*
X233750Y124999D02*
X232750D01*
X233250D01*
Y122001D01*
X233750Y122500D01*
X231251D02*
X230751Y122001D01*
X229751D01*
X229251Y122500D01*
Y123000D01*
X229751Y123500D01*
X230251D01*
X229751D01*
X229251Y124000D01*
Y124500D01*
X229751Y124999D01*
X230751D01*
X231251Y124500D01*
X258751Y144900D02*
X258251Y145399D01*
X257251D01*
X256751Y144900D01*
Y142900D01*
X257251Y142401D01*
X258251D01*
X258751Y142900D01*
X259750Y142401D02*
X260750D01*
X260250D01*
Y145399D01*
X259750Y144900D01*
X264249Y142401D02*
X262249D01*
X264249Y144400D01*
Y144900D01*
X263749Y145399D01*
X262749D01*
X262249Y144900D01*
X249750D02*
X249251Y145399D01*
X248251D01*
X247751Y144900D01*
Y142900D01*
X248251Y142401D01*
X249251D01*
X249750Y142900D01*
X250750Y142401D02*
X251750D01*
X251250D01*
Y145399D01*
X250750Y144900D01*
X253249Y142401D02*
X254249D01*
X253749D01*
Y145399D01*
X253249Y144900D01*
X94751Y115110D02*
X94251Y115610D01*
X93251D01*
X92751Y115110D01*
Y113111D01*
X93251Y112611D01*
X94251D01*
X94751Y113111D01*
X95750Y112611D02*
X96750D01*
X96250D01*
Y115610D01*
X95750Y115110D01*
X98249D02*
X98749Y115610D01*
X99749D01*
X100249Y115110D01*
Y113111D01*
X99749Y112611D01*
X98749D01*
X98249Y113111D01*
Y115110D01*
X86000Y115504D02*
X85500Y116004D01*
X84501D01*
X84001Y115504D01*
Y113504D01*
X84501Y113004D01*
X85500D01*
X86000Y113504D01*
X87000D02*
X87500Y113004D01*
X88499D01*
X88999Y113504D01*
Y115504D01*
X88499Y116004D01*
X87500D01*
X87000Y115504D01*
Y115004D01*
X87500Y114504D01*
X88999D01*
X66000Y139500D02*
X65500Y139999D01*
X64501D01*
X64001Y139500D01*
Y137500D01*
X64501Y137001D01*
X65500D01*
X66000Y137500D01*
X67000Y139500D02*
X67500Y139999D01*
X68499D01*
X68999Y139500D01*
Y139000D01*
X68499Y138500D01*
X68999Y138000D01*
Y137500D01*
X68499Y137001D01*
X67500D01*
X67000Y137500D01*
Y138000D01*
X67500Y138500D01*
X67000Y139000D01*
Y139500D01*
X67500Y138500D02*
X68499D01*
X66000Y132500D02*
X65500Y133000D01*
X64501D01*
X64001Y132500D01*
Y130500D01*
X64501Y130000D01*
X65500D01*
X66000Y130500D01*
X67000Y133000D02*
X68999D01*
Y132500D01*
X67000Y130500D01*
Y130000D01*
X143000Y201000D02*
X142500Y201500D01*
X141501D01*
X141001Y201000D01*
Y199000D01*
X141501Y198501D01*
X142500D01*
X143000Y199000D01*
X145999Y201500D02*
X145000Y201000D01*
X144000Y200000D01*
Y199000D01*
X144500Y198501D01*
X145499D01*
X145999Y199000D01*
Y199500D01*
X145499Y200000D01*
X144000D01*
X268000Y162500D02*
X267500Y162999D01*
X266501D01*
X266001Y162500D01*
Y160500D01*
X266501Y160001D01*
X267500D01*
X268000Y160500D01*
X270999Y162999D02*
X269000D01*
Y161500D01*
X270000Y162000D01*
X270499D01*
X270999Y161500D01*
Y160500D01*
X270499Y160001D01*
X269500D01*
X269000Y160500D01*
X277000Y163000D02*
X276500Y163499D01*
X275501D01*
X275001Y163000D01*
Y161000D01*
X275501Y160501D01*
X276500D01*
X277000Y161000D01*
X279499Y160501D02*
Y163499D01*
X278000Y162000D01*
X279999D01*
X255000Y224000D02*
X254500Y224500D01*
X253501D01*
X253001Y224000D01*
Y222000D01*
X253501Y221500D01*
X254500D01*
X255000Y222000D01*
X256000Y224000D02*
X256500Y224500D01*
X257499D01*
X257999Y224000D01*
Y223500D01*
X257499Y223000D01*
X256999D01*
X257499D01*
X257999Y222500D01*
Y222000D01*
X257499Y221500D01*
X256500D01*
X256000Y222000D01*
X243000Y224000D02*
X242500Y224500D01*
X241501D01*
X241001Y224000D01*
Y222000D01*
X241501Y221500D01*
X242500D01*
X243000Y222000D01*
X245999Y221500D02*
X244000D01*
X245999Y223500D01*
Y224000D01*
X245499Y224500D01*
X244500D01*
X244000Y224000D01*
X53500Y241000D02*
X53000Y241499D01*
X52000D01*
X51501Y241000D01*
Y239000D01*
X52000Y238500D01*
X53000D01*
X53500Y239000D01*
X54500Y238500D02*
X55499D01*
X55000D01*
Y241499D01*
X54500Y241000D01*
D11*
X94406Y155413D02*
G03*
X94406Y155413I-492J0D01*
G01*
X68839Y192701D02*
G03*
X68839Y192701I-492J0D01*
G01*
D12*
X75413Y183449D02*
G03*
X75413Y183449I-1181J0D01*
G01*
D13*
X216326Y130136D02*
G03*
X215500Y130083I-826J6447D01*
G01*
X57617Y45461D02*
X59417D01*
X57617Y40061D02*
X59417D01*
X57617Y64961D02*
X59417D01*
X57617Y59561D02*
X59417D01*
X57617Y25461D02*
X59417D01*
X57617Y20061D02*
X59417D01*
X145900Y57000D02*
Y94600D01*
Y57000D02*
X146000Y57100D01*
X166500D01*
Y97000D01*
X146000D02*
X166500D01*
X145900Y96900D02*
X146000Y97000D01*
X145900Y94600D02*
Y96900D01*
X162800Y57100D02*
X164200Y57200D01*
X180400Y57000D02*
Y94600D01*
Y57000D02*
X180500Y57100D01*
X201000D01*
Y97000D01*
X180500D02*
X201000D01*
X180400Y96900D02*
X180500Y97000D01*
X180400Y94600D02*
Y96900D01*
X197300Y57100D02*
X198700Y57200D01*
X156461Y107583D02*
Y109383D01*
X151061Y107583D02*
Y109383D01*
X213900Y57000D02*
Y94600D01*
Y57000D02*
X214000Y57100D01*
X234500D01*
Y97000D01*
X214000D02*
X234500D01*
X213900Y96900D02*
X214000Y97000D01*
X213900Y94600D02*
Y96900D01*
X230800Y57100D02*
X232200Y57200D01*
X145961Y107583D02*
Y109383D01*
X140561Y107583D02*
Y109383D01*
X135961Y107583D02*
Y109383D01*
X130561Y107583D02*
Y109383D01*
X206039Y67116D02*
Y68916D01*
X211439Y67116D02*
Y68916D01*
X138039Y66116D02*
Y67917D01*
X143439Y66116D02*
Y67917D01*
X138039Y81616D02*
Y83416D01*
X143439Y81616D02*
Y83416D01*
X172539Y81616D02*
Y83416D01*
X177939Y81616D02*
Y83416D01*
X172539Y66116D02*
Y67917D01*
X177939Y66116D02*
Y67917D01*
X121039Y81616D02*
Y83416D01*
X126439Y81616D02*
Y83416D01*
X112039Y81616D02*
Y83416D01*
X117439Y81616D02*
Y83416D01*
X103039Y81616D02*
Y83416D01*
X108439Y81616D02*
Y83416D01*
X129539Y81616D02*
Y83416D01*
X134939Y81616D02*
Y83416D01*
X206039Y82117D02*
Y83916D01*
X211439Y82117D02*
Y83916D01*
X98961Y81583D02*
Y83384D01*
X93561Y81583D02*
Y83384D01*
X89461Y81583D02*
Y83384D01*
X84061Y81583D02*
Y83384D01*
X75039Y96617D02*
Y98417D01*
X80439Y96617D02*
Y98417D01*
X262687Y132984D02*
Y134783D01*
X257287Y132984D02*
Y134783D01*
X239539Y133006D02*
Y134806D01*
X244939Y133006D02*
Y134806D01*
X284039Y165617D02*
Y167417D01*
X289439Y165617D02*
Y167417D01*
X-10772Y213000D02*
Y246000D01*
X-17772Y213000D02*
X36728D01*
X-17772Y246000D02*
X36728D01*
Y213000D02*
Y246000D01*
X-17772Y213000D02*
Y246000D01*
X87584Y172539D02*
X89384D01*
X87584Y177939D02*
X89384D01*
X103084Y172539D02*
X104884D01*
X103084Y177939D02*
X104884D01*
X253687Y132984D02*
Y134783D01*
X248287Y132984D02*
Y134783D01*
X228000Y124000D02*
Y149000D01*
X203000Y124000D02*
X228000D01*
X203000D02*
Y149000D01*
X228000D01*
X153000Y185400D02*
Y187000D01*
Y189100D01*
X157100Y182000D02*
Y191700D01*
X150000Y187000D02*
X153000D01*
X168000D02*
X171000D01*
X153000Y180902D02*
Y187000D01*
Y180902D02*
X168000D01*
Y193500D01*
X153000D02*
X168000D01*
X153000Y187000D02*
Y193500D01*
D14*
X187731Y121500D02*
X189269D01*
X177731D02*
X179269D01*
X167731D02*
X169269D01*
X157731D02*
X159269D01*
X147731D02*
X149269D01*
X137731D02*
X139269D01*
X127731D02*
X129269D01*
X117731D02*
X119269D01*
X107731D02*
X109269D01*
X95000Y150500D02*
X99269D01*
X107731D02*
X109269D01*
X117731D02*
X119269D01*
X127731D02*
X129269D01*
X137731D02*
X139269D01*
X147731D02*
X149269D01*
X157731D02*
X159269D01*
X167731D02*
X169269D01*
X177731D02*
X179269D01*
X187731D02*
X189240D01*
X197760D02*
X202000D01*
Y121500D02*
Y150500D01*
X95000Y121500D02*
X99269D01*
X95000D02*
Y150500D01*
X197731Y121500D02*
X202000D01*
X40976Y94161D02*
Y95109D01*
Y126891D02*
Y127839D01*
X64024D01*
Y94161D02*
Y95109D01*
X40976Y94161D02*
X64024D01*
Y126891D02*
Y127839D01*
D15*
X62500Y129000D02*
Y131100D01*
X41500Y129000D02*
X62500D01*
X50600Y135900D02*
X53400D01*
X50600Y130200D02*
X53400D01*
X41500Y129000D02*
Y137000D01*
X62500D01*
Y131100D02*
Y137000D01*
X51610Y39200D02*
Y46300D01*
Y39200D02*
X57056D01*
X51610Y46300D02*
X57056D01*
X60107D02*
X65390D01*
Y39200D02*
Y46300D01*
X60107Y39200D02*
X65390D01*
X51610Y58700D02*
Y65800D01*
Y58700D02*
X57056D01*
X51610Y65800D02*
X57056D01*
X60107D02*
X65390D01*
Y58700D02*
Y65800D01*
X60107Y58700D02*
X65390D01*
X51610Y19200D02*
Y26300D01*
Y19200D02*
X57056D01*
X51610Y26300D02*
X57056D01*
X60107D02*
X65390D01*
Y19200D02*
Y26300D01*
X60107Y19200D02*
X65390D01*
X150200Y115390D02*
X157300D01*
X150200Y109944D02*
Y115390D01*
X157300Y109944D02*
Y115390D01*
Y101610D02*
Y106893D01*
X150200Y101610D02*
X157300D01*
X150200D02*
Y106893D01*
X139700Y115390D02*
X146800D01*
X139700Y109944D02*
Y115390D01*
X146800Y109944D02*
Y115390D01*
Y101610D02*
Y106893D01*
X139700Y101610D02*
X146800D01*
X139700D02*
Y106893D01*
X129700Y115390D02*
X136800D01*
X129700Y109944D02*
Y115390D01*
X136800Y109944D02*
Y115390D01*
Y101610D02*
Y106893D01*
X129700Y101610D02*
X136800D01*
X129700D02*
Y106893D01*
X205200Y61110D02*
X212300D01*
Y66556D01*
X205200Y61110D02*
Y66556D01*
Y69607D02*
Y74890D01*
X212300D01*
Y69607D02*
Y74890D01*
X137200Y60110D02*
X144300D01*
Y65556D01*
X137200Y60110D02*
Y65556D01*
Y68607D02*
Y73890D01*
X144300D01*
Y68607D02*
Y73890D01*
X137200Y75610D02*
X144300D01*
Y81056D01*
X137200Y75610D02*
Y81056D01*
Y84107D02*
Y89390D01*
X144300D01*
Y84107D02*
Y89390D01*
X171700Y75610D02*
X178800D01*
Y81056D01*
X171700Y75610D02*
Y81056D01*
Y84107D02*
Y89390D01*
X178800D01*
Y84107D02*
Y89390D01*
X171700Y60110D02*
X178800D01*
Y65556D01*
X171700Y60110D02*
Y65556D01*
Y68607D02*
Y73890D01*
X178800D01*
Y68607D02*
Y73890D01*
X120200Y75610D02*
X127300D01*
Y81056D01*
X120200Y75610D02*
Y81056D01*
Y84107D02*
Y89390D01*
X127300D01*
Y84107D02*
Y89390D01*
X111200Y75610D02*
X118300D01*
Y81056D01*
X111200Y75610D02*
Y81056D01*
Y84107D02*
Y89390D01*
X118300D01*
Y84107D02*
Y89390D01*
X102200Y75610D02*
X109300D01*
Y81056D01*
X102200Y75610D02*
Y81056D01*
Y84107D02*
Y89390D01*
X109300D01*
Y84107D02*
Y89390D01*
X128700Y75610D02*
X135800D01*
Y81056D01*
X128700Y75610D02*
Y81056D01*
Y84107D02*
Y89390D01*
X135800D01*
Y84107D02*
Y89390D01*
X205200Y76110D02*
X212300D01*
Y81556D01*
X205200Y76110D02*
Y81556D01*
Y84607D02*
Y89890D01*
X212300D01*
Y84607D02*
Y89890D01*
X92700Y89390D02*
X99800D01*
X92700Y83944D02*
Y89390D01*
X99800Y83944D02*
Y89390D01*
Y75610D02*
Y80893D01*
X92700Y75610D02*
X99800D01*
X92700D02*
Y80893D01*
X83200Y89390D02*
X90300D01*
X83200Y83944D02*
Y89390D01*
X90300Y83944D02*
Y89390D01*
Y75610D02*
Y80893D01*
X83200Y75610D02*
X90300D01*
X83200D02*
Y80893D01*
X74200Y90610D02*
X81300D01*
Y96056D01*
X74200Y90610D02*
Y96056D01*
Y99107D02*
Y104390D01*
X81300D01*
Y99107D02*
Y104390D01*
X92500Y90610D02*
X94600D01*
X92500D02*
Y111610D01*
X99400Y99710D02*
Y102510D01*
X93700Y99710D02*
Y102510D01*
X92500Y111610D02*
X100500D01*
Y90610D02*
Y111610D01*
X94600Y90610D02*
X100500D01*
X88542Y111610D02*
X90642D01*
Y90610D02*
Y111610D01*
X83742Y99710D02*
Y102510D01*
X89442Y99710D02*
Y102510D01*
X82643Y90610D02*
X90642D01*
X82643D02*
Y111610D01*
X88542D01*
X41500Y144400D02*
Y146500D01*
X62500D01*
X50600Y139600D02*
X53400D01*
X50600Y145300D02*
X53400D01*
X62500Y138500D02*
Y146500D01*
X41500Y138500D02*
X62500D01*
X41500D02*
Y144400D01*
X263500Y127000D02*
Y132293D01*
Y135344D02*
Y140800D01*
X256500Y135344D02*
Y140800D01*
Y127000D02*
Y132293D01*
Y140800D02*
X263500D01*
X256500Y127000D02*
X263500D01*
X238700D02*
X245800D01*
Y132446D01*
X238700Y127000D02*
Y132446D01*
Y135497D02*
Y140779D01*
X245800D01*
Y135497D02*
Y140779D01*
X283200Y159610D02*
X290300D01*
Y165056D01*
X283200Y159610D02*
Y165056D01*
Y168107D02*
Y173390D01*
X290300D01*
Y168107D02*
Y173390D01*
X279400Y185500D02*
X281500D01*
Y164500D02*
Y185500D01*
X274600Y173600D02*
Y176400D01*
X280300Y173600D02*
Y176400D01*
X273500Y164500D02*
X281500D01*
X273500D02*
Y185500D01*
X279400D01*
X251500Y199000D02*
X253600D01*
X251500D02*
Y220000D01*
X258400Y208100D02*
Y210900D01*
X252700Y208100D02*
Y210900D01*
X251500Y220000D02*
X259500D01*
Y199000D02*
Y220000D01*
X253600Y199000D02*
X259500D01*
X245400Y220000D02*
X247500D01*
Y199000D02*
Y220000D01*
X240600Y208100D02*
Y210900D01*
X246300Y208100D02*
Y210900D01*
X239500Y199000D02*
X247500D01*
X239500D02*
Y220000D01*
X245400D01*
X-17405Y176500D02*
X-15739Y174833D01*
X-17405Y166500D02*
X-15739Y168167D01*
X-17405Y166500D02*
X-15739Y164833D01*
X-17405Y176500D02*
X-15739Y178167D01*
X13761Y181333D02*
X15428Y179667D01*
X15595Y121500D02*
Y181500D01*
X5595D02*
X15595D01*
X5595Y121500D02*
X15595D01*
X5595D02*
Y181500D01*
X-15739Y178167D02*
X5494D01*
X-15739Y174833D02*
X5595D01*
X-15739Y168167D02*
X5494D01*
X-15739Y164833D02*
X5494D01*
X-17405Y156500D02*
X-15739Y154833D01*
X-17405Y146500D02*
X-15739Y148167D01*
X-17405Y146500D02*
X-15739Y144833D01*
X-17405Y156500D02*
X-15739Y158167D01*
X5494D01*
X-15739Y154833D02*
X5595D01*
X-15739Y148167D02*
X5494D01*
X-15739Y144833D02*
X5494D01*
X-17405Y136500D02*
X-15739Y134833D01*
X-17405Y126500D02*
X-15739Y128167D01*
X-17405Y126500D02*
X-15739Y124833D01*
X-17405Y136500D02*
X-15739Y138167D01*
X5494D01*
X-15739Y134833D02*
X5595D01*
X-15739Y128167D02*
X5494D01*
X-15739Y124833D02*
X5494D01*
X95390Y171700D02*
Y178800D01*
X89944D02*
X95390D01*
X89944Y171700D02*
X95390D01*
X81610D02*
X86893D01*
X81610D02*
Y178800D01*
X86893D01*
X110890Y171700D02*
Y178800D01*
X105444D02*
X110890D01*
X105444Y171700D02*
X110890D01*
X97110D02*
X102393D01*
X97110D02*
Y178800D01*
X102393D01*
X126472Y204701D02*
Y236984D01*
X85528Y204701D02*
Y236984D01*
Y204701D02*
X91039D01*
Y195252D02*
Y204701D01*
X94189Y195252D02*
Y204701D01*
X97732D01*
Y195252D02*
Y204701D01*
X100882Y195252D02*
Y204701D01*
X104425D01*
Y195252D02*
Y204701D01*
X107575Y195252D02*
Y204701D01*
X111118D01*
Y195252D02*
Y204701D01*
X114268Y195252D02*
Y204701D01*
X117811D01*
Y195252D02*
Y204701D01*
X120961Y195252D02*
Y204701D01*
X126472D01*
X86532Y156398D02*
X90469D01*
X86532Y168602D02*
X90469D01*
Y156398D02*
Y168602D01*
X86532Y156398D02*
Y168602D01*
X36831Y187386D02*
X78169D01*
X36831Y160614D02*
X78169D01*
Y187386D01*
X36831Y160614D02*
Y187386D01*
X254500Y127000D02*
Y132293D01*
Y135344D02*
Y140800D01*
X247500Y135344D02*
Y140800D01*
Y127000D02*
Y132293D01*
Y140800D02*
X254500D01*
X247500Y127000D02*
X254500D01*
X264500Y164500D02*
X266600D01*
X264500D02*
Y185500D01*
X271400Y173600D02*
Y176400D01*
X265700Y173600D02*
Y176400D01*
X264500Y185500D02*
X272500D01*
Y164500D02*
Y185500D01*
X266600Y164500D02*
X272500D01*
X266000Y127000D02*
X268100D01*
X266000D02*
Y148000D01*
X272900Y136100D02*
Y138900D01*
X267200Y136100D02*
Y138900D01*
X266000Y148000D02*
X274000D01*
Y127000D02*
Y148000D01*
X268100Y127000D02*
X274000D01*
X281900Y148000D02*
X284000D01*
Y127000D02*
Y148000D01*
X277100Y136100D02*
Y138900D01*
X282800Y136100D02*
Y138900D01*
X276000Y127000D02*
X284000D01*
X276000D02*
Y148000D01*
X281900D01*
D16*
X1378Y85736D02*
X23898D01*
X1378D02*
Y115264D01*
X23898D01*
Y85736D02*
Y115264D01*
X1378Y43236D02*
X23898D01*
X1378D02*
Y82764D01*
X23898D01*
Y43236D02*
Y82764D01*
X1378Y1236D02*
X23898D01*
X1378D02*
Y40764D01*
X23898D01*
Y1236D02*
Y40764D01*
X26878Y12736D02*
X49398D01*
X26878D02*
Y82264D01*
X49398D01*
Y12736D02*
Y82264D01*
D17*
X262500Y167000D02*
Y181000D01*
X237500D02*
X262500D01*
X237500Y167000D02*
Y181000D01*
Y167000D02*
X262500D01*
D18*
X283500Y186500D02*
X284000D01*
X283500Y177500D02*
Y186500D01*
Y177500D02*
X284000D01*
X290000Y186500D02*
X290500D01*
Y177500D02*
Y186500D01*
X290000Y177500D02*
X290500D01*
D19*
X199449Y152250D02*
X197450Y150251D01*
Y152250D02*
X199449Y150251D01*
X198450Y152250D02*
Y150251D01*
X197450Y151250D02*
X199449D01*
X36175Y128140D02*
X38175Y126141D01*
X36175D02*
X38175Y128140D01*
X36175Y127140D02*
X38175D01*
X37175Y126141D02*
Y128140D01*
X129799Y245000D02*
X128300D01*
X127800Y244500D01*
Y243001D01*
X129799D01*
D20*
X164700Y76943D02*
D03*
X199200D02*
D03*
X232700D02*
D03*
D21*
X154000Y187201D02*
D03*
M02*
